<svg width="15" height="15" viewBox="0 0 15 15" fill="none" xmlns="http://www.w3.org/2000/svg">
<path d="M7.50005 0C4.44464 0 1.95898 2.48566 1.95898 5.54107C1.95898 6.54694 2.41009 7.62875 2.429 7.67438C2.57469 8.02021 2.86218 8.55737 3.06948 8.87223L6.86869 14.6287C7.02417 14.8647 7.25429 15 7.50005 15C7.74581 15 7.97593 14.8647 8.1314 14.6291L11.9309 8.87223C12.1386 8.55737 12.4257 8.02021 12.5714 7.67438C12.5903 7.62907 13.0411 6.54726 13.0411 5.54107C13.0411 2.48566 10.5555 0 7.50005 0ZM11.9704 7.42145C11.8403 7.73142 11.5727 8.23109 11.3866 8.51336L7.58708 14.2702C7.51211 14.384 7.48831 14.384 7.41335 14.2702L3.61381 8.51336C3.42769 8.23109 3.16009 7.73109 3.03004 7.42112C3.0245 7.40776 2.61087 6.41199 2.61087 5.54107C2.61087 2.84518 4.80416 0.65189 7.50005 0.65189C10.1959 0.65189 12.3892 2.84518 12.3892 5.54107C12.3892 6.4133 11.9746 7.41167 11.9704 7.42145Z" fill="white"/>
<path d="M7.49992 2.60791C5.88225 2.60791 4.56641 3.92408 4.56641 5.54142C4.56641 7.15876 5.88225 8.47493 7.49992 8.47493C9.11758 8.47493 10.4334 7.15876 10.4334 5.54142C10.4334 3.92408 9.11758 2.60791 7.49992 2.60791ZM7.49992 7.82304C6.24209 7.82304 5.2183 6.79957 5.2183 5.54142C5.2183 4.28327 6.24209 3.2598 7.49992 3.2598C8.75774 3.2598 9.78154 4.28327 9.78154 5.54142C9.78154 6.79957 8.75774 7.82304 7.49992 7.82304Z" fill="white"/>
</svg>
