<svg width="28" height="36" viewBox="0 0 28 36" fill="none" xmlns="http://www.w3.org/2000/svg">
<path d="M12.3922 33.9082L12.3921 33.9082L12.3967 33.9142C12.4517 33.9859 12.5139 34.032 12.543 34.052C13.2442 34.7663 14.2554 34.5595 14.7424 33.9101L14.7425 33.91C16.0807 32.1244 17.9757 29.5651 19.7707 27.1393C19.9144 26.945 20.0575 26.7516 20.1996 26.5595C21.8331 24.3518 23.3372 22.3191 24.2029 21.1644L24.2427 21.1114L24.2456 21.104C25.8101 18.8924 26.6367 16.2866 26.6367 13.5684C26.6367 6.36222 20.7745 0.5 13.5684 0.5C6.36222 0.5 0.5 6.36222 0.5 13.5684C0.5 16.4181 1.4008 19.1291 3.10663 21.4021C3.10687 21.4025 3.1071 21.4028 3.10734 21.4031L12.3922 33.9082ZM13.5684 19.8488C10.1133 19.8488 7.28789 17.0234 7.28789 13.5684C7.28789 10.1133 10.1133 7.28789 13.5684 7.28789C17.0234 7.28789 19.8488 10.1133 19.8488 13.5684C19.8488 17.0234 17.0234 19.8488 13.5684 19.8488Z" stroke="#7B6858"/>
</svg>
