<svg width="66" height="66" viewBox="0 0 66 66" fill="none" xmlns="http://www.w3.org/2000/svg">
<path d="M44 4.4H46.2V6.6H44V4.4Z" fill="#705D4D"/>
<path d="M32.6511 10.0133L34.2067 8.45766L35.7624 10.0133L34.2067 11.5689L32.6511 10.0133Z" fill="#705D4D"/>
<path d="M59.345 40.0774L48.9159 46.0999C48.3884 45.5805 47.7367 45.2048 47.0228 45.0087L32.0386 40.9937C31.2534 40.7841 30.4316 40.7503 29.6318 40.8947L19.8 42.68V40.7C19.8 40.4083 19.6841 40.1285 19.4778 39.9222C19.2715 39.7159 18.9917 39.6 18.7 39.6H7.7C7.40826 39.6 7.12847 39.7159 6.92218 39.9222C6.71589 40.1285 6.6 40.4083 6.6 40.7V41.8H1.1C0.808262 41.8 0.528473 41.9159 0.322183 42.1222C0.115892 42.3285 0 42.6083 0 42.9V62.7C0 62.9917 0.115892 63.2715 0.322183 63.4778C0.528473 63.6841 0.808262 63.8 1.1 63.8H6.6V64.9C6.6 65.1917 6.71589 65.4715 6.92218 65.6778C7.12847 65.8841 7.40826 66 7.7 66H18.7C18.9917 66 19.2715 65.8841 19.4778 65.6778C19.6841 65.4715 19.8 65.1917 19.8 64.9V61.7287L36.8214 63.6207C38.0803 63.759 39.3485 63.4599 40.4129 62.7737L63.745 47.7037C64.4171 47.3206 64.9751 46.7656 65.3617 46.0956C65.7483 45.4255 65.9497 44.6647 65.945 43.8911C65.9454 43.1186 65.7423 42.3595 65.3563 41.6904C64.9703 41.0212 64.4148 40.4654 63.7459 40.079C63.077 39.6926 62.3181 39.4891 61.5455 39.489C60.773 39.4889 60.014 39.6922 59.345 40.0785V40.0774ZM2.2 61.6V44H6.6V61.6H2.2ZM17.6 63.8H8.8V41.8H17.6V63.8ZM62.5977 45.826L39.2183 60.9257C38.5792 61.3364 37.8187 61.5158 37.0634 61.4339L19.8 59.5155V44.9185L30.03 43.0595C30.5094 42.9715 31.0024 42.9914 31.4732 43.1178L46.4574 47.1328C47.021 47.2839 47.5016 47.6528 47.7933 48.1582C48.0849 48.6636 48.1639 49.2642 48.0128 49.8278C47.8617 50.3914 47.4928 50.872 46.9874 51.1637C46.482 51.4553 45.8814 51.5343 45.3178 51.3832L34.3849 48.455C34.244 48.4131 34.0962 48.3999 33.9502 48.416C33.8041 48.4322 33.6628 48.4775 33.5345 48.5492C33.4062 48.621 33.2936 48.7176 33.2034 48.8336C33.1131 48.9495 33.047 49.0824 33.0089 49.2244C32.9708 49.3663 32.9616 49.5144 32.9817 49.66C33.0018 49.8056 33.0509 49.9456 33.126 50.0719C33.2012 50.1982 33.3009 50.3081 33.4192 50.3952C33.5376 50.4824 33.6722 50.5449 33.8151 50.5791L44.7447 53.5084C45.3029 53.6581 45.8852 53.6964 46.4582 53.621C47.0313 53.5456 47.5838 53.3581 48.0844 53.0691C48.5849 52.7801 49.0236 52.3953 49.3754 51.9368C49.7272 51.4782 49.9852 50.9548 50.1347 50.3965C50.3459 49.5986 50.3264 48.7572 50.0786 47.9699L60.4406 41.9859C60.6927 41.8442 60.9703 41.7535 61.2575 41.7191C61.5447 41.6847 61.8358 41.7071 62.1143 41.7852C62.3928 41.8633 62.6532 41.9955 62.8806 42.1742C63.1081 42.3529 63.298 42.5747 63.4398 42.8269C63.5815 43.079 63.6721 43.3566 63.7065 43.6438C63.741 43.9309 63.7185 44.2221 63.6404 44.5006C63.5623 44.7791 63.4302 45.0395 63.2514 45.2669C63.0727 45.4943 62.8509 45.6843 62.5988 45.826H62.5977Z" fill="#705D4D"/>
<path d="M64.9 15.4H59.4869C59.3879 15.1415 59.2812 14.8819 59.1635 14.619L62.9937 10.7877C63.1999 10.5814 63.3158 10.3017 63.3158 10.01C63.3158 9.71832 63.1999 9.43858 62.9937 9.2323L56.7677 3.0063C56.5614 2.80008 56.2817 2.68424 55.99 2.68424C55.6983 2.68424 55.4186 2.80008 55.2123 3.0063L51.3821 6.8365C51.1192 6.7188 50.8585 6.6165 50.6 6.5131V1.1C50.6 0.808262 50.4841 0.528473 50.2778 0.322183C50.0715 0.115892 49.7917 0 49.5 0H40.7C40.4083 0 40.1285 0.115892 39.9222 0.322183C39.7159 0.528473 39.6 0.808262 39.6 1.1V6.5131C39.3415 6.6121 39.0808 6.7188 38.8179 6.8365L34.9877 3.0063C34.7814 2.80008 34.5017 2.68424 34.21 2.68424C33.9183 2.68424 33.6386 2.80008 33.4323 3.0063L27.2063 9.2323C27.0001 9.43858 26.8842 9.71832 26.8842 10.01C26.8842 10.3017 27.0001 10.5814 27.2063 10.7877L31.0365 14.6179C30.9188 14.8808 30.8165 15.1415 30.7131 15.4H25.3C25.0083 15.4 24.7285 15.5159 24.5222 15.7222C24.3159 15.9285 24.2 16.2083 24.2 16.5V25.3C24.2 25.5917 24.3159 25.8715 24.5222 26.0778C24.7285 26.2841 25.0083 26.4 25.3 26.4H30.7131C30.8121 26.6585 30.9188 26.9192 31.0365 27.1821L27.2063 31.0123C27.0001 31.2186 26.8842 31.4983 26.8842 31.79C26.8842 32.0817 27.0001 32.3614 27.2063 32.5677L33.4323 38.7937C33.6386 38.9999 33.9183 39.1158 34.21 39.1158C34.5017 39.1158 34.7814 38.9999 34.9877 38.7937L38.8179 34.9635C39.0808 35.0812 39.3415 35.1835 39.6 35.2869V40.7C39.6 40.9917 39.7159 41.2715 39.9222 41.4778C40.1285 41.6841 40.4083 41.8 40.7 41.8H49.5C49.7917 41.8 50.0715 41.6841 50.2778 41.4778C50.4841 41.2715 50.6 40.9917 50.6 40.7V35.2869C50.8585 35.1879 51.1192 35.0812 51.3821 34.9635L55.2123 38.7937C55.4225 38.9924 55.7007 39.1032 55.99 39.1032C56.2793 39.1032 56.5575 38.9924 56.7677 38.7937L62.9937 32.5677C63.1999 32.3614 63.3158 32.0817 63.3158 31.79C63.3158 31.4983 63.1999 31.2186 62.9937 31.0123L59.1635 27.181C59.2812 26.9181 59.3835 26.6585 59.4869 26.4H64.9C65.1917 26.4 65.4715 26.2841 65.6778 26.0778C65.8841 25.8715 66 25.5917 66 25.3V16.5C66 16.2083 65.8841 15.9285 65.6778 15.7222C65.4715 15.5159 65.1917 15.4 64.9 15.4ZM63.8 24.2H58.707C58.4731 24.2002 58.2454 24.275 58.0569 24.4135C57.8683 24.5519 57.7289 24.7469 57.6587 24.97C57.4419 25.6411 57.173 26.2943 56.8546 26.9236C56.7514 27.13 56.7157 27.3637 56.7526 27.5915C56.7896 27.8193 56.8972 28.0297 57.0603 28.193L60.6606 31.79L55.99 36.4606L52.3897 32.8603C52.2264 32.6972 52.016 32.5896 51.7882 32.5526C51.5604 32.5157 51.3267 32.5514 51.1203 32.6546C50.491 32.973 49.8378 33.2419 49.1667 33.4587C48.9436 33.5289 48.7486 33.6683 48.6102 33.8568C48.4717 34.0454 48.3969 34.2731 48.3967 34.507V39.6H41.8V34.507C41.7998 34.2731 41.725 34.0454 41.5865 33.8568C41.4481 33.6683 41.2531 33.5289 41.03 33.4587C40.3589 33.2419 39.7057 32.973 39.0764 32.6546C38.87 32.5514 38.6363 32.5157 38.4085 32.5526C38.1807 32.5896 37.9703 32.6972 37.807 32.8603L34.21 36.4606L29.5394 31.79L33.1397 28.1897C33.3028 28.0264 33.4104 27.816 33.4474 27.5882C33.4843 27.3604 33.4486 27.1267 33.3454 26.9203C33.027 26.291 32.7581 25.6378 32.5413 24.9667C32.4711 24.7436 32.3317 24.5486 32.1432 24.4102C31.9546 24.2717 31.7269 24.1969 31.493 24.1967H26.4V17.6H31.493C31.7269 17.5998 31.9546 17.525 32.1432 17.3865C32.3317 17.2481 32.4711 17.0531 32.5413 16.83C32.7581 16.1589 33.027 15.5057 33.3454 14.8764C33.4486 14.67 33.4843 14.4363 33.4474 14.2085C33.4104 13.9807 33.3028 13.7703 33.1397 13.607L29.5394 10.01L34.21 5.3394L37.8103 8.9397C37.9736 9.10282 38.184 9.21045 38.4118 9.24737C38.6396 9.28428 38.8733 9.24861 39.0797 9.1454C39.7079 8.82711 40.36 8.55826 41.03 8.3413C41.2531 8.27113 41.4481 8.13166 41.5865 7.94315C41.725 7.75464 41.7998 7.5269 41.8 7.293V2.2H48.4V7.293C48.4002 7.5269 48.475 7.75464 48.6135 7.94315C48.7519 8.13166 48.9469 8.27113 49.17 8.3413C49.8411 8.5581 50.4943 8.82695 51.1236 9.1454C51.33 9.24861 51.5637 9.28428 51.7915 9.24737C52.0193 9.21045 52.2297 9.10282 52.393 8.9397L55.99 5.3394L60.6606 10.01L57.0603 13.6103C56.8972 13.7736 56.7896 13.984 56.7526 14.2118C56.7157 14.4396 56.7514 14.6733 56.8546 14.8797C57.173 15.509 57.4419 16.1622 57.6587 16.8333C57.7289 17.0564 57.8683 17.2514 58.0569 17.3898C58.2454 17.5283 58.4731 17.6031 58.707 17.6033H63.8V24.2Z" fill="#705D4D"/>
<path d="M45.1 12.1C43.3595 12.1 41.6581 12.6161 40.211 13.5831C38.7638 14.55 37.6359 15.9244 36.9699 17.5324C36.3038 19.1404 36.1295 20.9098 36.4691 22.6168C36.8086 24.3238 37.6468 25.8918 38.8775 27.1225C40.1082 28.3532 41.6762 29.1914 43.3832 29.5309C45.0902 29.8705 46.8596 29.6962 48.4676 29.0301C50.0756 28.3641 51.45 27.2362 52.4169 25.789C53.3839 24.3419 53.9 22.6405 53.9 20.9C53.8974 18.5669 52.9694 16.3301 51.3196 14.6804C49.6699 13.0306 47.4331 12.1026 45.1 12.1ZM45.1 27.5C43.7946 27.5 42.5186 27.1129 41.4332 26.3877C40.3479 25.6625 39.5019 24.6317 39.0024 23.4257C38.5029 22.2197 38.3722 20.8927 38.6268 19.6124C38.8815 18.3321 39.5101 17.1561 40.4331 16.2331C41.3561 15.3101 42.5321 14.6815 43.8124 14.4268C45.0927 14.1722 46.4197 14.3029 47.6257 14.8024C48.8317 15.3019 49.8625 16.1479 50.5877 17.2332C51.3129 18.3186 51.7 19.5946 51.7 20.9C51.6983 22.6499 51.0023 24.3276 49.765 25.565C48.5276 26.8023 46.8499 27.4983 45.1 27.5Z" fill="#705D4D"/>
<path d="M13.2 62.7C13.8527 62.7 14.4907 62.5065 15.0334 62.1438C15.5761 61.7812 15.999 61.2658 16.2488 60.6629C16.4986 60.0599 16.5639 59.3963 16.4366 58.7562C16.3093 58.1161 15.995 57.5281 15.5335 57.0666C15.0719 56.605 14.4839 56.2907 13.8438 56.1634C13.2037 56.0361 12.5401 56.1014 11.9371 56.3512C11.3341 56.601 10.8188 57.0239 10.4562 57.5666C10.0935 58.1093 9.9 58.7473 9.9 59.4C9.9 60.2752 10.2477 61.1146 10.8665 61.7335C11.4854 62.3523 12.3248 62.7 13.2 62.7ZM13.2 58.3C13.4176 58.3 13.6302 58.3645 13.8111 58.4854C13.992 58.6063 14.133 58.7781 14.2163 58.979C14.2995 59.18 14.3213 59.4012 14.2789 59.6146C14.2364 59.828 14.1317 60.024 13.9778 60.1778C13.824 60.3317 13.628 60.4364 13.4146 60.4789C13.2012 60.5213 12.98 60.4995 12.779 60.4163C12.578 60.333 12.4063 60.192 12.2854 60.0111C12.1645 59.8302 12.1 59.6176 12.1 59.4C12.1 59.1083 12.2159 58.8285 12.4222 58.6222C12.6285 58.4159 12.9083 58.3 13.2 58.3Z" fill="#705D4D"/>
<path d="M28.6 19.8H30.8V22H28.6V19.8Z" fill="#705D4D"/>
<path d="M32.6488 31.7899L34.2044 30.2342L35.7601 31.7899L34.2044 33.3455L32.6488 31.7899Z" fill="#705D4D"/>
<path d="M44 35.2H46.2V37.4H44V35.2Z" fill="#705D4D"/>
<path d="M54.4254 31.7922L55.981 30.2366L57.5366 31.7922L55.981 33.3478L54.4254 31.7922Z" fill="#705D4D"/>
<path d="M59.4 19.8H61.6V22H59.4V19.8Z" fill="#705D4D"/>
<path d="M54.4277 10.0156L55.9833 8.45998L57.539 10.0156L55.9833 11.5713L54.4277 10.0156Z" fill="#705D4D"/>
</svg>
