<svg width="66" height="66" viewBox="0 0 66 66" fill="none" xmlns="http://www.w3.org/2000/svg">
<path d="M64.9 14.3H40.7C40.0925 14.3 39.6 14.7925 39.6 15.4V41.8H34.1V40.7H35.2C35.8075 40.7 36.3 40.2075 36.3 39.6C36.3 38.9925 35.8075 38.5 35.2 38.5H24.2C23.5925 38.5 23.1 38.9925 23.1 39.6C23.1 40.2075 23.5925 40.7 24.2 40.7H25.3V41.8H14.3V40.7H15.4C16.0075 40.7 16.5 40.2075 16.5 39.6C16.5 38.9925 16.0075 38.5 15.4 38.5H4.4C3.79252 38.5 3.3 38.9925 3.3 39.6C3.3 40.2075 3.79252 40.7 4.4 40.7H5.5V41.8H1.1C0.492525 41.8 0 42.2925 0 42.9V64.9C0 65.5075 0.492525 66 1.1 66H64.9C65.5075 66 66 65.5075 66 64.9V15.4C66 14.7925 65.5075 14.3 64.9 14.3ZM27.5 40.7H31.9V41.8H27.5V40.7ZM7.7 40.7H12.1V41.8H7.7V40.7ZM17.6 63.8H2.2V50.6H17.6V63.8ZM17.6 48.4H2.2V44H17.6V48.4ZM39.6 63.8H19.8V44H39.6V63.8ZM63.8 63.8H41.8V34.1H63.8V63.8ZM63.8 31.9H41.8V16.5H63.8V31.9Z" fill="#705D4D"/>
<path d="M23.1 61.6H36.3C36.9075 61.6 37.4 61.1075 37.4 60.5V47.3C37.4 46.6925 36.9075 46.2 36.3 46.2H23.1C22.4925 46.2 22 46.6925 22 47.3V60.5C22 61.1075 22.4925 61.6 23.1 61.6ZM24.2 48.4H35.2V59.4H24.2V48.4Z" fill="#705D4D"/>
<path d="M44 30.8C44.6075 30.8 45.1 30.3075 45.1 29.7V25.3C45.1 24.6925 44.6075 24.2 44 24.2C43.3925 24.2 42.9 24.6925 42.9 25.3V29.7C42.9 30.3075 43.3925 30.8 44 30.8Z" fill="#705D4D"/>
<path d="M44 41.8C44.6075 41.8 45.1 41.3075 45.1 40.7V36.3C45.1 35.6925 44.6075 35.2 44 35.2C43.3925 35.2 42.9 35.6925 42.9 36.3V40.7C42.9 41.3075 43.3925 41.8 44 41.8Z" fill="#705D4D"/>
<path d="M2.59325 19.5443C2.79152 19.7098 3.04164 19.8003 3.3 19.8H36.3C36.9075 19.8008 37.4007 19.3091 37.4016 18.7016C37.4021 18.4434 37.3115 18.1932 37.1459 17.9949L26.1459 4.7949C25.9365 4.54424 25.6266 4.39959 25.3 4.4H24.2V1.1C24.2 0.492525 23.7075 0 23.1 0H16.5C15.8925 0 15.4 0.492525 15.4 1.1V4.4H14.3C13.9734 4.39959 13.6635 4.54424 13.4541 4.7949L2.4541 17.9949C2.0647 18.4612 2.12699 19.1549 2.59325 19.5443ZM17.6 2.2H22V4.4H17.6V2.2ZM14.8159 6.6H24.7841L33.9515 17.6H5.6485L14.8159 6.6Z" fill="#705D4D"/>
</svg>
