<svg width="66" height="66" viewBox="0 0 66 66" fill="none" xmlns="http://www.w3.org/2000/svg">
<path d="M58.4262 41.2287V10.8197C58.4262 7.83686 55.9992 5.40984 53.0164 5.40984H50.8525V3.2459C50.8525 1.456 49.3965 0 47.6066 0C45.8167 0 44.3607 1.456 44.3607 3.2459V5.40984H38.9508V3.2459C38.9508 1.456 37.4948 0 35.7049 0C33.915 0 32.459 1.456 32.459 3.2459V5.40984H25.9672V3.2459C25.9672 1.456 24.5112 0 22.7213 0C20.9314 0 19.4754 1.456 19.4754 3.2459V5.40984H14.0656V3.2459C14.0656 1.456 12.6096 0 10.8197 0C9.02977 0 7.57377 1.456 7.57377 3.2459V5.40984H5.40984C2.42703 5.40984 0 7.83686 0 10.8197V54.0984C0 57.0812 2.42703 59.5082 5.40984 59.5082H41.7893C44.0384 63.3825 48.2229 66 53.0164 66C60.176 66 66 60.176 66 53.0164C66 47.789 62.8887 43.2851 58.4262 41.2287ZM46.5246 3.2459C46.5246 2.64892 47.0096 2.16393 47.6066 2.16393C48.2035 2.16393 48.6885 2.64892 48.6885 3.2459V9.73771C48.6885 10.3347 48.2035 10.8197 47.6066 10.8197C47.0096 10.8197 46.5246 10.3347 46.5246 9.73771V3.2459ZM34.623 3.2459C34.623 2.64892 35.1079 2.16393 35.7049 2.16393C36.3019 2.16393 36.7869 2.64892 36.7869 3.2459V9.73771C36.7869 10.3347 36.3019 10.8197 35.7049 10.8197C35.1079 10.8197 34.623 10.3347 34.623 9.73771V3.2459ZM21.6393 3.2459C21.6393 2.64892 22.1243 2.16393 22.7213 2.16393C23.3183 2.16393 23.8033 2.64892 23.8033 3.2459V9.73771C23.8033 10.3347 23.3183 10.8197 22.7213 10.8197C22.1243 10.8197 21.6393 10.3347 21.6393 9.73771V3.2459ZM9.73771 3.2459C9.73771 2.64892 10.2227 2.16393 10.8197 2.16393C11.4167 2.16393 11.9016 2.64892 11.9016 3.2459V9.73771C11.9016 10.3347 11.4167 10.8197 10.8197 10.8197C10.2227 10.8197 9.73771 10.3347 9.73771 9.73771V3.2459ZM5.40984 7.57377H7.57377V9.73771C7.57377 11.5276 9.02977 12.9836 10.8197 12.9836C12.6096 12.9836 14.0656 11.5276 14.0656 9.73771V7.57377H19.4754V9.73771C19.4754 11.5276 20.9314 12.9836 22.7213 12.9836C24.5112 12.9836 25.9672 11.5276 25.9672 9.73771V7.57377H32.459V9.73771C32.459 11.5276 33.915 12.9836 35.7049 12.9836C37.4948 12.9836 38.9508 11.5276 38.9508 9.73771V7.57377H44.3607V9.73771C44.3607 11.5276 45.8167 12.9836 47.6066 12.9836C49.3965 12.9836 50.8525 11.5276 50.8525 9.73771V7.57377H53.0164C54.8063 7.57377 56.2623 9.02977 56.2623 10.8197V16.2295H2.16393V10.8197C2.16393 9.02977 3.61994 7.57377 5.40984 7.57377ZM5.40984 57.3443C3.61994 57.3443 2.16393 55.8883 2.16393 54.0984V18.3934H56.2623V40.46C55.2227 40.1909 54.139 40.0328 53.0164 40.0328C52.2776 40.0328 51.5578 40.1091 50.8525 40.2282V34.623C50.8525 34.0249 50.3685 33.541 49.7705 33.541H43.2787C42.6807 33.541 42.1967 34.0249 42.1967 34.623V41.1148C42.1967 41.7128 42.6807 42.1967 43.2787 42.1967H45.8547C42.3501 44.5241 40.0328 48.5029 40.0328 53.0164C40.0328 54.5356 40.3086 55.9882 40.7902 57.3443H5.40984ZM48.6885 40.0328H44.3607V35.7049H48.6885V40.0328ZM53.0164 63.8361C47.0508 63.8361 42.1967 58.982 42.1967 53.0164C42.1967 47.0508 47.0508 42.1967 53.0164 42.1967C58.982 42.1967 63.8361 47.0508 63.8361 53.0164C63.8361 58.982 58.982 63.8361 53.0164 63.8361Z" fill="#726050"/>
<path d="M54.0984 51.1526V44.3607H51.9344V51.1526C51.2904 51.5274 50.8525 52.2174 50.8525 53.0164C50.8525 53.126 50.869 53.231 50.8847 53.3361L46.9303 56.499L48.2828 58.1895L52.2337 55.0288C52.4771 55.1235 52.7396 55.1803 53.0164 55.1803C54.2115 55.1803 55.1803 54.2115 55.1803 53.0164C55.1803 52.2174 54.7424 51.5274 54.0984 51.1526Z" fill="#726050"/>
<path d="M14.0656 21.6393H7.57377C6.97573 21.6393 6.4918 22.1233 6.4918 22.7213V29.2131C6.4918 29.8112 6.97573 30.2951 7.57377 30.2951H14.0656C14.6636 30.2951 15.1475 29.8112 15.1475 29.2131V22.7213C15.1475 22.1233 14.6636 21.6393 14.0656 21.6393ZM12.9836 28.1311H8.65574V23.8033H12.9836V28.1311Z" fill="#726050"/>
<path d="M25.9672 21.6393H19.4754C18.8774 21.6393 18.3934 22.1233 18.3934 22.7213V29.2131C18.3934 29.8112 18.8774 30.2951 19.4754 30.2951H25.9672C26.5652 30.2951 27.0492 29.8112 27.0492 29.2131V22.7213C27.0492 22.1233 26.5652 21.6393 25.9672 21.6393ZM24.8852 28.1311H20.5574V23.8033H24.8852V28.1311Z" fill="#726050"/>
<path d="M37.8689 21.6393H31.3771C30.779 21.6393 30.2951 22.1233 30.2951 22.7213V29.2131C30.2951 29.8112 30.779 30.2951 31.3771 30.2951H37.8689C38.4669 30.2951 38.9508 29.8112 38.9508 29.2131V22.7213C38.9508 22.1233 38.4669 21.6393 37.8689 21.6393ZM36.7869 28.1311H32.459V23.8033H36.7869V28.1311Z" fill="#726050"/>
<path d="M43.2787 30.2951H49.7705C50.3685 30.2951 50.8525 29.8112 50.8525 29.2131V22.7213C50.8525 22.1233 50.3685 21.6393 49.7705 21.6393H43.2787C42.6807 21.6393 42.1967 22.1233 42.1967 22.7213V29.2131C42.1967 29.8112 42.6807 30.2951 43.2787 30.2951ZM44.3607 23.8033H48.6885V28.1311H44.3607V23.8033Z" fill="#726050"/>
<path d="M14.0656 33.541H7.57377C6.97573 33.541 6.4918 34.0249 6.4918 34.623V41.1148C6.4918 41.7128 6.97573 42.1967 7.57377 42.1967H14.0656C14.6636 42.1967 15.1475 41.7128 15.1475 41.1148V34.623C15.1475 34.0249 14.6636 33.541 14.0656 33.541ZM12.9836 40.0328H8.65574V35.7049H12.9836V40.0328Z" fill="#726050"/>
<path d="M25.9672 33.541H19.4754C18.8774 33.541 18.3934 34.0249 18.3934 34.623V41.1148C18.3934 41.7128 18.8774 42.1967 19.4754 42.1967H25.9672C26.5652 42.1967 27.0492 41.7128 27.0492 41.1148V34.623C27.0492 34.0249 26.5652 33.541 25.9672 33.541ZM24.8852 40.0328H20.5574V35.7049H24.8852V40.0328Z" fill="#726050"/>
<path d="M37.8689 33.541H31.3771C30.779 33.541 30.2951 34.0249 30.2951 34.623V41.1148C30.2951 41.7128 30.779 42.1967 31.3771 42.1967H37.8689C38.4669 42.1967 38.9508 41.7128 38.9508 41.1148V34.623C38.9508 34.0249 38.4669 33.541 37.8689 33.541ZM36.7869 40.0328H32.459V35.7049H36.7869V40.0328Z" fill="#726050"/>
<path d="M14.0656 45.4426H7.57377C6.97573 45.4426 6.4918 45.9266 6.4918 46.5246V53.0164C6.4918 53.6144 6.97573 54.0984 7.57377 54.0984H14.0656C14.6636 54.0984 15.1475 53.6144 15.1475 53.0164V46.5246C15.1475 45.9266 14.6636 45.4426 14.0656 45.4426ZM12.9836 51.9344H8.65574V47.6066H12.9836V51.9344Z" fill="#726050"/>
<path d="M25.9672 45.4426H19.4754C18.8774 45.4426 18.3934 45.9266 18.3934 46.5246V53.0164C18.3934 53.6144 18.8774 54.0984 19.4754 54.0984H25.9672C26.5652 54.0984 27.0492 53.6144 27.0492 53.0164V46.5246C27.0492 45.9266 26.5652 45.4426 25.9672 45.4426ZM24.8852 51.9344H20.5574V47.6066H24.8852V51.9344Z" fill="#726050"/>
<path d="M37.8689 45.4426H31.3771C30.779 45.4426 30.2951 45.9266 30.2951 46.5246V53.0164C30.2951 53.6144 30.779 54.0984 31.3771 54.0984H37.8689C38.4669 54.0984 38.9508 53.6144 38.9508 53.0164V46.5246C38.9508 45.9266 38.4669 45.4426 37.8689 45.4426ZM36.7869 51.9344H32.459V47.6066H36.7869V51.9344Z" fill="#726050"/>
</svg>
