<svg width="66" height="67" viewBox="0 0 66 67" fill="none" xmlns="http://www.w3.org/2000/svg">
<path d="M66 33.0163C66 32.5357 65.7325 32.0948 65.306 31.8728L52.8713 25.4028L65.306 18.9327C65.7325 18.7107 66 18.2699 66 17.7892C66 17.3085 65.7325 16.8676 65.306 16.6456L54.5957 11.0728C53.9636 10.7442 53.1857 10.9897 52.8571 11.6213C52.5285 12.2528 52.774 13.0312 53.4056 13.3598L61.9182 17.789L33 32.8359L4.08182 17.789L33 2.74219L43.1149 8.00518C43.7469 8.33376 44.5249 8.08806 44.8534 7.45668C45.182 6.82517 44.9365 6.0467 44.305 5.71812L33.595 0.145503C33.2218 -0.048501 32.778 -0.048501 32.405 0.145503L0.694031 16.6455C0.26748 16.8674 0 17.3082 0 17.789C0 18.2699 0.26748 18.7106 0.694031 18.9326L13.1287 25.4026L0.694031 31.8728C0.26748 32.0948 0 32.5357 0 33.0163C0 33.497 0.26748 33.9379 0.694031 34.1599L13.1287 40.6299L0.694031 47.1001C0.26748 47.3221 0 47.763 0 48.2436C0 48.7243 0.26748 49.1652 0.694031 49.3872L32.405 65.8872C32.5915 65.9841 32.7957 66.0327 33 66.0327C33.2043 66.0327 33.4085 65.9842 33.595 65.8872L65.306 49.3872C65.7325 49.1652 66 48.7243 66 48.2436C66 47.763 65.7325 47.3221 65.306 47.1001L52.8713 40.6299L65.306 34.1599C65.7325 33.9379 66 33.497 66 33.0163ZM33.595 35.4326L50.0784 26.8558L53.9216 28.8555L25.0494 43.9263L19.9058 41.25L31.7455 35.0895L32.4048 35.4326C32.5914 35.5295 32.7956 35.5781 32.9999 35.5781C33.2042 35.5781 33.4085 35.5295 33.595 35.4326ZM28.9527 33.6362L17.113 39.7967L11.9938 37.1331L23.8336 30.9727L28.9527 33.6362ZM15.9216 26.8558L21.0407 29.5195L9.20094 35.6799L4.08169 33.0162L15.9216 26.8558ZM61.9182 48.2436L33 63.2905L4.08182 48.2436L15.9216 42.0832L32.405 50.66C32.5915 50.7569 32.7957 50.8055 33 50.8055C33.2043 50.8055 33.4085 50.7571 33.595 50.66L50.0784 42.0832L61.9182 48.2436ZM33 48.0632L27.8395 45.3781L56.7118 30.3074L61.9182 33.0163L33 48.0632Z" fill="#705D4D"/>
<path d="M48.8555 10.8281C49.1945 10.8281 49.5271 10.6902 49.7667 10.4504C50.0065 10.2106 50.1445 9.87805 50.1445 9.53903C50.1445 9.20001 50.0066 8.86743 49.7667 8.62766C49.5271 8.3879 49.1945 8.24997 48.8555 8.24997C48.5164 8.24997 48.1839 8.3879 47.9441 8.62766C47.7043 8.86743 47.5664 9.20001 47.5664 9.53903C47.5664 9.87805 47.7042 10.2106 47.9441 10.4504C48.184 10.6902 48.5164 10.8281 48.8555 10.8281Z" fill="#705D4D"/>
</svg>
