<svg width="66" height="48" viewBox="0 0 66 48" fill="none" xmlns="http://www.w3.org/2000/svg">
<path d="M63.829 24.6684C62.4669 23.7786 60.7631 23.6379 59.2717 24.2923C56.9134 25.3269 54.2868 26.1905 51.4701 26.871V16.5829C51.4701 14.3388 48.9978 12.3945 44.3136 10.9471C44.3136 10.9471 44.3118 5.44848 44.3083 5.41548C44.1982 2.97838 40.1164 1.65129 36.6821 0.965895C36.2398 0.877594 35.7919 1.11272 35.6078 1.52509C35.3822 2.009 35.5917 2.58418 36.0757 2.80977C36.2111 2.87281 36.3523 2.90168 36.4931 2.90052C41.2919 3.88511 42.3799 5.14684 42.3799 5.5159C42.3799 5.83172 41.5834 6.85717 37.9464 7.79664C34.6967 8.63608 30.3597 9.09833 25.7348 9.09833C21.1099 9.09833 16.773 8.63608 13.5233 7.79664C9.88634 6.85717 9.08982 5.83172 9.08982 5.5159C9.08982 5.20008 9.88634 4.17463 13.5233 3.23516C16.773 2.39572 21.1099 1.93346 25.7348 1.93346C27.8345 1.93346 29.8881 2.0295 31.8383 2.21886C32.3696 2.27004 32.8423 1.88139 32.8939 1.35004C32.9455 0.818555 32.5566 0.345985 32.0251 0.294422C30.0131 0.0990005 27.8967 0 25.7348 0C20.9514 0 16.4428 0.484044 13.0396 1.36318C9.13571 2.37162 7.15623 3.76883 7.15623 5.51603V10.9476C2.47191 12.3947 0 14.3377 0 16.5829V32.6217C0 33.206 0.144117 33.7832 0.416625 34.2907C1.70053 36.6817 3.97921 38.8655 7.1891 40.7813C7.34443 40.874 7.51511 40.9181 7.68371 40.9181C8.01294 40.9181 8.33379 40.7498 8.51477 40.4467C8.78844 39.9881 8.63852 39.3947 8.18 39.121C7.58755 38.7674 7.0299 38.4013 6.50525 38.0258V29.7696C6.50525 29.2357 6.07252 28.8028 5.53846 28.8028C5.0044 28.8028 4.57166 29.2357 4.57166 29.7696V36.452C3.51334 35.4624 2.68473 34.4275 2.11999 33.3759C1.99818 33.1486 1.93359 32.8879 1.93359 32.6217V16.5829C1.93359 15.6464 3.33132 14.2456 7.15649 12.9775V14.9301C7.15649 16.6772 9.13584 18.0746 13.0399 19.0829C16.443 19.9619 20.9516 20.4461 25.7351 20.4461C30.5186 20.4461 35.0272 19.962 38.4303 19.0829C42.3342 18.0745 44.3137 16.6772 44.3137 14.9301V12.9776C48.1409 14.2468 49.5366 15.6493 49.5366 16.5829C49.5366 18.2169 45.8817 19.8005 42.752 20.6601C42.2372 20.8015 41.9344 21.3336 42.0758 21.8484C42.1937 22.2777 42.583 22.5595 43.0076 22.5595C43.0923 22.5595 43.1784 22.5483 43.2642 22.5247C46.0529 21.7587 48.1568 20.836 49.5366 19.7881V27.303C48.4724 27.522 47.3848 27.7157 46.2775 27.8837V26.1387C46.2775 25.6048 45.8447 25.1719 45.3107 25.1719C44.7766 25.1719 44.3439 25.6048 44.3439 26.1387V28.1485C42.722 28.3464 41.064 28.4894 39.381 28.5766V27.3955C39.381 26.8616 38.9482 26.4287 38.4142 26.4287C37.8801 26.4287 37.4474 26.8616 37.4474 27.3955V28.6514C36.8003 28.668 36.1506 28.6775 35.4982 28.6775C34.5321 28.6775 33.5699 28.6581 32.6134 28.6209V28.169C32.6134 27.6351 32.1807 27.2022 31.6466 27.2022C31.1126 27.2022 30.6798 27.6351 30.6798 28.169V28.5206C24.1489 28.0952 17.9793 26.8121 12.9399 24.8016C12.477 24.617 12.5301 24.2242 12.5744 24.064C12.6201 23.8992 12.7811 23.5249 13.2859 23.6063C17.061 24.2167 21.366 24.5394 25.7352 24.5394C30.4505 24.5394 35.0491 24.1671 39.0338 23.4626C39.5597 23.3697 39.9105 22.8681 39.8176 22.3423C39.7247 21.8165 39.2231 21.466 38.6973 21.5585C34.8218 22.2435 30.3396 22.6058 25.7352 22.6058C21.4675 22.6058 17.2693 22.2916 13.5945 21.6975C12.2574 21.4811 11.0721 22.2425 10.7109 23.5483C10.699 23.5918 10.6908 23.6351 10.6809 23.6784C9.23794 22.8467 7.43737 21.577 6.34 19.9506C6.04145 19.5078 5.44036 19.3912 4.99782 19.6899C4.55516 19.9886 4.4385 20.5896 4.7373 21.0321C7.10428 24.5403 11.9604 26.4938 12.2219 26.5968C12.2224 26.5971 12.2228 26.5974 12.2233 26.5975C18.7111 29.1857 26.977 30.611 35.4982 30.611C41.8711 30.611 48.0354 29.8259 53.4499 28.3583V42.9987C50.8226 43.7392 47.9919 44.3129 45.0232 44.704V36.981C45.0232 36.4471 44.5905 36.0142 44.0564 36.0142C43.5224 36.0142 43.0896 36.4471 43.0896 36.981V44.9308C40.6279 45.1847 38.0859 45.3169 35.4982 45.3169C35.4633 45.3169 35.4286 45.3163 35.3937 45.3163V37.3677C35.3937 36.8338 34.9609 36.4009 34.4269 36.4009C33.8928 36.4009 33.4601 36.8338 33.4601 37.3677V45.2881C30.8337 45.217 28.2542 45.0089 25.7644 44.6714V36.4727C25.7644 35.9388 25.3316 35.5059 24.7976 35.5059C24.2635 35.5059 23.8308 35.9388 23.8308 36.4727V44.3805C21.1205 43.931 18.5359 43.3242 16.1349 42.5714V34.2813C16.1349 33.7474 15.7022 33.3145 15.1681 33.3145C14.6341 33.3145 14.2013 33.7474 14.2013 34.2813V41.9188C13.4846 41.6589 12.7863 41.3859 12.1105 41.0983C11.6192 40.8895 11.0514 41.1181 10.8423 41.6094C10.6332 42.1008 10.862 42.6685 11.3534 42.8776C17.9813 45.6974 26.5561 47.2505 35.4982 47.2505C46.4846 47.2505 56.735 44.9325 63.6213 40.8909C65.0885 40.0295 66 38.4419 66 36.7476V28.6813C66 27.0567 65.1884 25.5566 63.829 24.6684ZM39.832 16.6324V14.582C39.832 14.0481 39.3993 13.6152 38.8652 13.6152C38.3312 13.6152 37.8984 14.0481 37.8984 14.582V17.2226C36.5266 17.5743 34.9627 17.8587 33.2668 18.0703V15.2861C33.2668 14.7522 32.8341 14.3193 32.3 14.3193C31.766 14.3193 31.3332 14.7522 31.3332 15.2861V18.2747C29.8535 18.4045 28.299 18.4828 26.7018 18.5053V15.166C26.7018 14.632 26.269 14.1992 25.735 14.1992C25.2009 14.1992 24.7682 14.632 24.7682 15.166V18.5053C23.1708 18.4828 21.6164 18.4045 20.1366 18.2747V14.6337C20.1366 14.0998 19.7038 13.6669 19.1698 13.6669C18.6357 13.6669 18.203 14.0998 18.203 14.6337V18.0703C16.5072 17.8587 14.9433 17.5743 13.5715 17.2226V13.2773C13.5715 12.7434 13.1388 12.3105 12.6047 12.3105C12.0707 12.3105 11.6379 12.7434 11.6379 13.2773V16.6325C9.59655 15.8829 9.08982 15.1817 9.08982 14.9302V8.16273C10.0513 8.73379 11.3685 9.23691 13.0396 9.66848C16.4428 10.5475 20.9514 11.0317 25.7348 11.0317C30.5183 11.0317 35.0269 10.5475 38.43 9.66848C40.1011 9.23691 41.4184 8.73379 42.3799 8.16273V14.9301C42.3801 15.1815 41.8734 15.8829 39.832 16.6324ZM64.0664 36.7476C64.0664 37.759 63.5207 38.7077 62.6424 39.2232C60.5324 40.4615 58.0843 41.53 55.3833 42.412V27.7963C57.0245 27.2838 58.5852 26.705 60.0484 26.063C60.9531 25.6661 61.9456 25.7479 62.7714 26.2872C63.5944 26.8249 64.0663 27.6974 64.0663 28.6813V36.7476H64.0664Z" fill="#705D4D"/>
<path d="M59.7248 29.3535C58.1912 29.3535 57.0346 31.1352 57.0346 33.498C57.0346 35.8607 58.1912 37.6423 59.7248 37.6423C61.2584 37.6423 62.4151 35.8606 62.4151 33.498C62.4151 31.1352 61.2586 29.3535 59.7248 29.3535ZM59.7267 35.7088C59.55 35.6796 58.9682 34.9335 58.9682 33.498C58.9682 32.0625 59.55 31.3162 59.723 31.287C59.8996 31.3162 60.4815 32.0625 60.4815 33.498C60.4815 34.9335 59.8998 35.6797 59.7267 35.7088Z" fill="#705D4D"/>
<path d="M17.4231 3.58127C14.896 3.95394 13.2129 4.46402 13.2129 5.74252C13.2129 7.02101 14.896 7.53109 17.4231 7.90376C19.6509 8.23221 22.6028 8.4132 25.735 8.4132C28.8671 8.4132 31.8191 8.23234 34.0468 7.90376C36.5739 7.53109 38.2571 7.02101 38.2571 5.74252C38.2571 4.46402 36.5739 3.95394 34.0468 3.58127C31.8191 3.25282 28.8671 3.07184 25.735 3.07184C22.6028 3.07184 19.6509 3.25282 17.4231 3.58127ZM35.1521 5.74252C33.4714 6.10758 30.3003 6.4796 25.735 6.4796C21.1696 6.4796 17.9985 6.10758 16.3179 5.74252C17.9985 5.37732 21.1696 5.00543 25.735 5.00543C30.3003 5.00543 33.4714 5.37745 35.1521 5.74252Z" fill="#705D4D"/>
</svg>
