<svg width="87" height="88" viewBox="0 0 87 88" fill="none" xmlns="http://www.w3.org/2000/svg">
<path d="M64.0872 42.5763C64.0887 41.1364 63.4315 39.7755 62.3037 38.8807C63.4932 37.4792 63.7601 35.5144 62.9879 33.8467C62.215 32.1783 60.5435 31.1113 58.7059 31.1128H48.2206L48.6537 29.9669C49.3357 28.1714 49.6838 26.2668 49.6823 24.3465V24.1758C49.6816 22.7156 49.0898 21.3178 48.0409 20.3013C46.9928 19.2847 45.5777 18.7358 44.1183 18.7794C41.1641 18.9366 38.8572 21.3908 38.8828 24.3487C38.8828 25.7495 36.9143 28.9684 35.3195 31.1151H23.4944C22.75 31.1151 22.147 31.7181 22.147 32.4625V59.4324C22.147 60.1767 22.75 60.7798 23.4944 60.7798H56.596C58.2983 60.7805 59.869 59.8639 60.7059 58.382C61.542 56.8992 61.5157 55.0811 60.6352 53.6239C61.9886 53.0179 62.9781 51.8096 63.306 50.3629C63.6346 48.9163 63.2624 47.3997 62.3029 46.2689C63.43 45.3749 64.0872 44.0147 64.0872 42.5763ZM24.8418 33.8106H34.6376V58.0849H24.8418V33.8106ZM59.3683 44.6004H58.7051C57.9607 44.6004 57.3577 45.2034 57.3577 45.9478C57.3577 46.6922 57.9607 47.2952 58.7051 47.2952C59.8224 47.2952 60.7285 48.2012 60.7285 49.3193C60.7285 50.4366 59.8224 51.3427 58.7051 51.3427H56.596C55.8516 51.3427 55.2486 51.9464 55.2486 52.6901C55.2486 53.4345 55.8516 54.0375 56.596 54.0375C57.7133 54.0375 58.6194 54.9435 58.6194 56.0616C58.6194 57.1789 57.7133 58.0849 56.596 58.0849H37.3324V32.9189C38.4745 31.4083 41.5776 27.0518 41.5776 24.3495C41.5423 22.8457 42.6949 21.5795 44.195 21.4727C44.9273 21.4502 45.6378 21.7254 46.1642 22.2352C46.6898 22.7449 46.9868 23.4465 46.9868 24.1788V24.3495C46.9883 25.9435 46.6988 27.5248 46.1334 29.015L45.01 31.9888C44.8536 32.4031 44.91 32.867 45.1619 33.2317C45.413 33.5956 45.8273 33.8129 46.2702 33.8136H58.7051C59.8224 33.8136 60.7285 34.7197 60.7285 35.837C60.7285 36.9551 59.8224 37.8611 58.7051 37.8611C57.9607 37.8611 57.3577 38.4641 57.3577 39.2085C57.3577 39.9529 57.9607 40.5559 58.7051 40.5559H59.3683C60.4864 40.5559 61.3924 41.462 61.3924 42.58C61.3924 43.6981 60.4864 44.6042 59.3683 44.6042V44.6004ZM28.8119 50.272C26.875 50.272 25.3057 51.8419 25.3057 53.7781C25.3057 55.715 26.875 57.2842 28.8119 57.2842C30.748 57.2842 32.318 55.715 32.318 53.7781C32.3157 51.8427 30.7472 50.2742 28.8119 50.272ZM28.8119 54.5886C28.3637 54.5886 27.9998 54.2255 28.0006 53.7773C28.0006 53.3292 28.3637 52.9653 28.8119 52.966C29.2607 52.966 29.6239 53.3299 29.6232 53.7781C29.6224 54.2262 29.2592 54.5886 28.8119 54.5886ZM84.8787 40.792C86.1231 38.8378 86.5329 36.4671 86.0171 34.2084C85.502 31.9504 84.1042 29.9917 82.1358 28.7707C80.1688 27.5436 79.0846 25.2931 79.3515 22.9901C79.6244 20.69 78.965 18.3757 77.5206 16.5651C76.0762 14.7538 73.9671 13.5958 71.6641 13.3492C69.3595 13.0981 67.4068 11.5424 66.6474 9.35212C65.8948 7.16109 64.297 5.36254 62.2097 4.35725C60.1224 3.35272 57.7194 3.22414 55.5373 4.00236C53.3516 4.77456 50.9162 4.21891 49.2823 2.5745C47.6537 0.927091 45.4333 0 43.1167 0C40.8001 0 38.5798 0.927091 36.9512 2.5745C35.3173 4.21966 32.8811 4.77531 30.6961 4.00236C28.5133 3.22489 26.1118 3.35347 24.0245 4.35801C21.938 5.3633 20.3395 7.16184 19.5868 9.35212C18.8289 11.5432 16.8755 13.1003 14.5709 13.3515C12.2671 13.5981 10.158 14.756 8.71434 16.5673C7.26995 18.3787 6.61053 20.6923 6.88272 22.9931C7.15039 25.2954 6.06616 27.5458 4.09994 28.7729C2.13147 29.994 0.733688 31.9519 0.218638 34.2099C-0.297165 36.4679 0.11262 38.8378 1.35551 40.792C2.59539 42.7507 2.59539 45.2485 1.35551 47.2072C0.111868 49.1622 -0.297917 51.5329 0.217134 53.7909C0.732936 56.0496 2.13072 58.0083 4.09844 59.2293C6.06616 60.4564 7.14964 62.7069 6.88272 65.0092C6.61053 67.31 7.26995 69.6236 8.71434 71.4349C10.158 73.2462 12.2671 74.4042 14.5709 74.6508C16.8747 74.9012 18.8281 76.4576 19.5868 78.6471C20.3395 80.8382 21.938 82.6367 24.0253 83.642C26.1125 84.6473 28.5149 84.7751 30.6976 83.9976C32.8826 83.2239 35.3188 83.7796 36.9527 85.4255C38.5813 87.0729 40.8016 88 43.1182 88C45.4348 88 47.6552 87.0729 49.2838 85.4255C50.9177 83.7803 53.3531 83.2247 55.5389 83.9976C57.7209 84.7751 60.1232 84.6465 62.2097 83.6412C64.297 82.6367 65.8948 80.8382 66.6474 78.6471C67.4061 76.4568 69.3595 74.8997 71.6641 74.6485C73.9671 74.4019 76.0762 73.244 77.5206 71.4327C78.965 69.6213 79.6244 67.3077 79.3515 65.0069C79.0846 62.7046 80.1681 60.4542 82.135 59.2271C84.1035 58.006 85.5013 56.0473 86.0171 53.7894C86.5329 51.5306 86.1231 49.1599 84.8787 47.205C83.6403 45.247 83.6403 42.7507 84.8787 40.792ZM82.6057 48.6539C83.4629 50.0013 83.7456 51.6352 83.3899 53.1916C83.035 54.748 82.0711 56.0977 80.7147 56.9398C77.8605 58.7203 76.2875 61.9858 76.6755 65.3272C76.8635 66.913 76.4086 68.5078 75.413 69.7559C74.4175 71.0041 72.9641 71.8018 71.3769 71.9718C68.0324 72.3372 65.1985 74.5966 64.0985 77.7757C63.5797 79.2855 62.4781 80.5254 61.0397 81.2179C59.6014 81.9104 57.9457 81.9991 56.4419 81.463C53.2704 80.3404 49.7365 81.1472 47.3657 83.5345C46.2439 84.6698 44.7138 85.309 43.1167 85.309C41.5205 85.309 39.9903 84.6698 38.8678 83.5345C36.4985 81.1457 32.9631 80.3389 29.7916 81.463C28.2878 81.9991 26.6321 81.9104 25.1937 81.2179C23.7553 80.5254 22.6538 79.2855 22.1357 77.7757C21.0357 74.5966 18.2011 72.3372 14.8574 71.9718C13.2694 71.8018 11.8159 71.0041 10.8204 69.7559C9.8249 68.5078 9.37075 66.913 9.55873 65.3272C9.94671 61.9858 8.37449 58.7196 5.51953 56.9398C4.16235 56.0977 3.19917 54.748 2.84352 53.1916C2.48862 51.6352 2.77133 50.0013 3.6285 48.6539C5.42779 45.8125 5.42779 42.1875 3.6285 39.3454C2.77133 37.9987 2.48862 36.3648 2.84352 34.8077C3.19917 33.2512 4.16235 31.9016 5.51953 31.0602C8.37373 29.2797 9.94671 26.0142 9.55948 22.6728C9.3715 21.087 9.82565 19.4922 10.8212 18.2441C11.8167 16.9952 13.2701 16.1974 14.8581 16.0275C18.2018 15.6628 21.0365 13.4026 22.1365 10.2236C22.6546 8.71376 23.7561 7.47463 25.1945 6.78138C26.6329 6.08888 28.2885 6.00091 29.7923 6.53701C32.9638 7.65884 36.4985 6.85281 38.8685 4.46553C39.9911 3.33016 41.5212 2.69105 43.1175 2.69105C44.7145 2.69105 46.2446 3.33016 47.3665 4.46553C49.7372 6.85281 53.2711 7.65884 56.4426 6.53701C57.9464 6.00091 59.6021 6.08888 61.0405 6.78138C62.4789 7.47463 63.5804 8.71376 64.0992 10.2236C65.1992 13.4026 68.0332 15.6628 71.3776 16.0275C72.9649 16.1974 74.4183 16.9952 75.4138 18.2441C76.4093 19.4922 76.8642 21.087 76.6762 22.6728C76.2875 26.0142 77.8605 29.2805 80.7154 31.0602C82.0719 31.9016 83.0358 33.2512 83.3907 34.8077C83.7463 36.3648 83.4636 37.9987 82.6065 39.3454C80.8064 42.1875 80.8064 45.8117 82.6057 48.6539ZM43.1175 11.2228C25.0148 11.2228 10.3407 25.8984 10.3407 44.0004C10.3407 62.1023 25.0163 76.7772 43.1182 76.7772C61.221 76.7772 75.895 62.1023 75.895 43.9996C75.8747 25.9059 61.2112 11.2431 43.1175 11.2228ZM43.1175 74.0831C26.5035 74.0824 13.0355 60.6143 13.0355 44.0004C13.0355 27.3864 26.5035 13.9184 43.1175 13.9184C59.7314 13.9177 73.2002 27.3857 73.2002 43.9996C73.1814 60.6061 59.7239 74.0636 43.1175 74.0824V74.0831Z" fill="#849C82"/>
</svg>
