<svg width="79" height="88" viewBox="0 0 79 88" fill="none" xmlns="http://www.w3.org/2000/svg">
<path d="M32.3211 43.1545C31.2227 43.1545 30.332 44.045 30.332 45.1436C30.332 46.2421 31.2225 47.1325 32.3211 47.1325C33.4196 47.1325 34.3101 46.2421 34.3101 45.1436C34.3101 44.045 33.4196 43.1545 32.3211 43.1545Z" fill="#849C82"/>
<path d="M27.1584 49.2153H18.7349C18.0228 49.2153 17.4459 49.7925 17.4459 50.5044C17.4459 51.2163 18.023 51.7934 18.7349 51.7934H27.1584C27.8704 51.7934 28.4474 51.2163 28.4474 50.5044C28.4476 49.7925 27.8704 49.2153 27.1584 49.2153Z" fill="#849C82"/>
<path d="M13.5723 43.1545C12.4738 43.1545 11.5832 44.045 11.5832 45.1436C11.5832 46.2421 12.4737 47.1325 13.5723 47.1325C14.6708 47.1325 15.5612 46.2421 15.5612 45.1436C15.5612 44.045 14.6708 43.1545 13.5723 43.1545Z" fill="#849C82"/>
<path d="M59.1296 41.7626C56.9856 41.7626 55.2414 43.507 55.2414 45.651C55.2414 47.7949 56.9856 49.5391 59.1296 49.5391C61.2735 49.5391 63.0179 47.7949 63.0179 45.651C63.0179 43.507 61.2735 41.7626 59.1296 41.7626ZM59.1296 46.961C58.4073 46.961 57.8197 46.3734 57.8197 45.651C57.8197 44.9286 58.4073 44.3409 59.1296 44.3409C59.8519 44.3409 60.4396 44.9288 60.4396 45.651C60.4396 46.3734 59.8519 46.961 59.1296 46.961Z" fill="#849C82"/>
<path d="M76.222 15.3885L63.042 2.20847C60.0974 -0.736099 55.3064 -0.736099 52.3616 2.20847L46.4739 8.09623L40.5859 2.2083C37.6414 -0.735927 32.8502 -0.736271 29.9058 2.2083L20.3119 11.8022H8.25311C3.70236 11.8022 0 15.5046 0 20.0553V62.2649C0 67.1785 3.99747 71.1758 8.91087 71.1758H24.3731V77.3063H22.9467C19.9984 77.3063 17.5997 79.705 17.5997 82.6531C17.5997 85.6015 19.9984 88 22.9467 88H29.72C32.6683 88 35.067 85.6013 35.067 82.6531V71.1756H43.2584V77.3061H41.8319C38.8837 77.3061 36.485 79.7048 36.485 82.653C36.485 85.6013 38.8837 87.9998 41.8319 87.9998H48.6053C51.5536 87.9998 53.9523 85.6011 53.9523 82.653V71.1755H67.3313C72.2447 71.1755 76.2421 67.1782 76.2421 62.2646V52.3899C77.2438 51.4172 77.8681 50.0577 77.8681 48.5545V42.7464C77.8681 41.2432 77.2438 39.8837 76.2421 38.9111V34.6408C76.2421 32.265 75.3056 30.105 73.7847 28.5059L76.2224 26.0684C79.1666 23.1243 79.1666 18.3331 76.222 15.3885ZM53.7935 15.4161L57.702 11.5076L66.9231 20.7287L61.9213 25.7305H54.0845C56.7109 22.7622 56.5867 18.235 53.7935 15.4161ZM31.729 4.03172C33.6681 2.09245 36.8239 2.09245 38.7629 4.03172C40.2384 5.50727 50.4545 15.7234 51.9429 17.2118C53.8824 19.1511 53.8824 22.3065 51.9429 24.2458L50.4581 25.7306H43.1113L47.2016 21.6403C47.7047 21.1373 47.7048 20.3205 47.2016 19.8173L36.1576 8.77307C35.654 8.26965 34.8379 8.26965 34.3343 8.77307L17.3769 25.7305H10.0303L21.7577 14.0031C21.7577 14.0031 21.7579 14.0029 21.7579 14.0027L31.729 4.03172ZM39.4653 25.7305H21.0233L35.2459 11.5076L44.4672 20.7287L39.4653 25.7305ZM8.25311 14.3807H17.7337L6.62356 25.4909C4.26044 24.787 2.5783 22.5841 2.5783 20.0557C2.5783 16.9265 5.12395 14.3807 8.25311 14.3807ZM29.7198 85.422H22.9465C21.42 85.422 20.1778 84.1801 20.1778 82.6533C20.1778 81.1267 21.42 79.8846 22.9465 79.8846H25.662C26.3741 79.8846 26.9511 79.3074 26.9511 78.5955V74.7909H32.4884V82.6533C32.4885 84.1801 31.2466 85.422 29.7198 85.422ZM48.6051 85.422H41.8317C40.3051 85.422 39.0631 84.1801 39.0631 82.6533C39.0631 81.1267 40.3051 79.8846 41.8317 79.8846H44.5473C45.2594 79.8846 45.8364 79.3074 45.8364 78.5955V74.7909H51.3737V82.6533C51.3739 84.1801 50.1317 85.422 48.6051 85.422ZM72.5186 51.3259H57.4567C54.3275 51.3259 51.7819 48.7801 51.7819 45.6511C51.7819 42.5222 54.3275 39.9763 57.4567 39.9763H72.5186C74.0341 39.9763 75.2896 41.2095 75.2896 42.7471V48.555C75.2896 50.0725 74.0547 51.3259 72.5186 51.3259ZM72.5186 37.3979H57.4567C52.906 37.3979 49.2036 41.1002 49.2036 45.651C49.2036 50.2017 52.906 53.9041 57.4567 53.9041H72.5186C72.9067 53.9041 73.349 53.8504 73.6635 53.782V62.2651C73.6635 65.7569 70.8228 68.5977 67.3309 68.5977C50.02 68.5977 28.0691 68.5977 8.91087 68.5977C5.41905 68.5977 2.5783 65.7568 2.5783 62.2651V26.0553C4.11091 27.5042 6.14952 28.3086 8.25311 28.3086H67.3311C70.8069 28.3086 73.6637 31.1342 73.6637 34.6412V37.5197C73.3436 37.4508 72.9217 37.3979 72.5186 37.3979ZM74.3988 24.2458L71.7457 26.8989C70.4575 26.16 68.8928 25.7305 67.3309 25.7305H65.5673L69.6576 21.6402C70.161 21.1367 70.161 20.3205 69.6576 19.8171L58.6136 8.77307C58.1102 8.26965 57.2941 8.26965 56.7903 8.77307L51.9704 13.5928L48.2971 9.91948L54.1847 4.03172C56.1241 2.09245 59.2798 2.09245 61.2187 4.03172L74.3988 17.2118C76.3382 19.1509 76.3382 22.3065 74.3988 24.2458Z" fill="#849C82"/>
</svg>
