<svg width="89" height="88" viewBox="0 0 89 88" fill="none" xmlns="http://www.w3.org/2000/svg">
<path d="M62.9349 26.197C67.3845 26.197 71.0047 22.577 71.0047 18.1274C71.0047 13.6778 67.3845 10.0578 62.9349 10.0578C58.4853 10.0578 54.8653 13.6778 54.8653 18.1274C54.8653 22.5769 58.4853 26.197 62.9349 26.197ZM62.9349 12.6625C65.9483 12.6625 68.4 15.114 68.4 18.1274C68.4 21.1408 65.9485 23.5923 62.9349 23.5923C59.9215 23.5923 57.47 21.1408 57.47 18.1274C57.47 15.114 59.9215 12.6625 62.9349 12.6625Z" fill="#849C82"/>
<path d="M88.1187 27.6804L80.0373 24.1994C80.6966 22.1667 81.0621 20.3202 81.0621 18.1274C81.0621 8.13193 72.9302 0 62.9347 0C52.9392 0 44.8077 8.13193 44.8077 18.1274C44.8077 21.0682 45.5366 23.7879 46.6983 26.4913L44.4529 27.4585L23.3928 18.387C23.0914 18.2557 22.6958 18.2432 22.3624 18.387L0.787129 27.6804C0.309434 27.8862 0 28.3564 0 28.8765V86.6965C0 87.633 0.959731 88.2621 1.81753 87.8926L22.8776 78.8211L43.9377 87.8926C44.251 88.0277 44.6226 88.0414 44.9681 87.8926L66.0282 78.8211L87.0883 87.8926C87.9433 88.2609 88.9058 87.6349 88.9058 86.6965V28.8765C88.9058 28.3564 88.5964 27.8862 88.1187 27.6804ZM62.9349 2.60466C71.4942 2.60466 78.4576 9.56814 78.4576 18.1274C78.4576 26.6526 70.5073 36.0353 64.1778 41.6867C63.4711 42.3204 62.4027 42.323 61.6925 41.6867C55.302 35.9561 47.4127 26.6769 47.4127 18.1274C47.4123 9.56814 54.3758 2.60466 62.9349 2.60466ZM63.0078 44.7655C63.5828 44.7557 64.1692 44.6384 64.7259 44.3937V68.039L45.7552 76.2089V38.2404L52.2184 35.4571C52.2332 35.4758 52.2474 35.4946 52.2622 35.5134C53.0898 36.5564 53.949 37.5618 54.8285 38.5332C58.5773 42.6687 60.5716 44.7995 63.0078 44.7655ZM21.5753 30.0705V68.0392L10.4186 72.8439V34.8752L21.5753 30.0705ZM24.1799 30.0705L43.1506 38.2404V76.2091L24.1799 68.0392V30.0705ZM78.4872 72.8439L67.3305 68.0392V42.3219C70.1607 39.6416 72.8621 36.6554 75.1256 33.5001C75.1389 33.4815 75.1525 33.4635 75.1659 33.4449L78.4872 34.8752V72.8439ZM50.6101 33.3136L45.7552 35.4045V29.7336L47.8285 28.8406C48.656 30.3981 49.6096 31.904 50.6101 33.3136ZM43.1506 35.4045L24.1799 27.2345V21.5621L43.1506 29.7336V35.4045ZM2.60466 29.7336L21.5753 21.5621V27.2345L8.60112 32.822C8.12342 33.0278 7.81399 33.498 7.81399 34.0181V74.8227C7.81399 75.7745 8.79317 76.3805 9.63152 76.019L21.5753 70.8751V76.5462L2.60466 84.7175V29.7336ZM24.1799 70.8751L43.1506 79.0451V84.7175L24.1799 76.5462V70.8751ZM45.7552 79.0451L64.7259 70.8751V76.546L45.7552 84.7175V79.0451ZM86.3011 84.7175L67.3305 76.5462V70.8751L79.2743 76.019C80.1319 76.389 81.0918 75.7575 81.0918 74.8227V34.0181C81.0918 33.498 80.7824 33.0276 80.3047 32.822L76.6446 31.2457C76.6479 31.2405 76.6509 31.2355 76.6542 31.2304C77.6339 29.6723 78.4531 28.1389 79.1088 26.6354L86.3011 29.7336V84.7175Z" fill="#849C82"/>
</svg>
