<svg width="75" height="66" viewBox="0 0 75 66" fill="none" xmlns="http://www.w3.org/2000/svg">
<path d="M27.2742 27.6367H26.9119V22.2011C26.9119 21.2328 25.7374 20.7507 25.0562 21.4325L23.6066 22.8818C23.1821 23.3066 23.1821 23.9947 23.6066 24.4192C23.9126 24.7249 24.3553 24.81 24.7377 24.6759V27.6367H24.3753C23.775 27.6367 23.2882 28.1232 23.2882 28.7238C23.2882 29.3244 23.7749 29.8109 24.3753 29.8109H27.2742C27.8747 29.8109 28.3615 29.3244 28.3615 28.7238C28.3615 28.1232 27.8747 27.6367 27.2742 27.6367Z" fill="#705D4D"/>
<path d="M32.8637 21.114C31.0654 21.114 29.6025 22.577 29.6025 24.3753V26.5495C29.6025 28.3476 31.0654 29.8108 32.8637 29.8108C34.6621 29.8108 36.1251 28.3476 36.1251 26.5495V24.3753C36.1251 22.5768 34.6621 21.114 32.8637 21.114ZM33.9509 26.5496C33.9509 27.1492 33.4633 27.6367 32.8637 27.6367C32.2644 27.6367 31.7767 27.1492 31.7767 26.5496V24.3754C31.7767 23.7758 32.2644 23.2883 32.8637 23.2883C33.4633 23.2883 33.9509 23.7758 33.9509 24.3754V26.5496Z" fill="#705D4D"/>
<path d="M40.6307 21.114C38.8324 21.114 37.3695 22.577 37.3695 24.3753V26.5495C37.3695 28.3476 38.8324 29.8108 40.6307 29.8108C42.4291 29.8108 43.8921 28.3476 43.8921 26.5495V24.3753C43.8921 22.5768 42.4293 21.114 40.6307 21.114ZM41.7179 26.5496C41.7179 27.1492 41.2303 27.6367 40.6307 27.6367C40.0314 27.6367 39.5437 27.1492 39.5437 26.5496V24.3754C39.5437 23.7758 40.0314 23.2883 40.6307 23.2883C41.2303 23.2883 41.7179 23.7758 41.7179 24.3754V26.5496Z" fill="#705D4D"/>
<path d="M46.2236 23.2869C46.8239 23.2869 47.3109 22.8002 47.3109 22.1998C47.3109 21.5992 46.8239 21.1127 46.2236 21.1127C45.6232 21.1127 45.1365 21.5992 45.1365 22.1998C45.1365 22.8001 45.6232 23.2869 46.2236 23.2869Z" fill="#705D4D"/>
<path d="M50.375 21.2495C49.8499 20.958 49.1883 21.147 48.8968 21.6719L45.2734 28.1943C44.9818 28.719 45.171 29.381 45.6958 29.6725C46.2178 29.9623 46.881 29.777 47.1742 29.2499L50.7974 22.7279C51.0888 22.203 50.8999 21.5412 50.375 21.2495Z" fill="#705D4D"/>
<path d="M49.8473 27.6353C49.2469 27.6353 48.7601 28.1219 48.7601 28.7222C48.7601 29.3228 49.2467 29.8093 49.8473 29.8093C50.4476 29.8093 50.9344 29.3228 50.9344 28.7222C50.9344 28.1219 50.4476 27.6353 49.8473 27.6353Z" fill="#705D4D"/>
<path d="M1.08725 36.2621C1.6877 36.2621 2.17449 35.7754 2.17449 35.1748C2.17449 34.5752 2.66216 34.0876 3.26174 34.0876H70.9609C71.5605 34.0876 72.0482 34.5752 72.0482 35.1748C72.0482 35.7754 72.5348 36.2621 73.1354 36.2621C73.736 36.2621 74.2227 35.7754 74.2227 35.1748C74.2227 33.3764 72.7594 31.9131 70.9609 31.9131H69.9169C69.7399 31.4328 69.4473 30.9969 69.0572 30.6497L65.3802 27.3772L67.5249 22.9469C68.3463 21.2507 67.4997 19.2198 65.7261 18.6035L61.0766 16.9874L61.3627 12.0733C61.4723 10.1947 59.9158 8.63978 58.0385 8.74909L53.1244 9.03525L51.5084 4.3859C50.8909 2.60876 48.8585 1.76723 47.1649 2.58672L42.7344 4.73164L39.4621 1.05457C38.2093 -0.352902 36.0112 -0.350147 34.7608 1.05457L31.4885 4.73164L27.0579 2.58672C25.3682 1.76853 23.3333 2.60528 22.7145 4.38561L21.0984 9.03525L16.1845 8.74909C14.3103 8.6392 12.7506 10.1918 12.8601 12.0733L13.1463 16.9874L8.49705 18.6035C6.71947 19.221 5.87838 21.2539 6.69787 22.9469L8.84264 27.3772L5.16558 30.6497C4.77547 30.997 4.48293 31.4328 4.30593 31.9131H3.26174C1.46314 31.9131 0 33.3764 0 35.1748C0 35.7754 0.486796 36.2621 1.08725 36.2621ZM10.902 28.4553C11.2653 28.1322 11.3697 27.607 11.1579 27.1694L8.65491 21.9996C8.40122 21.4755 8.6597 20.8493 9.21071 20.6575L14.6362 18.7715C15.0955 18.6119 15.3929 18.1667 15.3647 17.6813L15.0308 11.9469C14.997 11.3675 15.4731 10.8868 16.0579 10.9198L21.7922 11.2537C22.2787 11.2819 22.7227 10.9845 22.8825 10.5254L24.7685 5.09971C24.959 4.55145 25.5841 4.28862 26.1104 4.54391L31.2805 7.0469C31.7179 7.2584 32.2432 7.15417 32.5665 6.79103L36.3851 2.50003C36.7723 2.06513 37.4498 2.06426 37.8378 2.50003L41.6565 6.79103C41.9797 7.15417 42.5051 7.25855 42.9423 7.0469L48.1125 4.54376C48.6377 4.28978 49.2631 4.54956 49.4545 5.09971L51.3405 10.5254C51.5002 10.9845 51.9456 11.2821 52.4306 11.2537L58.1652 10.9198C58.7483 10.8868 59.2261 11.3657 59.1921 11.9469L58.8583 17.6813C58.83 18.1667 59.1273 18.6119 59.5866 18.7715L65.0124 20.6575C65.562 20.8487 65.8226 21.4742 65.568 21.9994L63.0651 27.1694C62.8533 27.6072 62.9578 28.1322 63.3209 28.4553L67.2063 31.9132H17.5381C18.0963 21.6893 26.5772 13.3967 37.1113 13.3967H37.1186C46.3109 13.3967 54.3724 19.9218 56.286 28.9111C56.3918 29.4097 56.8398 29.7721 57.3486 29.7721C57.4254 29.7721 57.5008 29.7648 57.5762 29.7474C58.1619 29.6229 58.5373 29.0443 58.4127 28.4587C58.4127 28.4572 58.4127 28.4572 58.4127 28.4556C56.3121 18.595 47.5406 11.2221 37.1115 11.2221C25.4862 11.2221 15.9247 20.3877 15.3599 31.9131H7.0168L10.902 28.4553Z" fill="#705D4D"/>
<path d="M73.1354 42.7855C72.5348 42.7855 72.0482 43.2722 72.0482 43.8728C72.0482 44.4724 71.5605 44.96 70.9609 44.96H3.26174C2.66216 44.96 2.17449 44.4724 2.17449 43.8728C2.17449 43.2722 1.6877 42.7855 1.08725 42.7855C0.486796 42.7855 0 43.2722 0 43.8728C0 45.6712 1.46314 47.1345 3.26174 47.1345H11.6201L13.1655 48.68L12.8601 53.9272C12.7511 55.8013 14.3018 57.3609 16.1845 57.2516L21.0984 56.9654L22.7145 61.6148C23.3323 63.3923 25.3649 64.2337 27.0579 63.4139L31.4884 61.269L34.7608 64.9461C36.0119 66.3518 38.2116 66.3508 39.4621 64.9461L42.7344 61.269L47.1647 63.4139C48.8581 64.2339 50.8908 63.3919 51.5082 61.615L53.1243 56.9655L58.0382 57.2517C59.9264 57.3615 61.4712 55.7961 61.3626 53.9273L61.0571 48.6802L62.6028 47.1347H70.9609C72.7594 47.1347 74.2227 45.6714 74.2227 43.8729C74.2227 43.2722 73.736 42.7855 73.1354 42.7855ZM58.858 48.3193L59.1918 54.0536C59.2258 54.633 58.7496 55.1145 58.1648 55.0808L52.4303 54.747C51.9453 54.7184 51.4999 55.0162 51.3402 55.4753L49.4542 60.9011C49.2627 61.4514 48.6369 61.711 48.1121 61.4567L42.942 58.9538C42.5042 58.742 41.9794 58.8465 41.6562 59.2096L37.8375 63.5006C37.4503 63.9355 36.7727 63.9362 36.3849 63.5006L32.5662 59.2096C32.2429 58.8465 31.7179 58.7423 31.2802 58.9538L26.1103 61.4569C25.583 61.7119 24.9587 61.4489 24.7683 60.9009L22.8823 55.4753C22.7227 55.0162 22.2783 54.7174 21.7922 54.747L16.0579 55.0808C15.4714 55.113 14.997 54.6325 15.0308 54.0536L15.3647 48.3193C15.3828 48.0095 15.2675 47.7067 15.0481 47.4874L14.6952 47.1345H50.6793C47.0408 50.635 42.2137 52.604 37.1112 52.604C32.5926 52.604 28.3436 51.1022 24.8239 48.2638C24.3626 47.8892 23.6786 47.9539 23.2945 48.4262C22.919 48.893 22.9915 49.5785 23.4583 49.9556C23.4597 49.9556 23.4597 49.957 23.4597 49.957C27.2607 53.0246 32.0326 54.7786 37.1083 54.7786L37.1112 54.7713L37.1141 54.7786C43.5287 54.7786 49.5291 51.97 53.6659 47.1347H59.5272L59.1743 47.4875C58.9551 47.7067 58.84 48.0095 58.858 48.3193Z" fill="#705D4D"/>
<path d="M6.35764 37.3496H7.15538C7.75598 37.3496 8.24263 36.8631 8.24263 36.2624C8.24263 35.6619 7.75612 35.1754 7.15538 35.1754H6.35764C3.95989 35.1754 2.00909 37.1261 2.00909 39.5237C2.00909 41.9215 3.95989 43.8722 6.35764 43.8722C7.5191 43.8722 8.61084 43.4199 9.43222 42.5985C10.2536 41.7772 10.706 40.6854 10.706 39.5237C10.706 38.9234 10.2197 38.4367 9.61894 38.4367H7.73554C7.13509 38.4367 6.64829 38.9232 6.64829 39.5237C6.64829 40.1244 7.13494 40.6109 7.73554 40.6109H8.24162C8.14768 40.7736 8.03156 40.9246 7.89515 41.0612C7.48417 41.4719 6.93822 41.698 6.35764 41.698C5.15862 41.698 4.18343 40.7225 4.18343 39.5237C4.18343 38.3251 5.15862 37.3496 6.35764 37.3496Z" fill="#705D4D"/>
<path d="M12.6599 35.1754C12.0596 35.1754 11.5728 35.6619 11.5728 36.2624V40.1978C11.5728 42.2241 13.2306 43.8722 15.269 43.8722C17.3071 43.8722 18.9651 42.2241 18.9651 40.1978V36.2624C18.9651 35.6621 18.4784 35.1754 17.8781 35.1754C17.2776 35.1754 16.7908 35.6619 16.7908 36.2624V40.1978C16.7908 41.0249 16.1081 41.698 15.2688 41.698C14.4296 41.698 13.7469 41.0249 13.7469 40.1978V36.2624C13.7471 35.6619 13.2602 35.1754 12.6599 35.1754Z" fill="#705D4D"/>
<path d="M23.0258 35.1754C22.5728 35.1754 22.1671 35.4563 22.008 35.8805L19.562 42.4033C19.3511 42.9656 19.6362 43.5921 20.1981 43.8028C20.7605 44.0131 21.3869 43.7288 21.5979 43.1667L21.741 42.785H24.3108L24.454 43.1667C24.6658 43.7319 25.2951 44.0127 25.8535 43.8028C26.4154 43.5921 26.7003 42.9656 26.4895 42.4033L24.0436 35.8805C23.8845 35.4563 23.4789 35.1754 23.0258 35.1754ZM22.556 40.6109L23.0257 39.3584L23.4952 40.6109H22.556Z" fill="#705D4D"/>
<path d="M34.2419 38.4369C34.2419 36.6387 32.787 35.1755 30.9988 35.1755H28.8787C28.2784 35.1755 27.7916 35.6621 27.7916 36.2625V42.7853C27.7916 43.3858 28.2783 43.8724 28.8787 43.8724C29.479 43.8724 29.966 43.3858 29.966 42.7853V41.6982H30.5457L32.3828 43.5507C32.5952 43.7651 32.875 43.8724 33.1548 43.8724C33.4314 43.8724 33.7081 43.7673 33.9202 43.5572C34.3464 43.1345 34.3493 42.446 33.9267 42.0198L32.9527 41.0377C33.7352 40.4416 34.2419 39.4977 34.2419 38.4369ZM30.9988 39.5237H29.966V37.3496H30.9988C31.588 37.3496 32.0675 37.8371 32.0675 38.4367C32.0675 39.0361 31.5881 39.5237 30.9988 39.5237Z" fill="#705D4D"/>
<path d="M38.8609 35.1754C38.4079 35.1754 38.0021 35.4563 37.8431 35.8805L35.3971 42.4033C35.186 42.9656 35.4712 43.5921 36.0332 43.8028C36.5955 44.0131 37.2219 43.7288 37.433 43.1667L37.5761 42.785H40.1461L40.2893 43.1667C40.4528 43.6032 40.8671 43.8722 41.3071 43.8722C41.4339 43.8722 41.563 43.85 41.6886 43.8028C42.2505 43.5921 42.5354 42.9656 42.3246 42.4033L39.8787 35.8805C39.7196 35.4563 39.3139 35.1754 38.8609 35.1754ZM38.3911 40.6109L38.8608 39.3584L39.3303 40.6109H38.3911Z" fill="#705D4D"/>
<path d="M48.2652 36.2624V39.4644L45.4456 35.6197C45.1675 35.2409 44.6775 35.0832 44.2308 35.2296C43.7838 35.3757 43.4819 35.7928 43.4819 36.2626V42.7853C43.4819 43.3858 43.9685 43.8724 44.569 43.8724C45.1693 43.8724 45.6562 43.3858 45.6562 42.7853V39.5834L48.4757 43.428C49.0921 44.2687 50.4397 43.8406 50.4397 42.785V36.2622C50.4395 35.6619 49.9529 35.1753 49.3524 35.1753C48.7518 35.1754 48.2652 35.6619 48.2652 36.2624Z" fill="#705D4D"/>
<path d="M54.6102 43.8722C55.2106 43.8722 55.6973 43.3857 55.6973 42.7851V37.3496H57.0745C57.6748 37.3496 58.1616 36.8631 58.1616 36.2624C58.1616 35.6619 57.6749 35.1754 57.0745 35.1754H52.1462C51.5458 35.1754 51.059 35.6619 51.059 36.2624C51.059 36.8631 51.5456 37.3496 52.1462 37.3496H53.5232V42.7851C53.5232 43.3857 54.0099 43.8722 54.6102 43.8722Z" fill="#705D4D"/>
<path d="M63.2209 37.3496C63.8213 37.3496 64.308 36.8631 64.308 36.2624C64.308 35.6619 63.8215 35.1754 63.2209 35.1754H59.8871C59.2868 35.1754 58.8 35.6619 58.8 36.2624V42.7851C58.8 43.3857 59.2867 43.8722 59.8871 43.8722H63.2209C63.8213 43.8722 64.308 43.3857 64.308 42.7851C64.308 42.1845 63.8213 41.698 63.2209 41.698H60.9742V40.6109H62.3512C62.9517 40.6109 63.4382 40.1244 63.4382 39.5237C63.4382 38.9232 62.9517 38.4367 62.3512 38.4367H60.9742V37.3496H63.2209Z" fill="#705D4D"/>
<path d="M69.9668 37.3496C70.5672 37.3496 71.0538 36.8631 71.0538 36.2624C71.0538 35.6619 70.5673 35.1754 69.9668 35.1754H66.633C66.0327 35.1754 65.5459 35.6619 65.5459 36.2624V42.7851C65.5459 43.3857 66.0325 43.8722 66.633 43.8722H69.9668C70.5672 43.8722 71.0538 43.3857 71.0538 42.7851C71.0538 42.1845 70.5672 41.698 69.9668 41.698H67.7201V40.6109H69.0971C69.6975 40.6109 70.1841 40.1244 70.1841 39.5237C70.1841 38.9232 69.6975 38.4367 69.0971 38.4367H67.7201V37.3496H69.9668Z" fill="#705D4D"/>
</svg>
