<svg width="52" height="66" viewBox="0 0 52 66" fill="none" xmlns="http://www.w3.org/2000/svg">
<path d="M50.7423 50.0156C51.2762 50.0156 51.7091 49.5827 51.7091 49.0488V25.8456C51.7091 24.6917 51.2593 23.5113 50.4427 22.5219L43.2725 13.8344C42.8969 13.3792 42.465 12.9956 41.9961 12.6901C42.0248 12.3946 42.0412 12.0962 42.0412 11.7949V0.966799C42.0412 0.432868 41.6083 0 41.0744 0C40.5405 0 40.1076 0.432868 40.1076 0.966799C40.1076 0.966799 40.1057 11.8871 40.1049 11.9333C39.8298 11.8845 39.5506 11.8594 39.2697 11.8594H26.7658C25.8855 11.8594 25.0226 12.1064 24.25 12.5603C24.2167 12.5723 24.1835 12.5857 24.151 12.6015L14.7266 17.1921C13.6824 17.7159 12.8475 18.5944 12.3753 19.6657C12.3702 19.6774 12.3653 19.6892 12.3606 19.701L8.46403 29.5846C8.26822 30.0814 8.51211 30.6427 9.00891 30.8387C9.12532 30.8846 9.2452 30.9062 9.36328 30.9062C9.74871 30.9062 10.113 30.6741 10.2629 30.2938L14.1519 20.4294C14.4444 19.7759 14.9558 19.2406 15.5834 18.9255L20.5628 16.5002L15.5927 22.522C14.8485 23.4236 14.4552 24.5731 14.4552 25.8459V59.2327C14.4552 59.6214 14.4894 60.0021 14.5514 60.3731L4.58923 55.9588C2.33878 54.9617 1.31887 52.3131 2.31609 50.0547C2.32034 50.0449 2.32447 50.0349 2.32859 50.0251L8.62993 34.3651C8.82922 33.8697 8.58932 33.3066 8.09394 33.1072C7.59829 32.9079 7.03548 33.1479 6.83607 33.6432L0.540273 49.2887C-0.875378 52.5178 0.586937 56.3002 3.80586 57.7264L15.4879 62.9028C15.5022 62.9091 15.5168 62.9137 15.5312 62.9193C16.7169 64.7719 18.7667 66 21.0939 66H44.9416C48.61 66 51.7092 62.9008 51.7092 59.2324V53.5605C51.7092 53.0266 51.2763 52.5937 50.7424 52.5937C50.2085 52.5937 49.7756 53.0266 49.7756 53.5605V59.2324C49.7756 61.8527 47.5619 64.0664 44.9416 64.0664H21.0939C18.4995 64.0664 16.3888 61.8979 16.3888 59.2324V25.8456C16.3888 25.0157 16.6226 24.3115 17.084 23.7527L24.2542 15.0652C24.9215 14.2567 25.837 13.7929 26.7658 13.7929H39.2697C39.4519 13.7929 39.6334 13.8113 39.8127 13.8461C39.2075 15.91 37.7083 17.6322 35.6838 18.4952C35.1544 17.6098 34.1865 17.0155 33.0821 17.0155C31.4117 17.0155 30.0528 18.3745 30.0528 20.0448C30.0528 21.7152 31.4117 23.0741 33.0821 23.0741C34.6268 23.0741 35.9042 21.9117 36.0879 20.4157C38.6917 19.4308 40.6606 17.3441 41.5378 14.797C41.622 14.8817 41.7035 14.9708 41.7813 15.0652L48.9515 23.7528C49.4828 24.3966 49.7756 25.1399 49.7756 25.8458V49.0489C49.7755 49.5827 50.2083 50.0156 50.7423 50.0156ZM33.0821 21.1405C32.4779 21.1405 31.9864 20.649 31.9864 20.0448C31.9864 19.4406 32.4779 18.9491 33.0821 18.9491C33.6863 18.9491 34.1778 19.4406 34.1778 20.0448C34.1778 20.649 33.6863 21.1405 33.0821 21.1405Z" fill="#705D4D"/>
<path d="M24.7032 51.4336C24.9505 51.4336 25.198 51.3392 25.3867 51.1504L41.8868 34.6503C42.2643 34.2728 42.2643 33.6606 41.8868 33.2831C41.5092 32.9056 40.897 32.9056 40.5196 33.2831L24.0196 49.7832C23.4031 50.3577 23.8761 51.4628 24.7032 51.4336Z" fill="#705D4D"/>
<path d="M26.7657 41.25C29.0757 41.25 30.9551 39.3705 30.9551 37.0605C30.9551 34.7505 29.0757 32.871 26.7657 32.871H26.6367C24.3267 32.871 22.4473 34.7505 22.4473 37.0605C22.4473 39.3705 24.3267 41.25 26.6367 41.25H26.7657ZM24.3809 37.0605C24.3809 35.8167 25.3929 34.8046 26.6367 34.8046H26.7657C28.0095 34.8046 29.0215 35.8167 29.0215 37.0605C29.0215 38.3043 28.0095 39.3164 26.7657 39.3164H26.6367C25.3929 39.3164 24.3809 38.3043 24.3809 37.0605Z" fill="#705D4D"/>
<path d="M39.2696 51.4336H39.3985C41.7085 51.4336 43.588 49.5541 43.588 47.2441C43.588 44.9341 41.7085 43.0546 39.3985 43.0546H39.2696C36.9596 43.0546 35.0801 44.9341 35.0801 47.2441C35.0801 49.5541 36.9596 51.4336 39.2696 51.4336ZM39.2696 44.9882H39.3985C40.6423 44.9882 41.6544 46.0003 41.6544 47.2441C41.6544 48.4879 40.6423 49.5 39.3985 49.5H39.2696C38.0258 49.5 37.0137 48.4879 37.0137 47.2441C37.0137 46.0003 38.0258 44.9882 39.2696 44.9882Z" fill="#705D4D"/>
</svg>
