<svg width="60" height="66" viewBox="0 0 60 66" fill="none" xmlns="http://www.w3.org/2000/svg">
<path d="M36.3 12.1C36.3 10.7946 35.9129 9.5186 35.1877 8.43324C34.4625 7.34787 33.4317 6.50194 32.2257 6.0024C31.0197 5.50286 29.6927 5.37216 28.4124 5.62682C27.1321 5.88148 25.9561 6.51007 25.0331 7.4331C24.1101 8.35612 23.4815 9.53213 23.2268 10.8124C22.9722 12.0927 23.1029 13.4197 23.6024 14.6257C24.1019 15.8317 24.9479 16.8625 26.0332 17.5877C27.1186 18.3129 28.3946 18.7 29.7 18.7C31.4498 18.698 33.1274 18.0021 34.3647 16.7647C35.6021 15.5274 36.298 13.8498 36.3 12.1ZM25.3 12.1C25.3 11.2298 25.5581 10.3791 26.0415 9.65549C26.525 8.93192 27.2122 8.36796 28.0162 8.03493C28.8202 7.70191 29.7049 7.61477 30.5584 7.78455C31.4119 7.95432 32.1959 8.37338 32.8113 8.98873C33.4266 9.60408 33.8457 10.3881 34.0155 11.2416C34.1852 12.0951 34.0981 12.9798 33.7651 13.7838C33.432 14.5878 32.8681 15.275 32.1445 15.7585C31.4209 16.2419 30.5702 16.5 29.7 16.5C28.5335 16.4987 27.4151 16.0347 26.5902 15.2098C25.7653 14.385 25.3013 13.2666 25.3 12.1Z" fill="#705D4D"/>
<path d="M29.0692 30.6012C29.2541 30.7306 29.4743 30.8001 29.7 30.8001C29.9257 30.8001 30.146 30.7306 30.3309 30.6012C32.4199 29.0622 34.3314 27.2957 36.0301 25.3342C39.8047 20.9934 41.8 16.4175 41.8 12.1C41.8 8.89088 40.5252 5.8132 38.256 3.54401C35.9868 1.27482 32.9091 0 29.7 0C26.4909 0 23.4132 1.27482 21.144 3.54401C18.8748 5.8132 17.6 8.89088 17.6 12.1C17.6 16.4175 19.5953 20.9934 23.3699 25.3342C25.0686 27.2957 26.9801 29.0622 29.0692 30.6012ZM29.7 2.2C32.3247 2.20295 34.8411 3.24693 36.6971 5.1029C38.5531 6.95887 39.5971 9.47526 39.6 12.1C39.6 19.9706 31.9711 26.5411 29.7 28.3227C27.4255 26.5433 19.8 19.9858 19.8 12.1C19.803 9.47526 20.8469 6.95887 22.7029 5.1029C24.5589 3.24693 27.0753 2.20295 29.7 2.2Z" fill="#705D4D"/>
<path d="M15.0875 57.1427L15.7343 55.0395L17.9347 55.7162L17.2879 57.8194L15.0875 57.1427Z" fill="#705D4D"/>
<path d="M19.4869 58.4918L20.1337 56.3884L22.3342 57.0651L21.6874 59.1685L19.4869 58.4918Z" fill="#705D4D"/>
<path d="M23.8877 59.8492L24.5345 57.746L26.7349 58.4227L26.0881 60.5259L23.8877 59.8492Z" fill="#705D4D"/>
<path d="M58.6236 25.3487L42.1235 20.2718L41.4765 22.3746L54.56 26.4L29.7 34.0491L4.84 26.4L17.9231 22.3746L17.2761 20.2718L0.77605 25.3487C0.551302 25.4179 0.354667 25.5574 0.214997 25.7466C0.0753279 25.9358 -2.31642e-05 26.1648 5.34165e-09 26.4V56.1C3.99517e-06 56.3353 0.0754147 56.5643 0.215163 56.7535C0.354912 56.9427 0.551637 57.0822 0.776463 57.1513L29.3765 65.9513C29.5873 66.0162 29.8127 66.0162 30.0235 65.9513L58.6236 57.1513C58.8484 57.0822 59.0451 56.9427 59.1849 56.7535C59.3246 56.5643 59.4 56.3353 59.4 56.1V26.4C59.4 26.1648 59.3246 25.9357 59.1849 25.7465C59.0451 25.5573 58.8484 25.4179 58.6236 25.3487ZM2.2 27.8894L28.6 36.0125V63.4106L2.2 55.2877V27.8894ZM30.8 63.4106V36.0125L57.2 27.8894V55.2877L30.8 63.4106Z" fill="#705D4D"/>
<path d="M43.6837 55.0637L45.8842 54.387L46.531 56.4902L44.3305 57.1669L43.6837 55.0637Z" fill="#705D4D"/>
<path d="M48.0825 53.7139L50.283 53.0372L50.9298 55.1405L48.7293 55.8172L48.0825 53.7139Z" fill="#705D4D"/>
<path d="M52.4857 52.356L54.6862 51.6793L55.333 53.7825L53.1325 54.4592L52.4857 52.356Z" fill="#705D4D"/>
<path d="M20.9 44.4231C21.1917 44.4231 21.4715 44.3072 21.6778 44.1009C21.8841 43.8946 22 43.6148 22 43.3231V37.8231C22 37.5879 21.9246 37.3588 21.7848 37.1696C21.6451 36.9804 21.4484 36.841 21.2235 36.7718L10.2235 33.3871C10.059 33.3364 9.88488 33.3251 9.71518 33.3541C9.54548 33.383 9.38493 33.4513 9.24646 33.5536C9.10799 33.6559 8.99545 33.7892 8.91791 33.9429C8.84037 34.0966 8.79998 34.2664 8.8 34.4385V39.9385C8.80001 40.1738 8.87542 40.4028 9.01517 40.592C9.15491 40.7812 9.35164 40.9207 9.57647 40.9899L20.5765 44.3746C20.6813 44.4068 20.7903 44.4231 20.9 44.4231ZM19.8 41.8337L11 39.1262V35.9279L19.8 38.6354V41.8337Z" fill="#705D4D"/>
<path d="M50.6 39.9385V34.4385C50.6 34.2664 50.5596 34.0966 50.4821 33.9429C50.4046 33.7892 50.292 33.6559 50.1536 33.5536C50.0151 33.4513 49.8545 33.383 49.6848 33.3541C49.5151 33.3251 49.341 33.3364 49.1765 33.3871L38.1765 36.7718C37.9516 36.841 37.7549 36.9804 37.6152 37.1696C37.4754 37.3588 37.4 37.5879 37.4 37.8231V43.3231C37.4 43.4953 37.4404 43.665 37.5179 43.8187C37.5955 43.9724 37.708 44.1057 37.8465 44.208C37.9849 44.3103 38.1455 44.3787 38.3152 44.4076C38.4849 44.4365 38.659 44.4252 38.8235 44.3746L49.8235 40.9899C50.0484 40.9207 50.2451 40.7812 50.3848 40.592C50.5246 40.4028 50.6 40.1738 50.6 39.9385ZM48.4 39.1262L39.6 41.8337V38.6354L48.4 35.9279V39.1262Z" fill="#705D4D"/>
</svg>
