<svg width="66" height="57" viewBox="0 0 66 57" fill="none" xmlns="http://www.w3.org/2000/svg">
<path d="M63.7441 0H2.25586C1.01204 0 0 1.01204 0 2.25586V10.1958C0 11.4458 1.93359 11.4458 1.93359 10.1958V2.25586C1.93359 2.07823 2.0781 1.93359 2.25586 1.93359H63.7441C63.9219 1.93359 64.0664 2.07823 64.0664 2.25586V49.4019C64.0664 49.5795 63.9219 49.7242 63.7441 49.7242H51.3547V47.7125H61.0786C61.6127 47.7125 62.0454 47.2796 62.0454 46.7457V36.6215C62.0454 35.3715 60.1118 35.3715 60.1118 36.6215V45.7789H51.3547V41.4893C51.3862 41.492 51.4179 41.4947 51.4476 41.4974C52.2502 41.5679 53.2485 41.6557 53.94 40.9628C54.6309 40.2707 54.5435 39.2714 54.4732 38.4685C54.3975 37.6067 54.479 37.3708 55.1413 36.8203C56.8466 35.4023 56.8783 33.884 55.1413 32.44C54.479 31.8891 54.3979 31.6534 54.4732 30.7916C54.6624 28.6289 53.6523 27.569 51.4476 27.7628C50.5872 27.8383 50.3537 27.7566 49.8051 27.0942C48.3893 25.3849 46.8701 25.3533 45.428 27.0942C44.8794 27.7565 44.646 27.8386 43.7856 27.7628C41.6214 27.5727 40.5668 28.5884 40.7599 30.7916C40.8352 31.6536 40.7541 31.8891 40.0918 32.44C38.3865 33.8579 38.3549 35.3764 40.0918 36.8203C40.7541 37.3712 40.8352 37.6068 40.7599 38.4687C40.5569 40.785 41.6631 41.6807 43.8781 41.4894V45.7791H5.88831V5.87877H60.1118V31.4652C60.1118 32.7152 62.0454 32.7152 62.0454 31.4652V4.91197C62.0454 4.37804 61.6127 3.94518 61.0786 3.94518H4.92151C4.38745 3.94518 3.95472 4.37804 3.95472 4.91197V46.7457C3.95472 47.2796 4.38745 47.7125 4.92151 47.7125H43.8781V49.7242H2.25586C2.0781 49.7242 1.93359 49.5795 1.93359 49.4019V15.0941C1.93359 13.8441 0 13.8441 0 15.0941V49.4019C0 50.6457 1.01204 51.6578 2.25586 51.6578H43.8781V56.0341C44.0158 56.8287 44.4741 57.1209 45.2527 56.9107L47.6164 55.8112L49.9802 56.9107C50.565 57.1827 51.3547 56.7528 51.3547 56.0341V51.6578H63.7441C64.988 51.6578 66 50.6457 66 49.4019V2.25586C66 1.01191 64.988 0 63.7441 0ZM43.6161 39.571C42.6482 39.6562 42.6013 39.6044 42.6859 38.6371C42.8158 37.1525 42.4743 36.2862 41.3277 35.3331C40.5432 34.6807 40.5433 34.579 41.3277 33.9266C42.4743 32.9734 42.816 32.1072 42.6859 30.6227C42.6013 29.6553 42.6482 29.604 43.6161 29.6887C45.1008 29.8195 45.9659 29.4754 46.9168 28.3273C47.5667 27.543 47.666 27.543 48.3159 28.3273C49.2671 29.4754 50.1319 29.819 51.6166 29.6887C52.5846 29.6034 52.6314 29.6553 52.5468 30.6226C52.4169 32.1072 52.7584 32.9733 53.905 33.9264C54.6894 34.5788 54.6898 34.6808 53.9049 35.3331C52.7582 36.2863 52.4166 37.1522 52.5467 38.6368C52.6316 39.6041 52.5845 39.6561 51.6168 39.571C51.0095 39.5176 50.3206 39.457 49.7142 39.7089C49.1273 39.9527 48.7147 40.4506 48.3157 40.9324C48.1278 41.1592 47.7848 41.5734 47.6162 41.6475C47.4477 41.5734 47.1047 41.1592 46.9167 40.9324C46.5178 40.4508 46.1053 39.9527 45.5182 39.7089C44.8925 39.5181 44.2584 39.4721 43.6161 39.571ZM48.0242 53.8685C47.7656 53.7482 47.4673 53.7482 47.2087 53.8685L45.8117 54.5183V42.614C46.2705 43.1184 46.8365 43.5867 47.6164 43.5867C48.3963 43.5867 48.9623 43.1185 49.4211 42.6141V54.5183L48.0242 53.8685Z" fill="#705D4D"/>
<path d="M12.5378 13.9715H45.8661C47.1161 13.9715 47.1161 12.0379 45.8661 12.0379H12.5378C11.2877 12.0379 11.2877 13.9715 12.5378 13.9715Z" fill="#705D4D"/>
<path d="M54.429 18.8852C54.429 18.3512 53.9963 17.9184 53.4622 17.9184H12.5378C11.2878 17.9184 11.2878 19.8519 12.5378 19.8519H53.4623C53.9962 19.8519 54.429 19.4191 54.429 18.8852Z" fill="#705D4D"/>
<path d="M36.7559 24.7655C36.7559 24.2315 36.3232 23.7987 35.7891 23.7987H12.5378C11.2878 23.7987 11.2878 25.7323 12.5378 25.7323H35.7891C36.3231 25.7323 36.7559 25.2994 36.7559 24.7655Z" fill="#705D4D"/>
<path d="M24.0605 38.2416C23.5334 38.2425 23.0062 38.2431 22.4791 38.2435C21.465 38.2443 20.9067 37.974 20.6995 36.8986C20.5104 35.917 19.0945 36.0421 18.835 36.8986C18.7202 37.278 18.1401 38.364 17.6333 38.2752C17.3648 38.2282 17.2475 37.814 17.1483 37.5995C16.955 37.182 16.8143 36.7394 16.6937 36.296C16.1848 34.4225 16.0832 32.4663 15.7648 30.5575C15.5803 29.4506 13.893 29.7635 13.8658 30.8145C13.7792 34.1623 13.2318 37.4643 12.04 40.6022C11.5977 41.7667 13.4662 42.2702 13.9045 41.1163C14.364 39.9064 14.7288 38.6675 15.0119 37.4101C15.1638 37.8683 15.3449 38.3176 15.5659 38.7548C16.1306 39.8706 17.2821 40.5307 18.5142 40.0344C18.9539 39.8573 19.355 39.5477 19.6965 39.1709C20.6112 40.2257 21.9721 40.1779 23.2417 40.1763C25.1555 40.1739 27.0694 40.1694 28.9834 40.1641C30.2275 40.1606 30.2298 38.227 28.9834 38.2305C27.3424 38.2351 25.7015 38.2389 24.0605 38.2416Z" fill="#705D4D"/>
<path d="M47.6164 38.4061C49.6986 38.4061 51.3927 36.7121 51.3927 34.6299C51.3927 32.5477 49.6986 30.8537 47.6164 30.8537C45.5343 30.8537 43.8402 32.5478 43.8402 34.6299C43.8402 36.712 45.5342 38.4061 47.6164 38.4061ZM47.6164 32.7873C48.6325 32.7873 49.4591 33.614 49.4591 34.6299C49.4591 35.6458 48.6325 36.4725 47.6164 36.4725C46.6004 36.4725 45.7738 35.6459 45.7738 34.6299C45.7738 33.6138 46.6004 32.7873 47.6164 32.7873Z" fill="#705D4D"/>
</svg>
