<svg width="66" height="66" viewBox="0 0 66 66" fill="none" xmlns="http://www.w3.org/2000/svg">
<path d="M1.87784 33.3222C1.724 33.1683 1.52799 33.0635 1.31461 33.0211C1.10123 32.9787 0.880047 33.0004 0.679043 33.0837C0.478039 33.167 0.30624 33.308 0.185371 33.4889C0.0645016 33.6698 -7.92708e-06 33.8824 7.30574e-10 34.1V64.9C7.30575e-10 65.1917 0.115892 65.4715 0.322183 65.6778C0.528472 65.8841 0.808262 66 1.1 66H31.9C32.1176 66 32.3302 65.9355 32.5112 65.8146C32.6921 65.6938 32.833 65.522 32.9163 65.321C32.9996 65.1199 33.0214 64.8988 32.9789 64.6854C32.9365 64.472 32.8317 64.276 32.6778 64.1222L1.87784 33.3222ZM2.2 63.8V36.7555L29.2445 63.8H2.2Z" fill="#705D4D"/>
<path d="M7.7 59.4H16.5C16.7176 59.4 16.9302 59.3355 17.1111 59.2146C17.2921 59.0938 17.433 58.922 17.5163 58.721C17.5996 58.5199 17.6213 58.2988 17.5789 58.0854C17.5365 57.872 17.4317 57.676 17.2778 57.5222L8.47784 48.7222C8.324 48.5683 8.128 48.4635 7.91461 48.4211C7.70123 48.3787 7.48005 48.4004 7.27904 48.4837C7.07804 48.567 6.90624 48.708 6.78537 48.8889C6.6645 49.0698 6.59999 49.2824 6.6 49.5V58.3C6.6 58.5917 6.71589 58.8715 6.92218 59.0778C7.12847 59.2841 7.40826 59.4 7.7 59.4ZM8.8 52.1557L13.8445 57.2H8.8V52.1557Z" fill="#705D4D"/>
<path d="M12.1 4.4H14.3V6.6H12.1V4.4Z" fill="#705D4D"/>
<path d="M16.5 4.4H18.7V6.6H16.5V4.4Z" fill="#705D4D"/>
<path d="M20.9 4.4H23.1V6.6H20.9V4.4Z" fill="#705D4D"/>
<path d="M22.6539 19.8962C22.4584 19.9808 22.292 20.1211 22.1757 20.2996C22.0594 20.4781 21.9983 20.6869 22 20.9V33C22 33.2128 22.0617 33.421 22.1776 33.5994C22.2936 33.7779 22.4588 33.9188 22.6533 34.0053L32.5533 38.4053C32.6939 38.4679 32.8462 38.5003 33.0002 38.5001C33.1542 38.5 33.3065 38.4674 33.447 38.4044V38.4053L43.347 34.0053C43.5414 33.9188 43.7066 33.7778 43.8225 33.5994C43.9384 33.421 44 33.2128 44 33V20.9C44.0017 20.6869 43.9406 20.4781 43.8243 20.2996C43.708 20.1211 43.5416 19.9808 43.3461 19.8962V19.8947L33.446 15.4947C33.3053 15.4323 33.1531 15.4 32.9992 15.4C32.8452 15.4 32.693 15.4323 32.5523 15.4947L22.6523 19.8947L22.6539 19.8962ZM31.9 35.7074L24.2 32.285V22.5926L31.9 26.015V35.7074ZM41.8 32.285L34.1 35.7074V26.015L41.8 22.5928V32.285ZM33 17.7037L40.1912 20.9L33 24.0962L25.8088 20.9L33 17.7037Z" fill="#705D4D"/>
<path d="M31.9 41.8H34.1V47.3H31.9V41.8Z" fill="#705D4D"/>
<path d="M31.9 7.7H34.1V13.2H31.9V7.7Z" fill="#705D4D"/>
<path d="M13.8198 18.5994L14.768 16.615L19.3724 18.8151L18.4242 20.7995L13.8198 18.5994Z" fill="#705D4D"/>
<path d="M46.6024 18.7992L51.2068 16.5991L52.155 18.5835L47.5506 20.7836L46.6024 18.7992Z" fill="#705D4D"/>
<path d="M13.8194 36.3953L18.4238 34.1952L19.372 36.1796L14.7676 38.3797L13.8194 36.3953Z" fill="#705D4D"/>
<path d="M64.9 50.6H58.3V33.4557L64.7666 26.989C65.1577 26.598 65.4679 26.1337 65.6795 25.6228C65.8911 25.1119 66 24.5643 66 24.0112C66 23.4582 65.8911 22.9106 65.6795 22.3997C65.4678 21.8887 65.1576 21.4245 64.7666 21.0334C64.3755 20.6424 63.9113 20.3322 63.4003 20.1206C62.8894 19.9089 62.3418 19.8 61.7887 19.8C61.2357 19.8 60.6881 19.909 60.1772 20.1206C59.6662 20.3323 59.202 20.6425 58.811 21.0335L58.3 21.5445V12.1C58.3 11.9555 58.2716 11.8125 58.2163 11.679C58.161 11.5456 58.08 11.4243 57.9778 11.3222L46.9778 0.322163C46.8757 0.220019 46.7544 0.138996 46.621 0.0837193C46.4875 0.0284425 46.3445 -5.26288e-06 46.2 7.30324e-10H12.1C10.9334 0.00131016 9.81505 0.465301 8.99018 1.29018C8.1653 2.11505 7.70131 3.23345 7.7 4.4V36.3H9.9V4.4C9.90069 3.81674 10.1327 3.25756 10.5451 2.84513C10.9576 2.4327 11.5167 2.20069 12.1 2.2H45.1V8.8C45.1013 9.96655 45.5653 11.0849 46.3902 11.9098C47.2151 12.7347 48.3335 13.1987 49.5 13.2H56.1V23.7443L38.8222 41.0222C38.6686 41.1758 38.564 41.3713 38.5213 41.5843L37.4213 47.0843C37.3858 47.2618 37.3946 47.4455 37.4471 47.6188C37.4996 47.7921 37.5941 47.9498 37.7221 48.0779C37.8502 48.2059 38.0079 48.3004 38.1812 48.3529C38.3545 48.4054 38.5382 48.4142 38.7157 48.3787L44.2157 47.2787C44.4287 47.2361 44.6243 47.1314 44.7778 46.9778L56.1 35.6557V50.6H34.1C33.8083 50.6 33.5285 50.7159 33.3222 50.9222C33.1159 51.1285 33 51.4083 33 51.7V55H27.5V57.2H33V60.5C33 60.7917 33.1159 61.0715 33.3222 61.2778C33.5285 61.4841 33.8083 61.6 34.1 61.6H64.9C65.1917 61.6 65.4715 61.4841 65.6778 61.2778C65.8841 61.0715 66 60.7917 66 60.5V51.7C66 51.4083 65.8841 51.1285 65.6778 50.9222C65.4715 50.7159 65.1917 50.6 64.9 50.6ZM47.3 8.8V3.75568L54.5443 11H49.5C48.9167 10.9993 48.3576 10.7673 47.9451 10.3549C47.5327 9.94244 47.3007 9.38326 47.3 8.8ZM41.1557 41.8L58.3 24.6557L61.1443 27.5L44 44.6443L41.1557 41.8ZM61.7888 22C62.1866 22 62.5754 22.118 62.9062 22.339C63.2369 22.56 63.4947 22.8742 63.6469 23.2417C63.7991 23.6092 63.8389 24.0136 63.7613 24.4037C63.6838 24.7938 63.4922 25.1522 63.211 25.4335L62.7 25.9443L59.8557 23.1L60.3666 22.5891C60.5529 22.4017 60.7746 22.2532 61.0187 22.152C61.2628 22.0509 61.5246 21.9993 61.7888 22ZM40.2755 44.0312L41.7688 45.5245L39.9025 45.8975L40.2755 44.0312ZM63.8 59.4H35.2V52.8H37.4V55H39.6V52.8H41.8V55H44V52.8H46.2V55H48.4V52.8H50.6V55H52.8V52.8H55V55H57.2V52.8H59.4V55H61.6V52.8H63.8V59.4Z" fill="#705D4D"/>
</svg>
