<svg width="52" height="41" viewBox="0 0 52 41" fill="none" xmlns="http://www.w3.org/2000/svg">
<path d="M16.1106 15.1564C16.842 15.449 17.4811 15.8126 18.0022 16.2302V13.6619C18.0022 12.7245 18.4426 11.8636 19.2143 11.1392C19.7756 10.6137 20.5155 10.1591 21.3822 9.80397C21.0827 9.16755 20.9156 8.45728 20.9156 7.71303V3.13917C20.9156 2.27555 21.2727 1.49141 21.8513 0.92325C22.4272 0.352282 23.2218 0 24.097 0H27.9057C28.7809 0 29.5755 0.352282 30.1542 0.92325C30.7301 1.49141 31.087 2.27555 31.087 3.13917V7.71312C31.087 8.45748 30.9201 9.16775 30.6206 9.80697C31.4815 10.1593 32.2156 10.6052 32.7713 11.1223C33.5544 11.8524 34.0035 12.7189 34.0035 13.6621V16.2332C34.5246 15.8128 35.1665 15.4491 35.9007 15.1536C35.6041 14.5172 35.4374 13.8099 35.4374 13.0684V8.49436C35.4374 7.63074 35.7972 6.8466 36.3731 6.27844C36.9487 5.70737 37.7433 5.35519 38.6213 5.35519H42.4275C43.3026 5.35519 44.1001 5.70747 44.676 6.27844C45.2516 6.8467 45.6087 7.63074 45.6087 8.49436V13.0683C45.6087 13.8098 45.4447 14.5171 45.1481 15.1507C46.0318 15.5087 46.7862 15.969 47.3561 16.5002C48.1278 17.2246 48.5683 18.0826 48.5683 19.0173V24.5373H51.2399C51.6603 24.5373 52 24.8754 52 25.2901C52 25.4691 51.9367 25.6339 51.8302 25.7618L49.0374 29.7732L51.8647 33.8301C52.1037 34.1711 52.0145 34.637 51.672 34.8727C51.545 34.9579 51.3925 35.0063 51.2399 35.0063H34.562L34.8441 38.5803C34.8786 39.032 34.7231 39.4552 34.444 39.7734C33.9516 40.3388 33.1397 40.5035 32.4631 40.1825L26.0029 37.549L19.4474 40.2195C18.7595 40.4979 17.9676 40.2905 17.51 39.7138C17.2594 39.3956 17.1299 38.9807 17.1587 38.5803L17.4409 35.0063H11.9911C11.5707 35.0063 11.231 34.6711 11.231 34.2563C11.231 33.8415 11.5708 33.5034 11.9911 33.5034H17.5589L17.7085 31.6028L13.1513 26.3242C13.0735 26.2476 12.9958 26.1339 12.9411 26.0402H2.20844L4.50567 29.3357C4.68716 29.5857 4.69864 29.9295 4.51146 30.1994L2.20844 33.5034H8.54194C8.96231 33.5034 9.30203 33.8415 9.30203 34.2563C9.30203 34.6711 8.96221 35.0063 8.54194 35.0063H0.76311C0.342745 35.0063 0.00302054 34.6711 0.00302054 34.2563C0.00302054 34.0773 0.0662936 33.9125 0.172832 33.7818L2.96558 29.7731L0.138301 25.7162C-0.224478 25.1963 0.172832 24.5372 0.791954 24.5372H3.45501V20.7218C3.45501 20.3071 3.79463 19.9689 4.2149 19.9689C4.63516 19.9689 4.97783 20.3071 4.97783 20.7218V24.5372H12.8664C12.9614 24.3326 13.1571 24.0656 13.3557 23.9292C13.5688 23.7645 13.8192 23.6678 14.0811 23.6054L18.0023 22.6707V19.0172C18.0023 18.5116 17.7288 18.0172 17.251 17.574C16.7644 17.1223 16.0793 16.7302 15.2529 16.4348C14.2884 17.483 12.9296 18.0854 11.4901 18.0854C10.0505 18.0854 8.69175 17.483 7.72437 16.4348C6.90101 16.7302 5.97974 17.2103 5.42419 17.8978C5.15942 18.2188 4.68157 18.27 4.35617 18.0115C4.02792 17.7529 3.97612 17.2814 4.23815 16.9574C4.90603 16.1364 5.88772 15.5512 6.86648 15.1534C6.56992 14.517 6.40315 13.8097 6.40315 13.0682V8.49436C6.40315 7.63074 6.76298 6.8466 7.33864 6.27844C7.91449 5.70737 8.70912 5.35519 9.58712 5.35519H15.8143C16.2347 5.35519 16.5744 5.69324 16.5744 6.10806V13.0684C16.5743 13.8127 16.4072 14.52 16.1106 15.1564ZM44.0855 11.8382L39.7843 10.4007L36.963 11.7672V13.0683C36.963 14.0343 37.3631 14.9121 38.008 15.5485C38.6559 16.1877 39.5454 16.5826 40.5242 16.5826C41.5032 16.5826 42.3927 16.1877 43.0375 15.5485C43.6853 14.9121 44.0854 14.0343 44.0854 13.0683V11.8382H44.0855ZM36.963 10.0995L39.3553 8.94326C39.5368 8.83812 39.7641 8.80976 39.9772 8.88072L44.0855 10.2529V8.49436C44.0855 8.04546 43.8984 7.63635 43.5991 7.3409C43.2968 7.04264 42.8822 6.85793 42.4274 6.85793H38.6212C38.1636 6.85793 37.7518 7.04264 37.4497 7.3409C37.1474 7.63635 36.9631 8.04546 36.9631 8.49436L36.963 10.0995ZM7.92587 9.12225H15.0513V6.85803H9.58691C9.12928 6.85803 8.7147 7.04274 8.41519 7.341C8.11305 7.63645 7.92587 8.04556 7.92587 8.49446V9.12225ZM15.0513 10.6251H7.92587V13.0683C7.92587 14.0343 8.32897 14.9121 8.97379 15.5485C9.62165 16.1877 10.5111 16.5826 11.49 16.5826C12.4688 16.5826 13.3585 16.1877 14.0034 15.5485C14.6511 14.9121 15.0512 14.0343 15.0512 13.0683L15.0513 10.6251ZM29.5641 6.36654C28.4181 6.53982 26.5124 6.53982 24.9404 5.15625C24.3935 5.47445 23.5126 5.83806 22.4387 5.73864V7.71312C22.4387 8.67907 22.8418 9.55692 23.4866 10.1933C24.1315 10.8326 25.0239 11.2274 26.0028 11.2274C26.9815 11.2274 27.8712 10.8326 28.516 10.1933C29.1637 9.55692 29.5639 8.67907 29.5639 7.71312V6.36654H29.5641ZM22.4387 4.22729C23.17 4.34094 23.979 4.0966 24.5316 3.61082C24.8483 3.34092 25.3262 3.37499 25.6025 3.68749C26.8953 5.15625 28.6946 5.02566 29.5641 4.84947V3.13917C29.5641 2.69027 29.3768 2.28117 29.0747 1.98571C28.7752 1.68745 28.3606 1.50274 27.9057 1.50274H24.097C23.6421 1.50274 23.2275 1.68745 22.928 1.98571C22.6258 2.28117 22.4387 2.69027 22.4387 3.13917V4.22729ZM36.7585 16.432C35.9121 16.736 35.2126 17.1395 34.7204 17.6025C34.2625 18.0371 34.0034 18.5229 34.0034 19.0172V22.6707L38.0168 23.6282C38.4601 23.7333 38.8227 24.0088 39.0415 24.3668C39.0762 24.4208 39.1077 24.4775 39.1366 24.5373H47.0451V19.0173C47.0451 18.5173 46.7773 18.0258 46.3082 17.5884C45.8216 17.131 45.1277 16.7361 44.2871 16.435C44.2323 16.4946 44.1749 16.5543 44.1173 16.6111C43.1961 17.5202 41.9235 18.0856 40.5243 18.0856C39.1251 18.0856 37.8525 17.5202 36.9314 16.6111C36.8708 16.5542 36.8132 16.4945 36.7585 16.432ZM22.2429 11.0853C21.4224 11.3836 20.7428 11.7756 20.2622 12.2273C19.7929 12.6677 19.5251 13.1592 19.5251 13.662V22.3098L20.8724 21.9888L24.5836 16.0257C24.8254 15.6393 25.2025 15.3865 25.617 15.287C26.3224 15.1223 27.0566 15.4291 27.4279 16.037L31.1332 21.9888L32.4777 22.3098V13.662C32.4777 13.1535 32.2071 12.6592 31.729 12.216C31.2485 11.7671 30.5716 11.3808 29.7599 11.0825C28.7954 12.1308 27.4394 12.7303 26.0029 12.7303C24.5664 12.7303 23.2103 12.1308 22.2429 11.0853ZM39.0647 26.0401C39.0127 26.1253 38.9552 26.2077 38.8861 26.2845L37.6079 27.7674C37.3344 28.0828 36.8565 28.1169 36.5369 27.8498C36.2173 27.5799 36.1798 27.1055 36.4534 26.793L37.7317 25.31C37.7631 25.273 37.7719 25.2191 37.7575 25.1736C37.7431 25.1281 37.7057 25.0941 37.6597 25.0827C35.2787 24.5173 32.9037 23.952 30.5255 23.3838C30.3125 23.3525 30.1197 23.2304 29.9986 23.0372L26.1293 16.8241C26.1006 16.7757 26.0661 16.7473 26.0028 16.7473C25.9538 16.7445 25.9077 16.77 25.8818 16.8126L22.0068 23.0371C21.9032 23.1991 21.739 23.3241 21.5348 23.3724C19.1683 23.9349 16.8046 24.4975 14.4381 25.0627C14.3661 25.0827 14.2914 25.0827 14.2539 25.1566C14.2281 25.2049 14.2339 25.2702 14.2712 25.31L19.0416 30.8357C19.1856 30.9834 19.2662 31.1879 19.2489 31.4095C19.0589 33.8357 18.8689 36.2647 18.676 38.6937C18.6731 38.7363 18.6933 38.7818 18.7278 38.8102C18.768 38.8414 18.8256 38.8528 18.8718 38.8329L25.7122 36.0459C25.8908 35.9721 26.098 35.9665 26.2908 36.0459L33.0478 38.7988C33.1601 38.8386 33.3414 38.8897 33.3269 38.6937C33.1369 36.2647 32.944 33.8357 32.754 31.4095C32.7397 31.2191 32.8 31.0232 32.9355 30.8641L34.2165 29.3839C34.4871 29.0686 34.9679 29.0317 35.2875 29.3016C35.604 29.5715 35.6415 30.043 35.371 30.3584L34.297 31.6027L34.444 33.5033H49.7944L47.4972 30.2078C47.3157 29.9606 47.3042 29.614 47.4914 29.347L49.7944 26.0401H39.0647Z" fill="#849C82"/>
</svg>
