<svg width="52" height="52" viewBox="0 0 52 52" fill="none" xmlns="http://www.w3.org/2000/svg">
<path d="M51.1333 11.2667H32.0667C31.588 11.2667 31.2 11.6547 31.2 12.1333V32.9333H26.8667V32.0667H27.7333C28.212 32.0667 28.6 31.6786 28.6 31.2C28.6 30.7214 28.212 30.3333 27.7333 30.3333H19.0667C18.5881 30.3333 18.2 30.7214 18.2 31.2C18.2 31.6786 18.5881 32.0667 19.0667 32.0667H19.9333V32.9333H11.2667V32.0667H12.1333C12.6119 32.0667 13 31.6786 13 31.2C13 30.7214 12.6119 30.3333 12.1333 30.3333H3.46667C2.98805 30.3333 2.6 30.7214 2.6 31.2C2.6 31.6786 2.98805 32.0667 3.46667 32.0667H4.33333V32.9333H0.866667C0.38805 32.9333 0 33.3214 0 33.8V51.1333C0 51.6119 0.38805 52 0.866667 52H51.1333C51.6119 52 52 51.6119 52 51.1333V12.1333C52 11.6547 51.6119 11.2667 51.1333 11.2667ZM21.6667 32.0667H25.1333V32.9333H21.6667V32.0667ZM6.06667 32.0667H9.53333V32.9333H6.06667V32.0667ZM13.8667 50.2667H1.73333V39.8667H13.8667V50.2667ZM13.8667 38.1333H1.73333V34.6667H13.8667V38.1333ZM31.2 50.2667H15.6V34.6667H31.2V50.2667ZM50.2667 50.2667H32.9333V26.8667H50.2667V50.2667ZM50.2667 25.1333H32.9333V13H50.2667V25.1333Z" fill="#849C82"/>
<path d="M18.2 48.5333H28.6C29.0786 48.5333 29.4667 48.1453 29.4667 47.6667V37.2667C29.4667 36.7881 29.0786 36.4 28.6 36.4H18.2C17.7214 36.4 17.3333 36.7881 17.3333 37.2667V47.6667C17.3333 48.1453 17.7214 48.5333 18.2 48.5333ZM19.0667 38.1333H27.7333V46.8H19.0667V38.1333Z" fill="#849C82"/>
<path d="M34.6667 24.2667C35.1453 24.2667 35.5333 23.8786 35.5333 23.4V19.9333C35.5333 19.4547 35.1453 19.0667 34.6667 19.0667C34.1881 19.0667 33.8 19.4547 33.8 19.9333V23.4C33.8 23.8786 34.1881 24.2667 34.6667 24.2667Z" fill="#849C82"/>
<path d="M34.6667 32.9333C35.1453 32.9333 35.5333 32.5453 35.5333 32.0667V28.6C35.5333 28.1214 35.1453 27.7333 34.6667 27.7333C34.1881 27.7333 33.8 28.1214 33.8 28.6V32.0667C33.8 32.5453 34.1881 32.9333 34.6667 32.9333Z" fill="#849C82"/>
<path d="M2.04317 15.3985C2.19938 15.5289 2.39644 15.6002 2.6 15.6H28.6C29.0786 15.6007 29.4672 15.2132 29.468 14.7346C29.4683 14.5312 29.3969 14.334 29.2665 14.1778L20.5998 3.7778C20.4348 3.58031 20.1906 3.46634 19.9333 3.46667H19.0667V0.866667C19.0667 0.38805 18.6786 0 18.2 0H13C12.5214 0 12.1333 0.38805 12.1333 0.866667V3.46667H11.2667C11.0094 3.46634 10.7652 3.58031 10.6002 3.7778L1.93353 14.1778C1.62673 14.5452 1.67581 15.0917 2.04317 15.3985ZM13.8667 1.73333H17.3333V3.46667H13.8667V1.73333ZM11.6731 5.2H19.5269L26.7497 13.8667H4.45033L11.6731 5.2Z" fill="#849C82"/>
</svg>
