<svg width="47" height="52" viewBox="0 0 47 52" fill="none" xmlns="http://www.w3.org/2000/svg">
<path d="M28.6 9.53334C28.6 8.50487 28.295 7.49951 27.7236 6.64437C27.1523 5.78923 26.3401 5.12274 25.39 4.72916C24.4398 4.33559 23.3942 4.23261 22.3855 4.43325C21.3768 4.63389 20.4503 5.12915 19.723 5.85638C18.9958 6.58361 18.5006 7.51016 18.2999 8.51887C18.0993 9.52757 18.2023 10.5731 18.5958 11.5233C18.9894 12.4735 19.6559 13.2856 20.511 13.857C21.3662 14.4284 22.3715 14.7333 23.4 14.7333C24.7787 14.7318 26.1004 14.1834 27.0753 13.2086C28.0501 12.2337 28.5985 10.912 28.6 9.53334ZM19.9333 9.53334C19.9333 8.84769 20.1367 8.17745 20.5176 7.60736C20.8985 7.03727 21.4399 6.59294 22.0734 6.33055C22.7068 6.06817 23.4039 5.99952 24.0763 6.13328C24.7488 6.26704 25.3665 6.59721 25.8513 7.08203C26.3361 7.56685 26.6663 8.18456 26.8001 8.85702C26.9338 9.52949 26.8652 10.2265 26.6028 10.86C26.3404 11.4934 25.8961 12.0348 25.326 12.4158C24.7559 12.7967 24.0856 13 23.4 13C22.4809 12.999 21.5997 12.6334 20.9498 11.9835C20.2999 11.3336 19.9344 10.4524 19.9333 9.53334Z" fill="#849C82"/>
<path d="M22.903 24.11C23.0487 24.212 23.2222 24.2667 23.4 24.2667C23.5778 24.2667 23.7514 24.212 23.897 24.11C25.543 22.8975 27.049 21.5057 28.3873 19.9603C31.3613 16.5402 32.9333 12.935 32.9333 9.53334C32.9333 7.00494 31.9289 4.5801 30.1411 2.79225C28.3532 1.0044 25.9284 0 23.4 0C20.8716 0 18.4468 1.0044 16.6589 2.79225C14.8711 4.5801 13.8667 7.00494 13.8667 9.53334C13.8667 12.935 15.4387 16.5402 18.4127 19.9603C19.751 21.5057 21.257 22.8975 22.903 24.11ZM23.4 1.73333C25.468 1.73566 27.4506 2.55819 28.9129 4.02047C30.3752 5.48275 31.1977 7.46536 31.2 9.53334C31.2 15.7344 25.1893 20.9112 23.4 22.3148C21.608 20.9129 15.6 15.7464 15.6 9.53334C15.6023 7.46536 16.4249 5.48275 17.8871 4.02047C19.3494 2.55819 21.332 1.73566 23.4 1.73333Z" fill="#849C82"/>
<path d="M11.8871 45.0215L12.3967 43.3644L14.1304 43.8976L13.6208 45.5546L11.8871 45.0215Z" fill="#849C82"/>
<path d="M15.3533 46.0844L15.8629 44.4272L17.5966 44.9604L17.087 46.6176L15.3533 46.0844Z" fill="#849C82"/>
<path d="M18.8206 47.1539L19.3302 45.4968L21.0639 46.03L20.5543 47.6871L18.8206 47.1539Z" fill="#849C82"/>
<path d="M46.1883 19.9717L33.1883 15.9717L32.6784 17.6284L42.9867 20.8L23.4 26.8266L3.81333 20.8L14.1213 17.6284L13.6114 15.9717L0.611434 19.9717C0.434359 20.0263 0.279435 20.1361 0.169392 20.2852C0.0593493 20.4343 -1.82506e-05 20.6147 4.20858e-09 20.8V44.2C3.14771e-06 44.3853 0.0594177 44.5658 0.169523 44.7149C0.279627 44.864 0.434623 44.9738 0.611758 45.0283L23.1451 51.9617C23.3112 52.0128 23.4888 52.0128 23.6549 51.9617L46.1883 45.0283C46.3654 44.9738 46.5204 44.864 46.6305 44.7149C46.7406 44.5658 46.8 44.3853 46.8 44.2V20.8C46.8 20.6147 46.7406 20.4342 46.6305 20.2851C46.5204 20.1361 46.3654 20.0262 46.1883 19.9717ZM1.73333 21.9735L22.5333 28.3735V49.9599L1.73333 43.56V21.9735ZM24.2667 49.9599V28.3735L45.0667 21.9735V43.56L24.2667 49.9599Z" fill="#849C82"/>
<path d="M34.4174 43.3835L36.1512 42.8503L36.6608 44.5074L34.9271 45.0406L34.4174 43.3835Z" fill="#849C82"/>
<path d="M37.8832 42.32L39.6169 41.7869L40.1265 43.444L38.3928 43.9772L37.8832 42.32Z" fill="#849C82"/>
<path d="M41.3524 41.2502L43.0861 40.717L43.5957 42.3741L41.862 42.9072L41.3524 41.2502Z" fill="#849C82"/>
<path d="M16.4667 35C16.6965 35 16.917 34.9087 17.0795 34.7462C17.242 34.5836 17.3333 34.3632 17.3333 34.1334V29.8C17.3333 29.6147 17.2739 29.4342 17.1638 29.2852C17.0537 29.1361 16.8987 29.0262 16.7216 28.9717L8.05491 26.305C7.92528 26.2651 7.78809 26.2562 7.65438 26.2789C7.52068 26.3017 7.39419 26.3556 7.28509 26.4362C7.17599 26.5168 7.08733 26.6218 7.02623 26.7429C6.96514 26.864 6.93332 26.9978 6.93334 27.1334V31.4667C6.93334 31.6521 6.99275 31.8325 7.10286 31.9816C7.21296 32.1307 7.36796 32.2405 7.54509 32.295L16.2118 34.9618C16.2944 34.9871 16.3803 35 16.4667 35ZM15.6 32.9599L8.66667 30.8267V28.3069L15.6 30.44V32.9599Z" fill="#849C82"/>
<path d="M39.8667 31.4667V27.1334C39.8667 26.9978 39.8349 26.864 39.7738 26.7429C39.7127 26.6218 39.624 26.5168 39.5149 26.4362C39.4058 26.3556 39.2793 26.3017 39.1456 26.2789C39.0119 26.2562 38.8747 26.2651 38.7451 26.305L30.0784 28.9717C29.9013 29.0262 29.7463 29.1361 29.6362 29.2852C29.5261 29.4342 29.4667 29.6147 29.4667 29.8V34.1334C29.4667 34.269 29.4985 34.4027 29.5596 34.5238C29.6207 34.6449 29.7093 34.75 29.8184 34.8306C29.9275 34.9111 30.054 34.965 30.1877 34.9878C30.3214 35.0106 30.4586 35.0017 30.5882 34.9618L39.2549 32.295C39.4321 32.2405 39.5871 32.1307 39.6972 31.9816C39.8073 31.8325 39.8667 31.6521 39.8667 31.4667ZM38.1333 30.8267L31.2 32.9599V30.44L38.1333 28.3069V30.8267Z" fill="#849C82"/>
</svg>
