<svg width="52" height="52" viewBox="0 0 52 52" fill="none" xmlns="http://www.w3.org/2000/svg">
<path d="M34.6667 3.46667H36.4V5.2H34.6667V3.46667Z" fill="#849C82"/>
<path d="M25.7251 7.88927L26.9508 6.66361L28.1764 7.88927L26.9508 9.11492L25.7251 7.88927Z" fill="#849C82"/>
<path d="M46.7567 31.5761L38.5398 36.3211C38.1242 35.9119 37.6107 35.6159 37.0483 35.4614L25.2425 32.2981C24.6239 32.1329 23.9764 32.1063 23.3463 32.2201L15.6 33.6267V32.0667C15.6 31.8368 15.5087 31.6164 15.3462 31.4538C15.1836 31.2913 14.9632 31.2 14.7333 31.2H6.06667C5.83681 31.2 5.61637 31.2913 5.45384 31.4538C5.29131 31.6164 5.2 31.8368 5.2 32.0667V32.9333H0.866667C0.636812 32.9333 0.416372 33.0246 0.253841 33.1872C0.0913092 33.3497 0 33.5701 0 33.8V49.4C0 49.6299 0.0913092 49.8503 0.253841 50.0128C0.416372 50.1754 0.636812 50.2667 0.866667 50.2667H5.2V51.1333C5.2 51.3632 5.29131 51.5836 5.45384 51.7462C5.61637 51.9087 5.83681 52 6.06667 52H14.7333C14.9632 52 15.1836 51.9087 15.3462 51.7462C15.5087 51.5836 15.6 51.3632 15.6 51.1333V48.6347L29.0108 50.1254C30.0027 50.2344 31.0018 49.9987 31.8405 49.4581L50.2233 37.5847C50.7528 37.2829 51.1925 36.8456 51.4971 36.3177C51.8017 35.7898 51.9603 35.1903 51.9567 34.5809C51.957 33.9722 51.797 33.3742 51.4928 32.847C51.1887 32.3197 50.7511 31.8819 50.224 31.5774C49.697 31.273 49.0991 31.1126 48.4904 31.1126C47.8817 31.1125 47.2838 31.2727 46.7567 31.577V31.5761ZM1.73333 48.5333V34.6667H5.2V48.5333H1.73333ZM13.8667 50.2667H6.93333V32.9333H13.8667V50.2667ZM49.3194 36.1053L30.8993 48.0021C30.3957 48.3257 29.7965 48.467 29.2015 48.4025L15.6 46.891V35.3903L23.66 33.9257C24.0377 33.8563 24.4262 33.872 24.7971 33.9716L36.6028 37.1349C37.0469 37.254 37.4255 37.5446 37.6553 37.9428C37.8851 38.341 37.9473 38.8142 37.8283 39.2583C37.7092 39.7023 37.4186 40.0809 37.0204 40.3108C36.6222 40.5406 36.149 40.6028 35.7049 40.4837L27.0911 38.1767C26.9802 38.1437 26.8637 38.1332 26.7486 38.146C26.6335 38.1587 26.5222 38.1944 26.4211 38.2509C26.3201 38.3074 26.2314 38.3836 26.1602 38.475C26.0891 38.5663 26.037 38.671 26.007 38.7828C25.977 38.8947 25.9697 39.0114 25.9856 39.126C26.0014 39.2407 26.0401 39.3511 26.0993 39.4506C26.1585 39.5501 26.2371 39.6367 26.3303 39.7053C26.4236 39.774 26.5296 39.8232 26.6422 39.8502L35.2534 42.1581C35.6932 42.2761 36.152 42.3062 36.6035 42.2468C37.0549 42.1874 37.4903 42.0397 37.8847 41.812C38.279 41.5843 38.6247 41.2812 38.9018 40.9199C39.179 40.5586 39.3823 40.1462 39.5001 39.7063C39.6664 39.0777 39.6511 38.4148 39.4559 37.7945L47.6199 33.0798C47.8185 32.9682 48.0372 32.8967 48.2635 32.8696C48.4898 32.8425 48.7192 32.8602 48.9386 32.9217C49.158 32.9832 49.3631 33.0874 49.5423 33.2282C49.7215 33.369 49.8712 33.5437 49.9828 33.7424C50.0945 33.941 50.1659 34.1597 50.193 34.386C50.2202 34.6123 50.2025 34.8416 50.1409 35.0611C50.0794 35.2805 49.9753 35.4856 49.8345 35.6648C49.6936 35.844 49.5189 35.9937 49.3203 36.1053H49.3194Z" fill="#849C82"/>
<path d="M51.1333 12.1333H46.8685C46.7905 11.9297 46.7064 11.7251 46.6137 11.518L49.6314 8.4994C49.7939 8.33688 49.8852 8.11648 49.8852 7.88667C49.8852 7.65686 49.7939 7.43646 49.6314 7.27393L44.7261 2.3686C44.5635 2.20613 44.3431 2.11485 44.1133 2.11485C43.8835 2.11485 43.6631 2.20613 43.5006 2.3686L40.4829 5.38633C40.2757 5.2936 40.0703 5.213 39.8667 5.13153V0.866667C39.8667 0.636812 39.7754 0.416372 39.6128 0.253841C39.4503 0.0913092 39.2299 0 39 0H32.0667C31.8368 0 31.6164 0.0913092 31.4538 0.253841C31.2913 0.416372 31.2 0.636812 31.2 0.866667V5.13153C30.9963 5.20953 30.7909 5.2936 30.5838 5.38633L27.5661 2.3686C27.4035 2.20613 27.1831 2.11485 26.9533 2.11485C26.7235 2.11485 26.5031 2.20613 26.3406 2.3686L21.4353 7.27393C21.2728 7.43646 21.1815 7.65686 21.1815 7.88667C21.1815 8.11648 21.2728 8.33688 21.4353 8.4994L24.453 11.5171C24.3603 11.7243 24.2797 11.9297 24.1982 12.1333H19.9333C19.7035 12.1333 19.483 12.2246 19.3205 12.3872C19.158 12.5497 19.0667 12.7701 19.0667 13V19.9333C19.0667 20.1632 19.158 20.3836 19.3205 20.5462C19.483 20.7087 19.7035 20.8 19.9333 20.8H24.1982C24.2762 21.0037 24.3603 21.2091 24.453 21.4162L21.4353 24.4339C21.2728 24.5965 21.1815 24.8169 21.1815 25.0467C21.1815 25.2765 21.2728 25.4969 21.4353 25.6594L26.3406 30.5647C26.5031 30.7272 26.7235 30.8185 26.9533 30.8185C27.1831 30.8185 27.4035 30.7272 27.5661 30.5647L30.5838 27.547C30.7909 27.6397 30.9963 27.7203 31.2 27.8018V32.0667C31.2 32.2965 31.2913 32.517 31.4538 32.6795C31.6164 32.842 31.8368 32.9333 32.0667 32.9333H39C39.2299 32.9333 39.4503 32.842 39.6128 32.6795C39.7754 32.517 39.8667 32.2965 39.8667 32.0667V27.8018C40.0703 27.7238 40.2757 27.6397 40.4829 27.547L43.5006 30.5647C43.6662 30.7213 43.8854 30.8086 44.1133 30.8086C44.3412 30.8086 44.5605 30.7213 44.7261 30.5647L49.6314 25.6594C49.7939 25.4969 49.8852 25.2765 49.8852 25.0467C49.8852 24.8169 49.7939 24.5965 49.6314 24.4339L46.6137 21.4153C46.7064 21.2082 46.787 21.0037 46.8685 20.8H51.1333C51.3632 20.8 51.5836 20.7087 51.7462 20.5462C51.9087 20.3836 52 20.1632 52 19.9333V13C52 12.7701 51.9087 12.5497 51.7462 12.3872C51.5836 12.2246 51.3632 12.1333 51.1333 12.1333ZM50.2667 19.0667H46.254C46.0697 19.0668 45.8903 19.1258 45.7418 19.2348C45.5932 19.3439 45.4834 19.4975 45.4281 19.6733C45.2572 20.2021 45.0454 20.7167 44.7945 21.2125C44.7132 21.3752 44.6851 21.5593 44.7142 21.7387C44.7433 21.9182 44.8281 22.084 44.9566 22.2127L47.7932 25.0467L44.1133 28.7265L41.2767 25.8899C41.1481 25.7614 40.9823 25.6766 40.8028 25.6475C40.6233 25.6184 40.4392 25.6466 40.2766 25.7279C39.7808 25.9788 39.2662 26.1906 38.7374 26.3614C38.5616 26.4167 38.408 26.5266 38.2989 26.6751C38.1898 26.8236 38.1309 27.003 38.1307 27.1873V31.2H32.9333V27.1873C32.9332 27.003 32.8742 26.8236 32.7652 26.6751C32.6561 26.5266 32.5025 26.4167 32.3267 26.3614C31.7979 26.1906 31.2833 25.9788 30.7875 25.7279C30.6248 25.6466 30.4407 25.6184 30.2613 25.6475C30.0818 25.6766 29.916 25.7614 29.7873 25.8899L26.9533 28.7265L23.2735 25.0467L26.1101 22.2101C26.2386 22.0814 26.3234 21.9156 26.3525 21.7361C26.3816 21.5567 26.3535 21.3726 26.2721 21.2099C26.0212 20.7141 25.8094 20.1995 25.6386 19.6707C25.5833 19.4949 25.4734 19.3413 25.3249 19.2322C25.1764 19.1231 24.997 19.0642 24.8127 19.0641H20.8V13.8667H24.8127C24.997 13.8665 25.1764 13.8076 25.3249 13.6985C25.4734 13.5894 25.5833 13.4358 25.6386 13.26C25.8094 12.7312 26.0212 12.2166 26.2721 11.7208C26.3535 11.5582 26.3816 11.3741 26.3525 11.1946C26.3234 11.0151 26.2386 10.8493 26.1101 10.7207L23.2735 7.88667L26.9533 4.2068L29.7899 7.0434C29.9186 7.17192 30.0844 7.25672 30.2638 7.2858C30.4433 7.31489 30.6274 7.28678 30.7901 7.20547C31.285 6.95469 31.7988 6.74287 32.3267 6.57193C32.5025 6.51665 32.6561 6.40676 32.7652 6.25824C32.8742 6.10972 32.9332 5.93028 32.9333 5.746V1.73333H38.1333V5.746C38.1335 5.93028 38.1924 6.10972 38.3015 6.25824C38.4106 6.40676 38.5642 6.51665 38.74 6.57193C39.2688 6.74275 39.7834 6.95457 40.2792 7.20547C40.4418 7.28678 40.6259 7.31489 40.8054 7.2858C40.9849 7.25672 41.1507 7.17192 41.2793 7.0434L44.1133 4.2068L47.7932 7.88667L44.9566 10.7233C44.8281 10.8519 44.7433 11.0177 44.7142 11.1972C44.6851 11.3767 44.7132 11.5608 44.7945 11.7234C45.0454 12.2192 45.2572 12.7338 45.4281 13.2626C45.4834 13.4384 45.5932 13.592 45.7418 13.7011C45.8903 13.8102 46.0697 13.8691 46.254 13.8693H50.2667V19.0667Z" fill="#849C82"/>
<path d="M35.5333 9.53333C34.162 9.53333 32.8216 9.93997 31.6814 10.7018C30.5412 11.4637 29.6525 12.5465 29.1278 13.8134C28.603 15.0803 28.4657 16.4744 28.7332 17.8193C29.0007 19.1642 29.6611 20.3996 30.6307 21.3693C31.6004 22.3389 32.8358 22.9993 34.1807 23.2668C35.5256 23.5343 36.9197 23.397 38.1866 22.8722C39.4535 22.3475 40.5363 21.4588 41.2982 20.3186C42.06 19.1784 42.4667 17.8379 42.4667 16.4667C42.4646 14.6285 41.7335 12.8661 40.4337 11.5663C39.1339 10.2665 37.3715 9.5354 35.5333 9.53333ZM35.5333 21.6667C34.5049 21.6667 33.4995 21.3617 32.6444 20.7903C31.7892 20.2189 31.1227 19.4068 30.7292 18.4566C30.3356 17.5064 30.2326 16.4609 30.4333 15.4522C30.6339 14.4435 31.1291 13.5169 31.8564 12.7897C32.5836 12.0625 33.5102 11.5672 34.5189 11.3666C35.5276 11.1659 36.5731 11.2689 37.5233 11.6625C38.4735 12.0561 39.2856 12.7226 39.857 13.5777C40.4284 14.4328 40.7333 15.4382 40.7333 16.4667C40.732 17.8454 40.1837 19.1672 39.2088 20.1421C38.2339 21.117 36.912 21.6653 35.5333 21.6667Z" fill="#849C82"/>
<path d="M10.4 49.4C10.9142 49.4 11.4169 49.2475 11.8445 48.9618C12.2721 48.6761 12.6053 48.2701 12.8021 47.795C12.9989 47.3199 13.0504 46.7971 12.95 46.2928C12.8497 45.7884 12.6021 45.3251 12.2385 44.9615C11.8749 44.5979 11.4116 44.3503 10.9072 44.25C10.4029 44.1496 9.88011 44.2011 9.40502 44.3979C8.92994 44.5947 8.52387 44.928 8.23818 45.3555C7.95249 45.7831 7.8 46.2858 7.8 46.8C7.8 47.4896 8.07393 48.1509 8.56152 48.6385C9.04912 49.1261 9.71044 49.4 10.4 49.4ZM10.4 45.9333C10.5714 45.9333 10.739 45.9842 10.8815 46.0794C11.024 46.1746 11.1351 46.31 11.2007 46.4683C11.2663 46.6267 11.2835 46.801 11.25 46.9691C11.2166 47.1372 11.134 47.2916 11.0128 47.4128C10.8916 47.534 10.7372 47.6166 10.5691 47.65C10.401 47.6835 10.2267 47.6663 10.0683 47.6007C9.90998 47.5351 9.77462 47.424 9.67939 47.2815C9.58416 47.139 9.53333 46.9714 9.53333 46.8C9.53333 46.5701 9.62464 46.3497 9.78717 46.1872C9.94971 46.0246 10.1701 45.9333 10.4 45.9333Z" fill="#849C82"/>
<path d="M22.5333 15.6H24.2667V17.3333H22.5333V15.6Z" fill="#849C82"/>
<path d="M25.7233 25.0466L26.9489 23.8209L28.1746 25.0466L26.9489 26.2722L25.7233 25.0466Z" fill="#849C82"/>
<path d="M34.6667 27.7333H36.4V29.4667H34.6667V27.7333Z" fill="#849C82"/>
<path d="M42.8806 25.0484L44.1062 23.8227L45.3319 25.0484L44.1062 26.274L42.8806 25.0484Z" fill="#849C82"/>
<path d="M46.8 15.6H48.5333V17.3333H46.8V15.6Z" fill="#849C82"/>
<path d="M42.8824 7.89109L44.1081 6.66544L45.3337 7.89109L44.1081 9.11674L42.8824 7.89109Z" fill="#849C82"/>
</svg>
