<svg width="52" height="47" viewBox="0 0 52 47" fill="none" xmlns="http://www.w3.org/2000/svg">
<path d="M19.1082 19.3621H18.8544V15.554C18.8544 14.8756 18.0315 14.5378 17.5543 15.0155L16.5386 16.0309C16.2413 16.3285 16.2413 16.8106 16.5386 17.108C16.753 17.3222 17.0632 17.3818 17.3311 17.2878V19.3621H17.0772C16.6567 19.3621 16.3156 19.703 16.3156 20.1238C16.3156 20.5445 16.6566 20.8854 17.0772 20.8854H19.1082C19.5288 20.8854 19.8699 20.5445 19.8699 20.1238C19.8699 19.703 19.5288 19.3621 19.1082 19.3621Z" fill="#849C82"/>
<path d="M23.0241 14.7923C21.7642 14.7923 20.7394 15.8173 20.7394 17.0772V18.6004C20.7394 19.8602 21.7642 20.8853 23.0241 20.8853C24.2841 20.8853 25.3091 19.8602 25.3091 18.6004V17.0772C25.3091 15.8172 24.2841 14.7923 23.0241 14.7923ZM23.7858 18.6005C23.7858 19.0206 23.4442 19.3621 23.0241 19.3621C22.6043 19.3621 22.2626 19.0206 22.2626 18.6005V17.0773C22.2626 16.6572 22.6043 16.3157 23.0241 16.3157C23.4442 16.3157 23.7858 16.6572 23.7858 17.0773V18.6005Z" fill="#849C82"/>
<path d="M28.4656 14.7923C27.2058 14.7923 26.1809 15.8173 26.1809 17.0772V18.6004C26.1809 19.8602 27.2058 20.8853 28.4656 20.8853C29.7256 20.8853 30.7506 19.8602 30.7506 18.6004V17.0772C30.7506 15.8172 29.7257 14.7923 28.4656 14.7923ZM29.2274 18.6005C29.2274 19.0206 28.8857 19.3621 28.4656 19.3621C28.0458 19.3621 27.7041 19.0206 27.7041 18.6005V17.0773C27.7041 16.6572 28.0458 16.3157 28.4656 16.3157C28.8857 16.3157 29.2274 16.6572 29.2274 17.0773V18.6005Z" fill="#849C82"/>
<path d="M32.384 16.3147C32.8046 16.3147 33.1457 15.9737 33.1457 15.553C33.1457 15.1323 32.8046 14.7914 32.384 14.7914C31.9633 14.7914 31.6224 15.1323 31.6224 15.553C31.6224 15.9736 31.9633 16.3147 32.384 16.3147Z" fill="#849C82"/>
<path d="M35.2925 14.8873C34.9246 14.6831 34.4611 14.8155 34.2568 15.1833L31.7183 19.7528C31.514 20.1204 31.6466 20.5841 32.0142 20.7884C32.38 20.9914 32.8446 20.8616 33.05 20.4923L35.5884 15.923C35.7926 15.5553 35.6602 15.0916 35.2925 14.8873Z" fill="#849C82"/>
<path d="M34.9228 19.3611C34.5021 19.3611 34.1611 19.7021 34.1611 20.1226C34.1611 20.5434 34.502 20.8843 34.9228 20.8843C35.3433 20.8843 35.6844 20.5434 35.6844 20.1226C35.6844 19.7021 35.3433 19.3611 34.9228 19.3611Z" fill="#849C82"/>
<path d="M0.761719 25.405C1.18239 25.405 1.52344 25.0641 1.52344 24.6433C1.52344 24.2232 1.86509 23.8816 2.28516 23.8816H49.7148C50.1349 23.8816 50.4766 24.2232 50.4766 24.6433C50.4766 25.0641 50.8175 25.405 51.2383 25.405C51.6591 25.405 52 25.0641 52 24.6433C52 23.3833 50.9748 22.3581 49.7148 22.3581H48.9834C48.8594 22.0217 48.6544 21.7163 48.3811 21.473L45.805 19.1803L47.3076 16.0765C47.8831 14.8881 47.2899 13.4653 46.0473 13.0335L42.7899 11.9013L42.9904 8.45849C43.0672 7.14234 41.9767 6.05299 40.6615 6.12956L37.2187 6.33005L36.0865 3.07274C35.6539 1.82768 34.23 1.23811 33.0435 1.81224L29.9395 3.31496L27.6469 0.738829C26.7692 -0.247241 25.2292 -0.245311 24.3533 0.738829L22.0607 3.31496L18.9566 1.81224C17.7728 1.23902 16.3472 1.82524 15.9136 3.07253L14.7814 6.33005L11.3387 6.12956C10.0257 6.05258 8.93303 7.14031 9.00971 8.45849L9.2102 11.9013L5.95298 13.0335C4.70762 13.4661 4.11836 14.8903 4.69249 16.0765L6.19511 19.1803L3.61898 21.473C3.34567 21.7164 3.14072 22.0217 3.01671 22.3581H2.28516C1.02507 22.3581 0 23.3833 0 24.6433C0 25.0641 0.341047 25.405 0.761719 25.405ZM7.63791 19.9357C7.89242 19.7093 7.96555 19.3413 7.81716 19.0347L6.06359 15.4128C5.88585 15.0456 6.06694 14.6069 6.45298 14.4725L10.2541 13.1512C10.5758 13.0394 10.7842 12.7275 10.7644 12.3874L10.5305 8.36993C10.5068 7.96399 10.8404 7.6272 11.2501 7.65036L15.2675 7.88426C15.6083 7.90406 15.9194 7.69566 16.0313 7.37401L17.3527 3.57283C17.4861 3.18872 17.9241 3.00459 18.2928 3.18344L21.915 4.93702C22.2214 5.0852 22.5894 5.01217 22.8159 4.75776L25.4912 1.75151C25.7624 1.44682 26.2371 1.44621 26.5089 1.75151L29.1843 4.75776C29.4108 5.01217 29.7788 5.0853 30.0851 4.93702L33.7074 3.18334C34.0753 3.0054 34.5135 3.1874 34.6475 3.57283L35.9689 7.37401C36.0808 7.69566 36.3928 7.90416 36.7326 7.88426L40.7502 7.65036C41.1587 7.6272 41.4935 7.96277 41.4697 8.36993L41.2358 12.3874C41.216 12.7275 41.4243 13.0394 41.746 13.1512L45.5473 14.4725C45.9324 14.6065 46.115 15.0447 45.9366 15.4127L44.183 19.0347C44.0347 19.3414 44.1079 19.7093 44.3623 19.9357L47.0844 22.3582H12.2871C12.6781 15.1954 18.6199 9.38566 26 9.38566H26.0051C32.4452 9.38566 38.093 13.9571 39.4337 20.255C39.5078 20.6043 39.8216 20.8582 40.1781 20.8582C40.232 20.8582 40.2848 20.8531 40.3376 20.8409C40.7479 20.7537 41.0109 20.3483 40.9236 19.938C40.9236 19.937 40.9236 19.937 40.9236 19.9359C39.452 13.0276 33.3067 7.86212 26.0001 7.86212C17.8555 7.86212 11.1567 14.2835 10.7611 22.3581H4.91593L7.63791 19.9357Z" fill="#849C82"/>
<path d="M51.2383 29.9753C50.8175 29.9753 50.4766 30.3163 50.4766 30.737C50.4766 31.1571 50.1349 31.4988 49.7148 31.4988H2.28516C1.86509 31.4988 1.52344 31.1571 1.52344 30.737C1.52344 30.3163 1.18239 29.9753 0.761719 29.9753C0.341047 29.9753 0 30.3163 0 30.737C0 31.997 1.02507 33.0222 2.28516 33.0222H8.14095L9.2237 34.105L9.00971 37.7811C8.93334 39.0941 10.0197 40.1867 11.3387 40.1101L14.7814 39.9097L15.9136 43.167C16.3465 44.4123 17.7705 45.0018 18.9566 44.4275L22.0606 42.9247L24.3533 45.5009C25.2297 46.4857 26.7709 46.485 27.6469 45.5009L29.9395 42.9247L33.0434 44.4275C34.2297 45.0019 35.6538 44.412 36.0864 43.1672L37.2186 39.9098L40.6613 40.1102C41.9841 40.1871 43.0664 39.0905 42.9903 37.7812L42.7763 34.1051L43.8592 33.0223H49.7148C50.9748 33.0223 52 31.9971 52 30.7371C52 30.3163 51.6591 29.9753 51.2383 29.9753ZM41.2356 33.8523L41.4695 37.8697C41.4933 38.2756 41.1596 38.6129 40.7499 38.5893L36.7324 38.3554C36.3926 38.3354 36.0806 38.544 35.9687 38.8657L34.6473 42.667C34.5132 43.0525 34.0747 43.2344 33.7071 43.0563L30.0849 41.3027C29.7782 41.1543 29.4106 41.2275 29.1841 41.4819L26.5087 44.4882C26.2375 44.7929 25.7628 44.7934 25.4911 44.4882L22.8157 41.4819C22.5892 41.2275 22.2214 41.1545 21.9147 41.3027L18.2927 43.0564C17.9233 43.235 17.4859 43.0508 17.3526 42.6669L16.0312 38.8657C15.9194 38.544 15.608 38.3347 15.2675 38.3554L11.2501 38.5893C10.8392 38.6119 10.5068 38.2752 10.5305 37.8697L10.7644 33.8523C10.7771 33.6352 10.6964 33.4231 10.5426 33.2694L10.2954 33.0222H35.5056C32.9565 35.4746 29.5747 36.854 25.9999 36.854C22.8342 36.854 19.8574 35.802 17.3915 33.8134C17.0683 33.5509 16.5891 33.5962 16.32 33.9271C16.0569 34.2541 16.1077 34.7344 16.4347 34.9986C16.4358 34.9986 16.4358 34.9996 16.4358 34.9996C19.0987 37.1488 22.4419 38.3776 25.9979 38.3776L25.9999 38.3725L26.0019 38.3776C30.496 38.3776 34.6998 36.4099 37.598 33.0223H41.7044L41.4572 33.2695C41.3036 33.4231 41.223 33.6352 41.2356 33.8523Z" fill="#849C82"/>
<path d="M4.45412 26.1669H5.01302C5.4338 26.1669 5.77474 25.8261 5.77474 25.4052C5.77474 24.9845 5.4339 24.6437 5.01302 24.6437H4.45412C2.77428 24.6437 1.40755 26.0103 1.40755 27.6901C1.40755 29.37 2.77428 30.7366 4.45412 30.7366C5.26784 30.7366 6.03271 30.4198 6.60816 29.8443C7.18362 29.2689 7.50059 28.504 7.50059 27.6901C7.50059 27.2695 7.15985 26.9285 6.73898 26.9285H5.41948C4.9988 26.9285 4.65776 27.2694 4.65776 27.6901C4.65776 28.1109 4.9987 28.4518 5.41948 28.4518H5.77403C5.70822 28.5657 5.62687 28.6716 5.5313 28.7672C5.24337 29.055 4.86088 29.2134 4.45412 29.2134C3.6141 29.2134 2.93089 28.53 2.93089 27.6901C2.93089 26.8503 3.6141 26.1669 4.45412 26.1669Z" fill="#849C82"/>
<path d="M8.86945 24.6437C8.44888 24.6437 8.10784 24.9845 8.10784 25.4052V28.1623C8.10784 29.582 9.26931 30.7366 10.6974 30.7366C12.1252 30.7366 13.2868 29.582 13.2868 28.1623V25.4052C13.2868 24.9846 12.9459 24.6437 12.5253 24.6437C12.1046 24.6437 11.7636 24.9845 11.7636 25.4052V28.1623C11.7636 28.7418 11.2852 29.2134 10.6973 29.2134C10.1093 29.2134 9.63097 28.7418 9.63097 28.1623V25.4052C9.63117 24.9845 9.29002 24.6437 8.86945 24.6437Z" fill="#849C82"/>
<path d="M16.1318 24.6437C15.8144 24.6437 15.5301 24.8405 15.4187 25.1377L13.705 29.7075C13.5573 30.1015 13.757 30.5404 14.1507 30.688C14.5447 30.8354 14.9835 30.6362 15.1314 30.2423L15.2316 29.9749H17.032L17.1324 30.2423C17.2808 30.6383 17.7216 30.8351 18.1129 30.688C18.5065 30.5404 18.7061 30.1015 18.5584 29.7075L16.8449 25.1377C16.7333 24.8405 16.4492 24.6437 16.1318 24.6437ZM15.8026 28.4518L16.1317 27.5743L16.4606 28.4518H15.8026Z" fill="#849C82"/>
<path d="M23.9897 26.9287C23.9897 25.6689 22.9704 24.6438 21.7176 24.6438H20.2323C19.8117 24.6438 19.4706 24.9846 19.4706 25.4053V29.9751C19.4706 30.3959 19.8116 30.7367 20.2323 30.7367C20.6528 30.7367 20.994 30.3959 20.994 29.9751V29.2135H21.4001L22.6872 30.5114C22.836 30.6616 23.032 30.7367 23.2281 30.7367C23.4218 30.7367 23.6157 30.6631 23.7643 30.5159C24.0629 30.2198 24.0649 29.7375 23.7689 29.4389L23.0865 28.7508C23.6347 28.3332 23.9897 27.6719 23.9897 26.9287ZM21.7176 27.6901H20.994V26.1669H21.7176C22.1304 26.1669 22.4663 26.5085 22.4663 26.9285C22.4663 27.3485 22.1305 27.6901 21.7176 27.6901Z" fill="#849C82"/>
<path d="M27.2258 24.6437C26.9084 24.6437 26.6241 24.8405 26.5127 25.1377L24.799 29.7075C24.6511 30.1015 24.8509 30.5404 25.2447 30.688C25.6386 30.8354 26.0775 30.6362 26.2254 30.2423L26.3256 29.9749H28.1261L28.2265 30.2423C28.341 30.5481 28.6313 30.7366 28.9395 30.7366C29.0284 30.7366 29.1188 30.7211 29.2068 30.688C29.6005 30.5404 29.8001 30.1015 29.6524 29.7075L27.9388 25.1377C27.8273 24.8405 27.5431 24.6437 27.2258 24.6437ZM26.8966 28.4518L27.2257 27.5743L27.5546 28.4518H26.8966Z" fill="#849C82"/>
<path d="M33.8143 25.4052V27.6485L31.8389 24.955C31.6441 24.6896 31.3008 24.5791 30.9878 24.6817C30.6747 24.7841 30.4632 25.0763 30.4632 25.4054V29.9751C30.4632 30.3959 30.8041 30.7367 31.2248 30.7367C31.6454 30.7367 31.9865 30.3959 31.9865 29.9751V27.7319L33.9618 30.4254C34.3936 31.0144 35.3378 30.7145 35.3378 29.9749V25.4051C35.3377 24.9845 34.9967 24.6436 34.576 24.6436C34.1553 24.6437 33.8143 24.9845 33.8143 25.4052Z" fill="#849C82"/>
<path d="M38.2596 30.7366C38.6803 30.7366 39.0212 30.3958 39.0212 29.975V26.1669H39.9861C40.4066 26.1669 40.7477 25.8261 40.7477 25.4052C40.7477 24.9845 40.4067 24.6437 39.9861 24.6437H36.5334C36.1127 24.6437 35.7716 24.9845 35.7716 25.4052C35.7716 25.8261 36.1126 26.1669 36.5334 26.1669H37.4981V29.975C37.4981 30.3958 37.839 30.7366 38.2596 30.7366Z" fill="#849C82"/>
<path d="M44.2922 26.1669C44.7129 26.1669 45.0538 25.8261 45.0538 25.4052C45.0538 24.9845 44.713 24.6437 44.2922 24.6437H41.9566C41.536 24.6437 41.195 24.9845 41.195 25.4052V29.975C41.195 30.3958 41.5359 30.7366 41.9566 30.7366H44.2922C44.7129 30.7366 45.0538 30.3958 45.0538 29.975C45.0538 29.5542 44.7129 29.2134 44.2922 29.2134H42.7182V28.4518H43.6829C44.1036 28.4518 44.4445 28.1109 44.4445 27.6901C44.4445 27.2694 44.1036 26.9285 43.6829 26.9285H42.7182V26.1669H44.2922Z" fill="#849C82"/>
<path d="M49.0183 26.1669C49.439 26.1669 49.7799 25.8261 49.7799 25.4052C49.7799 24.9845 49.4391 24.6437 49.0183 24.6437H46.6827C46.2621 24.6437 45.9211 24.9845 45.9211 25.4052V29.975C45.9211 30.3958 46.262 30.7366 46.6827 30.7366H49.0183C49.439 30.7366 49.7799 30.3958 49.7799 29.975C49.7799 29.5542 49.439 29.2134 49.0183 29.2134H47.4443V28.4518H48.4091C48.8297 28.4518 49.1706 28.1109 49.1706 27.6901C49.1706 27.2694 48.8297 26.9285 48.4091 26.9285H47.4443V26.1669H49.0183Z" fill="#849C82"/>
</svg>
