<svg width="18" height="12" viewBox="0 0 18 12" fill="none" xmlns="http://www.w3.org/2000/svg">
<path d="M0.000315237 6.00074C0.000315189 6.36875 0.299019 6.66745 0.66704 6.66745L16.668 6.66745C17.036 6.66745 17.3347 6.36876 17.3347 6.00074C17.3347 5.63273 17.0359 5.33403 16.6679 5.33403L0.666979 5.33403C0.298958 5.33403 0.000315285 5.63273 0.000315237 6.00074Z" fill="#7B6858"/>
<path d="M5.52874 0.19501L0.195109 5.52863C-0.0649067 5.78864 -0.0649067 6.21135 0.195109 6.47137L5.52874 11.805C5.78876 12.065 6.21147 12.065 6.47149 11.805C6.7315 11.545 6.7315 11.1223 6.47149 10.8622L1.60988 6.00065L6.47286 1.13906C6.60218 1.00837 6.66756 0.837735 6.66756 0.667038C6.66756 0.496341 6.60225 0.325705 6.47155 0.19501C6.21141 -0.0650048 5.78876 -0.0650048 5.52874 0.19501Z" fill="#7B6858"/>
</svg>
