<svg width="13" height="9" viewBox="0 0 13 9" fill="none" xmlns="http://www.w3.org/2000/svg">
<path d="M7.25102 7.88509L12.683 2.44505C12.8944 2.24471 13 1.99454 13 1.69405C13 1.39355 12.8942 1.14338 12.683 0.943044L12.0571 0.308912C11.8512 0.103049 11.601 0.000116776 11.3062 0.000116763C11.017 0.000116751 10.7638 0.103019 10.5469 0.308912L6.49999 4.36402L2.44473 0.308736C2.2389 0.102931 1.9887 -4.81319e-07 1.69385 -4.94208e-07C1.40463 -5.0685e-07 1.15137 0.102902 0.934571 0.308736L0.308769 0.942927C0.102934 1.14876 3.20292e-05 1.39919 3.20163e-05 1.69393C3.20035e-05 1.98879 0.102934 2.23916 0.308769 2.44494L5.74071 7.88509C5.95765 8.09101 6.21077 8.19403 6.50002 8.19403C6.79484 8.19406 7.04519 8.09101 7.25102 7.88509Z" fill="#7A695B"/>
</svg>
