<svg width="15" height="15" viewBox="0 0 15 15" fill="none" xmlns="http://www.w3.org/2000/svg">
<path d="M12.8034 2.19675C11.3868 0.780205 9.50337 0 7.50005 0C5.49672 0 3.61329 0.780205 2.1967 2.19675C0.780156 3.61329 0 5.49672 0 7.50005C0 9.50333 0.780156 11.3868 2.1967 12.8033C3.61329 14.2199 5.49667 15 7.5 15C9.50333 15 11.3867 14.2198 12.8033 12.8033C14.2198 11.3868 15 9.50333 15 7.50005C15 5.49672 14.2199 3.61329 12.8034 2.19675ZM11.7241 5.8811L7.47588 10.62C7.35715 10.7524 7.18645 10.8284 7.00753 10.8284C6.8523 10.8284 6.70341 10.7716 6.58835 10.6684L3.42093 7.82897C3.16288 7.59765 3.14117 7.1995 3.37249 6.94154L4.06171 6.1727C4.18044 6.04029 4.35114 5.96429 4.53006 5.96429C4.68529 5.96429 4.83414 6.0211 4.94914 6.12421L6.6278 7.62917C6.68958 7.68452 6.76964 7.71498 6.85327 7.71498C6.94991 7.71498 7.0419 7.67413 7.10567 7.60302L10.0193 4.35288C10.138 4.22047 10.3087 4.14448 10.4876 4.14448C10.6429 4.14448 10.7917 4.20128 10.9067 4.30444L11.6756 4.99372C11.9338 5.22499 11.9555 5.62309 11.7241 5.8811Z" fill="#7A695B"/>
</svg>
