<svg width="9" height="6" viewBox="0 0 9 6" fill="none" xmlns="http://www.w3.org/2000/svg">
<path d="M5.01994 0.377516L8.78051 4.1437C8.92686 4.28239 9 4.45559 9 4.66362C9 4.87166 8.92678 5.04485 8.78051 5.18355L8.3472 5.62256C8.2047 5.76508 8.03149 5.83634 7.82738 5.83634C7.62713 5.83634 7.45186 5.7651 7.30171 5.62256L4.49999 2.81518L1.69251 5.62269C1.55001 5.76517 1.37679 5.83643 1.17266 5.83643C0.972439 5.83643 0.797101 5.76519 0.647013 5.62269L0.213765 5.18363C0.0712645 5.04113 2.37995e-05 4.86775 2.37906e-05 4.6637C2.37817e-05 4.45957 0.0712645 4.28624 0.213765 4.14378L3.97434 0.377516C4.12453 0.234955 4.29977 0.163633 4.50001 0.163633C4.70412 0.163612 4.87744 0.234955 5.01994 0.377516Z" fill="#7B6858"/>
</svg>
