<svg width="12" height="8" viewBox="0 0 12 8" fill="none" xmlns="http://www.w3.org/2000/svg">
<path d="M6.69324 7.39044L11.7073 2.29167C11.9025 2.1039 12 1.86942 12 1.58778C12 1.30613 11.9024 1.07166 11.7073 0.883884L11.1296 0.289533C10.9396 0.0965841 10.7086 0.000109451 10.4365 0.000109439C10.1695 0.000109428 9.9358 0.0965566 9.7356 0.289533L5.99997 4.09025L2.25665 0.289369C2.06665 0.0964742 1.8357 -4.44296e-07 1.56352 -4.56193e-07C1.29656 -4.67862e-07 1.06277 0.0964468 0.862654 0.289369L0.284988 0.883774C0.0949869 1.0767 -5.73239e-08 1.31142 -6.93991e-08 1.58767C-8.14791e-08 1.86402 0.0949868 2.09869 0.284988 2.29156L5.2991 7.39044C5.49935 7.58344 5.733 7.68 6 7.68C6.27215 7.68003 6.50323 7.58344 6.69324 7.39044Z" fill="white"/>
</svg>
