<svg width="8" height="13" viewBox="0 0 8 13" fill="none" xmlns="http://www.w3.org/2000/svg">
<path d="M7.55059 6.14661L2.45182 1.13249C2.26405 0.937367 2.02958 0.839844 1.74793 0.839844C1.46629 0.839844 1.23181 0.937475 1.04404 1.13249L0.449689 1.71024C0.25674 1.90024 0.160266 2.13119 0.160266 2.40334C0.160266 2.67034 0.256713 2.90404 0.449689 3.10424L4.25041 6.83987L0.449525 10.5832C0.256631 10.7732 0.160156 11.0041 0.160156 11.2763C0.160156 11.5433 0.256603 11.7771 0.449525 11.9772L1.04393 12.5549C1.23685 12.7449 1.47157 12.8398 1.74782 12.8398C2.02418 12.8398 2.25885 12.7449 2.45171 12.5549L7.55059 7.54074C7.7436 7.34049 7.84016 7.10684 7.84016 6.83984C7.84018 6.5677 7.7436 6.33661 7.55059 6.14661Z" fill="white"/>
</svg>
