<svg width="4" height="6" viewBox="0 0 4 6" fill="none" xmlns="http://www.w3.org/2000/svg">
<path d="M3.63928 2.65338L1.12849 0.146325C1.03602 0.0487614 0.920561 0 0.78187 0C0.64318 0 0.527717 0.0488154 0.435252 0.146325L0.142575 0.435197C0.047561 0.530198 5.3925e-05 0.645674 5.3925e-05 0.781747C5.3925e-05 0.915244 0.0475475 1.0321 0.142575 1.1322L2.01417 3.00001L0.142494 4.87166C0.0475071 4.96666 0 5.08214 0 5.21823C0 5.35171 0.0474936 5.4686 0.142494 5.56866L0.435198 5.85749C0.530199 5.95249 0.645783 5.99999 0.781816 5.99999C0.917903 5.99999 1.03346 5.95249 1.12843 5.85749L3.63928 3.35044C3.73432 3.25032 3.78187 3.13349 3.78187 2.99999C3.78188 2.86392 3.73432 2.74838 3.63928 2.65338Z" fill="white"/>
</svg>
