<svg width="18" height="12" viewBox="0 0 18 12" fill="none" xmlns="http://www.w3.org/2000/svg">
<path d="M0.000559378 6.00074C0.000559345 6.36875 0.299263 6.66745 0.667284 6.66745L16.6682 6.66745C17.0363 6.66745 17.335 6.36876 17.335 6.00074C17.335 5.63273 17.0362 5.33403 16.6682 5.33403L0.667224 5.33403C0.299203 5.33403 0.00055941 5.63273 0.000559378 6.00074Z" fill="#7B6858"/>
<path d="M5.52899 0.19501L0.195353 5.52863C-0.0646624 5.78864 -0.0646624 6.21135 0.195353 6.47137L5.52899 11.805C5.789 12.065 6.21172 12.065 6.47173 11.805C6.73175 11.545 6.73175 11.1223 6.47173 10.8622L1.61013 6.00065L6.47311 1.13906C6.60243 1.00837 6.66781 0.837735 6.66781 0.667038C6.66781 0.496341 6.60249 0.325706 6.4718 0.19501C6.21165 -0.0650044 5.789 -0.0650044 5.52899 0.19501Z" fill="#7B6858"/>
</svg>
