<svg width="18" height="12" viewBox="0 0 18 12" fill="none" xmlns="http://www.w3.org/2000/svg">
<path d="M17.3344 5.99926C17.3344 5.63124 17.0357 5.33255 16.6677 5.33255L0.666727 5.33255C0.298705 5.33255 1.60865e-08 5.63124 0 5.99926C-1.60862e-08 6.36727 0.298768 6.66597 0.666789 6.66597L16.6677 6.66597C17.0358 6.66597 17.3344 6.36727 17.3344 5.99926Z" fill="#7B6858"/>
<path d="M11.806 11.805L17.1396 6.47137C17.3996 6.21136 17.3996 5.78864 17.1396 5.52863L11.806 0.195011C11.546 -0.0650037 11.1232 -0.0650037 10.8632 0.195011C10.6032 0.455026 10.6032 0.877737 10.8632 1.13775L15.7248 5.99934L10.8619 10.8609C10.7325 10.9916 10.6672 11.1623 10.6672 11.333C10.6672 11.5037 10.7325 11.6743 10.8632 11.805C11.1233 12.065 11.546 12.065 11.806 11.805Z" fill="#7B6858"/>
</svg>
