<svg width="13" height="9" viewBox="0 0 13 9" fill="none" xmlns="http://www.w3.org/2000/svg">
<path d="M5.74898 0.308757L0.317037 5.7488C0.10565 5.94913 2.37847e-08 6.1993 2.02013e-08 6.4998C1.6618e-08 6.80029 0.105767 7.05046 0.317037 7.2508L0.942927 7.88494C1.14876 8.0908 1.39896 8.19373 1.69379 8.19373C1.98303 8.19373 2.23621 8.09083 2.45309 7.88494L6.50001 3.82983L10.5553 7.88511C10.7611 8.09092 11.0113 8.19385 11.3062 8.19385C11.5954 8.19385 11.8486 8.09095 12.0654 7.88511L12.6912 7.25092C12.8971 7.04509 13 6.79465 13 6.49992C13 6.20506 12.8971 5.95469 12.6912 5.74891L7.25929 0.308757C7.04235 0.102835 6.78923 -0.000185886 6.49998 -0.000185889C6.20516 -0.000215456 5.95481 0.102835 5.74898 0.308757Z" fill="#7A695B"/>
</svg>
