<svg width="18" height="18" viewBox="0 0 18 18" fill="none" xmlns="http://www.w3.org/2000/svg">
<g clip-path="url(#clip0_429_539)">
<path d="M9.04077 0C9.03595 0.00482273 9.0263 0.00482273 9.01183 0.00482273C4.13122 0.00482273 0.162109 3.97393 0.162109 8.85453C0.162109 10.8463 0.842115 12.7802 2.08638 14.338L0.798711 17.3281C0.69261 17.574 0.808356 17.8586 1.04949 17.9599C1.1363 17.9984 1.23276 18.0081 1.32439 17.9936L6.04585 17.1641C6.99111 17.5065 7.98459 17.6801 8.98772 17.6753C13.8683 17.6753 17.8374 13.7062 17.8374 8.8256C17.8471 3.95946 13.9069 0.00482273 9.04077 0ZM8.99254 16.7156C8.06175 16.7156 7.14061 16.5468 6.26769 16.2188C6.18571 16.1851 6.0989 16.1803 6.01209 16.1947L2.03815 16.8892L3.08951 14.4441C3.16185 14.2753 3.13292 14.0776 3.01235 13.9377C2.44326 13.277 1.98993 12.5246 1.67163 11.7096C1.31474 10.7981 1.13148 9.82873 1.13148 8.84971C1.13148 4.49961 4.67137 0.964546 9.01666 0.964546C13.3523 0.954901 16.8729 4.46103 16.8777 8.79666C16.8777 8.80631 16.8777 8.81595 16.8777 8.8256C16.8777 13.1805 13.3378 16.7156 8.99254 16.7156Z" fill="#7B6858"/>
<path d="M8.61683 7.07495H6.01255C5.7473 7.07495 5.53027 7.29197 5.53027 7.55722C5.53027 7.82248 5.7473 8.0395 6.01255 8.0395H8.61683C8.88208 8.0395 9.0991 7.82248 9.0991 7.55722C9.0991 7.29197 8.88208 7.07495 8.61683 7.07495Z" fill="#7B6858"/>
<path d="M11.9928 9.48633H6.01255C5.7473 9.48633 5.53027 9.70335 5.53027 9.96861C5.53027 10.2339 5.7473 10.4509 6.01255 10.4509H11.9928C12.258 10.4509 12.475 10.2339 12.475 9.96861C12.475 9.70335 12.258 9.48633 11.9928 9.48633Z" fill="#7B6858"/>
</g>
<defs>
<clipPath id="clip0_429_539">
<rect width="18" height="18" fill="white"/>
</clipPath>
</defs>
</svg>
