<svg width="14" height="14" viewBox="0 0 14 14" fill="none" xmlns="http://www.w3.org/2000/svg">
<g clip-path="url(#clip0_405_1212)">
<path d="M14 6.99999C14 3.14027 10.8597 -1.37265e-07 7.00001 -3.05979e-07C3.1403 -4.74693e-07 2.8473e-05 3.14027 2.83043e-05 6.99999C2.81355e-05 10.8597 3.1403 14 7.00001 14C10.8597 14 14 10.8597 14 6.99999ZM0.608713 6.99999C0.608713 3.47564 3.47567 0.608685 7.00001 0.608685C10.5244 0.608686 13.3913 3.47564 13.3913 6.99999C13.3913 10.5243 10.5244 13.3913 7.00001 13.3913C3.47567 13.3913 0.608713 10.5243 0.608713 6.99999Z" fill="#7F947D"/>
<path d="M10.9565 6.99991C10.9565 6.83191 10.8202 6.69556 10.6522 6.69556L3.34785 6.69556C3.17985 6.69556 3.04349 6.83191 3.04349 6.99991C3.04349 7.1679 3.17988 7.30426 3.34788 7.30426L10.6522 7.30426C10.8202 7.30426 10.9565 7.1679 10.9565 6.99991Z" fill="#7F947D"/>
<path d="M8.43284 9.65014L10.8676 7.21537C10.9863 7.09668 10.9863 6.90371 10.8676 6.78502L8.43284 4.35025C8.31415 4.23156 8.12118 4.23156 8.00248 4.35025C7.88379 4.46895 7.88379 4.66191 8.00248 4.78061L10.2218 6.99989L8.00186 9.21918C7.94282 9.27884 7.91298 9.35674 7.91298 9.43466C7.91298 9.51258 7.94279 9.59047 8.00246 9.65014C8.12121 9.76883 8.31415 9.76883 8.43284 9.65014Z" fill="#7F947D"/>
</g>
<defs>
<clipPath id="clip0_405_1212">
<rect width="14" height="14" fill="white" transform="translate(14) rotate(90)"/>
</clipPath>
</defs>
</svg>
