<svg width="22" height="22" viewBox="0 0 22 22" fill="none" xmlns="http://www.w3.org/2000/svg">
<path d="M18.7782 3.22189C16.7006 1.1443 13.9383 0 11.0001 0C8.06186 0 5.29949 1.1443 3.22182 3.22189C1.14423 5.29949 0 8.06186 0 11.0001C0 13.9382 1.14423 16.7006 3.22182 18.7782C5.29949 20.8558 8.06179 22 11 22C13.9382 22 16.7005 20.8558 18.7782 18.7782C20.8558 16.7006 22 13.9382 22 11.0001C22.0001 8.06186 20.8558 5.29949 18.7782 3.22189ZM17.1954 8.62561L10.9646 15.576C10.7905 15.7702 10.5401 15.8817 10.2777 15.8817H10.2776C10.05 15.8816 9.83166 15.7983 9.66292 15.647L5.01736 11.4825C4.63889 11.1432 4.60705 10.5593 4.94632 10.1809L5.95718 9.05329C6.13132 8.85909 6.38168 8.74763 6.64409 8.74763C6.87176 8.74763 7.09007 8.83094 7.25874 8.98218L9.72077 11.1895C9.81139 11.2706 9.9288 11.3153 10.0515 11.3153C10.1932 11.3153 10.3281 11.2554 10.4216 11.1511L14.695 6.38423C14.8691 6.19003 15.1195 6.07857 15.3819 6.07857C15.6095 6.07857 15.8278 6.16188 15.9965 6.31318L17.1242 7.32412C17.5028 7.66331 17.5348 8.2472 17.1954 8.62561Z" fill="white"/>
</svg>
