<svg width="18" height="17" viewBox="0 0 18 17" fill="none" xmlns="http://www.w3.org/2000/svg">
<path d="M13.2404 7.63672C13.6006 7.63672 13.8926 7.33941 13.8926 6.97266C13.8926 6.6059 13.6006 6.30859 13.2404 6.30859C12.8802 6.30859 12.5881 6.6059 12.5881 6.97266C12.5881 7.33941 12.8802 7.63672 13.2404 7.63672Z" fill="#6E5B4C"/>
<path d="M14.7405 1.32812H13.8925V0.664062C13.8925 0.297301 13.6005 0 13.2403 0C12.88 0 12.588 0.297301 12.588 0.664062V1.32812H9.62029V0.664062C9.62029 0.297301 9.32828 0 8.96804 0C8.60781 0 8.31579 0.297301 8.31579 0.664062V1.32812H5.38067V0.664062C5.38067 0.297301 5.08866 0 4.72842 0C4.36818 0 4.07617 0.297301 4.07617 0.664062V1.32812H3.26086C1.82225 1.32812 0.651855 2.51972 0.651855 3.98438V14.3438C0.651855 15.8084 1.82225 17 3.26086 17H8.25057C8.61081 17 8.90282 16.7027 8.90282 16.3359C8.90282 15.9692 8.61081 15.6719 8.25057 15.6719H3.26086C2.54155 15.6719 1.95636 15.0761 1.95636 14.3438V3.98438C1.95636 3.25205 2.54155 2.65625 3.26086 2.65625H4.07617V3.32031C4.07617 3.68707 4.36818 3.98438 4.72842 3.98438C5.08866 3.98438 5.38067 3.68707 5.38067 3.32031V2.65625H8.31579V3.32031C8.31579 3.68707 8.60781 3.98438 8.96804 3.98438C9.32828 3.98438 9.62029 3.68707 9.62029 3.32031V2.65625H12.588V3.32031C12.588 3.68707 12.88 3.98438 13.2403 3.98438C13.6005 3.98438 13.8925 3.68707 13.8925 3.32031V2.65625H14.7405C15.4598 2.65625 16.045 3.25205 16.045 3.98438V7.76953C16.045 8.13629 16.337 8.43359 16.6972 8.43359C17.0574 8.43359 17.3495 8.13629 17.3495 7.76953V3.98438C17.3495 2.51972 16.1791 1.32812 14.7405 1.32812Z" fill="#6E5B4C"/>
<path d="M13.4034 8.96484C11.2275 8.96484 9.45728 10.7671 9.45728 12.9824C9.45728 15.1977 11.2275 17 13.4034 17C15.5793 17 17.3495 15.1977 17.3495 12.9824C17.3495 10.7671 15.5793 8.96484 13.4034 8.96484ZM13.4034 15.6719C11.9468 15.6719 10.7618 14.4654 10.7618 12.9824C10.7618 11.4994 11.9468 10.293 13.4034 10.293C14.86 10.293 16.045 11.4994 16.045 12.9824C16.045 14.4654 14.86 15.6719 13.4034 15.6719Z" fill="#6E5B4C"/>
<path d="M14.349 12.3184H14.0555V11.6211C14.0555 11.2543 13.7635 10.957 13.4032 10.957C13.043 10.957 12.751 11.2543 12.751 11.6211V12.9824C12.751 13.3492 13.043 13.6465 13.4032 13.6465H14.349C14.7092 13.6465 15.0012 13.3492 15.0012 12.9824C15.0012 12.6157 14.7092 12.3184 14.349 12.3184Z" fill="#6E5B4C"/>
<path d="M10.403 7.63672C10.7632 7.63672 11.0552 7.33941 11.0552 6.97266C11.0552 6.6059 10.7632 6.30859 10.403 6.30859C10.0428 6.30859 9.75073 6.6059 9.75073 6.97266C9.75073 7.33941 10.0428 7.63672 10.403 7.63672Z" fill="#6E5B4C"/>
<path d="M7.56558 10.5254C7.92581 10.5254 8.21783 10.2281 8.21783 9.86133C8.21783 9.49458 7.92581 9.19727 7.56558 9.19727C7.20535 9.19727 6.91333 9.49458 6.91333 9.86133C6.91333 10.2281 7.20535 10.5254 7.56558 10.5254Z" fill="#6E5B4C"/>
<path d="M4.72842 7.63672C5.08865 7.63672 5.38067 7.33941 5.38067 6.97266C5.38067 6.6059 5.08865 6.30859 4.72842 6.30859C4.36819 6.30859 4.07617 6.6059 4.07617 6.97266C4.07617 7.33941 4.36819 7.63672 4.72842 7.63672Z" fill="#6E5B4C"/>
<path d="M4.72842 10.5254C5.08865 10.5254 5.38067 10.2281 5.38067 9.86133C5.38067 9.49458 5.08865 9.19727 4.72842 9.19727C4.36819 9.19727 4.07617 9.49458 4.07617 9.86133C4.07617 10.2281 4.36819 10.5254 4.72842 10.5254Z" fill="#6E5B4C"/>
<path d="M4.72842 13.4141C5.08865 13.4141 5.38067 13.1168 5.38067 12.75C5.38067 12.3832 5.08865 12.0859 4.72842 12.0859C4.36819 12.0859 4.07617 12.3832 4.07617 12.75C4.07617 13.1168 4.36819 13.4141 4.72842 13.4141Z" fill="#6E5B4C"/>
<path d="M7.56558 13.4141C7.92581 13.4141 8.21783 13.1168 8.21783 12.75C8.21783 12.3832 7.92581 12.0859 7.56558 12.0859C7.20535 12.0859 6.91333 12.3832 6.91333 12.75C6.91333 13.1168 7.20535 13.4141 7.56558 13.4141Z" fill="#6E5B4C"/>
<path d="M7.56558 7.63672C7.92581 7.63672 8.21783 7.33941 8.21783 6.97266C8.21783 6.6059 7.92581 6.30859 7.56558 6.30859C7.20535 6.30859 6.91333 6.6059 6.91333 6.97266C6.91333 7.33941 7.20535 7.63672 7.56558 7.63672Z" fill="#6E5B4C"/>
</svg>
