<svg width="15" height="15" viewBox="0 0 15 15" fill="none" xmlns="http://www.w3.org/2000/svg">
<path d="M11.8599 9.29201C11.5528 8.97226 11.1824 8.80131 10.7899 8.80131C10.4005 8.80131 10.0269 8.9691 9.70716 9.28885L8.70675 10.2861C8.62443 10.2418 8.54212 10.2006 8.46297 10.1595C8.349 10.1025 8.24137 10.0487 8.14956 9.99167C7.21246 9.39649 6.36085 8.62085 5.54406 7.61728C5.14833 7.11707 4.88239 6.69601 4.68928 6.26862C4.94888 6.03118 5.18948 5.78425 5.42376 5.54681C5.5124 5.45816 5.60104 5.36635 5.68969 5.27771C6.35452 4.61288 6.35452 3.75177 5.68969 3.08694L4.82541 2.22266C4.72727 2.12452 4.62596 2.02321 4.53098 1.92191C4.34103 1.72562 4.14158 1.52301 3.9358 1.33306C3.62872 1.02913 3.26148 0.867676 2.87524 0.867676C2.48901 0.867676 2.11544 1.02913 1.79885 1.33306C1.79569 1.33622 1.79569 1.33622 1.79252 1.33939L0.716131 2.42528C0.310901 2.83051 0.079794 3.32438 0.0291403 3.8974C-0.0468402 4.82183 0.225423 5.68294 0.43437 6.24646C0.947238 7.62994 1.71337 8.91211 2.85625 10.2861C4.24289 11.9418 5.9113 13.2493 7.81714 14.1706C8.54529 14.5157 9.5172 14.9241 10.6031 14.9937C10.6696 14.9969 10.7392 15 10.8025 15C11.5339 15 12.148 14.7373 12.6292 14.2149C12.6324 14.2086 12.6387 14.2054 12.6419 14.1991C12.8065 13.9996 12.9965 13.8192 13.1959 13.6261C13.3321 13.4963 13.4714 13.3601 13.6075 13.2177C13.9209 12.8916 14.0855 12.5117 14.0855 12.1223C14.0855 11.7297 13.9177 11.353 13.598 11.0364L11.8599 9.29201ZM12.9933 12.6257C12.9901 12.6257 12.9901 12.6288 12.9933 12.6257C12.8698 12.7586 12.7432 12.8789 12.6071 13.0119C12.4013 13.2082 12.1924 13.414 11.9961 13.6451C11.6763 13.987 11.2996 14.1484 10.8057 14.1484C10.7582 14.1484 10.7076 14.1484 10.6601 14.1453C9.71982 14.0851 8.84604 13.7179 8.19071 13.4045C6.39884 12.537 4.82541 11.3055 3.51791 9.74473C2.43836 8.44356 1.71654 7.24054 1.2385 5.94887C0.944072 5.16057 0.836433 4.5464 0.883921 3.96705C0.915579 3.59664 1.05804 3.28955 1.32081 3.02679L2.40036 1.94723C2.55549 1.8016 2.72012 1.72246 2.88157 1.72246C3.08102 1.72246 3.24248 1.84276 3.34379 1.94407C3.34696 1.94723 3.35012 1.9504 3.35329 1.95356C3.5464 2.13402 3.73002 2.3208 3.92314 2.52025C4.02128 2.62156 4.12259 2.72287 4.2239 2.82734L5.08817 3.69162C5.42376 4.0272 5.42376 4.33745 5.08817 4.67303C4.99637 4.76484 4.90772 4.85665 4.81591 4.9453C4.54998 5.21756 4.29671 5.47083 4.02128 5.71776C4.01495 5.7241 4.00862 5.72726 4.00545 5.73359C3.73319 6.00586 3.78384 6.27179 3.84083 6.45224C3.84399 6.46174 3.84716 6.47124 3.85033 6.48073C4.0751 7.02526 4.39169 7.53813 4.8729 8.14914L4.87606 8.15231C5.74984 9.2287 6.6711 10.0676 7.68734 10.7103C7.81714 10.7926 7.95011 10.8591 8.07674 10.9224C8.19071 10.9794 8.29835 11.0332 8.39016 11.0902C8.40282 11.0965 8.41549 11.106 8.42815 11.1124C8.53579 11.1662 8.6371 11.1915 8.74157 11.1915C9.00434 11.1915 9.16896 11.0269 9.22278 10.9731L10.3055 9.89036C10.4131 9.78272 10.5841 9.65292 10.7835 9.65292C10.9798 9.65292 11.1413 9.77639 11.2394 9.88403C11.2426 9.88719 11.2426 9.88719 11.2458 9.89036L12.9901 11.6347C13.3162 11.9577 13.3162 12.2901 12.9933 12.6257Z" fill="white"/>
<path d="M8.11156 3.56805C8.94102 3.70735 9.69449 4.09992 10.296 4.70143C10.8975 5.30294 11.2869 6.05641 11.4294 6.88587C11.4642 7.09481 11.6447 7.24044 11.8504 7.24044C11.8758 7.24044 11.8979 7.23728 11.9233 7.23411C12.1575 7.19612 12.3127 6.97451 12.2747 6.74024C12.1037 5.73666 11.6288 4.82173 10.9039 4.09675C10.1789 3.37177 9.26394 2.89689 8.26036 2.72594C8.02609 2.68795 7.80764 2.84307 7.76648 3.07418C7.72533 3.30529 7.87729 3.53006 8.11156 3.56805Z" fill="white"/>
<path d="M14.9876 6.61682C14.7058 4.96424 13.927 3.46046 12.7303 2.26377C11.5336 1.06708 10.0299 0.288277 8.37729 0.0065158C8.14618 -0.0346403 7.92773 0.123652 7.88658 0.35476C7.84859 0.589033 8.00371 0.807477 8.23799 0.848633C9.71328 1.09874 11.0588 1.79839 12.1288 2.86528C13.1989 3.93534 13.8954 5.28083 14.1455 6.75612C14.1803 6.96506 14.3607 7.11069 14.5665 7.11069C14.5919 7.11069 14.614 7.10753 14.6393 7.10436C14.8705 7.06954 15.0287 6.84793 14.9876 6.61682Z" fill="white"/>
</svg>
