<svg width="13" height="12" viewBox="0 0 13 12" fill="none" xmlns="http://www.w3.org/2000/svg">
<path d="M8.4 0C6.2672 0 4 0.7008 4 2V3.6C4 3.8208 4.1792 4 4.4 4C4.6208 4 4.8 3.8208 4.8 3.6V3.1832C5.6488 3.7184 7.0504 4 8.4 4C9.7496 4 11.1512 3.7184 12 3.1832V3.6C12 3.9912 11.016 4.6152 9.1664 4.7696C8.9472 4.7872 8.7832 4.9816 8.8016 5.2016C8.8184 5.4104 8.9936 5.568 9.1992 5.568C9.2112 5.568 9.2216 5.5672 9.2336 5.5664C10.2752 5.4792 11.3128 5.2096 12 4.772V5.2C12 5.5416 11.2752 6.0328 9.9304 6.2704C9.7136 6.3088 9.568 6.5168 9.6064 6.7336C9.6408 6.9272 9.8096 7.064 9.9992 7.064C10.0224 7.064 10.0464 7.0624 10.0696 7.0576C10.8832 6.9144 11.5344 6.68 12 6.3824V6.8C12 7.1416 11.2752 7.6328 9.9304 7.8704C9.7136 7.9088 9.568 8.1168 9.6064 8.3336C9.6408 8.5272 9.8096 8.664 9.9992 8.664C10.0224 8.664 10.0464 8.6624 10.0696 8.6576C10.8832 8.5144 11.5344 8.2792 12 7.9824V8.4C12 8.7416 11.2752 9.2328 9.9304 9.4704C9.7136 9.5088 9.568 9.7168 9.6064 9.9336C9.6408 10.1272 9.8096 10.264 9.9992 10.264C10.0224 10.264 10.0464 10.2624 10.0696 10.2576C10.8832 10.1144 11.5344 9.8792 12 9.5824V10C12 10.3912 11.016 11.0152 9.1664 11.1696C8.9472 11.1872 8.7832 11.3816 8.8016 11.6016C8.8184 11.8104 8.9936 11.968 9.1992 11.968C9.2112 11.968 9.2216 11.9672 9.2336 11.9664C11.0088 11.8176 12.8 11.1528 12.8 10V2C12.8 0.7008 10.5328 0 8.4 0ZM8.4 3.2C6.2024 3.2 4.8 2.4888 4.8 2C4.8 1.5112 6.2024 0.8 8.4 0.8C10.5976 0.8 12 1.5112 12 2C12 2.4888 10.5976 3.2 8.4 3.2Z" fill="#7B6858"/>
<path d="M4.4 4.8C2.2672 4.8 0 5.5008 0 6.8V10C0 11.2992 2.2672 12 4.4 12C6.5328 12 8.8 11.2992 8.8 10V6.8C8.8 5.5008 6.5328 4.8 4.4 4.8ZM8 10C8 10.4888 6.5976 11.2 4.4 11.2C2.2024 11.2 0.8 10.4888 0.8 10V9.5832C1.6488 10.1184 3.0504 10.4 4.4 10.4C5.7496 10.4 7.1512 10.1184 8 9.5832V10ZM8 8.4C8 8.8888 6.5976 9.6 4.4 9.6C2.2024 9.6 0.8 8.8888 0.8 8.4V7.9832C1.6488 8.5184 3.0504 8.8 4.4 8.8C5.7496 8.8 7.1512 8.5184 8 7.9832V8.4ZM4.4 8C2.2024 8 0.8 7.2888 0.8 6.8C0.8 6.3112 2.2024 5.6 4.4 5.6C6.5976 5.6 8 6.3112 8 6.8C8 7.2888 6.5976 8 4.4 8Z" fill="#7B6858"/>
</svg>
