<svg width="16" height="12" viewBox="0 0 16 12" fill="none" xmlns="http://www.w3.org/2000/svg">
<path d="M10.7114 8.5973L15.2527 4.28271L12.42 1.30116L10.7114 8.5973ZM14.2257 4.25633L11.973 6.39617L12.8205 2.77742L14.2257 4.25633Z" fill="#7B6858"/>
<path d="M11.9692 0.995805L11.9531 0.991882L7.92876 0.0494484L7.91396 0.112259L10.3762 7.79809L11.9692 0.995805ZM8.97432 1.04063L11.096 1.53737L10.2672 5.07617L8.97432 1.04063Z" fill="#7B6858"/>
<path d="M3.39205 1.26628L3.5369 1.71854L9.937 8.11859L9.94104 8.10632L7.34404 0L3.39205 1.26628ZM4.51542 1.66932L6.87372 0.913961L8.34136 5.49573L4.51542 1.66932Z" fill="#7B6858"/>
<path d="M10.2483 9.08786L10.27 9.06565L2.93424 1.72984L2.92725 1.73695L0 4.66419L7.33577 12L10.2483 9.08786ZM2.93424 2.75734L9.24254 9.06565L7.33577 10.9725L1.02735 4.66419L2.93424 2.75734Z" fill="#7B6858"/>
<path d="M7.35861 8.4753C7.70972 8.4753 7.99437 8.76006 7.99437 9.11106C7.99437 9.46205 7.70972 9.74681 7.35861 9.74681C7.00746 9.74681 6.72281 9.46205 6.72281 9.11106C6.72281 8.76006 7.00746 8.4753 7.35861 8.4753Z" fill="#7B6858"/>
</svg>
