<svg width="15" height="17" viewBox="0 0 15 17" fill="none" xmlns="http://www.w3.org/2000/svg">
<path d="M9.25 3.75C9.25 3.45333 9.16203 3.16332 8.99721 2.91665C8.83238 2.66997 8.59812 2.47771 8.32403 2.36418C8.04994 2.25065 7.74834 2.22094 7.45737 2.27882C7.16639 2.3367 6.89912 2.47956 6.68934 2.68934C6.47956 2.89912 6.3367 3.16639 6.27882 3.45737C6.22095 3.74834 6.25065 4.04994 6.36418 4.32403C6.47771 4.59812 6.66997 4.83238 6.91665 4.99721C7.16332 5.16203 7.45333 5.25 7.75 5.25C8.14769 5.24956 8.52896 5.09138 8.81017 4.81017C9.09138 4.52896 9.24956 4.14769 9.25 3.75ZM6.75 3.75C6.75 3.55222 6.80865 3.35888 6.91853 3.19443C7.02841 3.02998 7.18459 2.90181 7.36732 2.82612C7.55004 2.75043 7.75111 2.73063 7.94509 2.76922C8.13907 2.8078 8.31726 2.90304 8.45711 3.04289C8.59696 3.18275 8.6922 3.36093 8.73079 3.55491C8.76937 3.74889 8.74957 3.94996 8.67388 4.13268C8.59819 4.31541 8.47002 4.47159 8.30557 4.58147C8.14112 4.69135 7.94778 4.75 7.75 4.75C7.48488 4.7497 7.2307 4.64425 7.04322 4.45678C6.85575 4.26931 6.7503 4.01513 6.75 3.75Z" fill="#705D4D"/>
<path d="M7.60663 7.95481C7.64865 7.98423 7.6987 8.00001 7.75 8.00001C7.8013 8.00001 7.85135 7.98423 7.89338 7.95481C8.36817 7.60504 8.8026 7.20357 9.18866 6.75778C10.0465 5.77122 10.5 4.73125 10.5 3.75C10.5 3.02066 10.2103 2.32118 9.69455 1.80546C9.17882 1.28973 8.47935 1 7.75 1C7.02066 1 6.32118 1.28973 5.80546 1.80546C5.28973 2.32118 5 3.02066 5 3.75C5 4.73125 5.45347 5.77122 6.31135 6.75778C6.69741 7.20357 7.13184 7.60504 7.60663 7.95481ZM7.75 1.5C8.34653 1.50067 8.91844 1.73794 9.34025 2.15975C9.76206 2.58156 9.99933 3.15347 10 3.75C10 5.53878 8.26616 7.03206 7.75 7.43697C7.23306 7.03256 5.5 5.54222 5.5 3.75C5.50067 3.15347 5.73794 2.58156 6.15975 2.15975C6.58156 1.73794 7.15347 1.50067 7.75 1.5Z" fill="#705D4D"/>
<path d="M4.42897 13.987L4.57597 13.509L5.07608 13.6628L4.92908 14.1408L4.42897 13.987Z" fill="#705D4D"/>
<path d="M5.42884 14.2936L5.57585 13.8156L6.07595 13.9694L5.92895 14.4474L5.42884 14.2936Z" fill="#705D4D"/>
<path d="M6.42902 14.6021L6.57602 14.1241L7.07612 14.2779L6.92912 14.7559L6.42902 14.6021Z" fill="#705D4D"/>
<path d="M14.3235 6.76106L10.5735 5.60722L10.4265 6.08513L13.4 7L7.75 8.73844L2.1 7L5.07344 6.08513L4.92638 5.60722L1.17638 6.76106C1.1253 6.77681 1.08061 6.8085 1.04886 6.85151C1.01712 6.89451 0.999995 6.94655 1 7V13.75C1 13.8035 1.01714 13.8555 1.0489 13.8985C1.08066 13.9415 1.12537 13.9732 1.17647 13.9889L7.67647 15.9889C7.72438 16.0037 7.77562 16.0037 7.82353 15.9889L14.3235 13.9889C14.3746 13.9732 14.4193 13.9415 14.4511 13.8985C14.4829 13.8555 14.5 13.8035 14.5 13.75V7C14.5 6.94654 14.4829 6.89449 14.4511 6.85148C14.4193 6.80848 14.3746 6.77679 14.3235 6.76106ZM1.5 7.3385L7.5 9.18466V15.4115L1.5 13.5654V7.3385ZM8 15.4115V9.18466L14 7.3385V13.5654L8 15.4115Z" fill="#705D4D"/>
<path d="M10.9281 13.5145L11.4282 13.3607L11.5752 13.8387L11.0751 13.9925L10.9281 13.5145Z" fill="#705D4D"/>
<path d="M11.9278 13.2077L12.4279 13.0539L12.575 13.5319L12.0748 13.6857L11.9278 13.2077Z" fill="#705D4D"/>
<path d="M12.9286 12.8991L13.4287 12.7453L13.5757 13.2233L13.0756 13.3771L12.9286 12.8991Z" fill="#705D4D"/>
<path d="M5.75 11.0962C5.81631 11.0962 5.87989 11.0698 5.92678 11.0229C5.97366 10.9761 6 10.9125 6 10.8462V9.59616C6 9.5427 5.98286 9.49064 5.9511 9.44764C5.91934 9.40464 5.87463 9.37295 5.82353 9.35722L3.32353 8.58797C3.28614 8.57646 3.24656 8.57389 3.208 8.58047C3.16943 8.58704 3.13294 8.60258 3.10147 8.62582C3.07 8.64907 3.04442 8.67937 3.0268 8.7143C3.00918 8.74924 3 8.78782 3 8.82694V10.0769C3 10.1304 3.01714 10.1825 3.0489 10.2255C3.08066 10.2685 3.12537 10.3002 3.17647 10.3159L5.67647 11.0851C5.70029 11.0924 5.72508 11.0962 5.75 11.0962ZM5.5 10.5077L3.5 9.89231V9.16544L5.5 9.78078V10.5077Z" fill="#705D4D"/>
<path d="M12.5 10.0769V8.82694C12.5 8.78782 12.4908 8.74924 12.4732 8.7143C12.4556 8.67937 12.43 8.64907 12.3985 8.62582C12.3671 8.60258 12.3306 8.58704 12.292 8.58047C12.2534 8.57389 12.2139 8.57646 12.1765 8.58797L9.67647 9.35722C9.62537 9.37295 9.58066 9.40464 9.5489 9.44764C9.51714 9.49064 9.5 9.5427 9.5 9.59616V10.8462C9.5 10.8853 9.50918 10.9239 9.5268 10.9588C9.54442 10.9937 9.57 11.024 9.60147 11.0473C9.63294 11.0705 9.66943 11.0861 9.708 11.0926C9.74656 11.0992 9.78614 11.0966 9.82353 11.0851L12.3235 10.3159C12.3746 10.3002 12.4193 10.2685 12.4511 10.2255C12.4829 10.1825 12.5 10.1304 12.5 10.0769ZM12 9.89231L10 10.5077V9.78078L12 9.16544V9.89231Z" fill="#705D4D"/>
<path d="M9.25 3.75C9.25 3.45333 9.16203 3.16332 8.99721 2.91665C8.83238 2.66997 8.59812 2.47771 8.32403 2.36418C8.04994 2.25065 7.74834 2.22094 7.45737 2.27882C7.16639 2.3367 6.89912 2.47956 6.68934 2.68934C6.47956 2.89912 6.3367 3.16639 6.27882 3.45737C6.22095 3.74834 6.25065 4.04994 6.36418 4.32403C6.47771 4.59812 6.66997 4.83238 6.91665 4.99721C7.16332 5.16203 7.45333 5.25 7.75 5.25C8.14769 5.24956 8.52896 5.09138 8.81017 4.81017C9.09138 4.52896 9.24956 4.14769 9.25 3.75ZM6.75 3.75C6.75 3.55222 6.80865 3.35888 6.91853 3.19443C7.02841 3.02998 7.18459 2.90181 7.36732 2.82612C7.55004 2.75043 7.75111 2.73063 7.94509 2.76922C8.13907 2.8078 8.31726 2.90304 8.45711 3.04289C8.59696 3.18275 8.6922 3.36093 8.73079 3.55491C8.76937 3.74889 8.74957 3.94996 8.67388 4.13268C8.59819 4.31541 8.47002 4.47159 8.30557 4.58147C8.14112 4.69135 7.94778 4.75 7.75 4.75C7.48488 4.7497 7.2307 4.64425 7.04322 4.45678C6.85575 4.26931 6.7503 4.01513 6.75 3.75Z" stroke="#726050" stroke-width="0.3"/>
<path d="M7.60663 7.95481C7.64865 7.98423 7.6987 8.00001 7.75 8.00001C7.8013 8.00001 7.85135 7.98423 7.89338 7.95481C8.36817 7.60504 8.8026 7.20357 9.18866 6.75778C10.0465 5.77122 10.5 4.73125 10.5 3.75C10.5 3.02066 10.2103 2.32118 9.69455 1.80546C9.17882 1.28973 8.47935 1 7.75 1C7.02066 1 6.32118 1.28973 5.80546 1.80546C5.28973 2.32118 5 3.02066 5 3.75C5 4.73125 5.45347 5.77122 6.31135 6.75778C6.69741 7.20357 7.13184 7.60504 7.60663 7.95481ZM7.75 1.5C8.34653 1.50067 8.91844 1.73794 9.34025 2.15975C9.76206 2.58156 9.99933 3.15347 10 3.75C10 5.53878 8.26616 7.03206 7.75 7.43697C7.23306 7.03256 5.5 5.54222 5.5 3.75C5.50067 3.15347 5.73794 2.58156 6.15975 2.15975C6.58156 1.73794 7.15347 1.50067 7.75 1.5Z" stroke="#726050" stroke-width="0.3"/>
<path d="M4.42897 13.987L4.57597 13.509L5.07608 13.6628L4.92908 14.1408L4.42897 13.987Z" stroke="#726050" stroke-width="0.3"/>
<path d="M5.42884 14.2936L5.57585 13.8156L6.07595 13.9694L5.92895 14.4474L5.42884 14.2936Z" stroke="#726050" stroke-width="0.3"/>
<path d="M6.42902 14.6021L6.57602 14.1241L7.07612 14.2779L6.92912 14.7559L6.42902 14.6021Z" stroke="#726050" stroke-width="0.3"/>
<path d="M14.3235 6.76106L10.5735 5.60722L10.4265 6.08513L13.4 7L7.75 8.73844L2.1 7L5.07344 6.08513L4.92638 5.60722L1.17638 6.76106C1.1253 6.77681 1.08061 6.8085 1.04886 6.85151C1.01712 6.89451 0.999995 6.94655 1 7V13.75C1 13.8035 1.01714 13.8555 1.0489 13.8985C1.08066 13.9415 1.12537 13.9732 1.17647 13.9889L7.67647 15.9889C7.72438 16.0037 7.77562 16.0037 7.82353 15.9889L14.3235 13.9889C14.3746 13.9732 14.4193 13.9415 14.4511 13.8985C14.4829 13.8555 14.5 13.8035 14.5 13.75V7C14.5 6.94654 14.4829 6.89449 14.4511 6.85148C14.4193 6.80848 14.3746 6.77679 14.3235 6.76106ZM1.5 7.3385L7.5 9.18466V15.4115L1.5 13.5654V7.3385ZM8 15.4115V9.18466L14 7.3385V13.5654L8 15.4115Z" stroke="#726050" stroke-width="0.3"/>
<path d="M10.9281 13.5145L11.4282 13.3607L11.5752 13.8387L11.0751 13.9925L10.9281 13.5145Z" stroke="#726050" stroke-width="0.3"/>
<path d="M11.9278 13.2077L12.4279 13.0539L12.575 13.5319L12.0748 13.6857L11.9278 13.2077Z" stroke="#726050" stroke-width="0.3"/>
<path d="M12.9286 12.8991L13.4287 12.7453L13.5757 13.2233L13.0756 13.3771L12.9286 12.8991Z" stroke="#726050" stroke-width="0.3"/>
<path d="M5.75 11.0962C5.81631 11.0962 5.87989 11.0698 5.92678 11.0229C5.97366 10.9761 6 10.9125 6 10.8462V9.59616C6 9.5427 5.98286 9.49064 5.9511 9.44764C5.91934 9.40464 5.87463 9.37295 5.82353 9.35722L3.32353 8.58797C3.28614 8.57646 3.24656 8.57389 3.208 8.58047C3.16943 8.58704 3.13294 8.60258 3.10147 8.62582C3.07 8.64907 3.04442 8.67937 3.0268 8.7143C3.00918 8.74924 3 8.78782 3 8.82694V10.0769C3 10.1304 3.01714 10.1825 3.0489 10.2255C3.08066 10.2685 3.12537 10.3002 3.17647 10.3159L5.67647 11.0851C5.70029 11.0924 5.72508 11.0962 5.75 11.0962ZM5.5 10.5077L3.5 9.89231V9.16544L5.5 9.78078V10.5077Z" stroke="#726050" stroke-width="0.3"/>
<path d="M12.5 10.0769V8.82694C12.5 8.78782 12.4908 8.74924 12.4732 8.7143C12.4556 8.67937 12.43 8.64907 12.3985 8.62582C12.3671 8.60258 12.3306 8.58704 12.292 8.58047C12.2534 8.57389 12.2139 8.57646 12.1765 8.58797L9.67647 9.35722C9.62537 9.37295 9.58066 9.40464 9.5489 9.44764C9.51714 9.49064 9.5 9.5427 9.5 9.59616V10.8462C9.5 10.8853 9.50918 10.9239 9.5268 10.9588C9.54442 10.9937 9.57 11.024 9.60147 11.0473C9.63294 11.0705 9.66943 11.0861 9.708 11.0926C9.74656 11.0992 9.78614 11.0966 9.82353 11.0851L12.3235 10.3159C12.3746 10.3002 12.4193 10.2685 12.4511 10.2255C12.4829 10.1825 12.5 10.1304 12.5 10.0769ZM12 9.89231L10 10.5077V9.78078L12 9.16544V9.89231Z" stroke="#726050" stroke-width="0.3"/>
</svg>
