<svg width="16" height="16" viewBox="0 0 16 16" fill="none" xmlns="http://www.w3.org/2000/svg">
<path d="M13.3934 9.74548V3.29508C13.3934 2.66236 12.8786 2.14754 12.2459 2.14754H11.7869V1.68852C11.7869 1.30885 11.478 1 11.0984 1C10.7187 1 10.4098 1.30885 10.4098 1.68852V2.14754H9.26229V1.68852C9.26229 1.30885 8.95345 1 8.57377 1C8.1941 1 7.88525 1.30885 7.88525 1.68852V2.14754H6.5082V1.68852C6.5082 1.30885 6.19935 1 5.81967 1C5.44 1 5.13115 1.30885 5.13115 1.68852V2.14754H3.98361V1.68852C3.98361 1.30885 3.67476 1 3.29508 1C2.91541 1 2.60656 1.30885 2.60656 1.68852V2.14754H2.14754C1.51482 2.14754 1 2.66236 1 3.29508V12.4754C1 13.1081 1.51482 13.623 2.14754 13.623H9.8644C10.3415 14.4448 11.2291 15 12.2459 15C13.7646 15 15 13.7646 15 12.2459C15 11.1371 14.34 10.1817 13.3934 9.74548ZM10.8689 1.68852C10.8689 1.56189 10.9717 1.45902 11.0984 1.45902C11.225 1.45902 11.3279 1.56189 11.3279 1.68852V3.06557C11.3279 3.19221 11.225 3.29508 11.0984 3.29508C10.9717 3.29508 10.8689 3.19221 10.8689 3.06557V1.68852ZM8.34426 1.68852C8.34426 1.56189 8.44714 1.45902 8.57377 1.45902C8.7004 1.45902 8.80328 1.56189 8.80328 1.68852V3.06557C8.80328 3.19221 8.7004 3.29508 8.57377 3.29508C8.44714 3.29508 8.34426 3.19221 8.34426 3.06557V1.68852ZM5.59016 1.68852C5.59016 1.56189 5.69304 1.45902 5.81967 1.45902C5.94631 1.45902 6.04918 1.56189 6.04918 1.68852V3.06557C6.04918 3.19221 5.94631 3.29508 5.81967 3.29508C5.69304 3.29508 5.59016 3.19221 5.59016 3.06557V1.68852ZM3.06557 1.68852C3.06557 1.56189 3.16845 1.45902 3.29508 1.45902C3.42172 1.45902 3.52459 1.56189 3.52459 1.68852V3.06557C3.52459 3.19221 3.42172 3.29508 3.29508 3.29508C3.16845 3.29508 3.06557 3.19221 3.06557 3.06557V1.68852ZM2.14754 2.60656H2.60656V3.06557C2.60656 3.44525 2.91541 3.7541 3.29508 3.7541C3.67476 3.7541 3.98361 3.44525 3.98361 3.06557V2.60656H5.13115V3.06557C5.13115 3.44525 5.44 3.7541 5.81967 3.7541C6.19935 3.7541 6.5082 3.44525 6.5082 3.06557V2.60656H7.88525V3.06557C7.88525 3.44525 8.1941 3.7541 8.57377 3.7541C8.95345 3.7541 9.26229 3.44525 9.26229 3.06557V2.60656H10.4098V3.06557C10.4098 3.44525 10.7187 3.7541 11.0984 3.7541C11.478 3.7541 11.7869 3.44525 11.7869 3.06557V2.60656H12.2459C12.6256 2.60656 12.9344 2.91541 12.9344 3.29508V4.44262H1.45902V3.29508C1.45902 2.91541 1.76787 2.60656 2.14754 2.60656ZM2.14754 13.1639C1.76787 13.1639 1.45902 12.8551 1.45902 12.4754V4.90164H12.9344V9.58242C12.7139 9.52535 12.484 9.4918 12.2459 9.4918C12.0892 9.4918 11.9365 9.508 11.7869 9.53325V8.34426C11.7869 8.21741 11.6842 8.11475 11.5574 8.11475H10.1803C10.0535 8.11475 9.95082 8.21741 9.95082 8.34426V9.72131C9.95082 9.84817 10.0535 9.95082 10.1803 9.95082H10.7268C9.98335 10.4445 9.4918 11.2885 9.4918 12.2459C9.4918 12.5682 9.55031 12.8763 9.65246 13.1639H2.14754ZM11.3279 9.4918H10.4098V8.57377H11.3279V9.4918ZM12.2459 14.541C10.9805 14.541 9.95082 13.5113 9.95082 12.2459C9.95082 10.9805 10.9805 9.95082 12.2459 9.95082C13.5113 9.95082 14.541 10.9805 14.541 12.2459C14.541 13.5113 13.5113 14.541 12.2459 14.541Z" fill="#726050"/>
<path d="M12.4754 11.8506V10.4098H12.0164V11.8506C11.8798 11.9301 11.7869 12.0764 11.7869 12.2459C11.7869 12.2691 11.7904 12.2914 11.7937 12.3137L10.9549 12.9846L11.2418 13.3432L12.0799 12.6728C12.1315 12.6929 12.1872 12.7049 12.2459 12.7049C12.4994 12.7049 12.7049 12.4994 12.7049 12.2459C12.7049 12.0764 12.612 11.9301 12.4754 11.8506Z" fill="#726050"/>
<path d="M3.98361 5.59016H2.60656C2.4797 5.59016 2.37705 5.69282 2.37705 5.81967V7.19672C2.37705 7.32358 2.4797 7.42623 2.60656 7.42623H3.98361C4.11046 7.42623 4.21311 7.32358 4.21311 7.19672V5.81967C4.21311 5.69282 4.11046 5.59016 3.98361 5.59016ZM3.7541 6.96721H2.83607V6.04918H3.7541V6.96721Z" fill="#726050"/>
<path d="M6.5082 5.59016H5.13115C5.00429 5.59016 4.90164 5.69282 4.90164 5.81967V7.19672C4.90164 7.32358 5.00429 7.42623 5.13115 7.42623H6.5082C6.63505 7.42623 6.7377 7.32358 6.7377 7.19672V5.81967C6.7377 5.69282 6.63505 5.59016 6.5082 5.59016ZM6.27869 6.96721H5.36066V6.04918H6.27869V6.96721Z" fill="#726050"/>
<path d="M9.03279 5.59016H7.65574C7.52888 5.59016 7.42623 5.69282 7.42623 5.81967V7.19672C7.42623 7.32358 7.52888 7.42623 7.65574 7.42623H9.03279C9.15964 7.42623 9.26229 7.32358 9.26229 7.19672V5.81967C9.26229 5.69282 9.15964 5.59016 9.03279 5.59016ZM8.80328 6.96721H7.88525V6.04918H8.80328V6.96721Z" fill="#726050"/>
<path d="M10.1803 7.42623H11.5574C11.6842 7.42623 11.7869 7.32358 11.7869 7.19672V5.81967C11.7869 5.69282 11.6842 5.59016 11.5574 5.59016H10.1803C10.0535 5.59016 9.95082 5.69282 9.95082 5.81967V7.19672C9.95082 7.32358 10.0535 7.42623 10.1803 7.42623ZM10.4098 6.04918H11.3279V6.96721H10.4098V6.04918Z" fill="#726050"/>
<path d="M3.98361 8.11475H2.60656C2.4797 8.11475 2.37705 8.21741 2.37705 8.34426V9.72131C2.37705 9.84817 2.4797 9.95082 2.60656 9.95082H3.98361C4.11046 9.95082 4.21311 9.84817 4.21311 9.72131V8.34426C4.21311 8.21741 4.11046 8.11475 3.98361 8.11475ZM3.7541 9.4918H2.83607V8.57377H3.7541V9.4918Z" fill="#726050"/>
<path d="M6.5082 8.11475H5.13115C5.00429 8.11475 4.90164 8.21741 4.90164 8.34426V9.72131C4.90164 9.84817 5.00429 9.95082 5.13115 9.95082H6.5082C6.63505 9.95082 6.7377 9.84817 6.7377 9.72131V8.34426C6.7377 8.21741 6.63505 8.11475 6.5082 8.11475ZM6.27869 9.4918H5.36066V8.57377H6.27869V9.4918Z" fill="#726050"/>
<path d="M9.03279 8.11475H7.65574C7.52888 8.11475 7.42623 8.21741 7.42623 8.34426V9.72131C7.42623 9.84817 7.52888 9.95082 7.65574 9.95082H9.03279C9.15964 9.95082 9.26229 9.84817 9.26229 9.72131V8.34426C9.26229 8.21741 9.15964 8.11475 9.03279 8.11475ZM8.80328 9.4918H7.88525V8.57377H8.80328V9.4918Z" fill="#726050"/>
<path d="M3.98361 10.6393H2.60656C2.4797 10.6393 2.37705 10.742 2.37705 10.8689V12.2459C2.37705 12.3728 2.4797 12.4754 2.60656 12.4754H3.98361C4.11046 12.4754 4.21311 12.3728 4.21311 12.2459V10.8689C4.21311 10.742 4.11046 10.6393 3.98361 10.6393ZM3.7541 12.0164H2.83607V11.0984H3.7541V12.0164Z" fill="#726050"/>
<path d="M6.5082 10.6393H5.13115C5.00429 10.6393 4.90164 10.742 4.90164 10.8689V12.2459C4.90164 12.3728 5.00429 12.4754 5.13115 12.4754H6.5082C6.63505 12.4754 6.7377 12.3728 6.7377 12.2459V10.8689C6.7377 10.742 6.63505 10.6393 6.5082 10.6393ZM6.27869 12.0164H5.36066V11.0984H6.27869V12.0164Z" fill="#726050"/>
<path d="M9.03279 10.6393H7.65574C7.52888 10.6393 7.42623 10.742 7.42623 10.8689V12.2459C7.42623 12.3728 7.52888 12.4754 7.65574 12.4754H9.03279C9.15964 12.4754 9.26229 12.3728 9.26229 12.2459V10.8689C9.26229 10.742 9.15964 10.6393 9.03279 10.6393ZM8.80328 12.0164H7.88525V11.0984H8.80328V12.0164Z" fill="#726050"/>
<path d="M13.3934 9.74548V3.29508C13.3934 2.66236 12.8786 2.14754 12.2459 2.14754H11.7869V1.68852C11.7869 1.30885 11.478 1 11.0984 1C10.7187 1 10.4098 1.30885 10.4098 1.68852V2.14754H9.26229V1.68852C9.26229 1.30885 8.95345 1 8.57377 1C8.1941 1 7.88525 1.30885 7.88525 1.68852V2.14754H6.5082V1.68852C6.5082 1.30885 6.19935 1 5.81967 1C5.44 1 5.13115 1.30885 5.13115 1.68852V2.14754H3.98361V1.68852C3.98361 1.30885 3.67476 1 3.29508 1C2.91541 1 2.60656 1.30885 2.60656 1.68852V2.14754H2.14754C1.51482 2.14754 1 2.66236 1 3.29508V12.4754C1 13.1081 1.51482 13.623 2.14754 13.623H9.8644C10.3415 14.4448 11.2291 15 12.2459 15C13.7646 15 15 13.7646 15 12.2459C15 11.1371 14.34 10.1817 13.3934 9.74548ZM10.8689 1.68852C10.8689 1.56189 10.9717 1.45902 11.0984 1.45902C11.225 1.45902 11.3279 1.56189 11.3279 1.68852V3.06557C11.3279 3.19221 11.225 3.29508 11.0984 3.29508C10.9717 3.29508 10.8689 3.19221 10.8689 3.06557V1.68852ZM8.34426 1.68852C8.34426 1.56189 8.44714 1.45902 8.57377 1.45902C8.7004 1.45902 8.80328 1.56189 8.80328 1.68852V3.06557C8.80328 3.19221 8.7004 3.29508 8.57377 3.29508C8.44714 3.29508 8.34426 3.19221 8.34426 3.06557V1.68852ZM5.59016 1.68852C5.59016 1.56189 5.69304 1.45902 5.81967 1.45902C5.94631 1.45902 6.04918 1.56189 6.04918 1.68852V3.06557C6.04918 3.19221 5.94631 3.29508 5.81967 3.29508C5.69304 3.29508 5.59016 3.19221 5.59016 3.06557V1.68852ZM3.06557 1.68852C3.06557 1.56189 3.16845 1.45902 3.29508 1.45902C3.42172 1.45902 3.52459 1.56189 3.52459 1.68852V3.06557C3.52459 3.19221 3.42172 3.29508 3.29508 3.29508C3.16845 3.29508 3.06557 3.19221 3.06557 3.06557V1.68852ZM2.14754 2.60656H2.60656V3.06557C2.60656 3.44525 2.91541 3.7541 3.29508 3.7541C3.67476 3.7541 3.98361 3.44525 3.98361 3.06557V2.60656H5.13115V3.06557C5.13115 3.44525 5.44 3.7541 5.81967 3.7541C6.19935 3.7541 6.5082 3.44525 6.5082 3.06557V2.60656H7.88525V3.06557C7.88525 3.44525 8.1941 3.7541 8.57377 3.7541C8.95345 3.7541 9.26229 3.44525 9.26229 3.06557V2.60656H10.4098V3.06557C10.4098 3.44525 10.7187 3.7541 11.0984 3.7541C11.478 3.7541 11.7869 3.44525 11.7869 3.06557V2.60656H12.2459C12.6256 2.60656 12.9344 2.91541 12.9344 3.29508V4.44262H1.45902V3.29508C1.45902 2.91541 1.76787 2.60656 2.14754 2.60656ZM2.14754 13.1639C1.76787 13.1639 1.45902 12.8551 1.45902 12.4754V4.90164H12.9344V9.58242C12.7139 9.52535 12.484 9.4918 12.2459 9.4918C12.0892 9.4918 11.9365 9.508 11.7869 9.53325V8.34426C11.7869 8.21741 11.6842 8.11475 11.5574 8.11475H10.1803C10.0535 8.11475 9.95082 8.21741 9.95082 8.34426V9.72131C9.95082 9.84817 10.0535 9.95082 10.1803 9.95082H10.7268C9.98335 10.4445 9.4918 11.2885 9.4918 12.2459C9.4918 12.5682 9.55031 12.8763 9.65246 13.1639H2.14754ZM11.3279 9.4918H10.4098V8.57377H11.3279V9.4918ZM12.2459 14.541C10.9805 14.541 9.95082 13.5113 9.95082 12.2459C9.95082 10.9805 10.9805 9.95082 12.2459 9.95082C13.5113 9.95082 14.541 10.9805 14.541 12.2459C14.541 13.5113 13.5113 14.541 12.2459 14.541Z" stroke="#726050" stroke-width="0.3"/>
<path d="M12.4754 11.8506V10.4098H12.0164V11.8506C11.8798 11.9301 11.7869 12.0764 11.7869 12.2459C11.7869 12.2691 11.7904 12.2914 11.7937 12.3137L10.9549 12.9846L11.2418 13.3432L12.0799 12.6728C12.1315 12.6929 12.1872 12.7049 12.2459 12.7049C12.4994 12.7049 12.7049 12.4994 12.7049 12.2459C12.7049 12.0764 12.612 11.9301 12.4754 11.8506Z" stroke="#726050" stroke-width="0.3"/>
<path d="M3.98361 5.59016H2.60656C2.4797 5.59016 2.37705 5.69282 2.37705 5.81967V7.19672C2.37705 7.32358 2.4797 7.42623 2.60656 7.42623H3.98361C4.11046 7.42623 4.21311 7.32358 4.21311 7.19672V5.81967C4.21311 5.69282 4.11046 5.59016 3.98361 5.59016ZM3.7541 6.96721H2.83607V6.04918H3.7541V6.96721Z" stroke="#726050" stroke-width="0.3"/>
<path d="M6.5082 5.59016H5.13115C5.00429 5.59016 4.90164 5.69282 4.90164 5.81967V7.19672C4.90164 7.32358 5.00429 7.42623 5.13115 7.42623H6.5082C6.63505 7.42623 6.7377 7.32358 6.7377 7.19672V5.81967C6.7377 5.69282 6.63505 5.59016 6.5082 5.59016ZM6.27869 6.96721H5.36066V6.04918H6.27869V6.96721Z" stroke="#726050" stroke-width="0.3"/>
<path d="M9.03279 5.59016H7.65574C7.52888 5.59016 7.42623 5.69282 7.42623 5.81967V7.19672C7.42623 7.32358 7.52888 7.42623 7.65574 7.42623H9.03279C9.15964 7.42623 9.26229 7.32358 9.26229 7.19672V5.81967C9.26229 5.69282 9.15964 5.59016 9.03279 5.59016ZM8.80328 6.96721H7.88525V6.04918H8.80328V6.96721Z" stroke="#726050" stroke-width="0.3"/>
<path d="M10.1803 7.42623H11.5574C11.6842 7.42623 11.7869 7.32358 11.7869 7.19672V5.81967C11.7869 5.69282 11.6842 5.59016 11.5574 5.59016H10.1803C10.0535 5.59016 9.95082 5.69282 9.95082 5.81967V7.19672C9.95082 7.32358 10.0535 7.42623 10.1803 7.42623ZM10.4098 6.04918H11.3279V6.96721H10.4098V6.04918Z" stroke="#726050" stroke-width="0.3"/>
<path d="M3.98361 8.11475H2.60656C2.4797 8.11475 2.37705 8.21741 2.37705 8.34426V9.72131C2.37705 9.84817 2.4797 9.95082 2.60656 9.95082H3.98361C4.11046 9.95082 4.21311 9.84817 4.21311 9.72131V8.34426C4.21311 8.21741 4.11046 8.11475 3.98361 8.11475ZM3.7541 9.4918H2.83607V8.57377H3.7541V9.4918Z" stroke="#726050" stroke-width="0.3"/>
<path d="M6.5082 8.11475H5.13115C5.00429 8.11475 4.90164 8.21741 4.90164 8.34426V9.72131C4.90164 9.84817 5.00429 9.95082 5.13115 9.95082H6.5082C6.63505 9.95082 6.7377 9.84817 6.7377 9.72131V8.34426C6.7377 8.21741 6.63505 8.11475 6.5082 8.11475ZM6.27869 9.4918H5.36066V8.57377H6.27869V9.4918Z" stroke="#726050" stroke-width="0.3"/>
<path d="M9.03279 8.11475H7.65574C7.52888 8.11475 7.42623 8.21741 7.42623 8.34426V9.72131C7.42623 9.84817 7.52888 9.95082 7.65574 9.95082H9.03279C9.15964 9.95082 9.26229 9.84817 9.26229 9.72131V8.34426C9.26229 8.21741 9.15964 8.11475 9.03279 8.11475ZM8.80328 9.4918H7.88525V8.57377H8.80328V9.4918Z" stroke="#726050" stroke-width="0.3"/>
<path d="M3.98361 10.6393H2.60656C2.4797 10.6393 2.37705 10.742 2.37705 10.8689V12.2459C2.37705 12.3728 2.4797 12.4754 2.60656 12.4754H3.98361C4.11046 12.4754 4.21311 12.3728 4.21311 12.2459V10.8689C4.21311 10.742 4.11046 10.6393 3.98361 10.6393ZM3.7541 12.0164H2.83607V11.0984H3.7541V12.0164Z" stroke="#726050" stroke-width="0.3"/>
<path d="M6.5082 10.6393H5.13115C5.00429 10.6393 4.90164 10.742 4.90164 10.8689V12.2459C4.90164 12.3728 5.00429 12.4754 5.13115 12.4754H6.5082C6.63505 12.4754 6.7377 12.3728 6.7377 12.2459V10.8689C6.7377 10.742 6.63505 10.6393 6.5082 10.6393ZM6.27869 12.0164H5.36066V11.0984H6.27869V12.0164Z" stroke="#726050" stroke-width="0.3"/>
<path d="M9.03279 10.6393H7.65574C7.52888 10.6393 7.42623 10.742 7.42623 10.8689V12.2459C7.42623 12.3728 7.52888 12.4754 7.65574 12.4754H9.03279C9.15964 12.4754 9.26229 12.3728 9.26229 12.2459V10.8689C9.26229 10.742 9.15964 10.6393 9.03279 10.6393ZM8.80328 12.0164H7.88525V11.0984H8.80328V12.0164Z" stroke="#726050" stroke-width="0.3"/>
</svg>
