<svg width="12" height="10" viewBox="0 0 12 10" fill="none" xmlns="http://www.w3.org/2000/svg">
<path d="M0.177982 5.65757C0.0495105 5.80721 -0.0130024 5.9977 0.00225668 6.19459C0.0175157 6.39148 0.108086 6.57065 0.258215 6.69863L3.90217 9.82231C4.03754 9.93798 4.20539 10 4.3816 10C4.40326 10 4.42541 9.99902 4.44756 9.99705C4.64691 9.97933 4.82658 9.88433 4.95357 9.73026L11.1862 2.14454C11.3112 1.99195 11.3698 1.79998 11.3506 1.60359C11.3309 1.40719 11.2369 1.22998 11.0843 1.10447L9.94328 0.167265C9.62875 -0.0906617 9.1631 -0.0453767 8.90419 0.269157L4.10743 6.10746L2.17987 4.45604C1.87075 4.19221 1.40412 4.22716 1.13881 4.53627L0.177982 5.65757Z" fill="#F3F3F3"/>
</svg>
