<svg width="24" height="24" viewBox="0 0 24 24" fill="none" xmlns="http://www.w3.org/2000/svg">
<path d="M22.8381 18.9287L16.1923 12.2829C15.9764 12.067 15.9764 11.7169 16.1923 11.501L22.8381 4.85526C23.9175 3.77582 23.9175 2.02543 22.8381 0.945983C21.7586 -0.133459 20.0082 -0.133459 18.9288 0.945983L12.283 7.59176C12.0671 7.80765 11.7171 7.80765 11.5012 7.59176L4.85539 0.945983C3.77594 -0.133459 2.02555 -0.133459 0.946106 0.945983C-0.133336 2.02543 -0.133337 3.77582 0.946106 4.85526L7.59188 11.501C7.80777 11.7169 7.80777 12.067 7.59188 12.2829L0.946106 18.9287C-0.133336 20.0081 -0.133336 21.7585 0.946106 22.838C2.02555 23.9174 3.77594 23.9174 4.85539 22.838L11.5012 16.1922C11.7171 15.9763 12.0671 15.9763 12.283 16.1922L18.9288 22.838C20.0082 23.9174 21.7586 23.9174 22.8381 22.838C23.9175 21.7585 23.9175 20.0081 22.8381 18.9287Z" fill="#7B6858"/>
</svg>
