<svg width="20" height="18" viewBox="0 0 20 18" fill="none" xmlns="http://www.w3.org/2000/svg">
<path d="M5.3125 0C6.39777 0 7.39277 0.343906 8.2698 1.02219C9.11063 1.67246 9.67043 2.5007 10 3.10297C10.3296 2.50066 10.8894 1.67246 11.7302 1.02219C12.6072 0.343906 13.6022 0 14.6875 0C17.7161 0 20 2.47723 20 5.76227C20 9.31125 17.1507 11.7394 12.8371 15.4153C12.1046 16.0396 11.2744 16.7471 10.4114 17.5018C10.2977 17.6014 10.1516 17.6562 10 17.6562C9.84844 17.6562 9.70234 17.6014 9.58859 17.5018C8.72555 16.7471 7.89531 16.0395 7.16238 15.4149C2.84934 11.7394 0 9.31125 0 5.76227C0 2.47723 2.28391 0 5.3125 0Z" fill="#D90303"/>
</svg>
