<svg width="228" height="58" viewBox="0 0 228 58" fill="none" xmlns="http://www.w3.org/2000/svg">
<path d="M149.7 37.22C148.351 37.22 147.199 36.9853 146.246 36.516C145.307 36.0467 144.574 35.372 144.046 34.492C143.533 33.5973 143.254 32.534 143.21 31.302C143.195 30.6713 143.188 29.9967 143.188 29.278C143.188 28.5447 143.195 27.8553 143.21 27.21C143.254 25.9927 143.533 24.9513 144.046 24.086C144.574 23.2207 145.315 22.5533 146.268 22.084C147.236 21.6147 148.38 21.38 149.7 21.38C150.771 21.38 151.709 21.5267 152.516 21.82C153.323 22.0987 153.99 22.4653 154.518 22.92C155.061 23.36 155.464 23.8367 155.728 24.35C156.007 24.8633 156.153 25.34 156.168 25.78C156.183 25.912 156.146 26.022 156.058 26.11C155.97 26.198 155.853 26.242 155.706 26.242H153.44C153.293 26.242 153.183 26.2127 153.11 26.154C153.037 26.0953 152.971 26.0073 152.912 25.89C152.795 25.582 152.611 25.2813 152.362 24.988C152.113 24.68 151.775 24.4233 151.35 24.218C150.925 24.0127 150.375 23.91 149.7 23.91C148.703 23.91 147.903 24.174 147.302 24.702C146.715 25.23 146.4 26.1027 146.356 27.32C146.312 28.596 146.312 29.8867 146.356 31.192C146.4 32.4387 146.723 33.3333 147.324 33.876C147.94 34.4187 148.747 34.69 149.744 34.69C150.404 34.69 150.991 34.5727 151.504 34.338C152.032 34.1033 152.443 33.7367 152.736 33.238C153.044 32.7393 153.198 32.1013 153.198 31.324V30.642H150.514C150.367 30.642 150.243 30.5907 150.14 30.488C150.037 30.3853 149.986 30.2533 149.986 30.092V28.926C149.986 28.7647 150.037 28.6327 150.14 28.53C150.243 28.4273 150.367 28.376 150.514 28.376H155.772C155.933 28.376 156.058 28.4273 156.146 28.53C156.249 28.6327 156.3 28.7647 156.3 28.926V31.236C156.3 32.468 156.029 33.5313 155.486 34.426C154.958 35.3207 154.195 36.01 153.198 36.494C152.215 36.978 151.049 37.22 149.7 37.22ZM165.038 37.22C163.733 37.22 162.611 37.0073 161.672 36.582C160.734 36.142 160 35.4747 159.472 34.58C158.944 33.6707 158.658 32.5413 158.614 31.192C158.6 30.5613 158.592 29.938 158.592 29.322C158.592 28.706 158.6 28.0753 158.614 27.43C158.658 26.0953 158.952 24.9807 159.494 24.086C160.037 23.1913 160.778 22.5167 161.716 22.062C162.67 21.6073 163.777 21.38 165.038 21.38C166.3 21.38 167.407 21.6073 168.36 22.062C169.314 22.5167 170.062 23.1913 170.604 24.086C171.147 24.9807 171.44 26.0953 171.484 27.43C171.514 28.0753 171.528 28.706 171.528 29.322C171.528 29.938 171.514 30.5613 171.484 31.192C171.44 32.5413 171.154 33.6707 170.626 34.58C170.098 35.4747 169.358 36.142 168.404 36.582C167.466 37.0073 166.344 37.22 165.038 37.22ZM165.038 34.69C165.992 34.69 166.769 34.4113 167.37 33.854C167.972 33.282 168.294 32.358 168.338 31.082C168.368 30.4367 168.382 29.8427 168.382 29.3C168.382 28.7427 168.368 28.1487 168.338 27.518C168.309 26.6673 168.148 25.978 167.854 25.45C167.576 24.9073 167.194 24.5187 166.71 24.284C166.226 24.0347 165.669 23.91 165.038 23.91C164.422 23.91 163.872 24.0347 163.388 24.284C162.904 24.5187 162.516 24.9073 162.222 25.45C161.944 25.978 161.79 26.6673 161.76 27.518C161.746 28.1487 161.738 28.7427 161.738 29.3C161.738 29.8427 161.746 30.4367 161.76 31.082C161.804 32.358 162.127 33.282 162.728 33.854C163.33 34.4113 164.1 34.69 165.038 34.69ZM180.335 37.22C179.03 37.22 177.908 37.0073 176.969 36.582C176.031 36.142 175.297 35.4747 174.769 34.58C174.241 33.6707 173.955 32.5413 173.911 31.192C173.897 30.5613 173.889 29.938 173.889 29.322C173.889 28.706 173.897 28.0753 173.911 27.43C173.955 26.0953 174.249 24.9807 174.791 24.086C175.334 23.1913 176.075 22.5167 177.013 22.062C177.967 21.6073 179.074 21.38 180.335 21.38C181.597 21.38 182.704 21.6073 183.657 22.062C184.611 22.5167 185.359 23.1913 185.901 24.086C186.444 24.9807 186.737 26.0953 186.781 27.43C186.811 28.0753 186.825 28.706 186.825 29.322C186.825 29.938 186.811 30.5613 186.781 31.192C186.737 32.5413 186.451 33.6707 185.923 34.58C185.395 35.4747 184.655 36.142 183.701 36.582C182.763 37.0073 181.641 37.22 180.335 37.22ZM180.335 34.69C181.289 34.69 182.066 34.4113 182.667 33.854C183.269 33.282 183.591 32.358 183.635 31.082C183.665 30.4367 183.679 29.8427 183.679 29.3C183.679 28.7427 183.665 28.1487 183.635 27.518C183.606 26.6673 183.445 25.978 183.151 25.45C182.873 24.9073 182.491 24.5187 182.007 24.284C181.523 24.0347 180.966 23.91 180.335 23.91C179.719 23.91 179.169 24.0347 178.685 24.284C178.201 24.5187 177.813 24.9073 177.519 25.45C177.241 25.978 177.087 26.6673 177.057 27.518C177.043 28.1487 177.035 28.7427 177.035 29.3C177.035 29.8427 177.043 30.4367 177.057 31.082C177.101 32.358 177.424 33.282 178.025 33.854C178.627 34.4113 179.397 34.69 180.335 34.69ZM190.242 37C190.095 37 189.971 36.9487 189.868 36.846C189.765 36.7433 189.714 36.6187 189.714 36.472V22.15C189.714 21.9887 189.765 21.8567 189.868 21.754C189.971 21.6513 190.095 21.6 190.242 21.6H195.61C197.091 21.6 198.309 21.8273 199.262 22.282C200.23 22.7367 200.956 23.4113 201.44 24.306C201.939 25.2007 202.195 26.2933 202.21 27.584C202.239 28.2293 202.254 28.8013 202.254 29.3C202.254 29.7987 202.239 30.3633 202.21 30.994C202.181 32.358 201.931 33.4873 201.462 34.382C200.993 35.262 200.281 35.922 199.328 36.362C198.389 36.7873 197.187 37 195.72 37H190.242ZM192.772 34.47H195.61C196.431 34.47 197.099 34.3527 197.612 34.118C198.125 33.8833 198.499 33.5093 198.734 32.996C198.983 32.468 199.115 31.7787 199.13 30.928C199.145 30.488 199.152 30.1067 199.152 29.784C199.167 29.4467 199.167 29.1167 199.152 28.794C199.152 28.4567 199.145 28.0753 199.13 27.65C199.101 26.4473 198.8 25.56 198.228 24.988C197.656 24.416 196.747 24.13 195.5 24.13H192.772V34.47Z" fill="white"/>
<path d="M80.014 36.252C80.058 36.3107 80.08 36.3913 80.08 36.494C80.08 36.626 80.0287 36.7433 79.926 36.846C79.838 36.9487 79.7207 37 79.574 37H77.308C77.132 37 77 36.9707 76.912 36.912C76.824 36.8387 76.736 36.7433 76.648 36.626L72.864 30.576H70.774V36.472C70.774 36.6187 70.7227 36.7433 70.62 36.846C70.532 36.9487 70.4073 37 70.246 37H68.244C68.0973 37 67.9727 36.9487 67.87 36.846C67.7673 36.7433 67.716 36.6187 67.716 36.472V22.15C67.716 21.9887 67.76 21.8567 67.848 21.754C67.9507 21.6513 68.0827 21.6 68.244 21.6H70.246C70.4073 21.6 70.532 21.6513 70.62 21.754C70.7227 21.8567 70.774 21.9887 70.774 22.15V27.826L72.71 27.848L76.274 21.996C76.4207 21.732 76.6847 21.6 77.066 21.6H79.244C79.3907 21.6 79.5007 21.644 79.574 21.732C79.662 21.82 79.706 21.93 79.706 22.062C79.706 22.1207 79.6767 22.2087 79.618 22.326L75.46 29.036L80.014 36.252ZM93.9163 21.6C94.0336 21.6 94.1363 21.644 94.2243 21.732C94.3269 21.82 94.3783 21.9227 94.3783 22.04C94.3783 22.1427 94.3489 22.2673 94.2903 22.414L89.8683 32.512C89.3549 33.6853 88.8783 34.58 88.4383 35.196C88.0129 35.812 87.4996 36.2667 86.8983 36.56C86.2969 36.8533 85.5123 37 84.5443 37H83.5103C83.3636 37 83.2389 36.9487 83.1363 36.846C83.0336 36.7433 82.9823 36.6187 82.9823 36.472V34.844C82.9823 34.6827 83.0336 34.5507 83.1363 34.448C83.2389 34.3453 83.3636 34.294 83.5103 34.294H84.3243C84.8229 34.294 85.2483 34.162 85.6003 33.898C85.9523 33.634 86.2896 33.194 86.6123 32.578L81.0463 22.304C81.0023 22.216 80.9803 22.1427 80.9803 22.084C80.9803 21.952 81.0243 21.842 81.1123 21.754C81.2149 21.6513 81.3323 21.6 81.4643 21.6H83.6203C83.8696 21.6 84.0603 21.7393 84.1923 22.018L88.0863 29.278L91.2763 22.018C91.3789 21.7393 91.5769 21.6 91.8703 21.6H93.9163ZM95.2174 37C95.0854 37 94.9754 36.956 94.8874 36.868C94.7994 36.78 94.7554 36.67 94.7554 36.538C94.7554 36.45 94.7774 36.362 94.8214 36.274L99.7494 29.146L95.1294 22.326C95.0854 22.2527 95.0634 22.1647 95.0634 22.062C95.0634 21.93 95.1074 21.82 95.1954 21.732C95.2834 21.644 95.3934 21.6 95.5254 21.6H97.7694C98.0334 21.6 98.2607 21.7393 98.4514 22.018L101.685 26.77L104.941 22.018C105.132 21.7393 105.359 21.6 105.623 21.6H107.757C107.889 21.6 107.999 21.644 108.087 21.732C108.175 21.82 108.219 21.93 108.219 22.062C108.219 22.1647 108.19 22.2527 108.131 22.326L103.533 29.146L108.461 36.274C108.52 36.3913 108.549 36.4793 108.549 36.538C108.549 36.67 108.498 36.78 108.395 36.868C108.307 36.956 108.205 37 108.087 37H105.755C105.477 37 105.257 36.868 105.095 36.604L101.575 31.632L98.1214 36.604C97.9307 36.868 97.7034 37 97.4394 37H95.2174ZM111.17 37C111.023 37 110.898 36.9487 110.796 36.846C110.693 36.7433 110.642 36.6187 110.642 36.472V22.15C110.642 21.9887 110.686 21.8567 110.774 21.754C110.876 21.6513 111.008 21.6 111.17 21.6H113.172C113.333 21.6 113.458 21.6513 113.546 21.754C113.648 21.8567 113.7 21.9887 113.7 22.15V27.826H120.19V22.15C120.19 21.9887 120.234 21.8567 120.322 21.754C120.424 21.6513 120.556 21.6 120.718 21.6H122.698C122.859 21.6 122.991 21.6513 123.094 21.754C123.196 21.8567 123.248 21.9887 123.248 22.15V36.472C123.248 36.6333 123.196 36.7653 123.094 36.868C122.991 36.956 122.859 37 122.698 37H120.718C120.571 37 120.446 36.9487 120.344 36.846C120.241 36.7433 120.19 36.6187 120.19 36.472V30.576H113.7V36.472C113.7 36.6187 113.648 36.7433 113.546 36.846C113.458 36.9487 113.333 37 113.172 37H111.17ZM127.197 37C127.036 37 126.904 36.9487 126.801 36.846C126.713 36.7433 126.669 36.6113 126.669 36.45V22.15C126.669 21.9887 126.72 21.8567 126.823 21.754C126.926 21.6513 127.058 21.6 127.219 21.6H129.199C129.36 21.6 129.485 21.6513 129.573 21.754C129.676 21.8567 129.727 21.9887 129.727 22.15V32.248L136.965 21.952C137.126 21.7173 137.339 21.6 137.603 21.6H139.429C139.59 21.6 139.715 21.6513 139.803 21.754C139.906 21.8567 139.957 21.9887 139.957 22.15V36.472C139.957 36.6187 139.906 36.7433 139.803 36.846C139.715 36.9487 139.59 37 139.429 37H137.449C137.288 37 137.156 36.956 137.053 36.868C136.95 36.7653 136.899 36.6333 136.899 36.472V26.572L129.683 36.648C129.595 36.7653 129.507 36.8533 129.419 36.912C129.331 36.9707 129.206 37 129.045 37H127.197Z" fill="white"/>
<path fill-rule="evenodd" clip-rule="evenodd" d="M39.0418 21.1559L31 29.3119L37.7442 36.1559L44.4883 43L51.2439 36.1591L58 29.3187L51.8966 23.123L45.7933 16.9267L47.1585 15.5443C47.9095 14.7839 48.3648 13.9004 48.1693 13.581C47.9745 13.2615 47.6507 13 47.4496 13C47.2484 13 43.465 16.6699 39.0418 21.1559Z" fill="#A79C8A"/>
<path fill-rule="evenodd" clip-rule="evenodd" d="M6.24956 22.3015C2.81215 25.7671 0 28.7665 0 28.9664C0 29.1664 2.66175 32.0206 5.91529 35.3092L11.8301 41.2881L10.2484 42.9426C9.13948 44.1016 8.85157 44.7129 9.28575 44.9849C9.68079 45.2324 12.8184 42.4194 17.9524 37.2153L26 29.0578L19.5748 22.5292C16.0406 18.9378 13.0028 16 12.8241 16C12.6454 16 9.68697 18.8354 6.24956 22.3015Z" fill="#CFC3B5"/>
<path fill-rule="evenodd" clip-rule="evenodd" d="M21.5442 38.4477L15 44.8954L21.6799 51.4477L28.3597 58L34.5273 51.9524L40.6949 45.9047L42.0386 47.3292C43.0169 48.3663 43.5359 48.6022 43.948 48.1971C44.3606 47.7915 42.3556 45.5153 36.5719 39.8202C32.2038 35.5189 28.5077 32 28.3592 32C28.2102 32 25.1436 34.9016 21.5442 38.4477ZM27.5638 43.1613C27.5659 44.1089 27.2581 44.4115 26.1646 44.5358C24.9828 44.6706 24.7634 44.506 24.7634 43.4835C24.7634 42.8167 24.9114 42.1262 25.0917 41.9484C25.2726 41.7711 25.9021 41.6978 26.4904 41.7862C27.2324 41.8974 27.5618 42.3197 27.5638 43.1613ZM31.9571 43.1133C31.9571 44.3928 31.7572 44.6287 30.6725 44.6287C29.5878 44.6287 29.3879 44.3928 29.3879 43.1133C29.3879 41.8337 29.5878 41.5978 30.6725 41.5978C31.7572 41.5978 31.9571 41.8337 31.9571 43.1133ZM27.4585 47.407C27.6738 48.5163 27.5248 48.6699 26.2335 48.6699C25.008 48.6699 24.7634 48.4598 24.7634 47.407C24.7634 46.4134 25.0244 46.1442 25.9879 46.1442C26.8866 46.1442 27.2781 46.4806 27.4585 47.407ZM31.9571 47.407C31.9571 48.4173 31.7002 48.6699 30.6725 48.6699C29.6449 48.6699 29.3879 48.4173 29.3879 47.407C29.3879 46.3967 29.6449 46.1442 30.6725 46.1442C31.7002 46.1442 31.9571 46.3967 31.9571 47.407Z" fill="white"/>
<path fill-rule="evenodd" clip-rule="evenodd" d="M22.1203 6.02127L15.8264 12.0425L14.2916 10.6401C13.0866 9.53826 12.6138 9.37411 12.0883 9.87549C11.5633 10.3763 13.2751 12.2833 20.0604 18.7566L28.701 27L35.8502 20.1941L43 13.3883L35.9987 6.69415C32.1478 3.01247 28.866 0 28.7054 0C28.5449 0 25.5819 2.70986 22.1203 6.02127Z" fill="white"/>
</svg>
