<svg width="210" height="54" viewBox="0 0 210 54" fill="none" xmlns="http://www.w3.org/2000/svg">
<path d="M138.49 35.9568C136.48 35.9568 134.911 35.4361 133.782 34.3948C132.667 33.3535 132.073 31.9015 132 30.0388C131.985 29.6135 131.978 28.9315 131.978 27.9928C131.978 27.0541 131.985 26.3721 132 25.9468C132.073 24.1281 132.674 22.7055 133.804 21.6788C134.948 20.6375 136.51 20.1168 138.49 20.1168C139.839 20.1168 140.998 20.3441 141.966 20.7988C142.934 21.2535 143.667 21.8255 144.166 22.5148C144.664 23.1895 144.928 23.8568 144.958 24.5168V24.5608C144.958 24.6781 144.914 24.7808 144.826 24.8688C144.738 24.9421 144.628 24.9788 144.496 24.9788H142.23C142.083 24.9788 141.973 24.9568 141.9 24.9128C141.826 24.8541 141.76 24.7588 141.702 24.6268C141.496 24.0841 141.137 23.6221 140.624 23.2408C140.11 22.8448 139.399 22.6468 138.49 22.6468C137.463 22.6468 136.656 22.9255 136.07 23.4828C135.498 24.0401 135.19 24.8981 135.146 26.0568C135.131 26.4821 135.124 27.1275 135.124 27.9928C135.124 28.8435 135.131 29.4888 135.146 29.9288C135.234 32.2608 136.363 33.4268 138.534 33.4268C139.575 33.4268 140.411 33.1481 141.042 32.5908C141.672 32.0188 141.988 31.1755 141.988 30.0608V29.3788H139.304C139.142 29.3788 139.01 29.3275 138.908 29.2248C138.82 29.1221 138.776 28.9901 138.776 28.8288V27.6628C138.776 27.5015 138.82 27.3695 138.908 27.2668C139.01 27.1641 139.142 27.1128 139.304 27.1128H144.562C144.723 27.1128 144.848 27.1641 144.936 27.2668C145.038 27.3695 145.09 27.5015 145.09 27.6628V29.9728C145.09 31.1901 144.818 32.2535 144.276 33.1628C143.748 34.0575 142.985 34.7468 141.988 35.2308C140.99 35.7148 139.824 35.9568 138.49 35.9568ZM153.828 35.9568C151.833 35.9568 150.279 35.4508 149.164 34.4388C148.049 33.4268 147.463 31.9235 147.404 29.9288C147.389 29.5035 147.382 28.8801 147.382 28.0588C147.382 27.2228 147.389 26.5921 147.404 26.1668C147.463 24.2161 148.064 22.7201 149.208 21.6788C150.352 20.6375 151.892 20.1168 153.828 20.1168C155.764 20.1168 157.304 20.6375 158.448 21.6788C159.607 22.7201 160.215 24.2161 160.274 26.1668C160.303 27.0175 160.318 27.6481 160.318 28.0588C160.318 28.4548 160.303 29.0781 160.274 29.9288C160.201 31.9235 159.607 33.4268 158.492 34.4388C157.377 35.4508 155.823 35.9568 153.828 35.9568ZM153.828 33.4268C154.811 33.4268 155.595 33.1335 156.182 32.5468C156.769 31.9455 157.084 31.0361 157.128 29.8188C157.157 28.9388 157.172 28.3448 157.172 28.0368C157.172 27.6995 157.157 27.1055 157.128 26.2548C157.084 25.0375 156.769 24.1355 156.182 23.5488C155.595 22.9475 154.811 22.6468 153.828 22.6468C152.86 22.6468 152.083 22.9475 151.496 23.5488C150.909 24.1355 150.594 25.0375 150.55 26.2548C150.535 26.6801 150.528 27.2741 150.528 28.0368C150.528 28.7848 150.535 29.3788 150.55 29.8188C150.594 31.0361 150.902 31.9455 151.474 32.5468C152.061 33.1335 152.845 33.4268 153.828 33.4268ZM169.125 35.9568C167.13 35.9568 165.575 35.4508 164.461 34.4388C163.346 33.4268 162.759 31.9235 162.701 29.9288C162.686 29.5035 162.679 28.8801 162.679 28.0588C162.679 27.2228 162.686 26.5921 162.701 26.1668C162.759 24.2161 163.361 22.7201 164.505 21.6788C165.649 20.6375 167.189 20.1168 169.125 20.1168C171.061 20.1168 172.601 20.6375 173.745 21.6788C174.903 22.7201 175.512 24.2161 175.571 26.1668C175.6 27.0175 175.615 27.6481 175.615 28.0588C175.615 28.4548 175.6 29.0781 175.571 29.9288C175.497 31.9235 174.903 33.4268 173.789 34.4388C172.674 35.4508 171.119 35.9568 169.125 35.9568ZM169.125 33.4268C170.107 33.4268 170.892 33.1335 171.479 32.5468C172.065 31.9455 172.381 31.0361 172.425 29.8188C172.454 28.9388 172.469 28.3448 172.469 28.0368C172.469 27.6995 172.454 27.1055 172.425 26.2548C172.381 25.0375 172.065 24.1355 171.479 23.5488C170.892 22.9475 170.107 22.6468 169.125 22.6468C168.157 22.6468 167.379 22.9475 166.793 23.5488C166.206 24.1355 165.891 25.0375 165.847 26.2548C165.832 26.6801 165.825 27.2741 165.825 28.0368C165.825 28.7848 165.832 29.3788 165.847 29.8188C165.891 31.0361 166.199 31.9455 166.771 32.5468C167.357 33.1335 168.142 33.4268 169.125 33.4268ZM179.032 35.7368C178.885 35.7368 178.76 35.6855 178.658 35.5828C178.555 35.4801 178.504 35.3555 178.504 35.2088V20.8868C178.504 20.7255 178.548 20.5935 178.636 20.4908C178.738 20.3881 178.87 20.3368 179.032 20.3368H184.4C188.712 20.3368 190.912 22.3315 191 26.3208C191.029 27.1715 191.044 27.7435 191.044 28.0368C191.044 28.3155 191.029 28.8801 191 29.7308C190.941 31.7841 190.391 33.3021 189.35 34.2848C188.308 35.2528 186.695 35.7368 184.51 35.7368H179.032ZM184.4 33.2068C185.632 33.2068 186.519 32.9355 187.062 32.3928C187.604 31.8355 187.89 30.9261 187.92 29.6648C187.949 28.7848 187.964 28.2348 187.964 28.0148C187.964 27.7801 187.949 27.2375 187.92 26.3868C187.89 25.1841 187.582 24.2968 186.996 23.7248C186.424 23.1528 185.522 22.8668 184.29 22.8668H181.562V33.2068H184.4Z" fill="#96A395"/>
<path d="M74.8036 34.9888C74.8476 35.0475 74.8696 35.1281 74.8696 35.2308C74.8696 35.3628 74.8182 35.4801 74.7156 35.5828C74.6276 35.6855 74.5102 35.7368 74.3636 35.7368H72.0976C71.9216 35.7368 71.7896 35.7075 71.7016 35.6488C71.6136 35.5755 71.5256 35.4801 71.4376 35.3628L67.6536 29.3128H65.5636V35.2088C65.5636 35.3555 65.5122 35.4801 65.4096 35.5828C65.3216 35.6855 65.1969 35.7368 65.0356 35.7368H63.0336C62.8869 35.7368 62.7622 35.6855 62.6596 35.5828C62.5569 35.4801 62.5056 35.3555 62.5056 35.2088V20.8868C62.5056 20.7255 62.5496 20.5935 62.6376 20.4908C62.7402 20.3881 62.8722 20.3368 63.0336 20.3368H65.0356C65.1969 20.3368 65.3216 20.3881 65.4096 20.4908C65.5122 20.5935 65.5636 20.7255 65.5636 20.8868V26.5628L67.4996 26.5848L71.0636 20.7328C71.2102 20.4688 71.4742 20.3368 71.8556 20.3368H74.0336C74.1802 20.3368 74.2902 20.3808 74.3636 20.4688C74.4516 20.5568 74.4956 20.6668 74.4956 20.7988C74.4956 20.8575 74.4662 20.9455 74.4076 21.0628L70.2496 27.7728L74.8036 34.9888ZM88.7058 20.3368C88.8232 20.3368 88.9258 20.3808 89.0138 20.4688C89.1165 20.5568 89.1678 20.6595 89.1678 20.7768C89.1678 20.8795 89.1385 21.0041 89.0798 21.1508L84.6578 31.2488C84.1445 32.4221 83.6678 33.3168 83.2278 33.9328C82.8025 34.5488 82.2892 35.0035 81.6878 35.2968C81.0865 35.5901 80.3018 35.7368 79.3338 35.7368H78.2998C78.1532 35.7368 78.0285 35.6855 77.9258 35.5828C77.8232 35.4801 77.7718 35.3555 77.7718 35.2088V33.5808C77.7718 33.4195 77.8232 33.2875 77.9258 33.1848C78.0285 33.0821 78.1532 33.0308 78.2998 33.0308H79.1138C79.6125 33.0308 80.0378 32.8988 80.3898 32.6348C80.7418 32.3708 81.0792 31.9308 81.4018 31.3148L75.8358 21.0408C75.7918 20.9528 75.7698 20.8795 75.7698 20.8208C75.7698 20.6888 75.8138 20.5788 75.9018 20.4908C76.0045 20.3881 76.1218 20.3368 76.2538 20.3368H78.4098C78.6592 20.3368 78.8498 20.4761 78.9818 20.7548L82.8758 28.0148L86.0658 20.7548C86.1685 20.4761 86.3665 20.3368 86.6598 20.3368H88.7058ZM90.0069 35.7368C89.8749 35.7368 89.7649 35.6928 89.6769 35.6048C89.5889 35.5168 89.5449 35.4068 89.5449 35.2748C89.5449 35.1868 89.5669 35.0988 89.6109 35.0108L94.5389 27.8828L89.9189 21.0628C89.8749 20.9895 89.8529 20.9015 89.8529 20.7988C89.8529 20.6668 89.8969 20.5568 89.9849 20.4688C90.0729 20.3808 90.1829 20.3368 90.3149 20.3368H92.5589C92.8229 20.3368 93.0503 20.4761 93.2409 20.7548L96.4749 25.5068L99.7309 20.7548C99.9216 20.4761 100.149 20.3368 100.413 20.3368H102.547C102.679 20.3368 102.789 20.3808 102.877 20.4688C102.965 20.5568 103.009 20.6668 103.009 20.7988C103.009 20.9015 102.98 20.9895 102.921 21.0628L98.3229 27.8828L103.251 35.0108C103.31 35.1281 103.339 35.2161 103.339 35.2748C103.339 35.4068 103.288 35.5168 103.185 35.6048C103.097 35.6928 102.994 35.7368 102.877 35.7368H100.545C100.266 35.7368 100.046 35.6048 99.8849 35.3408L96.3649 30.3688L92.9109 35.3408C92.7203 35.6048 92.4929 35.7368 92.2289 35.7368H90.0069ZM105.959 35.7368C105.813 35.7368 105.688 35.6855 105.585 35.5828C105.483 35.4801 105.431 35.3555 105.431 35.2088V20.8868C105.431 20.7255 105.475 20.5935 105.563 20.4908C105.666 20.3881 105.798 20.3368 105.959 20.3368H107.961C108.123 20.3368 108.247 20.3881 108.335 20.4908C108.438 20.5935 108.489 20.7255 108.489 20.8868V26.5628H114.979V20.8868C114.979 20.7255 115.023 20.5935 115.111 20.4908C115.214 20.3881 115.346 20.3368 115.507 20.3368H117.487C117.649 20.3368 117.781 20.3881 117.883 20.4908C117.986 20.5935 118.037 20.7255 118.037 20.8868V35.2088C118.037 35.3701 117.986 35.5021 117.883 35.6048C117.781 35.6928 117.649 35.7368 117.487 35.7368H115.507C115.361 35.7368 115.236 35.6855 115.133 35.5828C115.031 35.4801 114.979 35.3555 114.979 35.2088V29.3128H108.489V35.2088C108.489 35.3555 108.438 35.4801 108.335 35.5828C108.247 35.6855 108.123 35.7368 107.961 35.7368H105.959ZM121.987 35.7368C121.825 35.7368 121.693 35.6855 121.591 35.5828C121.503 35.4801 121.459 35.3481 121.459 35.1868V20.8868C121.459 20.7255 121.51 20.5935 121.613 20.4908C121.715 20.3881 121.847 20.3368 122.009 20.3368H123.989C124.15 20.3368 124.275 20.3881 124.363 20.4908C124.465 20.5935 124.517 20.7255 124.517 20.8868V30.9848L131.755 20.6888C131.916 20.4541 132.129 20.3368 132.393 20.3368H134.219C134.38 20.3368 134.505 20.3881 134.593 20.4908C134.695 20.5935 134.747 20.7255 134.747 20.8868V35.2088C134.747 35.3555 134.695 35.4801 134.593 35.5828C134.505 35.6855 134.38 35.7368 134.219 35.7368H132.239C132.077 35.7368 131.945 35.6928 131.843 35.6048C131.74 35.5021 131.689 35.3701 131.689 35.2088V25.3088L124.473 35.3848C124.385 35.5021 124.297 35.5901 124.209 35.6488C124.121 35.7075 123.996 35.7368 123.835 35.7368H121.987Z" fill="#7B6858"/>
<path fill-rule="evenodd" clip-rule="evenodd" d="M35.9597 19.4857L28.5527 26.9977L34.7645 33.3015L40.9762 39.6052L47.1984 33.3044L53.4212 27.004L47.7996 21.2974L42.1781 15.5903L43.4356 14.3171C44.1273 13.6167 44.5466 12.8029 44.3666 12.5087C44.1871 12.2145 43.8889 11.9736 43.7036 11.9736C43.5184 11.9736 40.0337 15.3538 35.9597 19.4857Z" fill="#A79C8A"/>
<path fill-rule="evenodd" clip-rule="evenodd" d="M5.75617 20.5409C2.59013 23.7328 0 26.4954 0 26.6796C0 26.8637 2.45162 29.4926 5.4483 32.5216L10.8961 38.0285L9.43929 39.5523C8.41794 40.6199 8.15276 41.1829 8.55266 41.4335C8.91652 41.6614 11.8065 39.0705 16.5351 34.2772L23.9474 26.7637L18.0294 20.7505C14.7742 17.4426 11.9763 14.7368 11.8117 14.7368C11.6471 14.7368 8.92221 17.3484 5.75617 20.5409Z" fill="#CFC3B5"/>
<path fill-rule="evenodd" clip-rule="evenodd" d="M19.8435 35.4123L13.8159 41.351L19.9684 47.386L26.1209 53.421L31.8016 47.8508L37.4823 42.2806L38.7199 43.5927C39.621 44.5479 40.099 44.7651 40.4785 44.392C40.8586 44.0184 39.0119 41.9219 33.6848 36.6765C29.6615 32.7147 26.2572 29.4736 26.1205 29.4736C25.9832 29.4736 23.1587 32.1461 19.8435 35.4123ZM25.3879 39.7537C25.3897 40.6266 25.1063 40.9053 24.0991 41.0197C23.0106 41.144 22.8085 40.9923 22.8085 40.0506C22.8085 39.4364 22.9448 38.8004 23.1109 38.6366C23.2775 38.4733 23.8573 38.4059 24.3992 38.4873C25.0826 38.5896 25.386 38.9786 25.3879 39.7537ZM29.4343 39.7095C29.4343 40.8881 29.2502 41.1053 28.2511 41.1053C27.2521 41.1053 27.068 40.8881 27.068 39.7095C27.068 38.531 27.2521 38.3137 28.2511 38.3137C29.2502 38.3137 29.4343 38.531 29.4343 39.7095ZM25.2908 43.6643C25.4891 44.6861 25.3519 44.8275 24.1626 44.8275C23.0338 44.8275 22.8085 44.6339 22.8085 43.6643C22.8085 42.7491 23.049 42.5012 23.9363 42.5012C24.7641 42.5012 25.1247 42.811 25.2908 43.6643ZM29.4343 43.6643C29.4343 44.5949 29.1977 44.8275 28.2511 44.8275C27.3046 44.8275 27.068 44.5949 27.068 43.6643C27.068 42.7338 27.3046 42.5012 28.2511 42.5012C29.1977 42.5012 29.4343 42.7338 29.4343 43.6643Z" fill="#3D4858"/>
<path fill-rule="evenodd" clip-rule="evenodd" d="M20.374 5.54591L14.5771 11.0918L13.1634 9.80013C12.0535 8.78524 11.6181 8.63405 11.134 9.09585C10.6505 9.55716 12.2272 11.3135 18.4768 17.2758L26.4353 24.8684L33.0201 18.5999L39.6054 12.3313L33.1568 6.16566C29.6099 2.77464 26.5872 0 26.4393 0C26.2915 0 23.5624 2.49592 20.374 5.54591Z" fill="#96A395"/>
</svg>
