<svg width="64" height="35" viewBox="0 0 64 35" fill="none" xmlns="http://www.w3.org/2000/svg">
<g clip-path="url(#clip0_2406_271)">
<path d="M17.5678 35C27.2702 35 35.1355 27.165 35.1355 17.5C35.1355 7.83502 27.2702 0 17.5678 0C7.86536 0 0 7.83502 0 17.5C0 27.165 7.86536 35 17.5678 35Z" fill="white"/>
<path d="M17.1525 7.96631C16.4096 7.96631 15.8196 8.554 15.8196 9.29405V12.1889C15.8196 14.4309 13.9405 16.3028 11.6899 16.3028C9.41746 16.3028 7.56017 14.4309 7.56017 12.1889V9.29405C7.56017 8.554 6.9265 7.96631 6.20544 7.96631C5.46252 7.96631 4.87256 8.554 4.87256 9.29405V12.1889C4.87256 15.4539 7.21056 18.2182 10.3352 18.8276V25.5534C10.3352 26.3152 10.9251 26.9029 11.6899 26.9029C12.4328 26.9029 13.0228 26.3152 13.0228 25.5534V18.8276C16.1474 18.1964 18.5072 15.4539 18.5072 12.1672V9.29405C18.5072 8.554 17.8736 7.96631 17.1525 7.96631Z" fill="#594739"/>
<path d="M24.8222 26.9898C28.6024 26.9898 31.6396 23.9425 31.6396 20.1988C31.6396 16.4332 28.6024 13.4077 24.8222 13.4077C21.0858 13.4077 18.0049 16.4332 18.0049 20.1988C18.0049 23.9425 21.0858 26.9898 24.8222 26.9898ZM24.8222 16.085C27.0947 16.085 28.952 17.9133 28.952 20.1988C28.952 22.4407 27.1165 24.3126 24.8222 24.3126C22.5498 24.3126 20.6925 22.4407 20.6925 20.1988C20.6925 17.9351 22.5498 16.085 24.8222 16.085Z" fill="#594739"/>
<path d="M48.8576 24.8785L42.6958 16.8251L48.7702 10.317C49.2291 9.72929 49.1198 8.88041 48.5298 8.44509C47.9399 7.988 47.0877 8.09683 46.6507 8.68452L39.1341 16.6945V9.35927C39.1341 8.59745 38.5442 8.00977 37.7794 8.00977C37.0365 8.00977 36.4465 8.59745 36.4465 9.35927V25.7057C36.4465 26.4675 37.0365 27.0552 37.7794 27.0552C38.5442 27.0552 39.1341 26.4675 39.1341 25.7057V20.5253L40.8166 18.7623L46.7818 26.5763C47.044 26.9028 47.4373 27.0552 47.8088 27.0552C48.1147 27.0552 48.3987 26.9463 48.6391 26.7504C49.2728 26.2933 49.3602 25.4445 48.8576 24.8785Z" fill="white"/>
<path d="M57.1826 26.9898C60.9627 26.9898 63.9999 23.9425 63.9999 20.1988C63.9999 16.4332 60.9627 13.4077 57.1826 13.4077C53.4462 13.4077 50.3652 16.4332 50.3652 20.1988C50.3871 23.9425 53.4462 26.9898 57.1826 26.9898ZM57.1826 16.085C59.455 16.085 61.3123 17.9133 61.3123 20.1988C61.3123 22.4407 59.4769 24.3126 57.1826 24.3126C54.8883 24.3126 53.0528 22.4407 53.0528 20.1988C53.0747 17.9351 54.9101 16.085 57.1826 16.085Z" fill="white"/>
</g>
<defs>
<clipPath id="clip0_2406_271">
<rect width="64" height="35" fill="white"/>
</clipPath>
</defs>
</svg>
