<svg width="15" height="11" viewBox="0 0 15 11" fill="none" xmlns="http://www.w3.org/2000/svg">
<path d="M14.2308 0.5H0.769248C0.346143 0.5 0 0.846142 0 1.26922V9.73077C0 10.1538 0.346143 10.5 0.769248 10.5H14.2308C14.6538 10.5 15 10.1539 15 9.73077V1.26922C15 0.846142 14.6539 0.5 14.2308 0.5ZM13.9421 1.07688L7.9425 5.57694C7.83463 5.65903 7.66904 5.71039 7.49997 5.70963C7.33093 5.71039 7.16537 5.65903 7.05747 5.57694L1.05788 1.07688H13.9421ZM10.7373 5.87387L14.0065 9.91235C14.0098 9.9164 14.0138 9.91947 14.0173 9.92313H0.982676C0.986133 9.9193 0.990176 9.9164 0.993457 9.91235L4.2627 5.87387C4.36286 5.75003 4.34388 5.56848 4.2198 5.46808C4.09597 5.36791 3.91441 5.38689 3.81422 5.51076L0.576914 9.50981V1.43747L6.7115 6.03843C6.9421 6.21017 7.22265 6.28575 7.49994 6.28651C7.77686 6.28593 8.05764 6.21034 8.28838 6.03843L14.423 1.43747V9.50976L11.1858 5.51076C11.0856 5.38692 10.9038 5.36788 10.7802 5.46808C10.6561 5.56824 10.6371 5.75003 10.7373 5.87387Z" fill="white"/>
</svg>
