<svg width="37" height="27" viewBox="0 0 37 27" fill="none" xmlns="http://www.w3.org/2000/svg">
<path d="M2.36107 24.6825L2.75554 24.279L10.9371 15.9105L10.9399 15.9076C10.9651 15.8823 10.9745 15.8457 10.9651 15.8119L10.965 15.8117C10.9555 15.7774 10.9286 15.7512 10.8944 15.7425C10.8596 15.7338 10.8237 15.7444 10.7995 15.7696L10.7962 15.773L10.7962 15.773L2.69081 24.0634L2.21463 24.5504L1.89267 23.9502C1.6346 23.4691 1.49967 22.9314 1.5 22.3851L2.36107 24.6825ZM2.36107 24.6825L2.8091 25.0256L2.36107 24.6825ZM1.5 4.06181L2.32311 4.75878L16.2313 16.5357L16.2323 16.5365C17.5428 17.6521 19.4694 17.6515 20.779 16.5345L20.7801 16.5336L34.6766 4.74768L35.5 4.04933V5.129V22.3843V22.3851H35L1.5 4.06181ZM1.5 4.06181V5.14036M1.5 4.06181V5.14036M1.5 5.14036V22.3849V5.14036ZM4.82124 0.5L4.82056 0.5C3.097 0.502359 1.66101 1.82148 1.5132 3.53858L1.49103 3.79605L1.68825 3.96304L16.3574 16.3842C16.3576 16.3843 16.3578 16.3845 16.3579 16.3846C17.5959 17.4385 19.4158 17.4378 20.653 16.3833C20.6533 16.3831 20.6536 16.3829 20.6538 16.3826L35.3117 3.9511L35.5097 3.78317L35.4863 3.5246C35.331 1.81322 33.8975 0.502359 32.1794 0.5H32.1788L4.82124 0.5ZM4.82178 25.7063H32.1782L4.82124 25.2063V25.7063H4.82178Z" stroke="#7B6858"/>
</svg>
