<svg width="29" height="30" viewBox="0 0 29 30" fill="none" xmlns="http://www.w3.org/2000/svg">
<path d="M28.4193 7.07701H18.0533C17.7931 7.07701 17.5821 7.28798 17.5821 7.54819V18.8565H15.2262V18.3853H15.6974C15.9576 18.3853 16.1686 18.1744 16.1686 17.9142C16.1686 17.6539 15.9576 17.443 15.6974 17.443H10.9856C10.7254 17.443 10.5144 17.6539 10.5144 17.9142C10.5144 18.1744 10.7254 18.3853 10.9856 18.3853H11.4568V18.8565H6.74498V18.3853H7.21616C7.47637 18.3853 7.68734 18.1744 7.68734 17.9142C7.68734 17.6539 7.47637 17.443 7.21616 17.443H2.50435C2.24414 17.443 2.03317 17.6539 2.03317 17.9142C2.03317 18.1744 2.24414 18.3853 2.50435 18.3853H2.97553V18.8565H1.09081C0.8306 18.8565 0.619629 19.0675 0.619629 19.3277V28.7513C0.619629 29.0115 0.8306 29.2225 1.09081 29.2225H28.4193C28.6795 29.2225 28.8905 29.0115 28.8905 28.7513V7.54819C28.8905 7.28798 28.6795 7.07701 28.4193 7.07701ZM12.3991 18.3853H14.2839V18.8565H12.3991V18.3853ZM3.91789 18.3853H5.80261V18.8565H3.91789V18.3853ZM8.15852 28.2801H1.56199V22.626H8.15852V28.2801ZM8.15852 21.6836H1.56199V19.7989H8.15852V21.6836ZM17.5821 28.2801H9.10088V19.7989H17.5821V28.2801ZM27.9481 28.2801H18.5245V15.5583H27.9481V28.2801ZM27.9481 14.6159H18.5245V8.01937H27.9481V14.6159Z" fill="white"/>
<path d="M10.5144 27.3378H16.1686C16.4288 27.3378 16.6398 27.1268 16.6398 26.8666V21.2124C16.6398 20.9522 16.4288 20.7412 16.1686 20.7412H10.5144C10.2542 20.7412 10.0432 20.9522 10.0432 21.2124V26.8666C10.0432 27.1268 10.2542 27.3378 10.5144 27.3378ZM10.9856 21.6836H15.6974V26.3954H10.9856V21.6836Z" fill="white"/>
<path d="M19.4669 14.1447C19.7271 14.1447 19.938 13.9337 19.938 13.6735V11.7888C19.938 11.5286 19.7271 11.3176 19.4669 11.3176C19.2066 11.3176 18.9957 11.5286 18.9957 11.7888V13.6735C18.9957 13.9337 19.2066 14.1447 19.4669 14.1447Z" fill="white"/>
<path d="M19.4669 18.8565C19.7271 18.8565 19.938 18.6455 19.938 18.3853V16.5006C19.938 16.2404 19.7271 16.0294 19.4669 16.0294C19.2066 16.0294 18.9957 16.2404 18.9957 16.5006V18.3853C18.9957 18.6455 19.2066 18.8565 19.4669 18.8565Z" fill="white"/>
<path d="M1.73044 9.32336C1.81537 9.39427 1.9225 9.43303 2.03317 9.43291H16.1686C16.4288 9.43326 16.6401 9.22264 16.6405 8.96243C16.6406 8.85183 16.6018 8.74463 16.5309 8.6597L11.8191 3.00554C11.7294 2.89817 11.5967 2.83621 11.4568 2.83638H10.9856V1.42284C10.9856 1.16263 10.7746 0.95166 10.5144 0.95166H7.68734C7.42713 0.95166 7.21616 1.16263 7.21616 1.42284V2.83638H6.74498C6.60509 2.83621 6.47234 2.89817 6.38264 3.00554L1.67083 8.6597C1.50403 8.85942 1.53072 9.15656 1.73044 9.32336ZM8.15852 1.89402H10.0432V2.83638H8.15852V1.89402ZM6.96596 3.77874H11.2358L15.1626 8.49055H3.03914L6.96596 3.77874Z" fill="white"/>
</svg>
