<svg width="25" height="25" viewBox="0 0 25 25" fill="none" xmlns="http://www.w3.org/2000/svg">
<path d="M8.4096 11.8902H3.40806C1.72268 11.8902 0.351562 10.5191 0.351562 8.83368V3.83213C0.351562 2.14675 1.72268 0.775635 3.40806 0.775635H8.4096C10.095 0.775635 11.4661 2.14675 11.4661 3.83213V8.83368C11.4661 10.5191 10.095 11.8902 8.4096 11.8902ZM3.40806 2.25757C2.53983 2.25757 1.8335 2.9639 1.8335 3.83213V8.83368C1.8335 9.70191 2.53983 10.4082 3.40806 10.4082H8.4096C9.27783 10.4082 9.98416 9.70191 9.98416 8.83368V3.83213C9.98416 2.9639 9.27783 2.25757 8.4096 2.25757H3.40806Z" fill="white"/>
<path d="M21.006 11.8902H16.0045C14.3191 11.8902 12.948 10.5191 12.948 8.83368V3.83213C12.948 2.14675 14.3191 0.775635 16.0045 0.775635H21.006C22.6914 0.775635 24.0625 2.14675 24.0625 3.83213V8.83368C24.0625 10.5191 22.6914 11.8902 21.006 11.8902ZM16.0045 2.25757C15.1363 2.25757 14.4299 2.9639 14.4299 3.83213V8.83368C14.4299 9.70191 15.1363 10.4082 16.0045 10.4082H21.006C21.8743 10.4082 22.5806 9.70191 22.5806 8.83368V3.83213C22.5806 2.9639 21.8743 2.25757 21.006 2.25757H16.0045Z" fill="white"/>
<path d="M18.5053 24.4866C15.441 24.4866 12.948 21.9936 12.948 18.9293C12.948 15.8651 15.441 13.3721 18.5053 13.3721C21.5695 13.3721 24.0625 15.8651 24.0625 18.9293C24.0625 21.9936 21.5695 24.4866 18.5053 24.4866ZM18.5053 14.854C16.2581 14.854 14.4299 16.6822 14.4299 18.9293C14.4299 21.1765 16.2581 23.0047 18.5053 23.0047C20.7524 23.0047 22.5806 21.1765 22.5806 18.9293C22.5806 16.6822 20.7524 14.854 18.5053 14.854Z" fill="white"/>
<path d="M8.4096 24.4866H3.40806C1.72268 24.4866 0.351562 23.1155 0.351562 21.4301V16.4286C0.351562 14.7432 1.72268 13.3721 3.40806 13.3721H8.4096C10.095 13.3721 11.4661 14.7432 11.4661 16.4286V21.4301C11.4661 23.1155 10.095 24.4866 8.4096 24.4866ZM3.40806 14.854C2.53983 14.854 1.8335 15.5603 1.8335 16.4286V21.4301C1.8335 22.2983 2.53983 23.0047 3.40806 23.0047H8.4096C9.27783 23.0047 9.98416 22.2983 9.98416 21.4301V16.4286C9.98416 15.5603 9.27783 14.854 8.4096 14.854H3.40806Z" fill="white"/>
</svg>
