<svg width="34" height="34" viewBox="0 0 34 34" fill="none" xmlns="http://www.w3.org/2000/svg">
<path d="M33.8062 16.6311C33.8062 16.3921 33.6732 16.1729 33.461 16.0626L27.2756 12.8457L33.461 9.62891C33.6732 9.51855 33.8062 9.29936 33.8062 9.06037C33.8062 8.82138 33.6732 8.60219 33.461 8.49182L28.1333 5.72106C27.8189 5.55769 27.432 5.67978 27.2685 5.99376C27.1051 6.30774 27.2271 6.69478 27.5413 6.85815L31.7758 9.0603L17.3909 16.5414L3.00602 9.0603L17.3909 1.5792L22.4224 4.19589C22.7368 4.35926 23.1238 4.2371 23.2872 3.92319C23.4507 3.60921 23.3285 3.22217 23.0144 3.0588L17.6869 0.288163C17.5013 0.191706 17.2805 0.191706 17.0949 0.288163L1.32082 8.49176C1.10864 8.60206 0.975586 8.82125 0.975586 9.0603C0.975586 9.29936 1.10864 9.51849 1.32082 9.62885L7.50625 12.8457L1.32082 16.0626C1.10864 16.1729 0.975586 16.3921 0.975586 16.6311C0.975586 16.8701 1.10864 17.0893 1.32082 17.1997L7.50625 20.4165L1.32082 23.6334C1.10864 23.7438 0.975586 23.963 0.975586 24.202C0.975586 24.441 1.10864 24.6601 1.32082 24.7705L17.0949 32.9741C17.1877 33.0223 17.2893 33.0465 17.3909 33.0465C17.4925 33.0465 17.5941 33.0224 17.6869 32.9741L33.461 24.7705C33.6732 24.6601 33.8062 24.441 33.8062 24.202C33.8062 23.963 33.6732 23.7438 33.461 23.6334L27.2756 20.4165L33.461 17.1997C33.6732 17.0893 33.8062 16.8701 33.8062 16.6311ZM17.6869 17.8324L25.8863 13.5682L27.798 14.5624L13.436 22.0554L10.8774 20.7248L16.7669 17.6619L17.0949 17.8324C17.1876 17.8806 17.2892 17.9048 17.3908 17.9048C17.4925 17.9048 17.5941 17.8806 17.6869 17.8324ZM15.3777 16.9393L9.48815 20.0022L6.94172 18.6779L12.8312 15.615L15.3777 16.9393ZM8.89553 13.5682L11.442 14.8925L5.55245 17.9554L3.00596 16.6311L8.89553 13.5682ZM31.7758 24.202L17.3909 31.6831L3.00602 24.202L8.89553 21.1391L17.0949 25.4033C17.1877 25.4515 17.2893 25.4757 17.3909 25.4757C17.4925 25.4757 17.5941 25.4516 17.6869 25.4033L25.8863 21.1391L31.7758 24.202ZM17.3909 24.1122L14.8239 22.7772L29.186 15.2843L31.7758 16.6311L17.3909 24.1122Z" fill="white"/>
<path d="M25.278 5.59941C25.4466 5.59941 25.612 5.53084 25.7312 5.41163C25.8505 5.29242 25.9192 5.12707 25.9192 4.95851C25.9192 4.78995 25.8506 4.62459 25.7312 4.50539C25.612 4.38618 25.4466 4.3176 25.278 4.3176C25.1093 4.3176 24.9439 4.38618 24.8246 4.50539C24.7053 4.62459 24.6367 4.78995 24.6367 4.95851C24.6367 5.12707 24.7053 5.29242 24.8246 5.41163C24.9439 5.53084 25.1093 5.59941 25.278 5.59941Z" fill="white"/>
</svg>
