<svg width="144" height="29" viewBox="0 0 144 29" fill="none" xmlns="http://www.w3.org/2000/svg">
<path d="M28.3942 0.236084C28.9901 0.563873 29.5715 0.906562 30.1817 1.20455C30.9375 1.56882 31.5841 2.1386 32.053 2.85342C32.522 3.56825 32.7957 4.40146 32.8451 5.26467C32.9025 5.7489 32.8451 6.24803 32.8451 6.75462C32.9221 7.26268 32.8654 7.78291 32.6809 8.26025C32.4964 8.7376 32.191 9.15432 31.797 9.46633C29.9951 11.001 30.3612 14.0703 32.2995 15.374C32.7518 15.672 33.0533 15.888 32.9815 16.4691C32.5436 19.9407 35.7956 22.2874 38.8251 22.3023C40.2892 22.1894 41.7613 22.2746 43.2043 22.5555C44.1273 22.8512 44.9487 23.4168 45.57 24.1844C46.1914 24.9521 46.5863 25.8893 46.7076 26.8839C46.7076 27.383 46.6142 27.6288 46.083 27.6288C42.2207 27.45 38.3011 28.1578 34.5106 26.8839C30.2679 25.4833 26.4056 21.669 26.5492 16.3425C26.6928 11.0159 26.6067 5.61481 26.6067 0.236084H28.3942Z" fill="#594739"/>
<path d="M60.9645 5.65957C62.4003 5.65957 63.671 5.65957 64.9273 5.65957C65.5877 5.65957 65.7241 5.92031 65.6452 6.53864C65.5779 7.6862 65.114 8.77007 64.3386 9.59119C63.5631 10.4123 62.5283 10.9156 61.424 11.0085C59.9882 11.1426 58.5524 11.1426 57.1597 11.2618C54.4676 11.4853 51.8689 14.4205 52.1345 17.1694C52.3212 18.4933 52.9231 19.7165 53.847 20.6497C54.771 21.583 55.9655 22.1743 57.2459 22.3321C58.574 22.4588 59.9236 22.3917 61.2517 22.5109C62.3776 22.583 63.4403 23.0752 64.2438 23.8967C65.0473 24.7183 65.5374 25.8136 65.6236 26.9808C65.6811 27.5469 65.6236 27.9194 64.9058 27.912C61.503 27.912 58.0643 28.1876 54.7404 27.2415C48.1646 25.3642 44.2234 19.5608 47.0231 12.5059C48.6025 8.53517 52.0484 6.54609 56.0542 5.86071C57.6837 5.6649 59.3252 5.59766 60.9645 5.65957Z" fill="#594739"/>
<path d="M39.5281 9.39157C41.0357 9.39157 42.5432 9.39157 44.0436 9.39157C44.7615 9.39157 45.0343 9.57036 44.984 10.36C44.9011 11.517 44.4207 12.6046 43.6302 13.4249C42.8397 14.2453 41.7916 14.7438 40.6767 14.8299C38.5773 15.02 36.4659 15.02 34.3665 14.8299C32.4569 14.5617 31.3513 12.8334 32.1123 11.2019C32.3635 10.6578 32.7605 10.2005 33.2558 9.88467C33.7511 9.56887 34.3237 9.40801 34.9049 9.42136C36.4555 9.42136 37.999 9.42136 39.5496 9.42136L39.5281 9.39157Z" fill="#594739"/>
<path d="M134.398 10.7778C135.991 10.7778 137.592 10.7778 139.186 10.7778C141.526 10.7778 143.493 12.2678 143.256 14.9646C143.156 16.0299 143.256 17.1101 143.256 18.1829C143.256 18.5852 143.587 19.3376 142.818 19.3003C142.215 19.3003 141.469 19.0694 141.433 18.1829C141.39 17.1548 141.433 16.1267 141.433 15.0987C141.433 13.0723 140.851 12.4987 138.877 12.4913C135.51 12.4913 135.51 12.4913 135.51 15.9405C135.544 16.6105 135.544 17.2819 135.51 17.9519C135.46 18.4213 135.912 19.2407 134.886 19.2035C134.706 19.2318 134.522 19.2155 134.349 19.156C134.176 19.0965 134.019 18.9954 133.891 18.8611C133.763 18.7267 133.667 18.5629 133.612 18.3829C133.557 18.2029 133.543 18.0118 133.572 17.8253C133.572 16.4396 133.522 15.0465 133.572 13.6609C133.615 12.752 133.4 12.3572 132.452 12.4466C131.505 12.536 130.557 12.4466 129.581 12.4466C127.944 12.5211 127.362 13.1915 127.355 14.8603C127.355 15.8436 127.355 16.827 127.355 17.8402C127.386 18.1096 127.332 18.382 127.203 18.6178C127.074 18.8537 126.876 19.0406 126.637 19.1513C125.955 19.4568 125.381 19.5611 125.438 18.4064C125.496 17.2516 125.438 15.9926 125.438 14.7783C125.406 14.2689 125.475 13.758 125.64 13.2773C125.806 12.7966 126.066 12.3564 126.402 11.984C126.739 11.6117 127.145 11.3151 127.597 11.1127C128.049 10.9104 128.536 10.8065 129.028 10.8076C130.794 10.7182 132.56 10.8076 134.333 10.8076L134.398 10.7778Z" fill="#594739"/>
<path d="M88.7748 11.2475C90.9143 10.7358 93.1314 10.6776 95.2932 11.0761C96.0762 11.2326 96.7818 11.6682 97.2879 12.3077C97.7939 12.9471 98.0686 13.7501 98.0642 14.5775C98.0642 15.7397 98.1145 16.9093 98.0642 18.064C98.0642 18.5035 98.5237 19.3603 97.4827 19.3007C97.2955 19.322 97.106 19.2966 96.93 19.2266C96.7541 19.1567 96.5968 19.0442 96.4711 18.8985C96.3455 18.7528 96.2551 18.5781 96.2076 18.389C96.16 18.1998 96.1567 18.0015 96.1977 17.8107C96.2552 16.8348 96.2767 15.844 96.2623 14.8308C96.2623 13.2887 95.6306 12.648 94.1087 12.5959C92.9457 12.5586 91.7827 12.5959 90.6197 12.5959C90.3696 12.5753 90.1181 12.6116 89.8829 12.7024C89.6478 12.7931 89.4345 12.9361 89.2581 13.1213C89.0817 13.3065 88.9464 13.5294 88.8617 13.7745C88.777 14.0196 88.7448 14.2809 88.7676 14.5403C88.7676 15.613 88.7676 16.6858 88.7676 17.7586C88.7676 18.2651 88.7676 18.7717 88.2292 19.0101C87.8487 19.1815 87.4323 19.5465 87.0231 19.2858C86.6139 19.025 86.8724 18.6227 86.8652 18.28C86.8652 15.6428 86.8652 12.9982 86.8652 10.361C86.8652 9.92142 86.4847 9.1243 87.3533 9.11685C88.0712 9.11685 88.746 9.34779 88.7532 10.3163C88.7748 10.6664 88.7748 10.9048 88.7748 11.2475Z" fill="#594739"/>
<path d="M114.417 16.1417C114.518 14.838 114.08 13.3555 115.343 12.1412C116.079 11.3181 117.098 10.8306 118.179 10.7853C119.945 10.7853 121.711 10.7853 123.484 10.7853C123.75 10.7853 124.123 10.5991 124.252 11.0386C124.382 11.4781 124.109 11.642 123.85 11.9102C123.672 12.1009 123.455 12.249 123.216 12.3442C122.977 12.4394 122.72 12.4794 122.465 12.4615C121.173 12.4615 119.88 12.4168 118.588 12.4615C116.973 12.5211 116.356 13.2065 116.334 14.8827C116.334 15.9107 116.334 16.9388 116.334 17.9669C116.351 18.1358 116.331 18.3065 116.276 18.4666C116.222 18.6268 116.134 18.7723 116.018 18.8928C115.903 19.0132 115.763 19.1056 115.609 19.1632C115.455 19.2208 115.291 19.2422 115.128 19.2259C114.144 19.2259 114.496 18.4809 114.46 17.9892C114.424 17.4975 114.417 16.8345 114.417 16.1417Z" fill="#594739"/>
<path d="M19.3267 7.51502C13.5836 4.31908 5.13407 5.16835 1.37951 11.8731C0.569599 13.1979 0.104803 14.718 0.0305619 16.285C-0.043679 17.8519 0.275176 19.412 0.955955 20.8128C3.28909 25.5956 7.41696 27.7337 12.5858 27.7262C13.117 27.7262 13.6841 27.7262 14.2369 27.6368C18.5873 27.0706 21.9399 24.7761 23.8566 20.7607C25.9959 16.3281 23.4977 9.85424 19.3267 7.51502ZM12.3201 22.3326C9.18297 22.3326 6.39038 19.9487 6.41191 16.6037C6.43345 13.2588 9.24758 11.1505 12.3848 11.0835C13.1489 11.0356 13.9144 11.1507 14.6341 11.4217C15.3538 11.6926 16.0124 12.1135 16.5693 12.6587C17.1262 13.2038 17.5696 13.8615 17.8722 14.5912C18.1749 15.3209 18.3303 16.1073 18.3289 16.9017C18.3935 19.9785 15.364 22.4741 12.3201 22.3326Z" fill="#594739"/>
<path d="M111.892 14.1074C111.828 11.9917 110.808 10.8742 108.77 10.8072C106.874 10.7402 104.979 10.8072 103.084 10.8072C102.818 10.8072 102.438 10.6508 102.323 11.0828C102.285 11.2579 102.289 11.44 102.336 11.6129C102.382 11.7858 102.469 11.9441 102.589 12.0737C102.758 12.2474 102.965 12.3767 103.192 12.4505C103.42 12.5244 103.661 12.5408 103.895 12.4983H108.159C108.589 12.4527 109.023 12.5354 109.409 12.7367C109.542 12.8058 109.654 12.9121 109.733 13.0436C109.812 13.1752 109.853 13.3269 109.854 13.4817C109.796 13.9361 109.38 13.7499 109.136 13.7573C107.37 13.7573 105.604 13.7573 103.838 13.7573C103.236 13.758 102.638 13.8535 102.065 14.0404C101.532 14.1769 101.064 14.5065 100.746 14.9697C100.427 15.4328 100.279 15.999 100.327 16.5659C100.313 17.1074 100.478 17.6377 100.796 18.0676C101.114 18.4976 101.564 18.8012 102.072 18.9274C103.73 19.4638 105.417 19.0317 106.781 19.2031C108.368 19.2031 109.653 19.2031 110.959 19.2031C111.677 19.2031 111.971 19.0541 111.936 18.2495C111.864 16.8787 111.936 15.4931 111.892 14.1074ZM109.164 17.579C108.174 17.579 107.176 17.579 106.185 17.579H103.464C102.782 17.579 102.215 17.3481 102.23 16.5435C102.244 15.7389 102.79 15.4633 103.457 15.4558C105.36 15.4558 107.255 15.4558 109.157 15.4558C110.04 15.4558 109.789 16.1114 109.811 16.5957C109.832 17.0799 109.961 17.6014 109.164 17.579Z" fill="#594739"/>
<path d="M84.3819 12.4683C84.0934 11.9461 83.6742 11.5147 83.1687 11.2196C82.6632 10.9245 82.0902 10.7768 81.5104 10.7921C80.132 10.7921 78.7537 10.7921 77.3682 10.7921C75.9324 10.7921 74.4966 10.8293 73.0967 10.7921C72.3788 10.7921 72.1419 11.023 72.1563 11.7829C72.1994 13.9284 72.1563 16.0814 72.1563 18.2269C72.1563 18.6069 71.905 19.1879 72.6373 19.2326C72.8937 19.2861 73.16 19.2482 73.3932 19.1252C73.6264 19.0022 73.8128 18.8012 73.9223 18.5547C74.0441 18.2199 74.0836 17.8589 74.0372 17.5043C73.9008 16.4613 74.3387 16.2155 75.2863 16.2453C77.3969 16.3148 79.5099 16.3148 81.6252 16.2453C83.4918 16.1559 85.3798 14.286 84.3819 12.4683ZM81.4314 14.6138C79.2777 14.6138 77.1241 14.6138 74.9704 14.6138C74.1879 14.6138 74.152 14.2041 74.1736 13.6081C74.1951 13.0121 74.0874 12.4161 74.9848 12.4608C76.0616 12.513 77.1384 12.4608 78.2225 12.4608C79.3065 12.4608 80.3761 12.4608 81.4601 12.4608C82.178 12.4608 82.8026 12.7961 82.7667 13.6081C82.7308 14.4201 82.0919 14.6138 81.4314 14.6138Z" fill="#594739"/>
<path d="M75.5172 23.8973C76.348 23.85 77.1746 24.049 77.9006 24.4709C78.1578 24.618 78.3725 24.8336 78.5227 25.0955C78.6729 25.3574 78.753 25.6561 78.7548 25.9609C78.7528 26.2688 78.6745 26.571 78.5274 26.8385C78.3803 27.1059 78.1694 27.3296 77.9149 27.4881C77.196 27.9309 76.3662 28.141 75.5315 28.0915C75.0482 28.1004 74.5657 28.0454 74.0957 27.9276C73.7307 27.8385 73.385 27.6793 73.0763 27.4583C72.8325 27.2801 72.6291 27.0487 72.4805 26.7803C72.3755 26.5829 72.3097 26.3656 72.2869 26.1413C72.2641 25.917 72.2847 25.6903 72.3476 25.4744C72.4104 25.2585 72.5143 25.0578 72.653 24.8842C72.7917 24.7106 72.9625 24.5676 73.1553 24.4635C73.877 24.0516 74.6946 23.8556 75.5172 23.8973ZM75.5172 24.3592C74.9067 24.3173 74.2997 24.482 73.7871 24.8285C73.6027 24.9563 73.4513 25.1291 73.3462 25.3317C73.241 25.5343 73.1854 25.7606 73.184 25.9907C73.1805 26.2311 73.2376 26.4682 73.3496 26.6786C73.4617 26.889 73.6249 27.0654 73.8229 27.1901C74.337 27.5119 74.9319 27.6675 75.5315 27.6371C76.1267 27.6681 76.7171 27.5124 77.2257 27.1901C77.422 27.0639 77.5833 26.887 77.694 26.6768C77.8048 26.4666 77.8611 26.2302 77.8575 25.9907C77.86 25.7525 77.8023 25.5178 77.6902 25.31C77.5781 25.1022 77.4155 24.9285 77.2186 24.8062C76.7062 24.4866 76.1143 24.3311 75.5172 24.3592Z" fill="#594739"/>
<path d="M85.9677 23.9938V24.4557H83.7063V27.9943H82.8161V24.4557H80.5548V23.9938H85.9677Z" fill="#594739"/>
<path d="M88.1436 27.9943V23.9938H89.0625V27.3835L92.3647 23.9938H93.4918V27.9943H92.6016V24.5973L89.285 27.9943H88.1436Z" fill="#594739"/>
<path d="M102.114 26.4818C102.071 26.7392 101.969 26.9818 101.815 27.1883C101.661 27.3949 101.46 27.559 101.231 27.6663C100.597 27.9773 99.8996 28.1231 99.1992 28.0909C98.4018 28.1325 97.6095 27.936 96.9163 27.5248C96.6633 27.374 96.4526 27.1572 96.3052 26.8958C96.1579 26.6344 96.079 26.3376 96.0764 26.0348C96.0826 25.7319 96.1637 25.4357 96.3121 25.1748C96.4604 24.9138 96.671 24.6969 96.9235 24.5449C97.629 24.1086 98.4439 23.9011 99.2638 23.9489C99.9062 23.936 100.545 24.0524 101.145 24.2916C101.69 24.5225 101.992 24.8354 102.056 25.2377H101.166C101.102 25.0947 101.01 24.9667 100.897 24.8617C100.783 24.7567 100.65 24.6767 100.506 24.6268C100.103 24.4666 99.6735 24.3907 99.2423 24.4033C98.6405 24.3575 98.0413 24.5227 97.5409 24.8726C97.3631 25.0051 97.2183 25.1796 97.1185 25.3817C97.0186 25.5838 96.9665 25.8077 96.9666 26.0348C96.9599 26.2715 97.0119 26.5061 97.1175 26.7161C97.223 26.926 97.3787 27.1044 97.5696 27.2342C98.0665 27.5522 98.645 27.7056 99.2279 27.6737C99.7018 27.6953 100.173 27.5928 100.599 27.3758C100.759 27.2918 100.897 27.1708 101.004 27.0223C101.111 26.8737 101.184 26.7015 101.216 26.519L102.114 26.4818Z" fill="#594739"/>
<path d="M104.655 27.9943V23.9938H105.574V27.3835L108.876 23.9938H110.004V27.9943H109.113V24.5973L105.797 27.9943H104.655Z" fill="#594739"/>
<path d="M119.215 25.9755C119.203 26.2338 119.115 26.482 118.962 26.6861C118.809 26.8902 118.599 27.0401 118.36 27.1153C117.696 27.398 116.982 27.5325 116.264 27.5101V27.9943H115.374V27.5101C114.658 27.5321 113.946 27.3949 113.285 27.1078C113.047 27.0348 112.837 26.8877 112.683 26.6864C112.529 26.4852 112.438 26.2395 112.424 25.9829C112.438 25.7236 112.528 25.475 112.682 25.2702C112.836 25.0653 113.046 24.9137 113.285 24.8356C113.941 24.5404 114.652 24.398 115.367 24.4185V23.9938H116.257V24.4185C116.977 24.3956 117.693 24.5381 118.353 24.8356C118.591 24.9124 118.801 25.0625 118.955 25.2661C119.109 25.4697 119.2 25.7172 119.215 25.9755ZM115.396 27.0557V24.8207C114.887 24.8182 114.384 24.9247 113.917 25.1336C113.754 25.1954 113.614 25.3068 113.514 25.4531C113.414 25.5994 113.359 25.7738 113.357 25.9531C113.358 26.129 113.412 26.3002 113.511 26.443C113.61 26.5858 113.749 26.6931 113.91 26.7502C114.382 26.9496 114.886 27.0532 115.396 27.0557ZM118.332 25.9531C118.329 25.7729 118.273 25.5979 118.171 25.4515C118.07 25.3051 117.928 25.1942 117.765 25.1336C117.298 24.9245 116.794 24.818 116.286 24.8207V27.0557C116.798 27.0542 117.305 26.9505 117.779 26.7502C117.936 26.6945 118.073 26.5905 118.172 26.4521C118.27 26.3138 118.326 26.1475 118.332 25.9755V25.9531Z" fill="#594739"/>
<path d="M124.534 23.9938L127.169 27.9943H126.171L125.453 26.7726H122.589L121.821 27.9943H120.873L123.522 23.9938H124.534ZM125.159 26.3479L124.01 24.5004L122.847 26.3107L125.159 26.3479Z" fill="#594739"/>
<path d="M129.264 23.9934H132.035C132.593 23.9696 133.15 24.0634 133.672 24.269C133.848 24.3301 134.001 24.4472 134.109 24.6036C134.218 24.7601 134.276 24.948 134.275 25.1406C134.275 25.9452 133.509 26.3475 131.978 26.3475H130.147V27.9864H129.264V23.9934ZM130.155 24.4478V25.9377H131.87C132.25 25.9546 132.629 25.9016 132.99 25.7813C133.109 25.7463 133.214 25.6707 133.287 25.5667C133.36 25.4627 133.397 25.3362 133.392 25.2077C133.395 25.0689 133.35 24.9336 133.263 24.8277C133.162 24.7178 133.032 24.6402 132.89 24.6042C132.723 24.5557 132.552 24.5233 132.38 24.5074C132.201 24.5074 131.992 24.5074 131.748 24.5074L130.155 24.4478Z" fill="#594739"/>
<path d="M136.824 23.9938H138.052L140.205 27.3835L142.301 23.9938H143.543V27.9943H142.703V24.6568L140.593 27.9943H139.818L137.664 24.6568V27.9943H136.81L136.824 23.9938Z" fill="#594739"/>
</svg>
