<svg width="124" height="34" viewBox="0 0 124 34" fill="none" xmlns="http://www.w3.org/2000/svg">
<path d="M25.0902 15.4436V20.571C24.8609 20.571 24.6491 20.6091 24.4433 20.6091H18.2563C17.5153 20.6091 17.4212 20.7297 17.5506 21.5356C17.569 21.593 17.5926 21.6482 17.6211 21.7006C18.9915 21.8021 20.4029 21.6688 21.8732 21.7767C21.9409 23.3135 21.694 24.8475 21.1498 26.2695C20.322 28.5403 18.8288 30.4568 16.8978 31.7269C14.9784 33.0124 12.7259 33.5957 10.4749 33.3899C8.22394 33.1841 6.09451 32.2003 4.40297 30.5847C2.71143 28.969 1.54803 26.8077 1.08559 24.4218C0.623154 22.0359 0.886353 19.5527 1.83609 17.341C3.75923 12.899 8.02896 10.7097 11.1813 10.8556C11.2636 12.3405 11.1813 13.8445 11.2518 15.3928C11.8377 15.4609 12.4276 15.48 13.0162 15.45C13.6043 15.45 14.1924 15.45 14.7394 15.45H25.0902V15.4436ZM10.5343 11.5981C10.2226 11.5981 9.97562 11.6298 9.7345 11.6742C8.42839 11.9011 7.17822 12.4103 6.05901 13.1713C4.93979 13.9324 3.97461 14.9295 3.22136 16.103C2.46812 17.2764 1.94234 18.602 1.67559 20.0001C1.40883 21.3982 1.4066 22.8401 1.66901 24.2391C1.93143 25.6382 2.45309 26.9656 3.2027 28.1418C3.9523 29.318 4.91439 30.3186 6.03124 31.0837C7.14809 31.8488 8.39667 32.3625 9.70207 32.5941C11.0075 32.8256 12.3428 32.7703 13.6278 32.4313C15.6439 31.9292 17.46 30.749 18.8141 29.061C20.1682 27.373 20.9902 25.2644 21.1616 23.0395C21.2028 22.5572 21.1616 22.4747 20.7205 22.4747C19.7678 22.4747 18.817 22.4747 17.8682 22.4747C17.48 22.4747 17.4624 22.5192 17.3683 22.9189C17.233 23.4774 17.1212 24.0485 16.9389 24.5942C16.4841 26.1271 15.4898 27.406 14.17 28.156C12.8502 28.906 11.3103 29.0672 9.88153 28.6048C8.89721 28.3199 7.99147 27.7821 7.24176 27.0372C6.49205 26.2924 5.92068 25.3627 5.57651 24.3277C5.28516 23.5735 5.15839 22.7572 5.206 21.9417C5.29473 20.2031 5.96316 18.5578 7.08797 17.3093C7.94337 16.2419 9.14052 15.562 10.4402 15.4055C10.4402 15.4055 10.4932 15.3611 10.5461 15.3167L10.5343 11.5981ZM11.3695 20.6218C11.0087 20.6264 10.6634 20.7805 10.4051 21.0522C10.1467 21.3238 9.99507 21.6923 9.98151 22.0813C9.97095 22.3842 10.0448 22.6837 10.1934 22.9409C10.3421 23.1981 10.5588 23.4014 10.8156 23.5244C11.0724 23.6475 11.3575 23.6846 11.634 23.6312C11.9106 23.5777 12.1659 23.436 12.3671 23.2245C12.5684 23.0129 12.7062 22.7411 12.7628 22.4441C12.8195 22.1472 12.7924 21.8388 12.685 21.5586C12.5776 21.2785 12.3949 21.0395 12.1604 20.8725C11.9259 20.7055 11.6504 20.6182 11.3695 20.6218Z" fill="#594739"/>
<path d="M31.037 13.4954H45.1518C45.2577 13.9586 45.293 30.2419 45.1989 31.0351C43.7285 31.1972 42.2466 31.1972 40.7762 31.0351C40.7762 28.776 40.7762 26.4979 40.7762 24.2197V17.4805C39.0047 17.299 37.2221 17.2821 35.4479 17.4298C35.4479 17.6582 35.4185 17.9057 35.4185 18.1468C35.4185 22.1151 35.4185 26.0833 35.4185 30.0515C35.4185 30.1848 35.4185 30.3244 35.4185 30.4576C35.4185 31.162 35.4185 31.162 34.7657 31.162H31.5898C31.3958 31.162 31.2076 31.162 31.0311 31.1303C30.9311 30.6163 30.9135 14.149 31.037 13.4954Z" fill="#594739"/>
<path d="M117.778 19.3463C119.678 21.5395 121.189 24.0905 122.236 26.8724C122.751 28.2226 123.145 29.6229 123.412 31.0542C123.319 31.1028 123.22 31.137 123.118 31.1558C121.809 31.1558 120.499 31.1558 119.19 31.1558C118.825 31.1558 118.819 31.1558 118.707 30.6227C117.997 27.4673 116.561 24.5559 114.532 22.1574L114.349 21.9417C114.278 21.8507 114.19 21.7767 114.09 21.7244C113.991 21.6721 113.882 21.6426 113.772 21.6379C113.661 21.6331 113.551 21.6531 113.448 21.6967C113.345 21.7402 113.251 21.8064 113.173 21.8909C113.102 21.9751 113.059 22.0821 113.05 22.1955C113.039 22.4069 113.039 22.6187 113.05 22.8301C113.05 25.3261 113.05 27.8221 113.05 30.3181C113.05 30.5656 113.05 30.8131 113.014 31.0923C112.865 31.1202 112.713 31.1393 112.562 31.1494H109.086C108.604 31.1494 108.568 31.1177 108.568 30.5846C108.568 28.5921 108.568 26.5995 108.568 24.6006C108.568 21.1738 108.568 17.7471 108.568 14.3204C108.568 14.0539 108.568 13.7937 108.609 13.4891H112.95C112.95 13.7049 113.014 13.927 113.02 14.1237C113.02 14.9169 113.02 15.7101 113.02 16.5033C113.02 16.6556 113.05 16.8016 113.073 17.0174C113.273 16.9476 113.444 16.9031 113.603 16.827C115.06 16.2 116.337 15.1663 117.302 13.8318C117.382 13.6964 117.494 13.5862 117.626 13.5127C117.758 13.4391 117.906 13.4047 118.055 13.413C119.525 13.413 120.995 13.413 122.465 13.413C122.589 13.413 122.712 13.413 122.918 13.413C122.789 13.6922 122.701 13.9333 122.571 14.1554C121.465 16.0451 119.995 17.6554 118.26 18.8767L117.778 19.3463Z" fill="#594739"/>
<path d="M53.6384 23.0776C54.3088 23.1347 54.9087 23.2426 55.5086 23.2363C56.0194 23.2664 56.5254 23.1161 56.9499 22.8081C57.3744 22.5 57.6943 22.0511 57.861 21.5293C58.0803 20.9715 58.1415 20.3562 58.0368 19.761C57.9321 19.1657 57.6663 18.6173 57.2729 18.185C56.9357 17.8305 56.511 17.5882 56.0496 17.487C54.9204 17.2014 53.803 17.3855 52.6268 17.3347C52.5797 18.5404 52.6268 19.6763 52.6268 20.8058C52.6268 21.9354 52.6268 23.0903 52.6268 24.2326C52.6268 25.3748 52.6268 26.517 52.6268 27.6593C52.6268 28.8015 52.6268 29.9311 52.6268 31.105C52.4709 31.1326 52.3139 31.1517 52.1563 31.1622H48.6276C48.1101 31.1622 48.0983 31.1622 48.0983 30.5657C48.0983 25.066 48.0983 19.5663 48.0983 14.0666C48.0983 13.8953 48.0983 13.724 48.0983 13.5209C48.2422 13.4925 48.3875 13.4734 48.5335 13.4638C51.1153 13.4638 53.703 13.4638 56.2849 13.4638C57.549 13.4657 58.7904 13.8269 59.8842 14.5108C60.64 14.986 61.2822 15.6456 61.7591 16.4369C62.2361 17.2281 62.5346 18.1289 62.6307 19.0671C62.8551 20.5682 62.6478 22.1074 62.0367 23.4774C61.6242 24.4409 60.9877 25.2728 60.189 25.8922C59.3903 26.5116 58.4566 26.8974 57.4788 27.012C56.323 27.1904 55.1474 27.1539 54.003 26.9041C53.6207 26.828 53.5678 26.7772 53.5678 26.3838C53.5678 25.3748 53.5678 24.3722 53.5678 23.3632C53.5806 23.2653 53.6043 23.1694 53.6384 23.0776Z" fill="#594739"/>
<path d="M24.9853 14.1364C24.7853 14.1364 24.6266 14.1808 24.4678 14.1808H20.9744C20.4333 14.1808 20.3862 14.1427 20.3862 13.5462C20.3862 11.4394 20.3862 9.32628 20.3862 7.20045C20.3903 6.89082 20.3746 6.58126 20.3392 6.27396C20.2895 5.90278 20.1116 5.56562 19.841 5.33019C19.5705 5.09477 19.2274 4.97852 18.8807 5.00481C18.5477 4.99302 18.2229 5.11714 17.9711 5.3524C17.7193 5.58766 17.5589 5.91675 17.5221 6.27396C17.5124 6.46631 17.5124 6.65908 17.5221 6.85143C17.5221 9.01745 17.5221 11.1856 17.5221 13.3558C17.5221 13.5843 17.5221 13.8127 17.5221 13.9904C15.9775 14.148 14.4235 14.1671 12.876 14.0475C12.854 13.9048 12.8402 13.7606 12.8348 13.616C12.8642 11.1412 12.9113 8.65997 12.9289 6.18512C13.007 4.69736 13.5512 3.28236 14.4723 2.17206C15.3933 1.06175 16.6367 0.322027 17.9985 0.0741357C21.3566 -0.509676 24.5913 2.44111 24.9853 5.88052C24.9942 6.03479 24.9942 6.1895 24.9853 6.34376C24.9853 8.78054 24.9853 11.2194 24.9853 13.6604C24.9853 13.7937 24.9853 13.9587 24.9853 14.1364Z" fill="#594739"/>
<path d="M95.6476 13.4891H106.01C106.14 14.7544 106.14 16.0313 106.01 17.2966H100.188C100.158 17.6202 100.117 17.8867 100.111 18.1469C100.111 20.956 100.111 23.7629 100.111 26.5678C100.111 26.7772 100.141 26.9866 100.164 27.2594H106.398C106.531 28.5479 106.531 29.8482 106.398 31.1367H95.6476V13.4891Z" fill="#594739"/>
<path d="M81.9854 13.4954H94.03C94.0589 13.6696 94.0786 13.8454 94.0888 14.0221C94.0888 14.9295 94.0888 15.8433 94.0888 16.7508C94.0888 17.3029 94.0594 17.3282 93.5007 17.3282H90.2661C90.2661 17.6138 90.2249 17.8549 90.2249 18.0961C90.2249 22.1785 90.2249 26.261 90.2249 30.3434C90.2249 30.5909 90.2249 30.8321 90.1778 31.1113H85.7846C85.7846 30.8321 85.7317 30.5719 85.7317 30.3054C85.7317 26.2991 85.7317 22.2927 85.7317 18.2864C85.7317 17.9819 85.7317 17.6519 85.6846 17.3219H82.0324C81.8518 16.055 81.8359 14.767 81.9854 13.4954Z" fill="#594739"/>
<path d="M101.123 18.9656H107.045C107.077 19.1203 107.098 19.2772 107.11 19.4351C107.11 20.3426 107.11 21.2564 107.11 22.1638C107.11 22.6651 107.063 22.7159 106.628 22.7159C104.922 22.7159 103.222 22.7159 101.517 22.7159C101.388 22.7024 101.26 22.679 101.135 22.6461C101.105 21.4404 101.129 20.2347 101.123 18.9656Z" fill="#594739"/>
<path d="M69.4174 5.70919L69.7821 5.92495C69.9564 6.02219 70.1031 6.16849 70.2066 6.34835C70.3101 6.5282 70.3667 6.73493 70.3702 6.94662C70.3988 7.11354 70.3961 7.28496 70.3622 7.45074C70.3283 7.61651 70.264 7.77326 70.1729 7.91171C70.0819 8.05017 69.9661 8.16751 69.8322 8.2568C69.6984 8.34609 69.5494 8.4055 69.3939 8.43153C69.1509 8.49231 68.9024 8.52422 68.6529 8.52672C67.9765 8.52672 67.2943 8.52672 66.6297 8.52672C66.4802 6.75868 66.4566 4.98088 66.5592 3.20895C66.631 3.1683 66.7085 3.14044 66.7885 3.12646C67.5413 3.12646 68.2941 3.12646 69.0469 3.12646C69.2398 3.13033 69.4289 3.18534 69.5974 3.28664C69.766 3.38795 69.9088 3.53243 70.0134 3.70735C70.118 3.88228 70.1811 4.08228 70.1972 4.28973C70.2133 4.49718 70.1818 4.7057 70.1055 4.89693C69.9992 5.09448 69.8642 5.27231 69.7056 5.42363C69.6157 5.52578 69.5194 5.62119 69.4174 5.70919ZM67.1473 8.03809C67.8189 8.14836 68.5028 8.13549 69.1704 8.00002C69.3655 7.95494 69.5403 7.83894 69.6655 7.67144C69.7908 7.50394 69.8589 7.29511 69.8585 7.07988C69.875 6.86529 69.8227 6.6511 69.7103 6.47319C69.5978 6.29528 69.4322 6.16445 69.241 6.10263C68.5529 5.94185 67.8433 5.9182 67.1473 6.03283V8.03809ZM67.1473 5.49978C67.7756 5.5938 68.4143 5.57019 69.0352 5.42998C69.2176 5.37245 69.3746 5.24571 69.4773 5.07312C69.58 4.90054 69.6214 4.69373 69.5939 4.4908C69.6085 4.28402 69.547 4.07935 69.4225 3.9213C69.298 3.76325 69.1208 3.66461 68.9293 3.64681C68.3412 3.60239 67.7531 3.64681 67.1649 3.64681L67.1473 5.49978Z" fill="#594739"/>
<path d="M35.2596 3.1708C35.2596 3.49443 35.2596 3.80538 35.2596 4.0719C35.2596 5.13799 35.2596 6.19562 35.2596 7.24479C35.2596 7.9682 35.2596 7.9682 35.936 8.12685C35.9845 8.61542 35.9687 9.10895 35.8889 9.59272C35.8889 9.64984 35.7654 9.74502 35.7007 9.73868C35.6613 9.7307 35.6242 9.71273 35.5925 9.68625C35.5608 9.65977 35.5354 9.62554 35.5184 9.58638C35.4916 9.45506 35.4778 9.32105 35.4772 9.18659C35.4772 8.97718 35.4361 8.77412 35.4125 8.5076H31.5368C31.3716 6.75335 31.344 4.98716 31.4545 3.22791C31.8721 3.0883 31.9309 3.11369 31.9309 3.55789C31.9309 4.70013 31.9309 5.84237 31.9309 6.98461C31.9309 8.12685 31.8427 8.08877 32.9424 8.08877C33.3541 8.08877 33.7658 8.08877 34.1775 8.08877C34.5892 8.08877 34.7009 8.03166 34.7068 7.51765C34.7068 6.33734 34.7068 5.15703 34.7068 3.97671C34.7068 3.82441 34.7068 3.66577 34.7068 3.51347C34.7597 3.1708 34.7715 3.1708 35.2596 3.1708Z" fill="#594739"/>
<path d="M87.5196 4.67486C87.7431 4.67486 87.8783 4.6241 88.0195 4.61775H89.9956C90.1191 5.8298 89.9956 7.00377 90.0779 8.18408L90.666 8.30465C90.666 8.66002 90.6307 9.00269 90.5896 9.33902C90.5896 9.42151 90.4602 9.48497 90.3955 9.56112C90.3367 9.48497 90.2308 9.41516 90.2191 9.32632C90.1966 9.11565 90.1848 8.90381 90.1838 8.69174C89.0946 8.52193 87.9898 8.50274 86.8962 8.63463C86.8962 8.85674 86.8609 9.10422 86.8139 9.33902C86.8041 9.39047 86.7837 9.43887 86.7541 9.48062C86.7246 9.52237 86.6867 9.5564 86.6433 9.58016C86.4786 9.61823 86.4375 9.47228 86.4316 9.32632C86.4316 9.02173 86.4316 8.69174 86.4316 8.36811C86.9079 8.31734 87.0785 7.93025 87.1608 7.51143C87.302 6.81339 87.3961 6.10901 87.4902 5.40463C87.5161 5.16244 87.5259 4.91856 87.5196 4.67486ZM88.1077 5.05561L87.5784 8.19677H89.5133C89.5766 7.15083 89.5766 6.10155 89.5133 5.05561H88.1077Z" fill="#594739"/>
<path d="M94.2243 8.13337C94.2243 8.45701 94.2243 8.76795 94.2243 9.09793C94.2415 9.30905 94.2415 9.52139 94.2243 9.73251C94.2064 9.78973 94.1755 9.84119 94.1344 9.8822C94.0933 9.92321 94.0434 9.95247 93.9891 9.9673C93.9068 9.9673 93.8127 9.83404 93.748 9.73885C93.6833 9.64367 93.748 9.58656 93.748 9.51041C93.748 8.00434 93.748 6.49616 93.748 4.98587C93.7526 4.89435 93.7624 4.80322 93.7774 4.713C94.142 4.64319 94.142 4.64319 94.3184 5.13182C94.4061 5.07377 94.4906 5.0102 94.5713 4.94145C94.7711 4.73823 95.0184 4.59757 95.2867 4.53457C95.555 4.47156 95.8341 4.4886 96.0941 4.58385C96.3541 4.67909 96.5851 4.84895 96.7624 5.07518C96.9396 5.30142 97.0564 5.57547 97.1002 5.86793C97.1623 6.30748 97.1623 6.75464 97.1002 7.1942C97.0811 7.50228 96.9808 7.79803 96.8109 8.04655C96.6411 8.29506 96.4089 8.48597 96.1418 8.59672C95.8747 8.70747 95.5838 8.73345 95.3034 8.67159C95.0231 8.60973 94.7649 8.46261 94.5596 8.2476L94.3596 8.06991L94.2243 8.13337ZM96.665 6.61673C96.5832 6.22383 96.4751 5.83784 96.3416 5.4618C96.2595 5.26289 96.1233 5.09563 95.951 4.98228C95.7787 4.86893 95.5785 4.81485 95.3771 4.82722C95.1709 4.81403 94.9657 4.86733 94.7876 4.98033C94.6096 5.09333 94.4667 5.26093 94.3772 5.4618C94.2076 5.81526 94.125 6.20983 94.1374 6.60765C94.1497 7.00547 94.2566 7.39318 94.4478 7.73359C94.5421 7.92764 94.6855 8.08876 94.8615 8.19815C95.0374 8.30753 95.2385 8.36067 95.4414 8.35135C95.6443 8.34204 95.8405 8.27066 96.0072 8.14554C96.1738 8.02043 96.3041 7.84674 96.3827 7.64475C96.5018 7.31117 96.5943 6.96726 96.6591 6.61673H96.665Z" fill="#594739"/>
<path d="M58.8724 8.0953C58.8724 8.29837 58.8724 8.50143 58.8724 8.72988C58.8724 9.0789 58.8724 9.42792 58.8724 9.77059C58.8724 9.84674 58.7489 9.98 58.6842 9.98C58.6195 9.98 58.5137 9.86578 58.4784 9.78328C58.4586 9.67005 58.4586 9.55384 58.4784 9.44061C58.4784 8.04877 58.4784 6.65693 58.4784 5.26509C58.476 5.22705 58.476 5.18889 58.4784 5.15086C58.4784 4.97318 58.4313 4.70031 58.6783 4.69396C58.796 4.69396 58.9136 4.90338 59.0665 5.06202C59.1379 5.02051 59.2067 4.97387 59.2723 4.92241C59.4807 4.72918 59.7329 4.59931 60.0032 4.54613C60.2734 4.49296 60.5519 4.5184 60.8101 4.61986C61.0682 4.72131 61.2966 4.89511 61.4718 5.12338C61.6471 5.35166 61.7628 5.62617 61.8071 5.9187C61.9086 6.39048 61.9086 6.88106 61.8071 7.35285C61.7629 7.65527 61.6416 7.93846 61.4568 8.17074C61.2719 8.40302 61.0308 8.57522 60.7604 8.66808C60.4901 8.76093 60.2011 8.77078 59.9258 8.69652C59.6505 8.62227 59.3998 8.46683 59.2018 8.2476L59.0018 8.06357L58.8724 8.0953ZM61.3249 6.61039C61.2566 6.22904 61.1562 5.85521 61.0249 5.49353C60.9384 5.31329 60.8105 5.16001 60.6534 5.04834C60.4963 4.93666 60.3153 4.87034 60.1277 4.85569C59.9401 4.84105 59.7521 4.87858 59.5817 4.9647C59.4114 5.05082 59.2644 5.18265 59.1547 5.34758C58.9469 5.74232 58.8447 6.19148 58.8592 6.64516C58.8737 7.09884 59.0045 7.5393 59.237 7.91762C59.3433 8.08067 59.4879 8.21026 59.6559 8.29311C59.8239 8.37595 60.0093 8.40906 60.1931 8.38904C60.3769 8.36901 60.5525 8.29657 60.7018 8.17916C60.851 8.06174 60.9687 7.90358 61.0426 7.7209C61.1663 7.36025 61.2608 6.98869 61.3249 6.61039Z" fill="#594739"/>
<path d="M122.818 4.62412C122.847 4.78987 122.867 4.95725 122.877 5.12544C122.877 6.09634 122.877 7.0609 122.877 8.0318C122.877 8.10795 122.877 8.20314 122.877 8.26025C122.824 8.36858 122.739 8.45536 122.636 8.50774C122.471 8.5585 122.36 8.43793 122.354 8.25391C122.348 8.06988 122.354 7.71451 122.354 7.44165C122.354 7.30838 122.354 7.17512 122.318 7.05455C121.654 6.84514 121.513 6.88956 121.142 7.42896C120.96 7.71452 120.772 8.00007 120.595 8.29198C120.419 8.58389 120.272 8.57754 120.007 8.45697L120.831 7.08628C120.755 7.02109 120.675 6.96372 120.589 6.91495C120.34 6.80205 120.141 6.59063 120.031 6.32399C119.922 6.05735 119.911 5.75568 120.001 5.4808C120.052 5.23198 120.183 5.01042 120.37 4.85495C120.557 4.69948 120.789 4.62001 121.025 4.63047C121.613 4.61777 122.201 4.62412 122.818 4.62412ZM122.301 5.03025C121.872 5.03025 121.513 5.03025 121.154 5.03025C120.977 5.03735 120.809 5.11473 120.682 5.24752C120.555 5.38032 120.477 5.55915 120.465 5.74965C120.453 5.94015 120.506 6.12887 120.615 6.27955C120.723 6.43023 120.88 6.53222 121.054 6.56593C121.463 6.66317 121.886 6.66317 122.295 6.56593L122.301 5.03025Z" fill="#594739"/>
<path d="M42.3523 7.61288C42.2883 7.93432 42.1112 8.21641 41.8583 8.39976C41.605 8.5765 41.3147 8.68171 41.0139 8.70573C40.713 8.72975 40.4115 8.67181 40.1368 8.53724C39.8622 8.40266 39.6233 8.19576 39.4422 7.93555C39.261 7.67535 39.1434 7.37019 39.1 7.04811C39.0192 6.53129 39.0701 6.00051 39.2471 5.51243C39.402 5.14918 39.667 4.85378 39.9985 4.67496C40.3299 4.49614 40.708 4.44459 41.0702 4.52884C41.3891 4.54677 41.6925 4.68281 41.9293 4.914C42.1661 5.14519 42.3217 5.4574 42.37 5.79799C42.4288 6.07086 42.4582 6.35642 42.4994 6.66102C42.0344 6.78608 41.5527 6.82259 41.0761 6.76889C40.6291 6.76889 40.1822 6.76889 39.747 6.76889C39.6798 7.04336 39.6998 7.33421 39.8039 7.59495C39.9079 7.85568 40.09 8.07125 40.321 8.20719C40.5519 8.34312 40.8185 8.39158 41.078 8.34482C41.3375 8.29805 41.575 8.15876 41.7525 7.94921C42.0053 7.58115 42.0053 7.58115 42.3523 7.61288ZM39.6882 6.34373C40.4104 6.4199 41.1382 6.40926 41.8583 6.312C41.923 5.42359 41.529 4.8842 40.8467 4.87151C40.1645 4.85882 39.6352 5.37282 39.6882 6.34373Z" fill="#594739"/>
<path d="M80.7917 6.79429C80.7917 7.93018 81.3505 8.51399 82.2385 8.3617C82.3996 8.33869 82.5528 8.27267 82.6843 8.16961C82.8157 8.06656 82.9213 7.92973 82.9913 7.77154C83.0103 7.72308 83.0383 7.67932 83.0735 7.64292C83.1087 7.60652 83.1505 7.57825 83.1961 7.55984C83.2418 7.54143 83.2905 7.53326 83.3392 7.53584C83.3879 7.53841 83.4357 7.55168 83.4795 7.57482C83.4564 7.84197 83.3483 8.09226 83.1735 8.28314C82.9987 8.47401 82.7681 8.59371 82.5208 8.62187C82.168 8.67995 81.8091 8.67995 81.4563 8.62187C81.1983 8.57213 80.9585 8.44523 80.764 8.25564C80.5696 8.06604 80.4284 7.82136 80.3565 7.54944C80.158 6.93294 80.158 6.2622 80.3565 5.6457C80.4692 5.26217 80.7074 4.93601 81.0267 4.72815C81.346 4.52028 81.7245 4.44493 82.0915 4.51615C82.4323 4.49971 82.7667 4.62046 83.0296 4.85498C83.2926 5.08949 83.4655 5.42104 83.5147 5.78531C83.5677 6.04549 83.5794 6.31201 83.6147 6.64833C82.6561 6.84505 81.7268 6.67372 80.7917 6.79429ZM82.9796 6.3247C83.056 5.4934 82.7267 4.95401 82.115 4.86517C81.8207 4.8153 81.5198 4.88778 81.2731 5.06799C81.0264 5.2482 80.8523 5.52271 80.7859 5.83607C80.7035 6.2549 80.7859 6.35008 81.1799 6.36277C81.5739 6.37547 81.8974 6.36277 82.2562 6.36277C82.4973 6.34374 82.7443 6.34374 82.9796 6.34374V6.3247Z" fill="#594739"/>
<path d="M103.411 7.61283C103.35 7.88117 103.214 8.12276 103.022 8.30453C102.829 8.48629 102.589 8.59933 102.334 8.62816C102.086 8.65736 101.836 8.65736 101.588 8.62816C101.27 8.61898 100.965 8.498 100.717 8.28372C100.47 8.06943 100.294 7.77363 100.217 7.4415C100.023 6.82149 100.037 6.14732 100.258 5.53776C100.366 5.28705 100.523 5.0646 100.718 4.88587C100.913 4.70713 101.142 4.57639 101.389 4.50273C101.636 4.42906 101.894 4.41424 102.147 4.45929C102.4 4.50433 102.64 4.60817 102.852 4.76358C103.007 4.89644 103.136 5.06148 103.231 5.24894C103.326 5.43641 103.385 5.6425 103.405 5.85505C103.44 6.10254 103.44 6.35002 103.464 6.66731C102.546 6.78154 101.64 6.66731 100.752 6.74981C100.684 7.03265 100.705 7.3319 100.811 7.60063C100.918 7.86936 101.104 8.09238 101.341 8.23472C101.586 8.35553 101.862 8.38744 102.125 8.32569C102.389 8.26394 102.628 8.11184 102.805 7.89205C102.952 7.7461 103.017 7.4415 103.411 7.61283ZM102.875 6.26753C102.911 6.11161 102.915 5.94951 102.889 5.79155C102.863 5.6336 102.807 5.48325 102.724 5.35011C102.641 5.21697 102.533 5.10395 102.407 5.01826C102.281 4.93257 102.14 4.87609 101.993 4.85242C101.69 4.80265 101.38 4.88299 101.131 5.07627C100.881 5.26955 100.712 5.56044 100.658 5.88678C100.611 6.19773 100.658 6.33099 100.982 6.34368C101.517 6.34368 102.052 6.34368 102.587 6.34368C102.684 6.3325 102.778 6.30907 102.87 6.27388L102.875 6.26753Z" fill="#594739"/>
<path d="M113.867 4.71293V7.65102C114.144 7.71448 114.185 7.50507 114.267 7.37181C114.744 6.59762 115.214 5.82344 115.667 5.03022C115.697 4.94206 115.745 4.86216 115.807 4.79627C115.868 4.73038 115.943 4.68015 116.025 4.64919C116.108 4.61824 116.195 4.60733 116.281 4.61725C116.368 4.62717 116.451 4.65769 116.526 4.70658C116.526 5.91863 116.526 7.16874 116.526 8.40617C116.085 8.5204 116.043 8.5077 116.032 8.10792C116.032 7.42892 116.032 6.74992 116.032 6.07727C116.032 5.88055 115.996 5.68383 115.985 5.48711H115.867C115.761 5.63941 115.655 5.77902 115.561 5.93766C115.102 6.68012 114.638 7.41623 114.203 8.17138C114.014 8.49501 113.797 8.64731 113.432 8.47598C113.408 8.40859 113.393 8.33823 113.385 8.26656C113.385 7.18144 113.385 6.09631 113.385 5.01753C113.367 4.67485 113.497 4.56698 113.867 4.71293Z" fill="#594739"/>
<path d="M109.315 6.6865C108.727 6.6865 108.139 6.6865 107.633 6.6865C107.404 6.6865 107.339 6.87053 107.333 7.08629C107.333 7.45434 107.333 7.8224 107.333 8.19045C107.333 8.55851 107.157 8.5712 106.869 8.45063V4.71931C107.298 4.63681 107.31 4.63681 107.333 4.99852C107.357 5.36023 107.333 5.6331 107.333 5.92501C107.333 6.21691 107.445 6.36287 107.722 6.35652H108.957C109.233 6.35652 109.345 6.21057 109.345 5.93135C109.345 5.65214 109.345 5.29678 109.345 5.00487C109.345 4.82719 109.345 4.64316 109.598 4.63681C109.851 4.63047 109.851 4.80815 109.851 4.99218C109.851 6.05404 109.851 7.11167 109.851 8.16507C109.851 8.33006 109.851 8.48236 109.627 8.4887C109.404 8.49505 109.357 8.34275 109.351 8.15238C109.339 7.71452 109.327 7.25762 109.315 6.6865Z" fill="#594739"/>
<path d="M48.4392 8.44418C48.4392 7.98094 48.4392 7.53673 48.4392 7.09253C48.4392 6.9085 48.4392 6.71178 48.204 6.69909C47.6164 6.63451 47.0237 6.64944 46.4396 6.74351V8.4188C45.9633 8.50129 45.9397 8.50129 45.9339 8.13958C45.9339 7.09464 45.9339 6.0497 45.9339 5.00476C45.9339 4.63671 45.9633 4.63671 46.4279 4.70651V6.29296C47.0617 6.38088 47.7022 6.3979 48.3392 6.34372C48.4216 5.81754 48.461 5.28456 48.4569 4.75093C48.8509 4.61132 48.9097 4.63036 48.9156 4.97303C48.9156 6.03913 48.9156 7.09887 48.9156 8.14593C48.9332 8.4886 48.7921 8.57109 48.4392 8.44418Z" fill="#594739"/>
<path d="M74.4459 6.34369C75.0341 6.34369 75.5869 6.34369 76.1397 6.34369C76.3456 6.34369 76.3926 6.15331 76.3985 5.96929C76.4044 5.78526 76.3985 5.42989 76.3985 5.15703C76.3978 5.02211 76.4136 4.88768 76.4456 4.75724C76.4627 4.72564 76.4871 4.69943 76.5165 4.68121C76.5459 4.66299 76.5793 4.6534 76.6132 4.6534C76.6471 4.6534 76.6804 4.66299 76.7098 4.68121C76.7392 4.69943 76.7637 4.72564 76.7808 4.75724C76.8142 4.88738 76.83 5.02202 76.8278 5.15703C76.8278 6.10255 76.8278 7.06076 76.8278 7.99994C76.8278 8.05705 76.8278 8.11416 76.8278 8.17127C76.8278 8.32992 76.8278 8.50125 76.6044 8.48856C76.3809 8.47587 76.4103 8.29184 76.4044 8.14589C76.4044 7.79687 76.4044 7.44785 76.4044 7.10518C76.4044 6.76251 76.2868 6.67367 76.0162 6.67367H74.7812C74.5047 6.67367 74.393 6.82597 74.393 7.10518C74.393 7.3844 74.393 7.80322 74.393 8.14589C74.393 8.32992 74.393 8.50125 74.1401 8.5076C73.8872 8.51394 73.8931 8.34261 73.8931 8.15224C73.8931 7.01634 73.8931 5.8741 73.8931 4.7509C74.3107 4.60494 74.3636 4.62398 74.393 4.96031C74.393 5.18876 74.393 5.42355 74.393 5.65834C74.393 5.89314 74.4224 6.07082 74.4459 6.34369Z" fill="#594739"/>
<path d="M53.5029 8.43783V5.07457L52.7854 5.03015C52.6425 5.04071 52.499 5.04071 52.3561 5.03015C52.3263 5.01475 52.3005 4.99162 52.281 4.96283C52.2615 4.93404 52.2489 4.90048 52.2443 4.86516C52.2489 4.82983 52.2615 4.79627 52.281 4.76748C52.3005 4.73869 52.3263 4.71556 52.3561 4.70017C52.46 4.67317 52.5669 4.66249 52.6737 4.66844H54.8262C54.8791 4.66844 54.9438 4.66844 54.985 4.66844C55.0769 4.73023 55.1653 4.79804 55.2496 4.8715C55.1555 4.93496 55.0614 5.03649 54.9555 5.04918C54.6556 5.04918 54.3674 5.04918 54.0146 5.04918C54.0146 5.33474 53.9793 5.53781 53.9793 5.74722C53.9793 6.55948 53.9793 7.37174 53.9793 8.184C53.9852 8.4759 53.8617 8.58378 53.5029 8.43783Z" fill="#594739"/>
<path d="M80.5035 18.8831C80.1629 17.5794 79.5145 16.3935 78.6217 15.4414C77.729 14.4892 76.6224 13.8034 75.4104 13.4511C73.4924 12.8103 71.4374 12.8281 69.5292 13.5018C68.3518 13.8787 67.2811 14.5691 66.4157 15.5095C65.5504 16.4498 64.9182 17.61 64.5773 18.8831C64.2703 19.9617 64.1001 21.0803 64.0715 22.2083C64.1773 23.1094 64.2126 24.0231 64.3949 24.9052C64.6536 26.422 65.3138 27.8255 66.296 28.946C67.2781 30.0665 68.54 30.8561 69.9291 31.2193C71.3361 31.6366 72.8135 31.6974 74.2459 31.3969C77.4335 30.7624 79.6331 28.8586 80.5682 25.4573C81.1614 23.309 81.1388 21.0173 80.5035 18.8831ZM75.5633 25.7365C75.3163 26.2153 74.9763 26.6309 74.5668 26.955C74.1572 27.279 73.6876 27.5038 73.1901 27.6141C72.6926 27.7244 72.1789 27.7174 71.6841 27.5938C71.1893 27.4702 70.7251 27.2328 70.3232 26.8978C69.8829 26.5264 69.5387 26.0391 69.3234 25.4827C68.9052 24.4735 68.6919 23.3794 68.698 22.2739C68.7041 21.1685 68.9294 20.0772 69.3587 19.0734C69.5812 18.5765 69.9013 18.1377 70.2966 17.7874C70.692 17.4371 71.1532 17.1838 71.6483 17.045C72.1434 16.9061 72.6605 16.8851 73.1639 16.9834C73.6673 17.0816 74.1448 17.2968 74.5635 17.6139C75.1868 18.1125 75.6496 18.8094 75.8868 19.6065C76.0131 19.9667 76.1095 20.3384 76.1749 20.717C76.2573 21.25 76.2926 21.7894 76.322 22.0686C76.3683 23.3416 76.1068 24.6056 75.5633 25.7365Z" fill="#594739"/>
</svg>
