<svg width="162" height="34" viewBox="0 0 162 34" fill="none" xmlns="http://www.w3.org/2000/svg">
<path d="M151.856 26.7928L152.818 21.2715C152.997 20.2978 153.17 19.2364 153.357 18.2236C153.404 17.9607 153.357 17.8633 153.138 17.8731H147.805C147.336 17.8731 147.328 17.8731 147.234 18.4476L145.889 26.3254C145.795 26.8805 145.795 26.8902 145.365 26.8902H140.235C140.194 26.8389 140.167 26.7729 140.157 26.7014C140.147 26.6299 140.155 26.5564 140.18 26.4909L143.895 5.23352C143.997 4.67847 143.997 4.66873 144.427 4.66873H149.369C149.619 4.66873 149.651 4.79532 149.596 5.07771C149.416 6.05149 149.252 7.02526 149.08 7.99903L148.298 12.42C148.431 12.605 148.579 12.5465 148.704 12.5465H153.873C154.335 12.5465 154.335 12.5465 154.444 11.9623C154.846 9.74208 155.244 7.52513 155.641 5.31142C155.758 4.67847 155.758 4.67847 156.282 4.67847H160.927C161.357 4.67847 161.357 4.67847 161.271 5.22378L157.971 24.1149C157.83 24.9232 157.682 25.7217 157.549 26.5202C157.547 26.5728 157.536 26.6243 157.518 26.6715C157.499 26.7188 157.473 26.7606 157.44 26.7945C157.408 26.8284 157.37 26.8535 157.33 26.8683C157.289 26.8831 157.247 26.8873 157.205 26.8805H151.989C151.989 26.8805 151.934 26.8415 151.856 26.7928Z" fill="#594739"/>
<path d="M65.3035 26.8802H64.8656C62.9653 26.8802 61.0729 26.8802 59.1726 26.8802C59.0148 26.9018 58.8555 26.863 58.7158 26.7691C58.5761 26.6752 58.4627 26.5305 58.3906 26.3544C57.0612 23.7642 55.7083 21.1934 54.3633 18.5642C54.2694 18.389 54.2147 18.1747 53.9879 18.0676C53.8315 18.8077 53.6829 19.538 53.5344 20.2586L52.3223 26.2376C52.205 26.8121 52.205 26.8121 51.7514 26.8218H46.6449C46.6269 26.602 46.6456 26.3799 46.6997 26.1694C47.8935 19.2296 49.1056 12.2899 50.336 5.35015C50.336 5.22356 50.3907 5.09697 50.4064 4.97038C50.4072 4.92679 50.4153 4.8839 50.4303 4.84448C50.4453 4.80506 50.4667 4.76999 50.4932 4.74154C50.5198 4.71309 50.5508 4.69189 50.5843 4.67931C50.6179 4.66673 50.6531 4.66305 50.6879 4.66851H55.7005C56.0993 4.66851 56.1072 4.66851 56.0133 5.19435L54.7465 12.2445C54.6864 12.4567 54.6676 12.6836 54.6917 12.9066C54.9029 12.8482 54.9967 12.6242 55.1218 12.4684C57.0247 10.0275 58.925 7.58334 60.8226 5.13592C60.9406 4.96638 61.0895 4.83456 61.2569 4.75153C61.4243 4.6685 61.6052 4.6367 61.7845 4.65878C63.7864 4.65878 65.7883 4.65878 67.7903 4.65878C67.9545 4.65878 68.1343 4.59061 68.2907 4.73668C68.2907 4.98012 68.0952 5.09697 67.9858 5.24304L60.5489 15.1366C60.4082 15.3313 60.2752 15.5358 60.1188 15.7111C60.0791 15.7433 60.0456 15.786 60.0207 15.8363C59.9958 15.8865 59.9802 15.943 59.9749 16.0017C59.9697 16.0604 59.975 16.1198 59.9904 16.1756C60.0058 16.2314 60.031 16.2823 60.0641 16.3246C60.416 16.9965 60.7522 17.6781 61.0963 18.3597L65.1158 26.3447C65.2209 26.4951 65.2864 26.682 65.3035 26.8802Z" fill="#594739"/>
<path d="M128.466 21.7486C128.646 21.8337 128.84 21.8573 129.029 21.8168H137.795C138.39 21.8168 138.39 21.8168 138.257 22.5568C138.038 23.8227 137.811 25.0984 137.592 26.3643C137.498 26.8706 137.498 26.8804 137.084 26.8804H122.367C121.929 26.8804 121.929 26.8804 122.022 26.3351L125.471 6.5383C125.549 6.07089 125.659 5.56453 125.706 5.1458C125.753 4.72708 125.901 4.62971 126.198 4.66866C126.284 4.675 126.37 4.675 126.456 4.66866H140.181C140.341 4.62976 140.508 4.66433 140.65 4.76603C140.579 5.3147 140.482 5.85771 140.36 6.39223C140.196 7.22968 140.04 8.07686 139.868 8.9143C139.766 9.40119 139.766 9.41092 139.352 9.41092H134.284C133.174 9.41092 132.056 9.41092 130.945 9.41092C130.679 9.41092 130.546 9.48883 130.492 9.84912C130.366 10.6963 130.202 11.5435 130.054 12.3907C129.96 12.936 129.968 12.9457 130.398 12.9457H138.499C138.804 12.9457 138.828 12.9457 138.765 13.3839C138.624 14.2116 138.468 15.0296 138.319 15.8573L138.139 16.8311C138.03 17.4153 138.03 17.4251 137.522 17.4251H129.819C129.694 17.4251 129.577 17.4251 129.451 17.4251C129.326 17.4251 129.17 17.5322 129.131 17.7464L128.45 21.6025C128.448 21.652 128.453 21.7017 128.466 21.7486Z" fill="#594739"/>
<path d="M89.6085 26.7826L92.5175 10.2285C92.3237 10.1342 92.1135 10.104 91.9075 10.1409H87.3641C86.934 10.1409 86.9105 10.1409 87.0044 9.58584C87.2468 8.16413 87.4892 6.75217 87.7395 5.33046C87.849 4.68777 87.8489 4.68777 88.3807 4.68777H104.513C104.998 4.68777 105.006 4.68777 104.912 5.25256C104.662 6.71321 104.401 8.17387 104.13 9.63453C104.044 10.1312 104.036 10.1409 103.622 10.1409H98.8752C98.7501 10.1409 98.6328 10.1409 98.5076 10.1409C98.2574 10.1409 98.1401 10.2383 98.0854 10.5596C97.9055 11.6405 97.7022 12.7116 97.5145 13.7925L95.2936 26.4516C95.2076 26.9287 95.2076 26.9384 94.8166 26.9384H89.9369C89.8764 26.9434 89.8157 26.932 89.759 26.9051C89.7024 26.8782 89.651 26.8365 89.6085 26.7826Z" fill="#594739"/>
<path d="M17.9929 31.5545C17.9303 31.5545 17.8599 31.4571 17.8052 31.4668C16.854 31.5831 15.8968 31.6027 14.9431 31.5252C11.9566 31.4976 9.01457 30.6217 6.34104 28.9642C3.54812 27.2046 1.4161 24.1585 0.397818 20.4729C0.177798 19.631 0.0463691 18.757 0.00681685 17.873C-0.0335822 16.962 0.106042 16.0525 0.413458 15.2243C0.901452 13.8988 1.64569 12.7445 2.5796 11.8648C3.62057 10.8608 4.81955 10.1408 6.09862 9.75171C6.16883 10.0704 6.16883 10.4068 6.09862 10.7255C5.75479 13.8515 6.19162 17.0336 7.34982 19.84C8.11638 21.5179 9.12668 23.0037 10.3292 24.222C11.7685 25.7597 13.3776 27.0321 15.1073 28.0002C15.4955 28.282 15.9182 28.4826 16.3585 28.5942C16.9636 28.7705 17.553 29.0217 18.118 29.344C19.0642 29.7724 20.0183 30.1814 20.9801 30.532C21.1157 30.5748 21.2469 30.6369 21.3711 30.717C21.4571 30.7852 21.5744 30.8436 21.5744 30.9897C21.5744 31.1357 21.418 31.2136 21.3086 31.2331C20.2149 31.4797 19.104 31.5873 17.9929 31.5545Z" fill="#594739"/>
<path d="M17.6255 12.8381C17.614 12.512 17.6324 12.1853 17.6802 11.8643C17.7958 11.2943 18.0642 10.7905 18.4411 10.4364C18.8179 10.0822 19.2806 9.89889 19.7525 9.91678C20.7187 9.90598 21.6667 10.2442 22.4817 10.8906C24.2376 12.0938 25.6686 13.9164 26.595 16.1294C27.0583 17.174 27.3081 18.3445 27.3223 19.5376C27.34 19.9735 27.2755 20.4085 27.1339 20.8078C26.9924 21.207 26.7777 21.5594 26.5071 21.8368C26.2364 22.1141 25.9174 22.3087 25.5756 22.4049C25.2337 22.5011 24.8785 22.4963 24.5384 22.3908C23.1109 22.063 21.789 21.2315 20.73 19.9953C19.5841 18.7862 18.6748 17.2675 18.0712 15.5549C17.747 14.7081 17.594 13.7754 17.6255 12.8381Z" fill="#594739"/>
<path d="M20.3391 5.17485C20.1403 5.3479 19.9133 5.46427 19.6744 5.51567C18.5648 5.93022 17.5107 6.54715 16.5463 7.34636C15.6155 8.11971 14.8462 9.15827 14.3022 10.3759C13.7582 11.5935 13.4552 12.9552 13.4183 14.3478C13.3429 15.984 13.4641 17.625 13.7781 19.2166C13.7781 19.4017 13.8406 19.5964 13.8719 19.7717C13.7468 19.947 13.6295 19.7717 13.5278 19.7717C12.4432 19.2731 11.4997 18.3895 10.8143 17.2301C10.2578 16.3792 9.84887 15.3938 9.61334 14.3363C9.37781 13.2788 9.32075 12.172 9.44576 11.0856C9.63286 9.66327 10.1587 8.34362 10.955 7.29767C11.7265 6.11087 12.7253 5.18473 13.8595 4.60448C14.9938 4.02422 16.2269 3.80848 17.4456 3.97711C18.4662 4.12323 19.4514 4.53104 20.3391 5.17485Z" fill="#594739"/>
<path d="M33.5392 17.3953C32.8392 18.526 31.9071 19.4007 30.8413 19.9271C30.7824 19.6462 30.7824 19.3511 30.8413 19.0702C31.0868 17.0546 31.0444 15.0008 30.7162 13.0036C30.4856 11.6766 30.0281 10.4271 29.375 9.3399C28.7219 8.25275 27.8884 7.35348 26.9313 6.70327C26.2363 6.21072 25.5058 5.79996 24.7495 5.47631C24.5931 5.40815 24.4054 5.39841 24.2881 5.2134C24.4367 4.97969 24.6948 4.96995 24.8512 4.76546C25.0489 4.54126 25.2812 4.36952 25.534 4.26071C25.7867 4.15189 26.0546 4.10827 26.3213 4.13251C27.4896 3.75897 28.7178 3.79266 29.8716 4.22989C31.2125 4.80179 32.3883 5.85315 33.252 7.25254C34.1158 8.65194 34.6291 10.3373 34.7279 12.098C34.7859 13.6001 34.5412 15.0964 34.0162 16.4507C34.0056 16.645 33.9565 16.8329 33.8732 16.9978C33.79 17.1626 33.6752 17.2992 33.5392 17.3953Z" fill="#594739"/>
<path d="M17.9929 31.5545C18.0789 31.4181 18.2039 31.428 18.3212 31.4182C19.3769 31.3501 20.4169 31.1845 21.4492 30.9898C21.3554 30.7756 21.1833 30.7756 21.0425 30.7269C19.6271 30.201 18.243 29.5778 16.8667 28.9351C16.6723 28.8436 16.4903 28.7155 16.3271 28.5554C15.898 27.1872 15.6575 25.7386 15.6155 24.2708C15.811 24.2123 15.8735 24.4071 15.9752 24.5142C16.9038 25.5461 17.96 26.3846 19.1032 26.9973C20.3549 27.6848 21.7236 27.9769 23.0877 27.8478C24.4518 27.7187 25.7693 27.1724 26.9232 26.2573C27.5811 25.7676 28.2015 25.2037 28.7766 24.5726C28.8692 24.429 28.9906 24.3182 29.1285 24.2513C29.1984 24.4903 29.1984 24.7524 29.1285 24.9914C29.0022 26.5817 28.5667 28.1098 27.8595 29.4435C27.1524 30.7771 26.1948 31.876 25.0699 32.6452C24.0316 33.3692 22.844 33.6928 21.6577 33.5749C20.4715 33.457 19.3401 32.9029 18.4072 31.983C18.2743 31.8662 18.1571 31.7005 17.9929 31.5545Z" fill="#594739"/>
<path d="M33.5392 17.3953L34.0162 16.4218C34.0162 16.7334 34.2273 16.8405 34.3994 16.9963C35.6659 18.1177 36.6787 19.627 37.3397 21.3783C37.9192 22.9736 38.0779 24.7565 37.7933 26.4711C37.6854 27.1539 37.4586 27.799 37.129 28.3609C36.7993 28.9228 36.3748 29.3879 35.8852 29.7235C34.484 30.7579 32.8522 31.2018 31.2323 30.9894C31.2323 30.9894 31.2323 30.9894 31.2323 30.9213C31.2714 30.707 31.4278 30.5902 31.5451 30.4441C32.8984 28.8244 33.758 26.6697 33.9771 24.3483C34.0974 22.9501 34.0974 21.5398 33.9771 20.1416C33.9145 19.3236 33.8207 18.5154 33.7425 17.6974C33.7034 17.5611 33.7113 17.405 33.5392 17.3953Z" fill="#594739"/>
<path d="M26.313 4.13307L24.8428 4.76602C24.413 4.43087 23.9504 4.16579 23.4665 3.97727C22.1249 3.34517 20.7367 2.87877 19.3219 2.58477C18.8821 2.49335 18.438 2.43805 17.9924 2.41923C17.5936 2.41923 17.2104 2.30238 16.796 2.31212C15.7727 2.31544 14.7509 2.40981 13.7384 2.59451C13.4647 2.65294 13.191 2.6432 12.8938 2.73084C12.8533 2.56086 12.8508 2.38033 12.8866 2.20872C12.9225 2.03711 12.9952 1.88095 13.0971 1.75707C13.4161 1.27242 13.8433 0.916566 14.3249 0.734606C15.0836 0.425214 15.8731 0.248252 16.6709 0.20877C18.3212 0.0706236 19.9782 0.294755 21.5662 0.870934C23.1953 1.44331 24.7001 2.46506 25.9689 3.86041C26.0622 3.9876 26.1809 4.08168 26.313 4.13307Z" fill="#594739"/>
<path d="M85.159 21.9816C84.7211 18.6254 84.2832 15.2724 83.8453 11.9226C83.5559 9.70239 83.2744 7.48219 82.9851 5.25225C82.9069 4.66799 82.8991 4.66799 82.4299 4.66799C80.7407 4.66799 79.0516 4.66799 77.3703 4.66799C77.2348 4.65427 77.0993 4.69389 76.9828 4.78125C76.8663 4.86861 76.7749 4.99929 76.7212 5.15487C76.3302 6.05074 75.9392 6.92714 75.5013 7.80353L66.8993 26.4026C66.8367 26.5389 66.7038 26.6655 66.782 26.87H66.9384C68.7448 26.87 70.5591 26.87 72.3655 26.87C72.4756 26.8802 72.5853 26.8433 72.6763 26.7654C72.7673 26.6875 72.8342 26.5732 72.866 26.4415C73.2179 25.4677 73.5932 24.5719 73.9451 23.6273C74.039 23.3741 74.1328 23.2086 74.3987 23.2086C76.1556 23.2086 77.9125 23.2086 79.6694 23.2086C79.9353 23.2086 80.0291 23.3352 80.0447 23.6565C80.0917 24.5621 80.162 25.4677 80.2324 26.3734C80.2324 26.8408 80.2794 26.8505 80.6704 26.8505H85.7455C85.5735 25.1854 85.3702 23.5494 85.159 21.9816ZM79.3957 18.5442H75.9783L79.0516 10.569H79.1454C79.208 11.426 79.2784 12.2731 79.3409 13.1301C79.4504 14.6978 79.5521 16.2753 79.6616 17.8529C79.6616 17.96 79.6616 18.0671 79.6616 18.1742C79.6929 18.4663 79.5912 18.554 79.3957 18.5442Z" fill="#594739"/>
<path fill-rule="evenodd" clip-rule="evenodd" d="M105.069 20.2393C104.686 22.4206 104.302 24.5921 103.904 26.8512C103.956 26.8545 104.003 26.8589 104.045 26.8629C104.129 26.8708 104.196 26.8772 104.263 26.8707H108.541C108.632 26.8707 108.727 26.8819 108.824 26.8931C109.074 26.9225 109.327 26.9521 109.503 26.7831C109.675 26.6174 109.693 26.3246 109.712 26.0329C109.719 25.913 109.727 25.7933 109.745 25.6827C110.128 23.5016 110.512 21.3201 110.871 19.139C110.926 18.7884 111.043 18.6813 111.317 18.6813H112.936C114.136 18.7163 115.337 18.6218 116.525 18.3989C118.123 18.1202 119.577 17.0968 120.593 15.5353C121.609 13.9737 122.112 11.9903 121.999 9.98552C121.983 8.7909 121.637 7.63962 121.019 6.726C120.401 5.81237 119.548 5.19236 118.605 4.9706C117.575 4.72375 116.526 4.62249 115.477 4.66873H108.533C108.124 4.67335 107.949 4.64721 107.858 4.72291C107.759 4.80655 107.763 5.01451 107.673 5.52565C106.797 10.401 105.929 15.3056 105.069 20.2393ZM112.053 12.8389C111.945 13.3166 111.872 13.8055 111.834 14.2996C112.701 14.3416 113.57 14.2894 114.43 14.1438C114.916 14.0474 115.37 13.7825 115.741 13.3795C116.112 12.9765 116.384 12.4517 116.526 11.8651C116.65 11.5515 116.704 11.2021 116.682 10.8536C116.66 10.5052 116.563 10.1705 116.402 9.88462C116.24 9.59878 116.02 9.37236 115.764 9.2291C115.508 9.08584 115.225 9.03103 114.946 9.07041C114.756 9.07041 114.556 9.06933 114.355 9.06825C113.953 9.06609 113.549 9.06392 113.226 9.07041C113.145 9.07203 113.079 9.06935 113.022 9.06711C112.74 9.05581 112.727 9.05529 112.616 9.66441C112.48 10.4021 112.352 11.1351 112.223 11.8699C112.167 12.1924 112.11 12.5152 112.053 12.8389Z" fill="#594739"/>
</svg>
