<svg width="32" height="22" viewBox="0 0 32 22" fill="none" xmlns="http://www.w3.org/2000/svg">
<path d="M28.5 0H3.5C1.57012 0 0 1.57012 0 3.5V18.5C0 20.4299 1.57012 22 3.5 22H28.5C30.4299 22 32 20.4299 32 18.5V3.5C32 1.57012 30.4299 0 28.5 0ZM3.5 2H28.5C29.3271 2 30 2.67294 30 3.5V5.5H2V3.5C2 2.67294 2.67294 2 3.5 2ZM28.5 20H3.5C2.67294 20 2 19.3271 2 18.5V7.5H30V18.5C30 19.3271 29.3271 20 28.5 20Z" fill="#705D4D"/>
<path d="M7 17H6C5.44775 17 5 16.5522 5 16V15C5 14.4478 5.44775 14 6 14H7C7.55225 14 8 14.4478 8 15V16C8 16.5522 7.55225 17 7 17Z" fill="#705D4D"/>
</svg>
