<svg width="26" height="23" viewBox="0 0 26 23" fill="none" xmlns="http://www.w3.org/2000/svg">
<path d="M18.8184 8.43676V5.22734C18.8184 3.69367 17.7431 2.31139 15.7906 1.33522C14.0685 0.474212 11.8022 0 9.40923 0C7.01593 0 4.74958 0.474212 3.02755 1.33522C1.07522 2.31139 0 3.69367 0 5.22734V17.7727C0 19.3064 1.07522 20.6886 3.02762 21.6648C4.74965 22.5259 7.01601 23 9.4093 23C11.2325 23 12.9705 22.728 14.472 22.2122C15.4643 22.7157 16.586 23 17.7729 23C21.8086 23 25.092 19.7166 25.092 15.6808C25.092 12.0001 22.3607 8.94568 18.8184 8.43676ZM2.09119 12.7568C2.37636 12.9495 2.68836 13.1317 3.02762 13.3013C4.74965 14.1623 7.01607 14.6365 9.4093 14.6365C9.78669 14.6365 10.1618 14.624 10.5335 14.6005C10.4812 14.9532 10.4536 15.3139 10.4536 15.6809C10.4536 16.0224 10.4777 16.3585 10.5232 16.6876C10.1558 16.7138 9.78369 16.7271 9.4093 16.7271C5.22079 16.7271 2.09119 15.0713 2.09119 13.5909V12.7568ZM11.2111 12.441C10.624 12.5101 10.0202 12.5452 9.40923 12.5452C5.22079 12.5453 2.09119 10.8896 2.09119 9.40916V8.57506C2.37636 8.76779 2.68836 8.94994 3.02762 9.11946C4.74965 9.98054 7.01607 10.4547 9.4093 10.4547C10.6969 10.4547 11.9468 10.3162 13.0961 10.0553C12.3129 10.7074 11.6679 11.5196 11.2111 12.441ZM9.40923 2.09119C13.5976 2.09119 16.7271 3.74692 16.7271 5.22734C16.7271 6.70777 13.5976 8.36357 9.40923 8.36357C5.22079 8.36357 2.09119 6.70777 2.09119 5.22734C2.09119 3.74692 5.22079 2.09119 9.40923 2.09119ZM2.09119 17.7727V16.9387C2.37636 17.1314 2.68836 17.3135 3.02762 17.4831C4.74965 18.3441 7.01601 18.8183 9.4093 18.8183C9.98647 18.8183 10.5596 18.79 11.1222 18.7351C11.4412 19.4269 11.8648 20.061 12.3729 20.6165C11.4412 20.8073 10.4323 20.9089 9.40923 20.9089C5.22079 20.9089 2.09119 19.2531 2.09119 17.7727ZM17.7728 20.9089C14.8901 20.9089 12.5448 18.5636 12.5448 15.6809C12.5448 12.8064 14.877 10.4667 17.7485 10.4536C17.7567 10.4538 17.7646 10.4548 17.7728 10.4548C17.781 10.4548 17.7888 10.4538 17.7971 10.4536C20.6686 10.4667 23.0008 12.8064 23.0008 15.6809C23.0008 18.5636 20.6555 20.9089 17.7728 20.9089Z" fill="#705D4D"/>
</svg>
