<svg width="29" height="29" viewBox="0 0 29 29" fill="none" xmlns="http://www.w3.org/2000/svg">
<path d="M14.4988 4.68059C13.1445 4.68059 12.043 5.78203 12.043 7.13636C12.043 8.4907 13.1445 9.59208 14.4988 9.59208C15.8531 9.59208 16.9545 8.49064 16.9545 7.13636C16.9545 5.78209 15.8531 4.68059 14.4988 4.68059ZM14.4988 8.36482C13.8216 8.36482 13.2703 7.81353 13.2703 7.13636C13.2703 6.4592 13.8216 5.9079 14.4988 5.9079C15.176 5.9079 15.7273 6.4592 15.7273 7.13636C15.7273 7.81353 15.176 8.36482 14.4988 8.36482Z" fill="#705D4D"/>
<path d="M27.3863 12.0454C27.7255 12.0454 28 11.7726 28 11.4335V8.97923C28 8.76292 27.8862 8.5622 27.6998 8.45192L15.6961 1.32335C15.6907 1.31973 15.6853 1.31674 15.6799 1.31375C14.9338 0.900291 14.0925 0.88775 13.3032 1.32215L1.30024 8.45192C1.11385 8.56215 1 8.76292 1 8.97923V11.4335C1 11.7726 1.27447 12.0454 1.61365 12.0454H3.45456V23.0914C2.1008 23.0914 1 24.1921 1 25.5457V27.3864C1 27.7255 1.27447 28 1.61365 28H27.3863C27.7255 28 28 27.7256 28 27.3864V25.5457C28 24.1921 26.8992 23.0914 25.5454 23.0914V12.0454H27.3863ZM26.7727 25.5454V26.7727H2.22725V25.5454C2.22725 24.8689 2.77797 24.3182 3.4545 24.3182H25.5454C26.222 24.3181 26.7727 24.8688 26.7727 25.5454ZM4.68181 23.0909V12.0454H7.13637V23.0909H4.68181ZM8.36363 23.0909V12.0454H12.0454V23.0909H8.36363ZM13.2727 23.0909V12.0454H15.7273V23.0909H13.2727ZM16.9545 23.0909V12.0454H20.6363V23.0909H16.9545ZM21.8636 23.0909V12.0454H24.3182V23.0909H21.8636ZM2.22725 10.8182V9.32664L13.9121 2.38487C14.2945 2.17454 14.7007 2.17512 15.0783 2.38067L26.7727 9.32664V10.8182H2.22725Z" fill="#705D4D"/>
<path d="M14.4988 4.68059C13.1445 4.68059 12.043 5.78203 12.043 7.13636C12.043 8.4907 13.1445 9.59208 14.4988 9.59208C15.8531 9.59208 16.9545 8.49064 16.9545 7.13636C16.9545 5.78209 15.8531 4.68059 14.4988 4.68059ZM14.4988 8.36482C13.8216 8.36482 13.2703 7.81353 13.2703 7.13636C13.2703 6.4592 13.8216 5.9079 14.4988 5.9079C15.176 5.9079 15.7273 6.4592 15.7273 7.13636C15.7273 7.81353 15.176 8.36482 14.4988 8.36482Z" stroke="#705D4D" stroke-width="0.6"/>
<path d="M27.3863 12.0454C27.7255 12.0454 28 11.7726 28 11.4335V8.97923C28 8.76292 27.8862 8.5622 27.6998 8.45192L15.6961 1.32335C15.6907 1.31973 15.6853 1.31674 15.6799 1.31375C14.9338 0.900291 14.0925 0.88775 13.3032 1.32215L1.30024 8.45192C1.11385 8.56215 1 8.76292 1 8.97923V11.4335C1 11.7726 1.27447 12.0454 1.61365 12.0454H3.45456V23.0914C2.1008 23.0914 1 24.1921 1 25.5457V27.3864C1 27.7255 1.27447 28 1.61365 28H27.3863C27.7255 28 28 27.7256 28 27.3864V25.5457C28 24.1921 26.8992 23.0914 25.5454 23.0914V12.0454H27.3863ZM26.7727 25.5454V26.7727H2.22725V25.5454C2.22725 24.8689 2.77797 24.3182 3.4545 24.3182H25.5454C26.222 24.3181 26.7727 24.8688 26.7727 25.5454ZM4.68181 23.0909V12.0454H7.13637V23.0909H4.68181ZM8.36363 23.0909V12.0454H12.0454V23.0909H8.36363ZM13.2727 23.0909V12.0454H15.7273V23.0909H13.2727ZM16.9545 23.0909V12.0454H20.6363V23.0909H16.9545ZM21.8636 23.0909V12.0454H24.3182V23.0909H21.8636ZM2.22725 10.8182V9.32664L13.9121 2.38487C14.2945 2.17454 14.7007 2.17512 15.0783 2.38067L26.7727 9.32664V10.8182H2.22725Z" stroke="#705D4D" stroke-width="0.6"/>
</svg>
