<svg width="36" height="36" viewBox="0 0 36 36" fill="none" xmlns="http://www.w3.org/2000/svg">
<path d="M26.4403 23.4748L26.4416 23.4762L26.4416 23.4762C27.7531 24.7808 29.0656 26.0864 30.3715 27.3992L30.3716 27.3993C30.9908 28.0224 31.3348 28.7553 31.3316 29.5273C31.3284 30.2984 30.9791 31.0325 30.359 31.6603L30.3584 31.6609C30.0896 31.9322 29.8227 32.1915 29.5598 32.4469C29.0699 32.9227 28.5938 33.3853 28.1441 33.8879C26.9966 35.1737 25.5568 35.5776 23.9741 35.489C23.9738 35.489 23.9736 35.489 23.9734 35.489L24.0014 34.9897C21.8657 34.873 19.9017 34.1657 18.0064 33.2455L26.4403 23.4748ZM26.4403 23.4748C25.8262 22.8686 25.0994 22.5323 24.3387 22.5323C23.5778 22.5323 22.8522 22.8688 22.2412 23.476M26.4403 23.4748L19.7476 25.9737M20.1558 26.2753C20.9592 25.4513 21.7763 24.6411 22.5934 23.8308L22.5936 23.8306M20.1558 26.2753L26.089 23.8306C25.0108 22.7662 23.6649 22.7662 22.5936 23.8306M20.1558 26.2753C19.936 26.502 19.7506 26.55 19.4828 26.399L20.1558 26.2753ZM22.5936 23.8306L22.2416 23.4756L22.2412 23.476M22.5936 23.8306L22.2412 23.476M22.2412 23.476L22.2399 23.4772C21.4238 24.2865 20.6041 25.0993 19.7978 25.9263L19.7968 25.9273C19.7765 25.9483 19.7601 25.9632 19.7476 25.9737M19.7476 25.9737C19.742 25.9709 19.7356 25.9675 19.7284 25.9635L19.7285 25.9634L19.7222 25.96C19.5024 25.8401 19.2751 25.7284 19.0593 25.6223C19.0044 25.5953 18.9501 25.5686 18.8969 25.5423C18.6292 25.4097 18.3798 25.2814 18.1477 25.1371C15.8366 23.6832 13.8917 21.8087 12.1585 19.6828C11.3041 18.6333 10.559 17.5279 10.0413 16.296L10.0412 16.2956C10.0304 16.27 10.024 16.2514 10.0202 16.2387C10.0276 16.2294 10.0387 16.2167 10.0549 16.2003C10.758 15.5208 11.446 14.8261 12.1317 14.1337C12.2466 14.0176 12.3614 13.9017 12.4763 13.7858L12.1212 13.4338M19.7476 25.9737L11.771 19.9988C10.8989 18.9275 10.1229 17.7807 9.58037 16.4897C9.4705 16.2287 9.4911 16.057 9.70398 15.8442C10.4039 15.1677 11.0888 14.4762 11.7758 13.7825L12.1212 13.4338M12.1212 13.4338C13.2406 12.3076 13.2406 10.9891 12.1143 9.85601M12.1212 13.4338L12.4758 13.7863C13.1041 13.1542 13.461 12.4225 13.4599 11.6468C13.4588 10.8716 13.1004 10.1391 12.4698 9.50435M12.1143 9.85601L12.4698 9.50435M12.1143 9.85601C11.795 9.53325 11.4757 9.21393 11.1564 8.89461C10.8371 8.57529 10.5177 8.25597 10.1984 7.93321L12.1143 9.85601ZM12.4698 9.50435C12.1496 9.18071 11.8295 8.86067 11.5106 8.54172L11.5099 8.54106C11.1905 8.22158 10.8721 7.9032 10.5539 7.58155L10.552 7.57966C10.3349 7.36255 10.1172 7.14337 9.89883 6.92348C9.45934 6.48094 9.01698 6.0355 8.57053 5.59826L8.56964 5.59739C7.95506 4.99846 7.22868 4.66725 6.46971 4.66833C5.71072 4.6694 4.98599 5.0027 4.37474 5.60583M12.4698 9.50435L4.37474 5.60583M4.37474 5.60583C4.03388 5.941 3.70636 6.27194 3.38183 6.59986C2.90238 7.08431 2.42943 7.56218 1.92961 8.03744C1.05578 8.86503 0.616602 9.8839 0.525445 11.0461L0.525365 11.0472C0.386861 12.8623 0.833389 14.5556 1.4345 16.1564C2.66746 19.4766 4.54149 22.4164 6.80108 25.1001L4.37474 5.60583ZM24.2846 18.4422L24.3691 18.9345L24.8615 18.8504L27.3955 18.4178L27.8885 18.3336L27.8042 17.8406C27.3882 15.4095 26.2403 13.2079 24.4999 11.4603L24.4991 11.4596C22.6577 9.61817 20.3262 8.45572 17.7596 8.09726L17.2647 8.02814L17.1953 8.52305L16.8382 11.0708L16.7689 11.5656L17.2637 11.6353C19.0588 11.888 20.6896 12.697 21.9791 13.9865C23.1969 15.2042 23.993 16.7446 24.2846 18.4422ZM29.0938 6.98952L29.0933 6.98908C26.0914 3.98713 22.2902 2.08986 18.0961 1.50479L17.6012 1.43576L17.5319 1.9306L17.1748 4.47831L17.1054 4.97351L17.6006 5.04287C21.0219 5.52212 24.1224 7.072 26.5733 9.51598C28.8973 11.84 30.4208 14.7745 30.9732 18.0024L31.0575 18.495L31.5502 18.4109L34.0841 17.9783L34.5779 17.894L34.4927 17.4004C33.809 13.4388 31.9403 9.8431 29.0938 6.98952Z" stroke="#7B6858"/>
</svg>
