<svg width="24" height="24" viewBox="0 0 24 24" fill="none" xmlns="http://www.w3.org/2000/svg">
<path d="M22.8376 18.9287L16.1918 12.2829C15.9759 12.067 15.9759 11.7169 16.1918 11.501L22.8376 4.85526C23.917 3.77582 23.917 2.02543 22.8376 0.945983C21.7581 -0.133459 20.0077 -0.133459 18.9283 0.945983L12.2825 7.59176C12.0666 7.80765 11.7166 7.80765 11.5007 7.59176L4.8549 0.945983C3.77546 -0.133459 2.02506 -0.133459 0.945618 0.945983C-0.133825 2.02543 -0.133825 3.77582 0.945617 4.85526L7.59139 11.501C7.80728 11.7169 7.80728 12.067 7.59139 12.2829L0.945618 18.9287C-0.133824 20.0081 -0.133824 21.7585 0.945618 22.838C2.02506 23.9174 3.77546 23.9174 4.8549 22.838L11.5007 16.1922C11.7166 15.9763 12.0666 15.9763 12.2825 16.1922L18.9283 22.838C20.0077 23.9174 21.7581 23.9174 22.8376 22.838C23.917 21.7585 23.917 20.0081 22.8376 18.9287Z" fill="#7B6858"/>
</svg>
