<svg width="15" height="15" viewBox="0 0 15 15" fill="none" xmlns="http://www.w3.org/2000/svg">
<path d="M12.8027 3.7793H12.3926V2.19727C12.3926 0.985693 11.4069 0 10.1953 0H4.80469C3.59312 0 2.60742 0.985693 2.60742 2.19727V3.7793H2.19727C0.985693 3.7793 0 4.76499 0 5.97656V9.49219C0 10.7038 0.985693 11.6895 2.19727 11.6895H2.60742V13.6816C2.60742 14.4086 3.19884 15 3.92578 15H11.0742C11.8012 15 12.3926 14.4086 12.3926 13.6816V11.6895H12.8027C14.0143 11.6895 15 10.7038 15 9.49219V5.97656C15 4.76499 14.0143 3.7793 12.8027 3.7793ZM3.48633 2.19727C3.48633 1.47032 4.07774 0.878906 4.80469 0.878906H10.1953C10.9223 0.878906 11.5137 1.47032 11.5137 2.19727V3.7793H3.48633V2.19727ZM11.5137 13.6816C11.5137 13.924 11.3165 14.1211 11.0742 14.1211H3.92578C3.68347 14.1211 3.48633 13.924 3.48633 13.6816V9.3457H11.5137V13.6816ZM14.1211 9.49219C14.1211 10.2191 13.5297 10.8105 12.8027 10.8105H12.3926V9.3457H12.6562C12.8989 9.3457 13.0957 9.14894 13.0957 8.90625C13.0957 8.66356 12.8989 8.4668 12.6562 8.4668H2.34375C2.10105 8.4668 1.9043 8.66356 1.9043 8.90625C1.9043 9.14894 2.10105 9.3457 2.34375 9.3457H2.60742V10.8105H2.19727C1.47032 10.8105 0.878906 10.2191 0.878906 9.49219V5.97656C0.878906 5.24962 1.47032 4.6582 2.19727 4.6582H12.8027C13.5297 4.6582 14.1211 5.24962 14.1211 5.97656V9.49219Z" fill="white"/>
<path d="M8.67188 10.3418H6.32812C6.08543 10.3418 5.88867 10.5386 5.88867 10.7812C5.88867 11.0239 6.08543 11.2207 6.32812 11.2207H8.67188C8.91457 11.2207 9.11133 11.0239 9.11133 10.7812C9.11133 10.5386 8.91457 10.3418 8.67188 10.3418Z" fill="white"/>
<path d="M8.67188 12.2168H6.32812C6.08543 12.2168 5.88867 12.4136 5.88867 12.6562C5.88867 12.8989 6.08543 13.0957 6.32812 13.0957H8.67188C8.91457 13.0957 9.11133 12.8989 9.11133 12.6562C9.11133 12.4136 8.91457 12.2168 8.67188 12.2168Z" fill="white"/>
<path d="M3.75 5.6543H2.34375C2.10105 5.6543 1.9043 5.85105 1.9043 6.09375C1.9043 6.33645 2.10105 6.5332 2.34375 6.5332H3.75C3.9927 6.5332 4.18945 6.33645 4.18945 6.09375C4.18945 5.85105 3.9927 5.6543 3.75 5.6543Z" fill="white"/>
</svg>
