<svg width="292" height="528" viewBox="0 0 292 528" fill="none" xmlns="http://www.w3.org/2000/svg">
<path d="M256.148 199.827C256.148 199.827 277.998 248.645 268.93 253.677L226.174 199.587L256.148 199.827Z" fill="#EDB5A4"/>
<path d="M177.182 491.001L178.945 507.833C178.945 507.833 189.209 510.828 194.246 507.354L195.065 484.053L177.182 491.001Z" fill="#F6BB9B"/>
<path d="M176.426 508.312C177.686 505.137 181.149 506.036 181.149 506.036C181.149 506.036 207.281 509.39 215.593 510.708C223.905 512.086 226.298 519.334 224.472 520.532C222.96 521.55 192.106 523.167 180.519 523.766C178.063 523.886 175.985 522.089 175.922 519.753C175.734 515.919 175.608 510.289 176.426 508.312Z" fill="#232750"/>
<path d="M65.7877 482.255L62.0725 494.475C62.0725 494.475 66.6692 501.843 72.8402 501.603L79.5779 484.172L65.7877 482.255Z" fill="#F6BB9B"/>
<path d="M87.5119 513.104C80.5223 506.814 63.7094 492.019 63.7094 492.019C63.7094 492.019 61.0018 489.144 57.6644 491.36C55.5864 492.738 51.9972 498.129 49.5414 502.022C48.0931 504.298 48.9117 507.234 51.3045 508.611C62.7649 515.021 87.3859 527.839 89.4009 527.779C92.0457 527.719 94.5644 519.393 87.5119 513.104Z" fill="#232750"/>
<path d="M136.064 270.269C136.064 270.269 144.816 333.942 160.307 364.372C175.797 394.801 175.797 498.188 175.797 498.188L198.088 496.391L202.937 368.145L191.917 269.011L136.064 270.269Z" fill="#232750"/>
<path d="M170.507 273.263L145.697 376.411L78.7607 494.534L61.3183 486.208L108.86 366.228C108.86 366.228 100.107 308.065 109.805 272.125L153.442 273.024L170.507 273.263Z" fill="#191D43"/>
<path d="M164.46 123.573C164.46 123.573 121.452 119.56 115.659 142.022C109.866 164.485 97.2092 274.282 104.325 276.139C111.44 277.996 198.715 283.267 197.456 273.443C196.134 263.62 198.149 226.901 198.149 204.798C198.149 182.635 207.846 131.001 192.356 126.688C176.802 122.315 164.46 123.573 164.46 123.573Z" fill="#7A695B"/>
<path d="M256.145 199.646C251.485 186.109 217.482 156.278 217.482 156.278L204.069 176.525C204.069 176.525 231.524 209.53 244.432 211.327C247.959 211.806 256.963 201.982 256.145 199.646Z" fill="#EDB5A4"/>
<path d="M181.59 124.352C181.59 124.352 202.37 125.909 225.102 150.348C233.162 159.034 201.551 186.229 201.551 186.229L197.206 163.227C197.143 163.227 179.638 140.046 181.59 124.352Z" fill="#7A695B"/>
<path d="M95.3847 164.605C95.3847 164.605 85.1207 205.037 82.7908 217.736C80.0831 232.411 102.311 219.892 102.311 219.892L123.406 169.636L95.3847 164.605Z" fill="#EDB5A4"/>
<path d="M118.495 192.039C118.495 192.039 94.7557 183.593 92.111 176.705C86.8846 162.688 106.594 137.171 128.318 128.245C138.456 124.052 118.495 192.039 118.495 192.039Z" fill="#7A695B"/>
<path d="M180.706 87.2744C180.706 87.2744 186.499 96.7387 183.162 97.5773C179.824 98.356 179.887 97.5773 179.887 97.5773L180.706 87.2744Z" fill="#E5A89A"/>
<path d="M137.322 82.3025C145.13 67.3275 180.96 72.2992 180.96 72.2992C180.96 72.2992 184.045 112.073 176.048 113.271C174.411 113.51 172.27 113.63 170.003 113.69L173.215 126.209C173.215 126.209 174.537 153.224 147.019 132.259C143.997 129.923 146.453 117.164 148.657 112.552C146.327 110.575 130.081 96.1993 137.322 82.3025Z" fill="#EDB5A4"/>
<path d="M165.595 81.5837C165.595 81.5837 182.345 83.5005 185.367 67.9265C188.39 52.3525 181.085 41.8101 169.814 51.6936C158.542 61.5172 162.509 52.9515 146.704 52.7119C130.899 52.4723 117.864 68.7651 122.965 86.4356C128.065 104.046 147.9 123.154 150.23 118.722C152.56 114.289 157.283 104.406 157.283 104.406C157.283 104.406 142.863 103.926 145.13 94.8815C147.397 85.8366 161.817 92.5454 161.817 92.5454C161.817 92.5454 162.006 78.409 165.595 81.5837Z" fill="#232750"/>
<path d="M169.939 113.63H159.989L172.583 123.993L169.939 113.63Z" fill="#E5A89A"/>
<path d="M219.94 242.475C230.078 235.527 239.901 232.472 249.283 233.37C250.291 233.43 251.235 233.55 252.243 233.73C262.57 235.587 272.204 242.355 280.957 253.916C289.458 265.058 292.984 275.78 291.661 286.023C290.339 296.265 284.231 305.131 273.275 312.678C272.141 313.457 271.008 314.176 269.874 314.834C260.366 320.525 250.732 322.382 241.16 320.465C230.393 318.309 220.884 311.78 212.635 300.938C204.071 289.676 200.419 278.954 201.742 268.831C203.064 258.708 209.109 249.903 219.94 242.475Z" fill="#F7D997"/>
<path d="M19.6977 172.932C31.221 188.086 44.4446 198.928 59.3053 205.457C74.229 211.986 95.9534 215.88 124.667 217.138C144.628 218.336 158.104 220.312 165.345 223.128C172.524 225.943 179.261 231.454 185.558 239.72L195.004 252.119L214.398 238.822L246.764 216.539L235.115 201.264C225.04 188.026 213.643 178.382 200.86 172.273C188.14 166.163 170.446 162.509 147.903 161.251C126.367 160.352 111.003 158.136 101.684 154.662C92.3641 151.188 84.7449 145.437 78.6369 137.471C71.8362 128.546 69.7582 119.62 72.4658 110.576C74.166 65.6505 161 44.2662 171.138 42.1697C171.327 42.1098 171.453 42.1098 171.579 42.0499L162.323 0C151.87 0.718801 141.732 1.9767 131.846 3.8935C101.998 9.58401 74.8587 20.9051 50.3637 37.6772C23.5388 56.1264 7.41873 77.6305 1.94041 102.13C-3.47493 126.629 2.44414 150.169 19.6977 172.932Z" fill="#F7D997"/>
<path d="M244.687 236.306C246.261 235.227 247.772 234.269 249.283 233.43C250.291 233.49 251.235 233.61 252.243 233.79C262.57 235.647 272.204 242.415 280.957 253.976C289.458 265.117 292.984 275.84 291.661 286.083C290.339 296.325 284.231 305.191 273.275 312.738C272.141 313.517 271.008 314.235 269.874 314.894C268.552 314.775 267.229 314.595 265.907 314.295C255.139 312.139 245.631 305.61 237.382 294.768C228.818 283.507 225.166 272.785 226.488 262.662C227.811 252.479 233.919 243.673 244.687 236.306Z" fill="#F1C564"/>
<path d="M44.5075 166.762C56.0308 181.917 69.2544 192.758 84.1151 199.288C98.9758 205.817 120.763 209.71 149.477 210.968C169.438 212.106 182.977 214.143 190.155 216.958C197.334 219.773 204.071 225.344 210.368 233.55L214.398 238.822L246.764 216.539L235.115 201.264C225.04 188.026 213.643 178.382 200.86 172.273C188.14 166.163 170.446 162.509 147.903 161.251C126.367 160.352 111.003 158.136 101.684 154.662C92.3641 151.188 84.7448 145.437 78.6368 137.471C78.0701 136.752 77.6293 136.033 77.1255 135.314C71.8361 127.108 72.088 119.201 72.4028 110.576C74.103 65.6505 160.937 44.2662 171.075 42.1697C171.264 42.1098 171.39 42.1098 171.516 42.0499L162.26 0C151.807 0.718801 141.669 1.9767 131.783 3.8935C111.444 10.2429 92.6159 19.4675 75.0475 31.5074C48.2227 49.9567 32.1026 71.4009 26.6873 95.9599C21.3349 120.399 27.2539 144 44.5075 166.762Z" fill="#F1C564"/>
<path d="M142.235 218.755L165.974 220.492L168.745 224.505C168.745 224.505 175.735 219.114 176.742 220.372C177.75 221.69 176.05 224.925 176.05 224.925C176.05 224.925 189.273 222.529 190.595 227.56C192.799 235.886 171.831 245.051 162.637 235.407C153.507 225.823 143.872 229.118 143.872 229.118L142.235 218.755Z" fill="#EDB5A4"/>
<path d="M159.11 228.878C159.11 228.878 89.3404 234.928 82.6027 224.865C75.865 214.742 82.6027 210.369 82.6027 210.369L157.788 220.912L159.11 228.878Z" fill="#EDB5A4"/>
<path opacity="0.22" d="M269.748 239.54C269.748 239.54 256.021 231.034 250.165 238.282C247.394 241.696 260.807 241.157 260.807 241.157L246.89 253.856C246.89 253.856 249.472 270.568 263.577 262.422C277.682 254.275 277.431 248.585 277.431 248.585L269.748 239.54Z" fill="#231F20"/>
<path d="M269.936 234.988C269.936 234.988 256.083 225.644 250.415 233.251C247.708 236.905 261.057 236.546 261.057 236.546L247.456 249.843C247.456 249.843 250.415 267.753 264.268 259.367C278.122 250.981 277.744 244.812 277.744 244.812L269.936 234.988Z" fill="#EDB5A4"/>
</svg>
