<svg width="19" height="14" viewBox="0 0 19 14" fill="none" xmlns="http://www.w3.org/2000/svg">
<path d="M18.375 7.30909C17.9829 7.04543 17.4924 7.00376 17.0631 7.19764C16.3842 7.50418 15.628 7.76008 14.8171 7.96171V4.9134C14.8171 4.24848 14.1054 3.6724 12.7569 3.24356C12.7569 3.24356 12.7564 1.61435 12.7554 1.60457C12.7237 0.882474 11.5487 0.489266 10.56 0.286188C10.4327 0.260025 10.3037 0.329691 10.2507 0.451874C10.1858 0.595255 10.2461 0.765677 10.3854 0.832516C10.4244 0.851193 10.4651 0.859749 10.5056 0.859405C11.8871 1.15113 12.2003 1.52497 12.2003 1.63432C12.2003 1.7279 11.971 2.03173 10.924 2.31009C9.98843 2.55881 8.73993 2.69578 7.40852 2.69578C6.07711 2.69578 4.8286 2.55881 3.89307 2.31009C2.84607 2.03173 2.61677 1.7279 2.61677 1.63432C2.61677 1.54075 2.84607 1.23692 3.89307 0.958557C4.8286 0.709837 6.07711 0.572873 7.40852 0.572873C8.01295 0.572873 8.60414 0.601328 9.16557 0.657435C9.31854 0.672598 9.45462 0.557442 9.46946 0.400007C9.4843 0.242532 9.37234 0.102513 9.21934 0.0872354C8.64014 0.0293332 8.03088 0 7.40852 0C6.03146 0 4.73352 0.143419 3.75384 0.403903C2.62998 0.702695 2.06013 1.11668 2.06013 1.63436V3.24371C0.711609 3.67248 0 4.24817 0 4.9134V9.66558C0 9.83872 0.0414883 10.0098 0.119938 10.1601C0.489547 10.8685 1.14553 11.5156 2.06959 12.0832C2.11431 12.1107 2.16344 12.1238 2.21198 12.1238C2.30676 12.1238 2.39912 12.0739 2.45122 11.9841C2.53001 11.8482 2.48685 11.6724 2.35485 11.5913C2.18429 11.4865 2.02376 11.3781 1.87272 11.2668V8.82054C1.87272 8.66234 1.74815 8.53408 1.5944 8.53408C1.44066 8.53408 1.31608 8.66234 1.31608 8.82054V10.8005C1.01142 10.5073 0.772877 10.2006 0.610301 9.88906C0.575232 9.82172 0.556641 9.74445 0.556641 9.66558V4.9134C0.556641 4.63592 0.959018 4.22087 2.0602 3.84515V4.42368C2.0602 4.94136 2.63002 5.35538 3.75391 5.65414C4.7336 5.91458 6.03154 6.05804 7.40859 6.05804C8.78564 6.05804 10.0836 5.91462 11.0633 5.65414C12.1871 5.35534 12.757 4.94136 12.757 4.42368V3.84519C13.8588 4.22125 14.2605 4.6368 14.2605 4.9134C14.2605 5.39755 13.2084 5.86676 12.3074 6.12144C12.1592 6.16334 12.072 6.321 12.1127 6.47355C12.1467 6.60074 12.2587 6.68423 12.381 6.68423C12.4054 6.68423 12.4302 6.68091 12.4548 6.67392C13.2577 6.44697 13.8633 6.17358 14.2605 5.8631V8.0897C13.9542 8.15459 13.6411 8.21199 13.3223 8.26176V7.74473C13.3223 7.58653 13.1977 7.45827 13.044 7.45827C12.8902 7.45827 12.7657 7.58653 12.7657 7.74473V8.34021C12.2988 8.39884 11.8215 8.44123 11.337 8.46705V8.11712C11.337 7.95892 11.2124 7.83066 11.0586 7.83066C10.9049 7.83066 10.7803 7.95892 10.7803 8.11712V8.48921C10.594 8.49413 10.407 8.49696 10.2192 8.49696C9.94105 8.49696 9.66406 8.49119 9.38871 8.48019V8.34628C9.38871 8.18808 9.26413 8.05983 9.11039 8.05983C8.95664 8.05983 8.83207 8.18808 8.83207 8.34628V8.45048C6.95196 8.32444 5.17587 7.94425 3.72511 7.34854C3.59185 7.29385 3.60714 7.17747 3.61991 7.12999C3.63304 7.08118 3.67939 6.97027 3.82471 6.9944C4.9115 7.17525 6.1508 7.27085 7.40863 7.27085C8.76605 7.27085 10.0899 7.16055 11.237 6.95182C11.3884 6.92428 11.4894 6.77567 11.4626 6.61987C11.4359 6.46408 11.2915 6.36023 11.1401 6.38765C10.0245 6.59062 8.73414 6.69794 7.40863 6.69794C6.18005 6.69794 4.97147 6.60486 3.91355 6.42883C3.52866 6.3647 3.18744 6.59031 3.08346 6.97722C3.08 6.99009 3.07767 7.00292 3.07481 7.01576C2.65941 6.76933 2.14106 6.39312 1.82515 5.91122C1.73921 5.78002 1.56616 5.7455 1.43877 5.83399C1.31133 5.92249 1.27775 6.10055 1.36377 6.23167C2.04517 7.27112 3.44316 7.84995 3.51841 7.88047C3.51856 7.88054 3.51867 7.88062 3.51882 7.88066C5.38654 8.64752 7.7661 9.06983 10.2192 9.06983C12.0538 9.06983 13.8284 8.83723 15.3871 8.40239V12.7402C14.6307 12.9596 13.8159 13.1296 12.9612 13.2455V10.9572C12.9612 10.799 12.8367 10.6708 12.6829 10.6708C12.5292 10.6708 12.4046 10.799 12.4046 10.9572V13.3127C11.6959 13.3879 10.9641 13.4271 10.2192 13.4271C10.2091 13.4271 10.1991 13.4269 10.1891 13.4269V11.0718C10.1891 10.9136 10.0645 10.7854 9.91076 10.7854C9.75702 10.7854 9.63244 10.9136 9.63244 11.0718V13.4186C8.87638 13.3975 8.13378 13.3358 7.41701 13.2359V10.8066C7.41701 10.6484 7.29244 10.5202 7.13869 10.5202C6.98495 10.5202 6.86037 10.6484 6.86037 10.8066V13.1496C6.08015 13.0165 5.33611 12.8367 4.64491 12.6136V10.1573C4.64491 9.99913 4.52033 9.87088 4.36659 9.87088C4.21284 9.87088 4.08827 9.99913 4.08827 10.1573V12.4203C3.88194 12.3433 3.68092 12.2624 3.48635 12.1771C3.34493 12.1153 3.18146 12.183 3.12127 12.3286C3.06108 12.4742 3.12695 12.6424 3.26841 12.7043C5.17642 13.5398 7.64494 14 10.2192 14C13.3819 14 16.3328 13.3132 18.3152 12.1157C18.7376 11.8605 19 11.3901 19 10.8881V8.49807C19 8.01671 18.7664 7.57224 18.375 7.30909ZM11.4668 4.92807V4.32055C11.4668 4.16235 11.3422 4.0341 11.1885 4.0341C11.0347 4.0341 10.9102 4.16235 10.9102 4.32055V5.10296C10.5152 5.20715 10.065 5.29141 9.57682 5.35412V4.52917C9.57682 4.37097 9.45224 4.24271 9.2985 4.24271C9.14475 4.24271 9.02018 4.37097 9.02018 4.52917V5.41466C8.5942 5.45312 8.1467 5.47634 7.68687 5.48299V4.49357C7.68687 4.33537 7.5623 4.20712 7.40855 4.20712C7.25481 4.20712 7.13023 4.33537 7.13023 4.49357V5.48299C6.67037 5.47634 6.22291 5.45312 5.79689 5.41466V4.33587C5.79689 4.17767 5.67232 4.04941 5.51857 4.04941C5.36483 4.04941 5.24025 4.17767 5.24025 4.33587V5.35412C4.75208 5.29141 4.30187 5.20715 3.90695 5.10296V3.93399C3.90695 3.77579 3.78237 3.64753 3.62863 3.64753C3.47488 3.64753 3.35031 3.77579 3.35031 3.93399V4.92811C2.76264 4.70601 2.61677 4.49823 2.61677 4.42371V2.41856C2.89357 2.58776 3.27275 2.73683 3.75384 2.86471C4.73352 3.12515 6.03146 3.26861 7.40852 3.26861C8.78557 3.26861 10.0835 3.12515 11.0632 2.86471C11.5442 2.73683 11.9235 2.58776 12.2003 2.41856V4.42368C12.2003 4.49819 12.0545 4.70601 11.4668 4.92807ZM18.4434 10.8881C18.4434 11.1877 18.2863 11.4688 18.0334 11.6216C17.426 11.9885 16.7212 12.3051 15.9437 12.5664V8.23587C16.4161 8.08401 16.8654 7.91251 17.2867 7.72231C17.5471 7.60471 17.8328 7.62892 18.0706 7.78873C18.3075 7.94803 18.4433 8.20657 18.4433 8.49807V10.8881H18.4434Z" fill="#705D4D"/>
<path d="M17.1935 8.69725C16.752 8.69725 16.419 9.22517 16.419 9.92523C16.419 10.6253 16.752 11.1532 17.1935 11.1532C17.635 11.1532 17.968 10.6252 17.968 9.92523C17.968 9.22517 17.635 8.69725 17.1935 8.69725ZM17.194 10.5803C17.1432 10.5716 16.9757 10.3506 16.9757 9.92523C16.9757 9.4999 17.1432 9.27879 17.193 9.27012C17.2438 9.27879 17.4113 9.4999 17.4113 9.92523C17.4113 10.3506 17.2439 10.5717 17.194 10.5803Z" fill="#705D4D"/>
<path d="M5.01574 1.06111C4.28825 1.17153 3.80371 1.32266 3.80371 1.70147C3.80371 2.08028 4.28825 2.23141 5.01574 2.34183C5.65706 2.43915 6.50687 2.49277 7.40855 2.49277C8.31024 2.49277 9.16004 2.43919 9.80136 2.34183C10.5289 2.23141 11.0134 2.08028 11.0134 1.70147C11.0134 1.32266 10.5289 1.17153 9.80136 1.06111C9.16004 0.963789 8.31024 0.910165 7.40855 0.910165C6.50687 0.910165 5.65706 0.963789 5.01574 1.06111ZM10.1195 1.70147C9.63571 1.80964 8.72282 1.91986 7.40855 1.91986C6.09429 1.91986 5.1814 1.80964 4.69756 1.70147C5.1814 1.59327 6.09429 1.48308 7.40855 1.48308C8.72282 1.48308 9.63571 1.5933 10.1195 1.70147Z" fill="#705D4D"/>
</svg>
