<svg width="66" height="66" viewBox="0 0 66 66" fill="none" xmlns="http://www.w3.org/2000/svg">
<path d="M65.6886 62.1864L3.81363 0.311371C3.61376 0.111886 3.34287 -0.000105101 3.06048 7.40138e-08H1.06452C0.782189 7.40138e-08 0.511425 0.112154 0.31179 0.31179C0.112154 0.511425 0 0.782189 0 1.06452V64.9355C0 65.2178 0.112154 65.4886 0.31179 65.6882C0.511425 65.8878 0.782189 66 1.06452 66H64.9355C65.2178 66 65.4886 65.8878 65.6882 65.6882C65.8878 65.4886 66 65.2178 66 64.9355V62.9395C66.0001 62.6571 65.8881 62.3862 65.6886 62.1864ZM63.871 63.871H59.6129V61.7419C59.6129 61.4596 59.5008 61.1888 59.3011 60.9892C59.1015 60.7896 58.8307 60.6774 58.5484 60.6774C58.2661 60.6774 57.9953 60.7896 57.7957 60.9892C57.596 61.1888 57.4839 61.4596 57.4839 61.7419V63.871H53.2258V62.8065C53.2258 62.5241 53.1137 62.2534 52.914 62.0537C52.7144 61.8541 52.4436 61.7419 52.1613 61.7419C51.879 61.7419 51.6082 61.8541 51.4086 62.0537C51.2089 62.2534 51.0968 62.5241 51.0968 62.8065V63.871H46.8387V61.7419C46.8387 61.4596 46.7266 61.1888 46.5269 60.9892C46.3273 60.7896 46.0565 60.6774 45.7742 60.6774C45.4919 60.6774 45.2211 60.7896 45.0215 60.9892C44.8218 61.1888 44.7097 61.4596 44.7097 61.7419V63.871H40.4516V62.8065C40.4516 62.5241 40.3395 62.2534 40.1398 62.0537C39.9402 61.8541 39.6694 61.7419 39.3871 61.7419C39.1048 61.7419 38.834 61.8541 38.6344 62.0537C38.4347 62.2534 38.3226 62.5241 38.3226 62.8065V63.871H34.0645V61.7419C34.0645 61.4596 33.9524 61.1888 33.7527 60.9892C33.5531 60.7896 33.2823 60.6774 33 60.6774C32.7177 60.6774 32.4469 60.7896 32.2473 60.9892C32.0476 61.1888 31.9355 61.4596 31.9355 61.7419V63.871H27.6774V62.8065C27.6774 62.5241 27.5653 62.2534 27.3656 62.0537C27.166 61.8541 26.8952 61.7419 26.6129 61.7419C26.3306 61.7419 26.0598 61.8541 25.8602 62.0537C25.6605 62.2534 25.5484 62.5241 25.5484 62.8065V63.871H21.2903V61.7419C21.2903 61.4596 21.1782 61.1888 20.9785 60.9892C20.7789 60.7896 20.5081 60.6774 20.2258 60.6774C19.9435 60.6774 19.6727 60.7896 19.4731 60.9892C19.2734 61.1888 19.1613 61.4596 19.1613 61.7419V63.871H14.9032V62.8065C14.9032 62.5241 14.7911 62.2534 14.5914 62.0537C14.3918 61.8541 14.121 61.7419 13.8387 61.7419C13.5564 61.7419 13.2856 61.8541 13.086 62.0537C12.8863 62.2534 12.7742 62.5241 12.7742 62.8065V63.871H8.51613V61.7419C8.51613 61.4596 8.40398 61.1888 8.20434 60.9892C8.0047 60.7896 7.73394 60.6774 7.45161 60.6774C7.16929 60.6774 6.89852 60.7896 6.69889 60.9892C6.49925 61.1888 6.3871 61.4596 6.3871 61.7419V63.871H2.12903V59.6129H4.25806C4.54039 59.6129 4.81116 59.5008 5.01079 59.3011C5.21043 59.1015 5.32258 58.8307 5.32258 58.5484C5.32258 58.2661 5.21043 57.9953 5.01079 57.7957C4.81116 57.596 4.54039 57.4839 4.25806 57.4839H2.12903V53.2258H3.19355C3.47588 53.2258 3.74664 53.1137 3.94627 52.914C4.14591 52.7144 4.25806 52.4436 4.25806 52.1613C4.25806 51.879 4.14591 51.6082 3.94627 51.4086C3.74664 51.2089 3.47588 51.0968 3.19355 51.0968H2.12903V46.8387H4.25806C4.54039 46.8387 4.81116 46.7266 5.01079 46.5269C5.21043 46.3273 5.32258 46.0565 5.32258 45.7742C5.32258 45.4919 5.21043 45.2211 5.01079 45.0215C4.81116 44.8218 4.54039 44.7097 4.25806 44.7097H2.12903V40.4516H3.19355C3.47588 40.4516 3.74664 40.3395 3.94627 40.1398C4.14591 39.9402 4.25806 39.6694 4.25806 39.3871C4.25806 39.1048 4.14591 38.834 3.94627 38.6344C3.74664 38.4347 3.47588 38.3226 3.19355 38.3226H2.12903V34.0645H4.25806C4.54039 34.0645 4.81116 33.9524 5.01079 33.7527C5.21043 33.5531 5.32258 33.2823 5.32258 33C5.32258 32.7177 5.21043 32.4469 5.01079 32.2473C4.81116 32.0476 4.54039 31.9355 4.25806 31.9355H2.12903V27.6774H3.19355C3.47588 27.6774 3.74664 27.5653 3.94627 27.3656C4.14591 27.166 4.25806 26.8952 4.25806 26.6129C4.25806 26.3306 4.14591 26.0598 3.94627 25.8602C3.74664 25.6605 3.47588 25.5484 3.19355 25.5484H2.12903V21.2903H4.25806C4.54039 21.2903 4.81116 21.1782 5.01079 20.9785C5.21043 20.7789 5.32258 20.5081 5.32258 20.2258C5.32258 19.9435 5.21043 19.6727 5.01079 19.4731C4.81116 19.2734 4.54039 19.1613 4.25806 19.1613H2.12903V14.9032H3.19355C3.47588 14.9032 3.74664 14.7911 3.94627 14.5914C4.14591 14.3918 4.25806 14.121 4.25806 13.8387C4.25806 13.5564 4.14591 13.2856 3.94627 13.086C3.74664 12.8863 3.47588 12.7742 3.19355 12.7742H2.12903V8.51613H4.25806C4.54039 8.51613 4.81116 8.40398 5.01079 8.20434C5.21043 8.0047 5.32258 7.73394 5.32258 7.45161C5.32258 7.16929 5.21043 6.89852 5.01079 6.69889C4.81116 6.49925 4.54039 6.3871 4.25806 6.3871H2.12903V2.12903H2.62004L63.871 63.38V63.871Z" fill="#726152"/>
<path d="M13.8387 53.2258H37.2581C37.4686 53.2258 37.6744 53.1634 37.8495 53.0464C38.0246 52.9295 38.161 52.7632 38.2416 52.5687C38.3222 52.3741 38.3432 52.1601 38.3022 51.9536C38.2611 51.7471 38.1597 51.5574 38.0108 51.4085L14.5915 27.9892C14.4426 27.8403 14.2529 27.7389 14.0464 27.6978C13.8399 27.6568 13.6259 27.6778 13.4313 27.7584C13.2368 27.839 13.0706 27.9754 12.9536 28.1505C12.8366 28.3256 12.7742 28.5314 12.7742 28.7419V52.1613C12.7742 52.4436 12.8863 52.7144 13.086 52.914C13.2856 53.1137 13.5564 53.2258 13.8387 53.2258ZM14.9032 31.3118L34.6881 51.0968H14.9032V31.3118Z" fill="#726152"/>
<path d="M64.6308 35.9953L30.0047 1.36923C29.8051 1.16975 29.5344 1.05769 29.2522 1.05769C28.97 1.05769 28.6994 1.16975 28.4998 1.36923L19.466 10.403C19.2665 10.6026 19.1545 10.8733 19.1545 11.1555C19.1545 11.4377 19.2665 11.7083 19.466 11.9079L54.0921 46.534C54.2917 46.7335 54.5623 46.8455 54.8445 46.8455C55.1268 46.8455 55.3974 46.7335 55.597 46.534L64.6308 37.5002C64.8303 37.3006 64.9423 37.03 64.9423 36.7478C64.9423 36.4656 64.8303 36.1949 64.6308 35.9953ZM54.8452 44.2759L54.0921 43.5227L54.8452 42.7696C55.0448 42.5699 55.1568 42.299 55.1567 42.0167C55.1566 41.7343 55.0443 41.4635 54.8445 41.264C54.7456 41.1652 54.6282 41.0868 54.499 41.0333C54.3699 40.9799 54.2314 40.9524 54.0916 40.9525C53.8092 40.9526 53.5385 41.0649 53.3389 41.2646L52.5871 42.0165L51.0808 40.5115L53.3389 38.2534C53.5301 38.0521 53.6352 37.7841 53.6316 37.5065C53.628 37.229 53.5162 36.9638 53.3199 36.7675C53.1236 36.5712 52.8584 36.4593 52.5808 36.4558C52.3032 36.4522 52.0352 36.5572 51.834 36.7484L49.5759 39.0065L48.0696 37.5002L48.8227 36.7484C49.0224 36.5489 49.1347 36.2781 49.1349 35.9958C49.135 35.7134 49.0229 35.4426 48.8234 35.2428C48.6238 35.0431 48.3531 34.9308 48.0707 34.9306C47.7883 34.9305 47.5175 35.0426 47.3177 35.2421L46.5646 35.9953L45.0596 34.4903L47.3177 32.2322C47.4166 32.1333 47.4951 32.0159 47.5486 31.8867C47.6022 31.7574 47.6297 31.6189 47.6297 31.4791C47.6297 31.3392 47.6022 31.2007 47.5486 31.0715C47.4951 30.9423 47.4166 30.8248 47.3177 30.7259C47.2188 30.627 47.1014 30.5486 46.9722 30.495C46.843 30.4415 46.7045 30.414 46.5646 30.414C46.4247 30.414 46.2862 30.4415 46.157 30.495C46.0278 30.5486 45.9104 30.627 45.8115 30.7259L43.5533 32.984L42.0484 31.4791L42.8015 30.7259C43.0011 30.5262 43.1132 30.2553 43.113 29.973C43.1129 29.6906 43.0006 29.4199 42.8009 29.2203C42.6011 29.0207 42.3303 28.9087 42.0479 28.9088C41.7656 28.9089 41.4948 29.0212 41.2952 29.221L40.5434 29.9728L39.0371 28.4678L41.2952 26.2097C41.4865 26.0085 41.5915 25.7405 41.5879 25.4629C41.5844 25.1853 41.4725 24.9201 41.2762 24.7238C41.0799 24.5275 40.8147 24.4156 40.5371 24.4121C40.2595 24.4085 39.9915 24.5136 39.7903 24.7048L37.5322 26.9629L36.0272 25.4566L36.779 24.7048C36.8779 24.6059 36.9564 24.4886 37.01 24.3595C37.0635 24.2303 37.0911 24.0919 37.0912 23.9521C37.0913 23.8123 37.0638 23.6738 37.0103 23.5446C36.9569 23.4154 36.8785 23.298 36.7797 23.1991C36.6809 23.1002 36.5636 23.0218 36.4344 22.9682C36.3053 22.9146 36.1668 22.887 36.027 22.887C35.8872 22.8869 35.7488 22.9144 35.6196 22.9678C35.4904 23.0213 35.373 23.0997 35.2741 23.1985L34.5209 23.9516L33.016 22.4467L35.2741 20.1886C35.4738 19.9888 35.586 19.7179 35.586 19.4354C35.586 19.1529 35.4738 18.882 35.2741 18.6823C35.0743 18.4825 34.8034 18.3703 34.5209 18.3703C34.2384 18.3703 33.9675 18.4825 33.7678 18.6823L31.5097 20.9404L30.0047 19.4354L30.7579 18.6823C30.9574 18.4825 31.0695 18.2117 31.0694 17.9293C31.0692 17.6469 30.9569 17.3762 30.7572 17.1766C30.6583 17.0778 30.5409 16.9994 30.4117 16.946C30.2825 16.8926 30.1441 16.8651 30.0042 16.8651C29.7219 16.8653 29.4511 16.9776 29.2516 17.1773L28.4998 17.9291L26.9935 16.4242L29.2516 14.166C29.4428 13.9648 29.5478 13.6968 29.5443 13.4192C29.5407 13.1416 29.4288 12.8764 29.2325 12.6801C29.0363 12.4838 28.771 12.372 28.4935 12.3684C28.2159 12.3649 27.9479 12.4699 27.7466 12.6611L25.4885 14.9192L23.9836 13.4129L24.7354 12.6611C24.8343 12.5623 24.9127 12.4449 24.9663 12.3158C25.0199 12.1867 25.0475 12.0482 25.0475 11.9084C25.0476 11.7686 25.0201 11.6302 24.9667 11.501C24.9132 11.3718 24.8348 11.2544 24.736 11.1555C24.6372 11.0566 24.5199 10.9781 24.3907 10.9245C24.2616 10.871 24.1232 10.8434 23.9834 10.8433C23.8435 10.8432 23.7051 10.8707 23.5759 10.9242C23.4467 10.9776 23.3293 11.056 23.2304 11.1548L22.4773 11.9079L21.7254 11.1548L26.9935 5.88677L60.1132 39.0065L54.8452 44.2759ZM61.6195 37.5002L28.4998 4.38048L29.2516 3.62734L62.3713 36.7484L61.6195 37.5002Z" fill="#726152"/>
</svg>
