<svg width="59" height="66" viewBox="0 0 59 66" fill="none" xmlns="http://www.w3.org/2000/svg">
<path d="M39.4742 17.7638H7.86779C7.33154 17.7638 6.89687 18.1985 6.89687 18.7347C6.89687 19.271 7.33154 19.7056 7.86779 19.7056H39.4743C40.0106 19.7056 40.4452 19.271 40.4452 18.7347C40.4452 18.1985 40.0104 17.7638 39.4742 17.7638Z" fill="#726152"/>
<path d="M7.86779 12.9707H23.6709C24.2072 12.9707 24.6419 12.536 24.6419 11.9998C24.6419 11.4635 24.2072 11.0288 23.6709 11.0288H7.86779C7.33154 11.0288 6.89687 11.4635 6.89687 11.9998C6.89687 12.5361 7.33154 12.9707 7.86779 12.9707Z" fill="#726152"/>
<path d="M39.4742 23.7311H7.86779C7.33154 23.7311 6.89687 24.1658 6.89687 24.7021C6.89687 25.2383 7.33154 25.673 7.86779 25.673H39.4743C40.0106 25.673 40.4452 25.2383 40.4452 24.7021C40.4451 24.1658 40.0104 23.7311 39.4742 23.7311Z" fill="#726152"/>
<path d="M15.0676 59.2541H4.95271C3.29252 59.2541 1.94172 57.9034 1.94172 56.2432V4.95271C1.94172 3.29252 3.29252 1.94172 4.95271 1.94172H34.0927C34.1868 1.94172 34.2795 1.95035 34.3712 1.96273V8.01797C34.3712 10.749 36.593 12.9707 39.3239 12.9707H45.379C45.3915 13.0625 45.4 13.1551 45.4 13.2492V29.7829C45.4 30.3191 45.8347 30.7538 46.3709 30.7538C46.9072 30.7538 47.3419 30.3191 47.3419 29.7829V13.2494C47.3419 12.1844 46.927 11.183 46.174 10.4298L36.9121 1.16789C36.159 0.41482 35.1578 0 34.0927 0H4.95271C2.2217 0 0 2.22183 0 4.95271V56.2432C0 58.9741 2.22183 61.1958 4.95271 61.1958H15.0676C15.6038 61.1958 16.0385 60.7611 16.0385 60.2249C16.0385 59.6886 15.6038 59.2541 15.0676 59.2541ZM44.027 11.029H39.324C37.6638 11.029 36.313 9.67815 36.313 8.01797V3.31495L44.027 11.029Z" fill="#726152"/>
<path d="M58.295 47.5315L50.0685 33.6457C49.4689 32.6333 48.1642 32.2986 47.1512 32.8987L45.1502 34.0842C43.597 35.0044 42.9405 36.8664 43.4738 38.5166C42.7996 38.7608 42.0604 38.757 41.3798 38.4939C39.7999 37.9968 38.5988 36.9969 36.6151 37.4986C33.2467 38.3562 33.3491 38.3133 33.0444 38.4177C31.0721 37.2948 29.8865 36.9607 27.7928 37.7706L25.9265 38.4921C25.0625 38.8259 24.1104 38.7468 23.3119 38.2737L22.8026 37.9735C23.0512 36.4843 22.3908 34.9128 20.9924 34.0845C20.9924 34.0845 20.9924 34.0845 20.9923 34.0844L18.9914 32.8989C17.9813 32.3007 16.6726 32.6356 16.0742 33.6457L7.84743 47.5316C7.24789 48.5438 7.58149 49.849 8.59418 50.4488L10.5951 51.6342C11.2005 51.9929 11.866 52.1635 12.5234 52.1635C13.2565 52.1635 13.9792 51.951 14.5972 51.5509L15.0142 51.797L14.1338 53.0233C13.0846 54.4848 13.418 56.5172 14.8798 57.5664C15.5558 58.0517 16.405 58.2732 17.2832 58.1353C17.4226 58.9499 17.8689 59.7122 18.5915 60.2312C19.2702 60.7185 20.1156 60.9403 20.9954 60.8017C21.1351 61.6157 21.5811 62.3774 22.3034 62.896C23.274 63.5927 24.4808 63.6733 25.4864 63.2437C25.7065 63.8153 26.089 64.3315 26.6225 64.7146C28.0157 65.7145 29.9349 65.4537 31.0174 64.1582L33.3571 65.5442C34.9043 66.4611 36.9007 65.9515 37.8181 64.4025C38.0527 64.0065 38.1983 63.5749 38.2515 63.1313L38.2568 63.1346C39.8018 64.0495 41.8026 63.5373 42.7179 61.9927C42.9829 61.5453 43.1282 61.0599 43.1635 60.5736C44.5253 60.916 46.0094 60.344 46.7609 59.0756C47.0075 58.6594 47.1504 58.2099 47.1975 57.7576C48.657 58.3303 50.3628 57.7768 51.187 56.3857C51.6303 55.6374 51.7557 54.7613 51.5401 53.9187C51.4167 53.4366 51.1898 52.9989 50.8784 52.6293L52.168 51.8759C53.2589 52.3237 54.5039 52.252 55.5473 51.6341L57.5479 50.4486C58.5606 49.8492 58.8951 48.5443 58.295 47.5315ZM11.5848 49.9637L9.58393 48.7781C9.49498 48.7254 9.46546 48.6102 9.51805 48.5212L17.7449 34.6351C17.7978 34.5457 17.9135 34.5167 18.0019 34.5693L20.0026 35.7546C20.8917 36.2814 21.1699 37.4217 20.6527 38.2946L14.1248 49.3135C13.6037 50.1931 12.4645 50.4846 11.5848 49.9637ZM16.0121 55.989C15.4225 55.5657 15.2876 54.7456 15.7112 54.1557L17.0053 52.3531C17.4176 51.7788 18.2391 51.6217 18.8386 52.0521C19.4271 52.4745 19.562 53.2968 19.1397 53.8853L17.8455 55.6879C17.4231 56.2766 16.6003 56.4112 16.0121 55.989ZM19.724 58.6539C19.1355 58.2313 19.0005 57.4088 19.423 56.8205L20.717 55.018C20.717 55.018 20.717 55.018 20.717 55.0178C20.717 55.0178 20.717 55.0177 20.7172 55.0177L22.1453 53.0284C22.35 52.7434 22.6533 52.555 22.9996 52.4982C23.0715 52.4864 23.1436 52.4806 23.2151 52.4806C23.4876 52.4806 23.7528 52.5654 23.9786 52.7274C24.2635 52.9321 24.452 53.2353 24.5087 53.5816C24.5655 53.9279 24.4842 54.2756 24.2795 54.5606L21.5571 58.3528C21.1341 58.9425 20.3138 59.0775 19.724 58.6539ZM23.4358 61.3185C22.8476 60.8962 22.7125 60.0743 23.1342 59.486C23.1343 59.4857 23.1346 59.4855 23.1347 59.4852L25.8571 55.6932C26.2792 55.1049 27.1022 54.9698 27.6904 55.3921C28.2788 55.8145 28.4138 56.6369 27.9914 57.2254L26.7818 58.9103C26.7818 58.9103 26.7818 58.9103 26.7817 58.9104L25.269 61.0175C24.8466 61.606 24.0244 61.7412 23.4358 61.3185ZM27.7549 63.1371C27.1669 62.7148 27.0316 61.8933 27.453 61.3049L28.3591 60.0429C28.7814 59.4543 29.6042 59.3197 30.1924 59.7419C30.7808 60.1642 30.9159 60.9867 30.4934 61.5752L29.5881 62.836C29.1658 63.4246 28.3431 63.5597 27.7549 63.1371ZM49.5168 55.3961C49.1473 56.0196 48.3399 56.2263 47.7162 55.857C46.6602 55.2314 39.8483 51.1958 39.122 50.7655C38.6605 50.4922 38.0651 50.6444 37.7918 51.1058C37.5186 51.5672 37.6708 52.1627 38.1322 52.436L44.6294 56.2853L44.6295 56.2854C45.2533 56.6548 45.4614 57.4598 45.0905 58.0861C44.7209 58.7099 43.9131 58.9162 43.2897 58.5472C40.8866 57.1235 38.9354 55.9675 36.789 54.6958C36.3273 54.4226 35.732 54.5748 35.4588 55.0361C35.1855 55.4975 35.3377 56.0931 35.7991 56.3663L40.5864 59.2025L40.5874 59.2032C41.2116 59.5738 41.4176 60.3784 41.0475 61.0033C40.6779 61.6271 39.8703 61.8338 39.2465 61.4643L36.6773 59.9423C36.6771 59.9422 36.6767 59.9421 36.6764 59.9418C36.6762 59.9417 36.6759 59.9415 36.6756 59.9414L34.8007 58.8305C34.3392 58.5571 33.7438 58.7093 33.4705 59.1708C33.1972 59.6322 33.3495 60.2277 33.8108 60.501L35.6862 61.612C35.6864 61.6122 35.6867 61.6124 35.6869 61.6126C36.3107 61.982 36.5188 62.7869 36.1479 63.4131C35.7783 64.0369 34.9707 64.2435 34.347 63.8741L32.1593 62.5782C33.0971 61.1311 32.7404 59.181 31.3249 58.165C30.9091 57.8667 30.4462 57.6809 29.9728 57.6011C30.475 56.2583 30.042 54.6906 28.8227 53.8153C28.1008 53.2968 27.2365 53.1178 26.4208 53.2456C26.2756 52.3968 25.8114 51.6533 25.1111 51.1507C23.7939 50.2054 22.0039 50.387 20.8983 51.5055C20.6736 51.111 20.3635 50.757 19.9711 50.4753C18.8765 49.6898 17.4555 49.6824 16.3719 50.3441L15.927 50.0815L22.0333 39.7743L22.324 39.9457C23.6079 40.7063 25.1746 40.8648 26.6266 40.3033L28.4929 39.5818C29.5609 39.1691 30.1499 39.1421 31.2063 39.6406C30.5151 40.4171 30.1048 41.4367 30.1048 42.5355V46.8403C30.1048 47.9837 31.0343 48.9145 32.1768 48.9153H32.1796C33.3256 48.9153 34.4033 48.4691 35.214 47.659C35.6865 47.1867 36.0354 46.6236 36.2444 46.009C37.4981 46.7513 47.8553 52.8846 49.0561 53.596C49.3581 53.7749 49.5723 54.0607 49.6593 54.4008C49.7464 54.7404 49.6957 55.094 49.5168 55.3961ZM56.5587 48.7781L54.5577 49.9637C53.678 50.4845 52.5387 50.1928 52.0179 49.3136L48.9582 44.149C48.6848 43.6876 48.089 43.5354 47.628 43.8084C47.1667 44.0817 47.0143 44.6772 47.2875 45.1386L50.3472 50.3034C50.4048 50.4006 50.4673 50.493 50.532 50.5831L49.6814 51.08C49.5094 51.1819 49.344 51.294 49.1859 51.4158L35.9958 43.6047C35.3496 43.2223 34.5303 43.6885 34.5303 44.4401C34.5201 44.4981 34.6305 45.4961 33.8413 46.2851C33.3973 46.7287 32.8072 46.9731 32.1795 46.9731C32.179 46.9731 32.1785 46.9731 32.178 46.9731C32.1054 46.9731 32.0464 46.9132 32.0464 46.8398V42.5349C32.0464 41.4104 32.8201 40.4616 33.8664 40.1967L37.0911 39.3806C38.2612 39.0849 38.9226 39.7097 40.6746 40.3027C41.8908 40.7732 43.2133 40.7442 44.3871 40.2429L44.9731 41.2321C45.2465 41.6937 45.842 41.8458 46.3033 41.5727C46.7646 41.2994 46.917 40.7038 46.6438 40.2425L45.4896 38.2943C44.9674 37.4129 45.2584 36.2769 46.1397 35.7545L48.1406 34.5692C48.228 34.5172 48.3436 34.5438 48.3977 34.6351L56.6243 48.521C56.6774 48.6106 56.6481 48.7252 56.5587 48.7781Z" fill="#726152"/>
</svg>
