<svg width="66" height="66" viewBox="0 0 66 66" fill="none" xmlns="http://www.w3.org/2000/svg">
<path d="M63.1 14.2001L61.5 13.7C61.1 13.6 60.7 13.5 60.2001 13.5C58.4001 13.5 56.8001 14.7 56.2 16.4L55.3001 19.0999V17C55.3001 16.7 55.1001 16.4 54.9 16.2L38.5 0.300024C38.3 0.100008 38 0 37.8 0H5.69993C5.09988 0 4.69998 0.400032 4.69998 0.999948V4.09993H0.999948C0.399899 4.09993 0 4.49996 0 5.09988V65.0001C0 65.6001 0.400032 66 0.999948 66H49.6C50.2001 66 50.6 65.6 50.6 65.0001V61.9001H54.3C54.9 61.9001 55.2999 61.5 55.2999 60.9001V47.4001L58.0999 43.6001L58.1999 43.3L65.7 19.4C66.5 17.2001 65.3001 14.9 63.1 14.2001ZM38.7999 3.40001L51.8999 16.0001H38.7999V3.40001ZM48.6001 64.0001H1.9999V6.09996H4.69985V60.9001C4.69985 61.5002 5.09988 61.9001 5.69979 61.9001H48.5999L48.6001 64.0001ZM53.4 59.9002H6.69988V2.00003H36.7999V17C36.7999 17.6001 37.1999 18 37.7999 18H53.3999V25.5001L48.6999 40.3001V40.6001L48.9 53.3002C48.9 53.7002 49.2 54.1002 49.6 54.2001C50 54.3001 50.4999 54.2001 50.7 53.8001L53.3999 50.2001V59.9002H53.4ZM50.8 50.2001L50.6 41.9001L55.6 43.5L50.8 50.2001ZM63.9001 18.8001L56.7 41.7002L50.9 39.8001L58.1 17C58.5001 15.9001 59.7 15.2 60.8 15.6001L62.4 16.1001C63.6001 16.4 64.3 17.7001 63.9001 18.8001Z" fill="#726152"/>
<path d="M13.4999 18H27.9C28.5 18 28.8999 17.6 28.8999 17V6.80002C28.8999 6.19997 28.4999 5.80007 27.9 5.80007H13.4999C12.8998 5.80007 12.4999 6.2001 12.4999 6.80002V17C12.4999 17.5001 13 18 13.4999 18ZM14.5 7.79996H26.9V16H14.5V7.79996Z" fill="#726152"/>
<path d="M11.5 27.4001H41.9001C42.5001 27.4001 42.9 27 42.9 26.4001C42.9 25.8001 42.5 25.4002 41.9001 25.4002H11.5C10.8999 25.4002 10.5 25.8002 10.5 26.4001C10.4999 27 10.8999 27.4001 11.5 27.4001Z" fill="#726152"/>
<path d="M11.5 34.7001H41.9001C42.5001 34.7001 42.9 34.3001 42.9 33.7002C42.9 33.1003 42.5 32.7002 41.9001 32.7002H11.5C10.8999 32.7002 10.5 33.1003 10.5 33.7002C10.5 34.3001 10.8999 34.7001 11.5 34.7001Z" fill="#726152"/>
<path d="M11.5 42.0001H41.9001C42.5001 42.0001 42.9 41.6 42.9 41.0001C42.9 40.4002 42.5 40.0002 41.9001 40.0002H11.5C10.8999 40.0002 10.5 40.4002 10.5 41.0001C10.5 41.6 10.8999 42.0001 11.5 42.0001Z" fill="#726152"/>
<path d="M42.8 48.3002C42.8 47.7001 42.4 47.3002 41.8 47.3002H11.5C10.8999 47.3002 10.5 47.7003 10.5 48.3002C10.5 48.9001 10.9001 49.3001 11.5 49.3001H41.9001C42.4 49.3001 42.8 48.8001 42.8 48.3002Z" fill="#726152"/>
<path d="M46.1 54.6001H31C30.3999 54.6001 30 55.0002 30 55.6001C30 56.2 30.4001 56.6 31 56.6H46C46.6 56.6 46.9999 56.2 46.9999 55.6001C46.9999 55.0002 46.6 54.6001 46.1 54.6001Z" fill="#726152"/>
</svg>
