<svg width="66" height="66" viewBox="0 0 66 66" fill="none" xmlns="http://www.w3.org/2000/svg">
<path d="M23.39 23.2891H42.61C43.7318 23.2891 44.6446 22.3764 44.6446 21.2546V18.0513C44.6446 17.8252 44.5653 17.6061 44.4206 17.4324L39.3057 11.2946V1.99805C39.3057 0.896285 38.4094 0 37.3077 0H28.6925C27.5907 0 26.6944 0.896285 26.6944 1.99805V11.2945L21.5795 17.4322C21.4348 17.606 21.3555 17.825 21.3555 18.0511V21.2544C21.3554 22.3763 22.2682 23.2891 23.39 23.2891ZM42.61 21.3555H23.39C23.3344 21.3555 23.289 21.3101 23.289 21.2546V19.0181H42.7109V21.2546C42.7109 21.3101 42.6656 21.3555 42.61 21.3555ZM28.1139 12.6114H37.8862L41.6136 17.0845H24.3864L28.1139 12.6114ZM28.6279 1.99805C28.6279 1.96247 28.6568 1.93359 28.6923 1.93359H37.3075C37.3431 1.93359 37.372 1.96247 37.372 1.99805V10.6778H28.6279V1.99805Z" fill="#726152"/>
<path d="M40.511 49.1175H25.489C24.3873 49.1175 23.491 50.0138 23.491 51.1156V59.7309C23.491 60.8327 24.3873 61.729 25.489 61.729H40.5108C41.6126 61.729 42.5089 60.8327 42.5089 59.7309V51.1156C42.509 50.0138 41.6126 49.1175 40.511 49.1175ZM40.5754 59.7309C40.5754 59.7665 40.5466 59.7954 40.511 59.7954H25.489C25.4534 59.7954 25.4246 59.7665 25.4246 59.7309V51.1156C25.4246 51.08 25.4534 51.0511 25.489 51.0511H40.5108C40.5464 51.0511 40.5753 51.08 40.5753 51.1156V59.7309H40.5754Z" fill="#726152"/>
<path d="M24.4578 42.509H25.5255C26.0594 42.509 26.4923 42.0762 26.4923 41.5422C26.4923 41.0083 26.0594 40.5754 25.5255 40.5754H24.4578C23.9238 40.5754 23.491 41.0083 23.491 41.5422C23.491 42.0762 23.9238 42.509 24.4578 42.509Z" fill="#726152"/>
<path d="M32.4661 42.509H33.5338C34.0677 42.509 34.5006 42.0762 34.5006 41.5422C34.5006 41.0083 34.0677 40.5754 33.5338 40.5754H32.4661C31.9321 40.5754 31.4993 41.0083 31.4993 41.5422C31.4993 42.0762 31.9321 42.509 32.4661 42.509Z" fill="#726152"/>
<path d="M40.4744 42.509H41.5421C42.076 42.509 42.5089 42.0762 42.5089 41.5422C42.5089 41.0083 42.076 40.5754 41.5421 40.5754H40.4744C39.9404 40.5754 39.5076 41.0083 39.5076 41.5422C39.5076 42.0762 39.9404 42.509 40.4744 42.509Z" fill="#726152"/>
<path d="M37.271 53.3887H28.7288C28.1949 53.3887 27.762 53.8216 27.762 54.3555C27.762 54.8894 28.1949 55.3223 28.7288 55.3223H37.271C37.805 55.3223 38.2378 54.8894 38.2378 54.3555C38.2378 53.8215 37.805 53.3887 37.271 53.3887Z" fill="#726152"/>
<path d="M11.6445 40.5754H9.50903C8.9751 40.5754 8.54223 41.0083 8.54223 41.5422C8.54223 42.0762 8.9751 42.509 9.50903 42.509H11.6446C12.1785 42.509 12.6114 42.0762 12.6114 41.5422C12.6113 41.0083 12.1785 40.5754 11.6445 40.5754Z" fill="#726152"/>
<path d="M4.27105 53.2877V57.5587C4.27105 58.0926 4.70392 58.5255 5.23785 58.5255C5.77178 58.5255 6.20464 58.0926 6.20464 57.5587V53.2877C6.20464 52.7537 5.77178 52.3209 5.23785 52.3209C4.70392 52.3209 4.27105 52.7537 4.27105 53.2877Z" fill="#726152"/>
<path d="M64.002 36.3043H12.6113V29.7601C12.6113 28.6583 11.715 27.762 10.6132 27.762H8.40469C7.30293 27.762 6.40664 28.6583 6.40664 29.7601V36.3043H1.99805C0.896285 36.3043 0 37.2005 0 38.3023V64.002C0 65.1037 0.896285 66 1.99805 66H8.67964C9.21357 66 9.64644 65.5671 9.64644 65.0332C9.64644 64.4993 9.21357 64.0664 8.67964 64.0664H1.99805C1.96247 64.0664 1.93359 64.0375 1.93359 64.002V46.7801H19.2199V64.0664H12.5039C11.97 64.0664 11.5371 64.4993 11.5371 65.0332C11.5371 65.5671 11.97 66 12.5039 66H64.002C65.1037 66 66 65.1037 66 64.002V38.3023C66 37.2005 65.1037 36.3043 64.002 36.3043ZM64.0664 38.3023V44.8465H46.7801V38.2378H64.002C64.0375 38.2378 64.0664 38.2667 64.0664 38.3023ZM44.8465 44.8465H21.1535V38.2378H44.8465V44.8465ZM8.34023 29.7602C8.34023 29.7246 8.36911 29.6957 8.40469 29.6957H10.6132C10.6488 29.6957 10.6777 29.7246 10.6777 29.7602V36.3044H8.34023V29.7602ZM1.93359 44.8465V38.3023C1.93359 38.2667 1.96247 38.2378 1.99805 38.2378H19.2199V44.8465H1.93359ZM21.1535 46.7801H44.8465V64.0664H21.1535V46.7801ZM64.0664 64.002C64.0664 64.0375 64.0375 64.0664 64.002 64.0664H46.7801V46.7801H64.0664V64.002Z" fill="#726152"/>
<path d="M54.3554 42.509H56.491C57.0249 42.509 57.4578 42.0762 57.4578 41.5422C57.4578 41.0083 57.0249 40.5754 56.491 40.5754H54.3554C53.8214 40.5754 53.3886 41.0083 53.3886 41.5422C53.3886 42.0762 53.8214 42.509 54.3554 42.509Z" fill="#726152"/>
<path d="M50.0843 58.5256C50.6183 58.5256 51.0511 58.0928 51.0511 57.5588V53.2878C51.0511 52.7539 50.6183 52.321 50.0843 52.321C49.5504 52.321 49.1175 52.7539 49.1175 53.2878V57.5588C49.1175 58.0928 49.5504 58.5256 50.0843 58.5256Z" fill="#726152"/>
<path d="M1.99805 16.8825H17.0199C18.1216 16.8825 19.0179 15.9862 19.0179 14.8844V1.99805C19.0179 0.896285 18.1216 0 17.0199 0H1.99805C0.896285 0 0 0.896285 0 1.99805V14.8844C0 15.9862 0.896285 16.8825 1.99805 16.8825ZM1.93359 1.99805C1.93359 1.96247 1.96247 1.93359 1.99805 1.93359H17.0199C17.0555 1.93359 17.0843 1.96247 17.0843 1.99805V14.8844C17.0843 14.92 17.0555 14.9489 17.0199 14.9489H1.99805C1.96247 14.9489 1.93359 14.92 1.93359 14.8844V1.99805Z" fill="#726152"/>
<path d="M8.44117 12.6114H10.5768C11.1107 12.6114 11.5436 12.1785 11.5436 11.6446C11.5436 11.1107 11.1107 10.6778 10.5768 10.6778H8.44117C7.90724 10.6778 7.47437 11.1107 7.47437 11.6446C7.47437 12.1785 7.90724 12.6114 8.44117 12.6114Z" fill="#726152"/>
<path d="M64.002 0H48.9801C47.8784 0 46.9821 0.896285 46.9821 1.99805V4.37211C46.9821 4.90604 47.4149 5.33891 47.9489 5.33891C48.4828 5.33891 48.9157 4.90604 48.9157 4.37211V1.99805C48.9157 1.96247 48.9445 1.93359 48.9801 1.93359H64.002C64.0375 1.93359 64.0664 1.96247 64.0664 1.99805V14.8844C64.0664 14.92 64.0375 14.9489 64.002 14.9489H48.9801C48.9445 14.9489 48.9157 14.92 48.9157 14.8844V8.2393C48.9157 7.70537 48.4828 7.2725 47.9489 7.2725C47.4149 7.2725 46.9821 7.70537 46.9821 8.2393V14.8844C46.9821 15.9862 47.8784 16.8825 48.9801 16.8825H64.002C65.1037 16.8825 66 15.9862 66 14.8844V1.99805C66 0.896285 65.1037 0 64.002 0Z" fill="#726152"/>
<path d="M57.5588 12.6114C58.0928 12.6114 58.5256 12.1785 58.5256 11.6446C58.5256 11.1107 58.0928 10.6778 57.5588 10.6778H55.4232C54.8893 10.6778 54.4564 11.1107 54.4564 11.6446C54.4564 12.1785 54.8893 12.6114 55.4232 12.6114H57.5588Z" fill="#726152"/>
<path d="M65.0332 23.491H47.9489C47.4149 23.491 46.9821 23.9238 46.9821 24.4578C46.9821 24.9917 47.4149 25.4246 47.9489 25.4246H51.2531V27.9171C50.0146 28.3244 49.1175 29.4913 49.1175 30.8643C49.1175 32.5749 50.5092 33.9667 52.2199 33.9667C53.9305 33.9667 55.3222 32.575 55.3222 30.8643C55.3222 29.4912 54.4251 28.3243 53.1867 27.9171V25.4246H59.7954V27.9171C58.5568 28.3244 57.6598 29.4913 57.6598 30.8643C57.6598 32.5749 59.0514 33.9667 60.7622 33.9667C62.4727 33.9667 63.8644 32.575 63.8644 30.8643C63.8644 29.4912 62.9674 28.3243 61.729 27.9171V25.4246H65.0332C65.5671 25.4246 66 24.9917 66 24.4578C66 23.9238 65.5671 23.491 65.0332 23.491ZM52.2199 32.0332C51.5754 32.0332 51.0511 31.5089 51.0511 30.8644C51.0511 30.22 51.5754 29.6957 52.2199 29.6957C52.8643 29.6957 53.3886 30.22 53.3886 30.8644C53.3886 31.5089 52.8643 32.0332 52.2199 32.0332ZM60.7622 32.0332C60.1178 32.0332 59.5934 31.5089 59.5934 30.8644C59.5934 30.22 60.1176 29.6957 60.7622 29.6957C61.4066 29.6957 61.9308 30.22 61.9308 30.8644C61.9308 31.5089 61.4066 32.0332 60.7622 32.0332Z" fill="#726152"/>
</svg>
