<svg width="66" height="66" viewBox="0 0 66 66" fill="none" xmlns="http://www.w3.org/2000/svg">
<path d="M45.6573 41.391C45.6025 41.1394 45.4502 40.9197 45.2338 40.7802C45.0173 40.6407 44.7544 40.5926 44.5026 40.6465L42.7295 41.029C42.6033 41.0545 42.4835 41.1048 42.377 41.1769C42.2705 41.2491 42.1794 41.3416 42.1089 41.4493C42.0385 41.5569 41.9901 41.6775 41.9666 41.804C41.9431 41.9305 41.945 42.0604 41.9722 42.1862C41.9993 42.3119 42.0511 42.431 42.1247 42.5366C42.1982 42.6422 42.292 42.7321 42.4005 42.8011C42.5091 42.8702 42.6303 42.9169 42.7571 42.9387C42.8839 42.9606 43.0138 42.957 43.1391 42.9282L44.9129 42.5457C45.1647 42.4913 45.3846 42.3391 45.5242 42.1225C45.6638 41.906 45.7117 41.6428 45.6573 41.391Z" fill="#726152"/>
<path d="M39.3486 41.7579L34.4327 42.8183C34.3066 42.8437 34.1868 42.894 34.0803 42.9662C33.9738 43.0383 33.8826 43.1309 33.8122 43.2385C33.7417 43.3462 33.6934 43.4668 33.6699 43.5933C33.6464 43.7198 33.6483 43.8497 33.6754 43.9754C33.7025 44.1012 33.7544 44.2203 33.8279 44.3259C33.9015 44.4314 33.9952 44.5213 34.1038 44.5904C34.2124 44.6594 34.3336 44.7062 34.4604 44.728C34.5872 44.7498 34.717 44.7462 34.8424 44.7174L39.7583 43.6571C40.0073 43.6 40.2237 43.4471 40.3608 43.2315C40.4978 43.0159 40.5445 42.755 40.4906 42.5053C40.4367 42.2556 40.2867 42.0372 40.073 41.8973C39.8592 41.7574 39.599 41.7074 39.3486 41.7579Z" fill="#726152"/>
<path d="M23.9753 48.4148C22.7918 48.6697 21.7104 49.2699 20.868 50.1395C20.0255 51.009 19.4599 52.1089 19.2426 53.3C19.0253 54.491 19.1661 55.7197 19.6472 56.8308C20.1282 57.9418 20.928 58.8852 21.9452 59.5417C22.9625 60.1982 24.1516 60.5383 25.3622 60.5189C26.5727 60.4996 27.7503 60.1216 28.7461 59.433C29.7419 58.7443 30.511 57.7758 30.9563 56.65C31.4016 55.5241 31.5031 54.2915 31.2478 53.108C30.9041 51.5222 29.9454 50.1375 28.582 49.2576C27.2186 48.3778 25.5619 48.0746 23.9753 48.4148ZM26.1465 58.4813C25.3388 58.6556 24.4975 58.5865 23.729 58.2827C22.9605 57.9789 22.2994 57.454 21.8292 56.7744C21.3591 56.0949 21.101 55.2912 21.0876 54.4649C21.0742 53.6387 21.3061 52.827 21.7541 52.1326C22.202 51.4382 22.8458 50.8922 23.604 50.5636C24.3622 50.2351 25.2008 50.1388 26.0138 50.2868C26.8268 50.4349 27.5776 50.8208 28.1713 51.3955C28.765 51.9703 29.1749 52.7083 29.3492 53.516C29.5814 54.599 29.3746 55.7299 28.7742 56.6607C28.1739 57.5915 27.2289 58.2462 26.1465 58.4813Z" fill="#726152"/>
<path d="M65.9759 45.6179L65.147 41.774C65.1201 41.6493 65.0689 41.5311 64.9964 41.4261C64.9238 41.3211 64.8312 41.2315 64.724 41.1623C64.6168 41.0931 64.497 41.0457 64.3714 41.0229C64.2459 41 64.117 41.0021 63.9923 41.029L60.3322 41.8184L53.7864 11.46C53.7318 11.2083 53.5797 10.9886 53.3633 10.849C53.1469 10.7095 52.884 10.6615 52.6322 10.7155L22.2732 17.2619L18.7158 0.766664C18.6689 0.549593 18.549 0.355135 18.3762 0.215649C18.2034 0.0761628 17.988 5.87142e-05 17.766 1.58811e-07H0.971515C0.843913 -7.2819e-05 0.717548 0.0250064 0.599646 0.0738037C0.481743 0.122601 0.374616 0.19416 0.284388 0.284388C0.19416 0.374616 0.122601 0.481743 0.0738037 0.599646C0.0250064 0.717548 -7.2819e-05 0.843913 1.58811e-07 0.971515V4.90365C1.58811e-07 5.16131 0.102356 5.40842 0.28455 5.59062C0.466744 5.77281 0.713853 5.87517 0.971515 5.87517H13.8072L21.8807 43.3124C19.7656 43.9567 17.8787 45.1924 16.4427 46.8737C15.0066 48.555 14.0812 50.6119 13.7756 52.8018C13.47 54.9917 13.7968 57.2233 14.7177 59.2336C15.6385 61.2438 17.1149 62.9489 18.9728 64.1477C20.8308 65.3466 22.9927 65.9892 25.2038 65.9999C27.4149 66.0105 29.583 65.3888 31.4524 64.2079C33.3218 63.027 34.8145 61.3363 35.7547 59.335C36.6949 57.3337 37.0433 55.1053 36.7588 52.9126L65.2308 46.7721C65.4827 46.7178 65.7026 46.5657 65.8423 46.3492C65.982 46.1328 66.0301 45.8697 65.9759 45.6179ZM27.8464 43.1036L24.395 27.1075L34.3389 24.9629L35.7984 31.723C35.8383 31.9091 35.932 32.0793 36.068 32.2124C36.2039 32.3456 36.376 32.4358 36.5628 32.4719C36.6237 32.4838 36.6856 32.4898 36.7477 32.4897C36.9066 32.4896 37.063 32.4507 37.2034 32.3761C37.3437 32.3016 37.4636 32.1938 37.5527 32.0622L40.1652 28.1984L43.8253 30.6766C43.9858 30.7851 44.1751 30.8433 44.3689 30.8434C44.5627 30.8436 44.7521 30.7858 44.9128 30.6774C45.0735 30.5691 45.1981 30.4152 45.2706 30.2355C45.3431 30.0558 45.3603 29.8585 45.3198 29.669L43.862 22.9089L53.8058 20.7643L58.4352 42.2281L34.4932 47.3911C32.8449 45.231 30.4939 43.7145 27.8464 43.1036ZM40.249 15.3727L42.9099 27.7082L40.4494 26.0427C40.2359 25.8983 39.9738 25.8446 39.7207 25.8935C39.4677 25.9423 39.2443 26.0896 39.0999 26.3031L37.219 29.0872L34.526 16.6068L40.249 15.3727ZM53.3961 18.8652L43.4523 21.0086L42.1482 14.963L52.0921 12.8184L53.3961 18.8652ZM32.6268 17.0165L33.9309 23.0627L23.987 25.2083L22.6829 19.1611L32.6268 17.0165ZM14.591 3.93214H1.94303V1.94303H16.9815L25.7968 42.8216C25.1229 42.789 24.4475 42.8155 23.7782 42.901L15.5409 4.6988C15.4941 4.48168 15.3743 4.28717 15.2014 4.14766C15.0286 4.00816 14.8132 3.93209 14.591 3.93214ZM27.304 63.838C25.4364 64.2419 23.4909 64.0828 21.7137 63.3808C19.9364 62.6788 18.4073 61.4655 17.3198 59.8944C16.2322 58.3232 15.6351 56.4648 15.6039 54.5543C15.5727 52.6437 16.1089 50.7668 17.1446 49.161C18.1802 47.5552 19.6689 46.2926 21.4223 45.533C23.1756 44.7734 25.1149 44.5509 26.9947 44.8936C28.8746 45.2363 30.6105 46.1288 31.983 47.4583C33.3555 48.7878 34.3029 50.4945 34.7053 52.3624C35.2418 54.8657 34.7637 57.4796 33.3757 59.6309C31.9877 61.7821 29.8032 63.2951 27.3012 63.838H27.304ZM36.353 51.014C36.155 50.3691 35.9006 49.7429 35.593 49.1426L63.4555 43.1336L63.8752 45.0766L36.353 51.014Z" fill="#726152"/>
</svg>
