<svg width="41" height="41" viewBox="0 0 41 41" fill="none" xmlns="http://www.w3.org/2000/svg">
<path d="M40.499 38.0839L28.8397 26.4245C31.0982 23.6348 32.458 20.09 32.458 16.2292C32.458 7.28094 25.1771 0 16.2289 0C7.28078 0 0 7.28086 0 16.2291C0 25.1774 7.28086 32.4583 16.229 32.4583C20.0898 32.4583 23.6346 31.0985 26.4242 28.8401L38.0835 40.4994C38.4166 40.8326 38.8539 41 39.2913 41C39.7286 41 40.1659 40.8326 40.4991 40.4994C41.167 39.8315 41.167 38.7518 40.499 38.0839ZM16.229 29.0416C9.1634 29.0416 3.41666 23.2948 3.41666 16.2291C3.41666 9.16342 9.1634 3.41661 16.229 3.41661C23.2946 3.41661 29.0414 9.16342 29.0414 16.2291C29.0414 23.2948 23.2946 29.0416 16.229 29.0416Z" fill="white"/>
</svg>
