<svg width="19" height="17" viewBox="0 0 19 17" fill="none" xmlns="http://www.w3.org/2000/svg">
<path d="M0.335596 8.15144L4.71358 9.83061L6.40813 15.4309C6.51656 15.7896 6.94336 15.9222 7.22665 15.6842L9.66701 13.6397C9.92282 13.4255 10.2872 13.4149 10.5545 13.6143L14.9561 16.8982C15.2591 17.1246 15.6884 16.9539 15.7644 16.5776L18.9888 0.639092C19.0718 0.22802 18.6787 -0.114909 18.2978 0.0364773L0.330466 7.15936C-0.112931 7.33509 -0.109067 7.9802 0.335596 8.15144ZM6.13504 8.93674L14.6913 3.52128C14.845 3.42424 15.0032 3.63791 14.8712 3.76379L7.80983 10.5091C7.56162 10.7465 7.40152 11.0643 7.35617 11.4092L7.11563 13.241C7.08377 13.4856 6.74943 13.5099 6.68376 13.2732L5.75865 9.93273C5.65269 9.55173 5.8071 9.14475 6.13504 8.93674Z" fill="#4B535E"/>
</svg>
