<svg width="17" height="18" viewBox="0 0 17 18" fill="none" xmlns="http://www.w3.org/2000/svg">
<path d="M9.9524 0H6.33335C2.84109 0 0 2.82649 0 6.3008V9.00115C0 11.4403 1.41401 13.6539 3.61905 14.6951V17.7022C3.61905 17.9633 3.94738 18.0999 4.13389 17.9144L6.75981 15.3019H9.95237C13.4446 15.3019 16.2857 12.4755 16.2857 9.00115V6.3008C16.2857 2.82649 13.4446 0 9.9524 0Z" fill="#4B535E"/>
<path d="M8.76558 5.72186C8.59837 5.72186 8.46281 5.85743 8.46281 6.02464C8.46281 6.19185 8.59837 6.32741 8.76558 6.32741C9.43343 6.32741 9.97675 6.87073 9.97675 7.53858C9.97675 7.70355 10.1145 7.84135 10.2795 7.84135C10.4445 7.84135 10.5823 7.70355 10.5823 7.53858C10.5823 6.53681 9.76735 5.72186 8.76558 5.72186Z" fill="#F8F9FD"/>
<path d="M8.76559 4.51071C8.65359 4.51071 8.54055 4.51692 8.42957 4.52916C8.26336 4.5475 8.14348 4.69712 8.16182 4.86337C8.18016 5.02962 8.33009 5.14918 8.49603 5.13113C8.58501 5.1213 8.67569 5.1163 8.76559 5.1163C10.1013 5.1163 11.1879 6.20293 11.1879 7.53859C11.1879 7.62853 11.1829 7.71921 11.1731 7.80819C11.155 7.97214 11.2768 8.12434 11.4408 8.1424C11.6048 8.16046 11.7569 8.03866 11.775 7.87464C11.7873 7.76367 11.7935 7.65063 11.7935 7.53859C11.7935 5.86904 10.4352 4.51071 8.76559 4.51071Z" fill="#F8F9FD"/>
<path d="M8.76559 3.29956C8.65738 3.29956 8.54779 3.30368 8.43994 3.31187C8.27319 3.3245 8.14823 3.46996 8.16086 3.63668C8.17346 3.80343 8.31942 3.92838 8.48567 3.91575C8.57837 3.90869 8.67257 3.90514 8.76559 3.90514C10.7691 3.90514 12.3991 5.5351 12.3991 7.5386C12.3991 7.82208 12.3663 8.10427 12.3018 8.37731C12.2648 8.53377 12.3612 8.69641 12.5163 8.73891C12.6796 8.78361 12.8523 8.68126 12.8912 8.5166C12.9665 8.19797 13.0046 7.86894 13.0046 7.5386C13.0046 5.20117 11.103 3.29956 8.76559 3.29956Z" fill="#F8F9FD"/>
<path d="M12.8522 11.1761L12.5882 9.74614C12.5663 9.628 12.4748 9.53508 12.357 9.51151L10.2809 9.0963C10.1845 9.0771 10.0851 9.1072 10.0156 9.17659L9.17218 10.0201C7.75105 9.38332 6.96232 8.59288 6.26834 7.11076L7.10909 6.27005C7.17848 6.20062 7.20862 6.10106 7.18938 6.0048L6.77417 3.92864C6.75061 3.81088 6.65768 3.7193 6.53954 3.69748L5.10954 3.43354C5.07039 3.42635 5.03006 3.42711 4.99119 3.43595C4.61361 3.52172 4.2691 3.71197 3.99487 3.98626C3.52004 4.4611 3.33856 5.15397 3.47012 5.99C3.69095 7.39386 4.37874 9.34754 5.64771 10.6216L5.66505 10.6388C6.9381 11.9069 8.89183 12.5947 10.2958 12.8156C10.4726 12.8435 10.643 12.8572 10.8063 12.8572C11.4151 12.8572 11.9251 12.6652 12.2996 12.2908C12.5738 12.0165 12.7641 11.672 12.8499 11.2945C12.8586 11.2556 12.8594 11.2154 12.8522 11.1761Z" fill="#F8F9FD"/>
</svg>
