<svg width="17" height="17" viewBox="0 0 17 17" fill="none" xmlns="http://www.w3.org/2000/svg">
<g clip-path="url(#clip0_432_2187)">
<path d="M8.50831 7.04452C9.31996 7.04156 9.9664 6.38956 9.96344 5.57617C9.96048 4.76243 9.31266 4.11495 8.50066 4.11426C7.68188 4.11339 7.02796 4.77287 7.03422 5.59391C7.04031 6.40435 7.69405 7.04748 8.50831 7.04452Z" fill="#594739"/>
<path d="M8.5 0C3.80557 0 0 3.80574 0 8.5C0 13.1943 3.80557 17 8.5 17C13.1944 17 17 13.1943 17 8.5C17 3.80574 13.1944 0 8.5 0ZM8.51217 2.58487C10.1678 2.58939 11.4967 3.94365 11.4882 5.61757C11.4798 7.25287 10.1292 8.57826 8.47635 8.5727C6.84035 8.56713 5.49861 7.21078 5.50835 5.57217C5.51757 3.91565 6.86 2.58035 8.51217 2.58487ZM11.8656 9.74904C11.4995 10.1249 11.0588 10.3969 10.5694 10.5866C10.1068 10.7659 9.59983 10.8562 9.09791 10.9163C9.17391 10.9988 9.20957 11.0393 9.25687 11.0866C9.93791 11.7713 10.6223 12.4525 11.301 13.1391C11.5323 13.3732 11.5805 13.6633 11.4532 13.9351C11.3143 14.2325 11.0024 14.428 10.6965 14.407C10.5028 14.3936 10.3517 14.2974 10.2176 14.1623C9.70348 13.645 9.17965 13.137 8.67635 12.6101C8.52939 12.4567 8.45913 12.4859 8.32957 12.6191C7.81252 13.1517 7.28696 13.6757 6.75843 14.1969C6.52104 14.431 6.23861 14.4734 5.96313 14.3395C5.67043 14.1979 5.48435 13.899 5.49861 13.5983C5.5087 13.3955 5.60852 13.24 5.748 13.1012C6.42226 12.4283 7.09444 11.7534 7.76678 11.079C7.81148 11.0343 7.85287 10.9868 7.91774 10.9172C7.0007 10.8214 6.17374 10.5957 5.46574 10.0421C5.37774 9.97322 5.28713 9.90678 5.20713 9.82957C4.89704 9.532 4.86591 9.19096 5.11096 8.84C5.32087 8.53948 5.67287 8.45913 6.03896 8.63183C6.10991 8.66504 6.17739 8.70713 6.24209 8.75165C7.56139 9.65826 9.37391 9.68313 10.6984 8.79217C10.8296 8.692 10.9699 8.60956 11.1325 8.568C11.4483 8.48661 11.7433 8.60296 11.9127 8.87948C12.1066 9.19548 12.1043 9.50365 11.8656 9.74904Z" fill="#594739"/>
</g>
<defs>
<clipPath id="clip0_432_2187">
<rect width="17" height="17" fill="white"/>
</clipPath>
</defs>
</svg>
