<svg width="17" height="17" viewBox="0 0 17 17" fill="none" xmlns="http://www.w3.org/2000/svg">
<path d="M8.5 0C3.80574 0 0 3.80557 0 8.5C0 13.1944 3.80574 17 8.5 17C13.1943 17 17 13.1944 17 8.5C17 3.80557 13.1943 0 8.5 0ZM12.8117 9.4193C13.2078 9.80626 13.627 10.1704 13.9826 10.5974C14.1402 10.7863 14.2887 10.9816 14.4017 11.2012C14.5631 11.5144 14.4174 11.8579 14.137 11.8765L12.3957 11.8762C11.9459 11.9134 11.588 11.732 11.2863 11.4245C11.0454 11.1795 10.8219 10.9177 10.5899 10.6643C10.4951 10.5603 10.3953 10.4624 10.2763 10.3854C10.039 10.231 9.8327 10.2783 9.6967 10.5263C9.55809 10.7786 9.52643 11.0583 9.51322 11.3391C9.49426 11.7497 9.37043 11.857 8.95844 11.8763C8.07809 11.9176 7.24278 11.784 6.46643 11.3402C5.78157 10.9487 5.25148 10.3962 4.78957 9.77061C3.89009 8.55113 3.20122 7.2127 2.58226 5.83583C2.44296 5.52574 2.54487 5.35983 2.88696 5.35339C3.4553 5.34243 4.02365 5.34383 4.592 5.35287C4.8233 5.35652 4.97635 5.48887 5.06522 5.70713C5.37235 6.46278 5.74887 7.18174 6.2207 7.84852C6.34644 8.02609 6.47478 8.20313 6.65757 8.32852C6.8593 8.46696 7.01304 8.42122 7.10817 8.196C7.16904 8.05287 7.1953 7.89983 7.20852 7.74643C7.25374 7.22104 7.25913 6.69583 7.18087 6.17252C7.13217 5.84504 6.948 5.63356 6.62157 5.57165C6.4553 5.54017 6.47965 5.47861 6.56052 5.38365C6.70087 5.21948 6.83235 5.11791 7.09513 5.11791L9.06261 5.11757C9.3727 5.17843 9.44226 5.31757 9.48435 5.62991L9.48609 7.81635C9.48243 7.93722 9.54678 8.29548 9.76383 8.37461C9.93774 8.432 10.0525 8.29252 10.1565 8.18244C10.6283 7.68174 10.9645 7.09078 11.2656 6.47913C11.3984 6.20939 11.513 5.93026 11.6243 5.65061C11.7071 5.44383 11.8358 5.34209 12.0692 5.34557L13.9638 5.34783C14.0197 5.34783 14.0763 5.34835 14.1317 5.35791C14.451 5.41252 14.5384 5.54991 14.4397 5.86139C14.2842 6.35078 13.9821 6.75843 13.6868 7.16713C13.3703 7.6047 13.0327 8.02696 12.7193 8.46643C12.4313 8.86817 12.4541 9.07043 12.8117 9.4193Z" fill="#594739"/>
</svg>
