<svg width="19" height="21" viewBox="0 0 19 21" fill="none" xmlns="http://www.w3.org/2000/svg">
<path d="M11.6111 0H7.38891C3.31461 0 0 3.29757 0 7.35093V10.5013C0 13.347 1.64968 15.9295 4.22223 17.1443V20.6526C4.22223 20.9572 4.60527 21.1165 4.82287 20.9001L7.88644 17.8523H11.6111C15.6854 17.8523 19 14.5547 19 10.5013V7.35093C19 3.29757 15.6854 0 11.6111 0Z" fill="white"/>
<path d="M10.2266 6.67563C10.0316 6.67563 9.8734 6.83379 9.8734 7.02887C9.8734 7.22395 10.0316 7.3821 10.2266 7.3821C11.0058 7.3821 11.6397 8.01597 11.6397 8.79513C11.6397 8.9876 11.8004 9.14836 11.9929 9.14836C12.1854 9.14836 12.3461 8.9876 12.3461 8.79513C12.3462 7.6264 11.3954 6.67563 10.2266 6.67563Z" fill="#594739"/>
<path d="M10.2266 5.26262C10.096 5.26262 9.9641 5.26986 9.83462 5.28414C9.64071 5.30554 9.50084 5.48009 9.52224 5.67405C9.54364 5.86801 9.71856 6.0075 9.91215 5.98644C10.016 5.97497 10.1218 5.96913 10.2266 5.96913C11.7849 5.96913 13.0527 7.23687 13.0527 8.79514C13.0527 8.90007 13.0468 9.00587 13.0354 9.10968C13.0142 9.30095 13.1564 9.47852 13.3477 9.49959C13.539 9.52065 13.7165 9.37856 13.7376 9.1872C13.7519 9.05773 13.7592 8.92586 13.7592 8.79514C13.7592 6.84734 12.1745 5.26262 10.2266 5.26262Z" fill="#594739"/>
<path d="M10.2266 3.84961C10.1004 3.84961 9.97255 3.85441 9.84672 3.86397C9.65218 3.87871 9.50639 4.04841 9.52113 4.24291C9.53582 4.43745 9.70611 4.58323 9.90007 4.5685C10.0082 4.56026 10.1181 4.55612 10.2266 4.55612C12.5641 4.55612 14.4657 6.45773 14.4657 8.79516C14.4657 9.12588 14.4275 9.45511 14.3523 9.77366C14.3091 9.95619 14.4215 10.1459 14.6025 10.1955C14.793 10.2477 14.9945 10.1283 15.0398 9.93616C15.1277 9.56442 15.1722 9.18056 15.1722 8.79516C15.1722 6.06816 12.9536 3.84961 10.2266 3.84961Z" fill="#594739"/>
<path d="M14.9943 13.039L14.6863 11.3706C14.6608 11.2328 14.5541 11.1244 14.4167 11.0969L11.9945 10.6125C11.882 10.5901 11.7661 10.6252 11.685 10.7061L10.701 11.6902C9.04302 10.9473 8.12283 10.0251 7.31319 8.296L8.29406 7.31518C8.37501 7.23418 8.41017 7.11802 8.38774 7.00572L7.90332 4.58353C7.87583 4.44614 7.76742 4.3393 7.62959 4.31385L5.96125 4.00592C5.91557 3.99753 5.86853 3.99842 5.82318 4.00873C5.38267 4.10879 4.98074 4.33075 4.6608 4.65076C4.10683 5.20473 3.89511 6.01309 4.04859 6.98846C4.30623 8.62629 5.10866 10.9056 6.58911 12.392L6.60934 12.4121C8.09458 13.8915 10.3739 14.694 12.0118 14.9516C12.2182 14.9841 12.4169 15.0002 12.6075 15.0002C13.3177 15.0002 13.9127 14.7762 14.3496 14.3394C14.6696 14.0194 14.8916 13.6175 14.9916 13.1771C15.0018 13.1317 15.0027 13.0847 14.9943 13.039Z" fill="#594739"/>
</svg>
