<svg width="17" height="17" viewBox="0 0 17 17" fill="none" xmlns="http://www.w3.org/2000/svg">
<path fill-rule="evenodd" clip-rule="evenodd" d="M12.5669 10.1623C12.3587 10.0491 11.33 9.49895 11.1379 9.4215C10.9457 9.34404 10.8036 9.30432 10.6535 9.50888C10.5034 9.71542 10.0771 10.1762 9.94902 10.3112C9.81893 10.4482 9.69484 10.4602 9.4847 10.347C9.27655 10.2338 8.59807 9.98353 7.81151 9.23481C7.19908 8.65093 6.7988 7.94393 6.68272 7.72745C6.56663 7.51098 6.68272 7.40175 6.79279 7.30047C6.89287 7.20911 7.01495 7.06016 7.12703 6.941C7.23711 6.82185 7.27714 6.73446 7.35319 6.59743C7.42924 6.45841 7.39922 6.33528 7.34919 6.22605C7.29915 6.11881 6.91288 5.06227 6.75277 4.63329C6.59065 4.20432 6.41052 4.26787 6.28644 4.26192C6.16235 4.25794 6.02025 4.23411 5.87815 4.23014C5.73605 4.22418 5.50188 4.26986 5.29974 4.47243C5.0956 4.67699 4.5272 5.16752 4.48717 6.20818C4.44714 7.24883 5.17365 8.28154 5.27372 8.42652C5.37579 8.5715 6.6587 10.8256 8.79221 11.753C10.9257 12.6805 10.9377 12.3985 11.328 12.3766C11.7203 12.3568 12.6069 11.9119 12.805 11.4254C13.0012 10.9388 13.0172 10.5158 12.9672 10.4244C12.9151 10.335 12.775 10.2755 12.5669 10.1623ZM8.65411 0C4.04486 0 0.308218 3.70783 0.308218 8.28154C0.308218 9.8465 0.746527 11.3102 1.50506 12.5574L0 17L4.62126 15.5324C5.81811 16.1877 7.19108 16.5631 8.65411 16.5631C13.2634 16.5631 17 12.8553 17 8.28154C17 3.70783 13.2634 0 8.65411 0Z" fill="#4B535E"/>
</svg>
