<svg width="20" height="20" viewBox="0 0 20 20" fill="none" xmlns="http://www.w3.org/2000/svg">
<path fill-rule="evenodd" clip-rule="evenodd" d="M14.7846 11.9556C14.5397 11.8224 13.3294 11.1752 13.1034 11.0841C12.8773 10.993 12.7101 10.9463 12.5336 11.1869C12.357 11.4299 11.8554 11.972 11.7047 12.1308C11.5517 12.2921 11.4057 12.3061 11.1585 12.1729C10.9136 12.0397 10.1154 11.7453 9.19002 10.8645C8.46951 10.1776 7.99859 9.34579 7.86202 9.09112C7.72545 8.83645 7.86202 8.70794 7.99152 8.58878C8.10925 8.48131 8.25288 8.30608 8.38474 8.16589C8.51425 8.0257 8.56134 7.9229 8.65081 7.76168C8.74029 7.59813 8.70497 7.45327 8.6461 7.32477C8.58724 7.1986 8.1328 5.95561 7.94443 5.45093C7.75371 4.94626 7.54179 5.02103 7.39581 5.01402C7.24982 5.00935 7.08265 4.98131 6.91547 4.97664C6.74829 4.96963 6.4728 5.02336 6.23499 5.26168C5.99482 5.50234 5.32611 6.07944 5.27902 7.30374C5.23193 8.52804 6.08665 9.74299 6.20438 9.91355C6.32446 10.0841 7.83377 12.736 10.3438 13.8271C12.8538 14.9182 12.8679 14.5864 13.3271 14.5607C13.7886 14.5374 14.8316 14.014 15.0648 13.4416C15.2955 12.8692 15.3143 12.3715 15.2555 12.264C15.1943 12.1589 15.0294 12.0888 14.7846 11.9556ZM10.1813 0C4.75865 0 0.362609 4.36215 0.362609 9.74299C0.362609 11.5841 0.878267 13.3061 1.77066 14.7734L0 20L5.43678 18.2734C6.84483 19.0444 8.46009 19.486 10.1813 19.486C15.604 19.486 20 15.1238 20 9.74299C20 4.36215 15.604 0 10.1813 0Z" fill="#4B535E"/>
</svg>
