<svg width="12" height="12" viewBox="0 0 12 12" fill="none" xmlns="http://www.w3.org/2000/svg">
<path d="M6.22664 3.67563C6.03156 3.67563 5.8734 3.83379 5.8734 4.02887C5.8734 4.22395 6.03156 4.3821 6.22664 4.3821C7.00579 4.3821 7.63966 5.01597 7.63966 5.79513C7.63966 5.9876 7.80043 6.14836 7.9929 6.14836C8.18537 6.14836 8.34613 5.9876 8.34613 5.79513C8.34617 4.6264 7.39537 3.67563 6.22664 3.67563Z" fill="#594739"/>
<path d="M6.22664 2.26262C6.09597 2.26262 5.9641 2.26986 5.83462 2.28414C5.64071 2.30554 5.50084 2.48009 5.52224 2.67405C5.54364 2.86801 5.71856 3.0075 5.91215 2.98644C6.01596 2.97497 6.12176 2.96913 6.22664 2.96913C7.78491 2.96913 9.05266 4.23687 9.05266 5.79514C9.05266 5.90007 9.04682 6.00587 9.03535 6.10968C9.01424 6.30095 9.15638 6.47852 9.34774 6.49959C9.53905 6.52065 9.71649 6.37856 9.73764 6.1872C9.75192 6.05773 9.75917 5.92586 9.75917 5.79514C9.75917 3.84734 8.17449 2.26262 6.22664 2.26262Z" fill="#594739"/>
<path d="M6.22665 0.849609C6.1004 0.849609 5.97255 0.854411 5.84672 0.863972C5.65218 0.878708 5.50639 1.04841 5.52113 1.24291C5.53582 1.43745 5.70611 1.58323 5.90007 1.5685C6.00822 1.56026 6.11812 1.55612 6.22665 1.55612C8.56407 1.55612 10.4657 3.45773 10.4657 5.79516C10.4657 6.12588 10.4275 6.45511 10.3523 6.77366C10.3091 6.95619 10.4215 7.14593 10.6025 7.19552C10.793 7.24767 10.9945 7.12826 11.0398 6.93616C11.1277 6.56442 11.1722 6.18056 11.1722 5.79516C11.1722 3.06816 8.95365 0.849609 6.22665 0.849609Z" fill="#594739"/>
<path d="M10.9943 10.039L10.6863 8.37062C10.6608 8.23279 10.5541 8.12438 10.4167 8.09688L7.9945 7.61247C7.88199 7.59007 7.76608 7.62519 7.68504 7.70615L6.701 8.69023C5.04302 7.94733 4.12283 7.02515 3.31319 5.296L4.29406 4.31518C4.37501 4.23418 4.41017 4.11802 4.38774 4.00572L3.90332 1.58353C3.87583 1.44614 3.76742 1.3393 3.62959 1.31385L1.96125 1.00592C1.91557 0.997533 1.86853 0.998416 1.82318 1.00873C1.38267 1.10879 0.980738 1.33075 0.660805 1.65076C0.106832 2.20473 -0.104891 3.01309 0.0485934 3.98846C0.306234 5.62629 1.10866 7.90559 2.58911 9.39198L2.60934 9.41205C4.09458 10.8915 6.37392 11.694 8.01184 11.9516C8.21818 11.9841 8.4169 12.0002 8.60747 12.0002C9.3177 12.0002 9.91273 11.7762 10.3496 11.3394C10.6696 11.0194 10.8916 10.6175 10.9916 10.1771C11.0018 10.1317 11.0027 10.0847 10.9943 10.039Z" fill="#594739"/>
</svg>
