<svg width="17" height="17" viewBox="0 0 17 17" fill="none" xmlns="http://www.w3.org/2000/svg">
<g clip-path="url(#clip0_432_2182)">
<path d="M8.5 17C13.1944 17 17 13.1944 17 8.5C17 3.80558 13.1944 0 8.5 0C3.80558 0 0 3.80558 0 8.5C0 13.1944 3.80558 17 8.5 17Z" fill="#594739"/>
<path d="M10.6371 8.8328H9.12037V14.3894H6.82241V8.8328H5.72949V6.88001H6.82241V5.61633C6.82241 4.71266 7.25167 3.29761 9.14082 3.29761L10.843 3.30473V5.20025H9.60796C9.40538 5.20025 9.12052 5.30147 9.12052 5.73254V6.88183H10.8379L10.6371 8.8328Z" fill="white"/>
</g>
<defs>
<clipPath id="clip0_432_2182">
<rect width="17" height="17" fill="white"/>
</clipPath>
</defs>
</svg>
