<svg width="19" height="21" viewBox="0 0 19 21" fill="none" xmlns="http://www.w3.org/2000/svg">
<path d="M11.6111 0H7.38891C3.31461 0 0 3.29757 0 7.35093V10.5013C0 13.347 1.64968 15.9295 4.22223 17.1443V20.6526C4.22223 20.9572 4.60527 21.1165 4.82287 20.9001L7.88644 17.8523H11.6111C15.6854 17.8523 19 14.5547 19 10.5013V7.35093C19 3.29757 15.6854 0 11.6111 0Z" fill="#4B535E"/>
<path d="M10.2266 6.67539C10.0316 6.67539 9.8734 6.83354 9.8734 7.02862C9.8734 7.2237 10.0316 7.38186 10.2266 7.38186C11.0058 7.38186 11.6397 8.01573 11.6397 8.79488C11.6397 8.98735 11.8004 9.14812 11.9929 9.14812C12.1854 9.14812 12.3461 8.98735 12.3461 8.79488C12.3462 7.62615 11.3954 6.67539 10.2266 6.67539Z" fill="#F8F9FD"/>
<path d="M10.2266 5.26238C10.096 5.26238 9.9641 5.26962 9.83462 5.2839C9.64071 5.3053 9.50084 5.47985 9.52224 5.67381C9.54364 5.86777 9.71856 6.00726 9.91215 5.98619C10.016 5.97473 10.1218 5.96889 10.2266 5.96889C11.7849 5.96889 13.0527 7.23663 13.0527 8.7949C13.0527 8.89983 13.0468 9.00562 13.0354 9.10943C13.0142 9.3007 13.1564 9.47827 13.3477 9.49934C13.539 9.52041 13.7165 9.37831 13.7376 9.18696C13.7519 9.05749 13.7592 8.92561 13.7592 8.7949C13.7592 6.84709 12.1745 5.26238 10.2266 5.26238Z" fill="#F8F9FD"/>
<path d="M10.2266 3.84937C10.1004 3.84937 9.97255 3.85417 9.84672 3.86373C9.65218 3.87846 9.50639 4.04817 9.52113 4.24267C9.53582 4.43721 9.70611 4.58299 9.90007 4.56825C10.0082 4.56002 10.1181 4.55588 10.2266 4.55588C12.5641 4.55588 14.4657 6.45749 14.4657 8.79491C14.4657 9.12563 14.4275 9.45486 14.3523 9.77341C14.3091 9.95595 14.4215 10.1457 14.6025 10.1953C14.793 10.2474 14.9945 10.128 15.0398 9.93591C15.1277 9.56418 15.1722 9.18031 15.1722 8.79491C15.1722 6.06791 12.9536 3.84937 10.2266 3.84937Z" fill="#F8F9FD"/>
<path d="M14.9943 13.0387L14.6863 11.3704C14.6608 11.2325 14.5541 11.1241 14.4167 11.0966L11.9945 10.6122C11.882 10.5898 11.7661 10.6249 11.685 10.7059L10.701 11.69C9.04302 10.9471 8.12283 10.0249 7.31319 8.29576L8.29406 7.31493C8.37501 7.23394 8.41017 7.11778 8.38774 7.00548L7.90332 4.58329C7.87583 4.4459 7.76742 4.33906 7.62959 4.31361L5.96125 4.00568C5.91557 3.99729 5.86853 3.99817 5.82318 4.00849C5.38267 4.10855 4.98074 4.33051 4.6608 4.65052C4.10683 5.20449 3.89511 6.01285 4.04859 6.98822C4.30623 8.62605 5.10866 10.9053 6.58911 12.3917L6.60934 12.4118C8.09458 13.8912 10.3739 14.6937 12.0118 14.9514C12.2182 14.9839 12.4169 15 12.6075 15C13.3177 15 13.9127 14.776 14.3496 14.3391C14.6696 14.0192 14.8916 13.6172 14.9916 13.1768C15.0018 13.1314 15.0027 13.0845 14.9943 13.0387Z" fill="#F8F9FD"/>
</svg>
