<svg width="17" height="17" viewBox="0 0 17 17" fill="none" xmlns="http://www.w3.org/2000/svg">
<path d="M10.127 8.5C10.127 9.39856 9.39856 10.127 8.5 10.127C7.60144 10.127 6.87305 9.39856 6.87305 8.5C6.87305 7.60144 7.60144 6.87305 8.5 6.87305C9.39856 6.87305 10.127 7.60144 10.127 8.5Z" fill="#594739"/>
<path d="M12.3051 5.62138C12.2268 5.40945 12.1021 5.21762 11.94 5.06017C11.7825 4.89804 11.5908 4.77327 11.3787 4.69506C11.2068 4.62827 10.9484 4.54876 10.4725 4.5271C9.95775 4.50363 9.80341 4.49857 8.50019 4.49857C7.19684 4.49857 7.04249 4.5035 6.52784 4.52697C6.05198 4.54876 5.79349 4.62827 5.62163 4.69506C5.40957 4.77327 5.21775 4.89804 5.06042 5.06017C4.8983 5.21762 4.77353 5.40932 4.69519 5.62138C4.62839 5.79336 4.54889 6.05185 4.52723 6.52772C4.50375 7.04237 4.49869 7.19671 4.49869 8.50006C4.49869 9.80329 4.50375 9.95763 4.52723 10.4724C4.54889 10.9483 4.62839 11.2066 4.69519 11.3786C4.77353 11.5907 4.89817 11.7824 5.06029 11.9398C5.21775 12.102 5.40944 12.2267 5.6215 12.3049C5.79349 12.3719 6.05198 12.4514 6.52784 12.473C7.04249 12.4965 7.19671 12.5014 8.50006 12.5014C9.80354 12.5014 9.95788 12.4965 10.4724 12.473C10.9483 12.4514 11.2068 12.3719 11.3787 12.3049C11.8044 12.1407 12.1409 11.8043 12.3051 11.3786C12.3719 11.2066 12.4514 10.9483 12.4731 10.4724C12.4966 9.95763 12.5016 9.80329 12.5016 8.50006C12.5016 7.19671 12.4966 7.04237 12.4731 6.52772C12.4515 6.05185 12.372 5.79336 12.3051 5.62138ZM8.50019 11.0063C7.1159 11.0063 5.99374 9.88422 5.99374 8.49993C5.99374 7.11565 7.1159 5.99362 8.50019 5.99362C9.88434 5.99362 11.0065 7.11565 11.0065 8.49993C11.0065 9.88422 9.88434 11.0063 8.50019 11.0063ZM11.1056 6.48025C10.7821 6.48025 10.5199 6.218 10.5199 5.89453C10.5199 5.57106 10.7821 5.3088 11.1056 5.3088C11.4291 5.3088 11.6913 5.57106 11.6913 5.89453C11.6912 6.218 11.4291 6.48025 11.1056 6.48025Z" fill="#594739"/>
<path d="M8.5 0C3.8063 0 0 3.8063 0 8.5C0 13.1937 3.8063 17 8.5 17C13.1937 17 17 13.1937 17 8.5C17 3.8063 13.1937 0 8.5 0ZM13.3514 10.5123C13.3278 11.0319 13.2452 11.3866 13.1246 11.6971C12.871 12.3527 12.3527 12.871 11.6971 13.1246C11.3867 13.2452 11.0319 13.3277 10.5124 13.3514C9.99194 13.3752 9.82566 13.3809 8.50013 13.3809C7.17447 13.3809 7.00832 13.3752 6.48771 13.3514C5.96826 13.3277 5.6134 13.2452 5.30303 13.1246C4.97723 13.002 4.68229 12.8099 4.43845 12.5615C4.19021 12.3178 3.99812 12.0228 3.87556 11.6971C3.75494 11.3867 3.67232 11.0319 3.64871 10.5124C3.62472 9.99181 3.61914 9.82553 3.61914 8.5C3.61914 7.17447 3.62472 7.00819 3.64858 6.48771C3.67219 5.96813 3.75468 5.6134 3.8753 5.3029C3.99786 4.97723 4.19008 4.68216 4.43845 4.43845C4.68216 4.19008 4.97723 3.99799 5.3029 3.87543C5.6134 3.75481 5.96813 3.67232 6.48771 3.64858C7.00819 3.62485 7.17447 3.61914 8.5 3.61914C9.82553 3.61914 9.99181 3.62485 10.5123 3.64871C11.0319 3.67232 11.3866 3.75481 11.6971 3.8753C12.0228 3.99786 12.3178 4.19008 12.5617 4.43845C12.8099 4.68229 13.0021 4.97723 13.1246 5.3029C13.2453 5.6134 13.3278 5.96813 13.3515 6.48771C13.3753 7.00819 13.3809 7.17447 13.3809 8.5C13.3809 9.82553 13.3753 9.99181 13.3514 10.5123Z" fill="#594739"/>
</svg>
