<svg width="14" height="14" viewBox="0 0 14 14" fill="none" xmlns="http://www.w3.org/2000/svg">
<g clip-path="url(#clip0_2406_374)">
<path d="M0.253252 5.36977C0.343792 5.08629 0.590757 4.88559 0.881787 4.85878L4.85129 4.49188L6.42006 0.752556C6.53588 0.477832 6.79942 0.300522 7.09276 0.300522C7.3861 0.300522 7.64974 0.477832 7.76483 0.752556L9.3336 4.49188L13.3037 4.85878C13.5948 4.88612 13.8412 5.08683 13.9323 5.36977C14.0228 5.65326 13.9392 5.96419 13.7191 6.16073L10.7185 8.8395L11.6032 12.8068C11.6679 13.0985 11.5567 13.4001 11.319 13.5751C11.1912 13.6696 11.0411 13.7168 10.8904 13.7168C10.7609 13.7168 10.6314 13.6818 10.5157 13.6113L7.09276 11.5276L3.67049 13.6113C3.41943 13.764 3.10375 13.75 2.86654 13.5751C2.6288 13.4001 2.5176 13.0985 2.58233 12.8068L3.46706 8.8395L0.466435 6.16073C0.246432 5.96419 0.162711 5.6539 0.253252 5.36977Z" fill="#F1C564"/>
</g>
<defs>
<clipPath id="clip0_2406_374">
<rect width="13.751" height="14" fill="white" transform="matrix(-1 0 0 1 13.9683 0)"/>
</clipPath>
</defs>
</svg>
