<svg width="13" height="13" viewBox="0 0 13 13" fill="none" xmlns="http://www.w3.org/2000/svg">
<path d="M8.81603 7.64794L7.00347 6.28852V3.51937C7.00347 3.24094 6.77841 3.01587 6.49997 3.01587C6.22154 3.01587 5.99648 3.24094 5.99648 3.51937V6.5403C5.99648 6.69888 6.071 6.84844 6.19788 6.94309L8.21181 8.45356C8.30243 8.52153 8.40818 8.55425 8.5134 8.55425C8.66696 8.55425 8.81801 8.48527 8.91671 8.35235C9.0839 8.13028 9.03858 7.8146 8.81603 7.64794Z" fill="white"/>
<path d="M6.5 0C2.91568 0 0 2.91568 0 6.5C0 10.0843 2.91568 13 6.5 13C10.0843 13 13 10.0843 13 6.5C13 2.91568 10.0843 0 6.5 0ZM6.5 11.993C3.47153 11.993 1.00697 9.52847 1.00697 6.5C1.00697 3.47153 3.47153 1.00697 6.5 1.00697C9.52897 1.00697 11.993 3.47153 11.993 6.5C11.993 9.52847 9.52847 11.993 6.5 11.993Z" fill="white"/>
</svg>
