<svg width="33" height="33" viewBox="0 0 33 33" fill="none" xmlns="http://www.w3.org/2000/svg">
<path d="M30.0996 17.4668H31.0664V18.4336H30.0996V17.4668Z" fill="#7B6858"/>
<path d="M26.8 6.2C24.0487 3.44876 20.3908 1.93359 16.5 1.93359V2.90039C23.9989 2.90039 30.0996 9.00114 30.0996 16.5H31.0664C31.0664 12.6092 29.5512 8.95125 26.8 6.2Z" fill="#7B6858"/>
<path d="M4.83398 16.7494V16.5C4.83398 10.0673 10.0673 4.83398 16.5 4.83398C22.9327 4.83398 28.166 10.0673 28.166 16.5C28.166 19.4425 27.0666 22.2531 25.0703 24.4139L25.7804 25.07C27.9422 22.73 29.1328 19.6864 29.1328 16.5C29.1328 9.53429 23.4658 3.86719 16.5 3.86719C9.61802 3.86719 4.0037 9.3983 3.86964 16.2489L2.41699 17.282L0.96873 16.252C1.02977 12.3693 2.52347 8.68532 5.19041 5.85344L4.48665 5.1906C1.59341 8.26263 0 12.2791 0 16.5V16.7494L2.41699 18.4683L4.83398 16.7494Z" fill="#7B6858"/>
<path d="M28.1672 4.8327C25.0508 1.71632 20.9073 0 16.5 0C12.2793 0 8.26289 1.59341 5.1906 4.48665L5.85344 5.19047C8.74558 2.46675 12.5267 0.966797 16.5 0.966797C25.065 0.966797 32.0332 7.93495 32.0332 16.5C32.0332 24.7435 25.5785 31.5078 17.4577 32.004L18.4683 30.583L17.4137 29.1001C20.2649 28.8952 22.9549 27.7346 25.0699 25.7804L24.4139 25.0703C22.2533 27.0666 19.4427 28.166 16.5 28.166H15.563L17.2819 30.583L15.563 33H16.5C20.9073 33 25.0508 31.2837 28.1672 28.1673C31.2837 25.0508 33 20.9073 33 16.5C33 12.0927 31.2837 7.9492 28.1672 4.8327Z" fill="#7B6858"/>
<path d="M18.4336 16.5C18.4336 16.1419 18.3354 15.8065 18.165 15.5186L22.4801 11.2035L21.7965 10.5198L17.4814 14.8349C17.1935 14.6646 16.8581 14.5664 16.5 14.5664C16.1419 14.5664 15.8065 14.6646 15.5186 14.8349L13.0189 12.3352L12.3353 13.0189L14.835 15.5186C14.6646 15.8065 14.5664 16.1419 14.5664 16.5C14.5664 17.5662 15.4338 18.4336 16.5 18.4336C17.5662 18.4336 18.4336 17.5662 18.4336 16.5ZM15.5332 16.5C15.5332 15.9669 15.9669 15.5332 16.5 15.5332C17.0331 15.5332 17.4668 15.9669 17.4668 16.5C17.4668 17.0331 17.0331 17.4668 16.5 17.4668C15.9669 17.4668 15.5332 17.0331 15.5332 16.5Z" fill="#7B6858"/>
<path d="M26.2324 16.0166H27.1992V16.9834H26.2324V16.0166Z" fill="#7B6858"/>
<path d="M23.0362 9.27675L23.7197 8.59327L24.4032 9.27679L23.7197 9.96027L23.0362 9.27675Z" fill="#7B6858"/>
<path d="M8.59082 9.27633L9.27434 8.59281L9.95782 9.27629L9.2743 9.95981L8.59082 9.27633Z" fill="#7B6858"/>
<path d="M5.80078 16.0166H6.76758V16.9834H5.80078V16.0166Z" fill="#7B6858"/>
<path d="M16.0166 26.2324H16.9834V27.1992H16.0166V26.2324Z" fill="#7B6858"/>
<path d="M23.0352 23.7253L23.7187 23.0417L24.4022 23.7252L23.7186 24.4087L23.0352 23.7253Z" fill="#7B6858"/>
<path d="M16.0166 5.80078H16.9834V6.76758H16.0166V5.80078Z" fill="#7B6858"/>
</svg>
